<?xml version="1.0" encoding="utf-8"?>
<!-- Generator: Adobe Illustrator 16.0.0, SVG Export Plug-In . SVG Version: 6.00 Build 0)  -->
<!DOCTYPE svg PUBLIC "-//W3C//DTD SVG 1.1 Tiny//EN" "http://www.w3.org/Graphics/SVG/1.1/DTD/svg11-tiny.dtd">
<svg version="1.1" baseProfile="tiny" id="Layer_1" xmlns="http://www.w3.org/2000/svg" xmlns:xlink="http://www.w3.org/1999/xlink"
	 x="0px" y="0px" width="200px" height="200px" viewBox="0 0 200 200" xml:space="preserve">
<g>
	<g>
		<circle fill-rule="evenodd" fill="#D81F26" cx="111.198" cy="77.821" r="6.377"/>
		<circle fill-rule="evenodd" fill="#D81F26" cx="102.479" cy="69.388" r="4.265"/>
		<circle fill-rule="evenodd" fill="#D81F26" cx="137.262" cy="104.831" r="10.606"/>
		<circle fill-rule="evenodd" fill="#D81F26" cx="122.96" cy="89.659" r="8.441"/>
	</g>
	<g>
		<circle fill-rule="evenodd" fill="#D81F26" cx="81.485" cy="77.951" r="6.377"/>
		<circle fill-rule="evenodd" fill="#D81F26" cx="90.075" cy="69.388" r="4.265"/>
		<circle fill-rule="evenodd" fill="#D81F26" cx="55.274" cy="104.831" r="10.606"/>
		<circle fill-rule="evenodd" fill="#D81F26" cx="69.794" cy="90.059" r="8.441"/>
	</g>
	<g>
		<circle fill-rule="evenodd" fill="#D81F26" cx="110.954" cy="48.443" r="6.376"/>
		<circle fill-rule="evenodd" fill="#D81F26" cx="102.427" cy="56.966" r="4.265"/>
		<circle fill-rule="evenodd" fill="#D81F26" cx="137.667" cy="22.13" r="10.605"/>
		<circle fill-rule="evenodd" fill="#D81F26" cx="122.864" cy="36.761" r="8.441"/>
	</g>
	<g>
		<circle fill-rule="evenodd" fill="#D81F26" cx="81.688" cy="48.251" r="6.376"/>
		<circle fill-rule="evenodd" fill="#D81F26" cx="90.005" cy="56.914" r="4.265"/>
		<circle fill-rule="evenodd" fill="#D81F26" cx="54.457" cy="22.202" r="10.606"/>
		<circle fill-rule="evenodd" fill="#D81F26" cx="69.479" cy="36.603" r="8.441"/>
	</g>
</g>
<g>
	<text transform="matrix(1 0 0 1 25.5278 159.1396)" fill="#092452" font-family="'SouvenirITCbyBT-Light'" font-size="58.6785">exaris</text>
</g>
<g>
	<text transform="matrix(1 0 0 1 61.2417 183.6797)" fill="#092452" font-family="'SouvenirITCbyBT-Light'" font-size="20.7149">aviation</text>
</g>
<g>
	<text transform="matrix(1 0 0 1 168.9902 159.8867)" fill="#092452" font-family="'ArialMT'" font-size="6.9492">Æ</text>
</g>
</svg>
