<?xml version="1.0" encoding="utf-8"?>
<!-- Generator: Adobe Illustrator 16.0.0, SVG Export Plug-In . SVG Version: 6.00 Build 0)  -->
<!DOCTYPE svg PUBLIC "-//W3C//DTD SVG 1.1 Tiny//EN" "http://www.w3.org/Graphics/SVG/1.1/DTD/svg11-tiny.dtd">
<svg version="1.1" baseProfile="tiny" id="Layer_1" xmlns="http://www.w3.org/2000/svg" xmlns:xlink="http://www.w3.org/1999/xlink"
	 x="0px" y="0px" width="50px" height="50px" viewBox="0 0 50 50" xml:space="preserve">
<g>
	<circle fill="#344FD1" cx="25.431" cy="24.32" r="23.089"/>
</g>
<g>
	<path fill="#FFFFFF" d="M25.431,37.854c-1.641,0-2.972-1.33-2.972-2.972V15.651c0-1.641,1.331-2.972,2.972-2.972
		c1.642,0,2.972,1.331,2.972,2.972v19.231C28.402,36.524,27.072,37.854,25.431,37.854z"/>
</g>
<g>
	<path fill="#FFFFFF" d="M35.047,28.239H15.815c-1.641,0-2.972-1.331-2.972-2.972c0-1.642,1.331-2.972,2.972-2.972h19.232
		c1.641,0,2.972,1.33,2.972,2.972C38.019,26.908,36.688,28.239,35.047,28.239z"/>
</g>
</svg>
