<?xml version="1.0" encoding="utf-8"?>
<!-- Generator: Adobe Illustrator 16.0.0, SVG Export Plug-In . SVG Version: 6.00 Build 0)  -->
<!DOCTYPE svg PUBLIC "-//W3C//DTD SVG 1.1 Tiny//EN" "http://www.w3.org/Graphics/SVG/1.1/DTD/svg11-tiny.dtd">
<svg version="1.1" baseProfile="tiny" id="Layer_1" xmlns="http://www.w3.org/2000/svg" xmlns:xlink="http://www.w3.org/1999/xlink"
	 x="0px" y="0px" width="200px" height="200px" viewBox="0 0 200 200" xml:space="preserve">
<g>
	<g>
		<circle fill-rule="evenodd" fill="#D81F26" cx="111.509" cy="77.617" r="6.376"/>
		<circle fill-rule="evenodd" fill="#D81F26" cx="102.79" cy="69.184" r="4.265"/>
		<circle fill-rule="evenodd" fill="#D81F26" cx="137.573" cy="104.627" r="10.606"/>
		<circle fill-rule="evenodd" fill="#D81F26" cx="123.271" cy="89.455" r="8.442"/>
	</g>
	<g>
		<circle fill-rule="evenodd" fill="#D81F26" cx="81.796" cy="77.746" r="6.376"/>
		<circle fill-rule="evenodd" fill="#D81F26" cx="90.386" cy="69.184" r="4.265"/>
		<circle fill-rule="evenodd" fill="#D81F26" cx="55.585" cy="104.627" r="10.606"/>
		<circle fill-rule="evenodd" fill="#D81F26" cx="70.105" cy="89.854" r="8.441"/>
	</g>
	<g>
		<circle fill-rule="evenodd" fill="#D81F26" cx="111.265" cy="48.239" r="6.377"/>
		<circle fill-rule="evenodd" fill="#D81F26" cx="102.739" cy="56.761" r="4.265"/>
		<circle fill-rule="evenodd" fill="#D81F26" cx="137.979" cy="21.925" r="10.606"/>
		<circle fill-rule="evenodd" fill="#D81F26" cx="123.175" cy="36.557" r="8.441"/>
	</g>
	<g>
		<circle fill-rule="evenodd" fill="#D81F26" cx="81.999" cy="48.046" r="6.377"/>
		<circle fill-rule="evenodd" fill="#D81F26" cx="90.316" cy="56.71" r="4.265"/>
		<circle fill-rule="evenodd" fill="#D81F26" cx="54.768" cy="21.998" r="10.606"/>
		<circle fill-rule="evenodd" fill="#D81F26" cx="69.79" cy="36.399" r="8.441"/>
	</g>
</g>
<g>
	<text transform="matrix(1 0 0 1 25.8389 158.9355)" fill="#092452" font-family="'SouvenirITCbyBT-Light'" font-size="58.6785">exaris</text>
</g>
<g>
	<text transform="matrix(1 0 0 1 52.1499 183.4766)" fill="#092452" font-family="'SouvenirITCbyBT-Light'" font-size="20.7149">consulting</text>
</g>
<g>
	<text transform="matrix(1 0 0 1 169.3008 159.6816)" fill="#092452" font-family="'ArialMT'" font-size="6.9492">Æ</text>
</g>
</svg>
