<?xml version="1.0" encoding="utf-8"?>
<!-- Generator: Adobe Illustrator 16.0.0, SVG Export Plug-In . SVG Version: 6.00 Build 0)  -->
<!DOCTYPE svg PUBLIC "-//W3C//DTD SVG 1.1 Tiny//EN" "http://www.w3.org/Graphics/SVG/1.1/DTD/svg11-tiny.dtd">
<svg version="1.1" baseProfile="tiny" id="Layer_1" xmlns="http://www.w3.org/2000/svg" xmlns:xlink="http://www.w3.org/1999/xlink"
	 x="0px" y="0px" width="200px" height="200px" viewBox="0 0 200 200" xml:space="preserve">
<g>
	<g>
		<circle fill-rule="evenodd" fill="#D81F26" cx="111.32" cy="77.267" r="6.377"/>
		<circle fill-rule="evenodd" fill="#D81F26" cx="102.601" cy="68.834" r="4.265"/>
		<circle fill-rule="evenodd" fill="#D81F26" cx="137.385" cy="104.277" r="10.606"/>
		<circle fill-rule="evenodd" fill="#D81F26" cx="123.083" cy="89.105" r="8.441"/>
	</g>
	<g>
		<circle fill-rule="evenodd" fill="#D81F26" cx="81.607" cy="77.396" r="6.377"/>
		<circle fill-rule="evenodd" fill="#D81F26" cx="90.197" cy="68.834" r="4.265"/>
		<circle fill-rule="evenodd" fill="#D81F26" cx="55.396" cy="104.277" r="10.606"/>
		<circle fill-rule="evenodd" fill="#D81F26" cx="69.916" cy="89.505" r="8.442"/>
	</g>
	<g>
		<circle fill-rule="evenodd" fill="#D81F26" cx="111.077" cy="47.889" r="6.377"/>
		<circle fill-rule="evenodd" fill="#D81F26" cx="102.55" cy="56.412" r="4.265"/>
		<circle fill-rule="evenodd" fill="#D81F26" cx="137.79" cy="21.575" r="10.606"/>
		<circle fill-rule="evenodd" fill="#D81F26" cx="122.986" cy="36.207" r="8.442"/>
	</g>
	<g>
		<circle fill-rule="evenodd" fill="#D81F26" cx="81.81" cy="47.697" r="6.377"/>
		<circle fill-rule="evenodd" fill="#D81F26" cx="90.127" cy="56.36" r="4.265"/>
		<circle fill-rule="evenodd" fill="#D81F26" cx="54.58" cy="21.648" r="10.605"/>
		<circle fill-rule="evenodd" fill="#D81F26" cx="69.601" cy="36.049" r="8.441"/>
	</g>
</g>
<g>
	<text transform="matrix(1 0 0 1 25.6504 158.5859)" fill="#092452" font-family="'SouvenirITCbyBT-Light'" font-size="58.6785">exaris</text>
</g>
<g>
	<text transform="matrix(1 0 0 1 66.708 183.127)" fill="#092452" font-family="'SouvenirITCbyBT-Light'" font-size="20.7149">energy</text>
</g>
<g>
	<text transform="matrix(1 0 0 1 169.1123 159.332)" fill="#092452" font-family="'ArialMT'" font-size="6.9492">Æ</text>
</g>
</svg>
