<?xml version="1.0" encoding="utf-8"?>
<!-- Generator: Adobe Illustrator 16.0.0, SVG Export Plug-In . SVG Version: 6.00 Build 0)  -->
<!DOCTYPE svg PUBLIC "-//W3C//DTD SVG 1.1 Tiny//EN" "http://www.w3.org/Graphics/SVG/1.1/DTD/svg11-tiny.dtd">
<svg version="1.1" baseProfile="tiny" id="Layer_1" xmlns="http://www.w3.org/2000/svg" xmlns:xlink="http://www.w3.org/1999/xlink"
	 x="0px" y="0px" width="50px" height="50px" viewBox="0 0 50 50" xml:space="preserve">
<rect x="7.078" y="2.356" fill="#1B48ED" width="36.672" height="45.287"/>
<polyline fill="#102470" points="28.922,2.356 43.75,2.356 43.75,17.185 "/>
<g>
	<path fill="#102470" d="M17.22,23.148c0.461-0.078,1.108-0.137,2.02-0.137c0.921,0,1.578,0.177,2.02,0.529
		c0.421,0.333,0.706,0.882,0.706,1.529s-0.215,1.196-0.608,1.569c-0.51,0.48-1.265,0.695-2.147,0.695
		c-0.196,0-0.373-0.009-0.51-0.028v2.362h-1.48V23.148z M18.7,26.148c0.127,0.029,0.284,0.039,0.5,0.039
		c0.794,0,1.284-0.402,1.284-1.079c0-0.607-0.421-0.97-1.167-0.97c-0.304,0-0.51,0.029-0.618,0.059V26.148z"/>
	<path fill="#102470" d="M22.915,23.148c0.549-0.088,1.265-0.137,2.02-0.137c1.254,0,2.068,0.226,2.706,0.706
		c0.687,0.51,1.118,1.324,1.118,2.49c0,1.265-0.461,2.138-1.098,2.677c-0.697,0.578-1.755,0.853-3.049,0.853
		c-0.774,0-1.324-0.049-1.696-0.098V23.148z M24.415,28.541c0.127,0.028,0.333,0.028,0.52,0.028
		c1.353,0.011,2.235-0.734,2.235-2.313c0.011-1.372-0.794-2.098-2.078-2.098c-0.333,0-0.549,0.029-0.676,0.059V28.541z"/>
	<path fill="#102470" d="M29.737,23.061h4.039v1.225h-2.54v1.51h2.373v1.215h-2.373v2.657h-1.499V23.061z"/>
</g>
</svg>
