<?xml version="1.0" encoding="utf-8"?>
<!-- Generator: Adobe Illustrator 16.0.0, SVG Export Plug-In . SVG Version: 6.00 Build 0)  -->
<!DOCTYPE svg PUBLIC "-//W3C//DTD SVG 1.1//EN" "http://www.w3.org/Graphics/SVG/1.1/DTD/svg11.dtd">
<svg version="1.1" id="Capa_1" xmlns="http://www.w3.org/2000/svg" xmlns:xlink="http://www.w3.org/1999/xlink" x="0px" y="0px"
	 width="100px" height="72.025px" viewBox="0 0 100 72.025" enable-background="new 0 0 100 72.025" xml:space="preserve">
<g>
	<g>
		<circle fill-rule="evenodd" clip-rule="evenodd" fill="#D81F26" cx="56.88" cy="29.245" r="2.487"/>
		<circle fill-rule="evenodd" clip-rule="evenodd" fill="#D81F26" cx="53.479" cy="25.956" r="1.663"/>
		<circle fill-rule="evenodd" clip-rule="evenodd" fill="#D81F26" cx="67.044" cy="39.779" r="4.135"/>
		<circle fill-rule="evenodd" clip-rule="evenodd" fill="#D81F26" cx="61.467" cy="33.861" r="3.292"/>
	</g>
	<g>
		<circle fill-rule="evenodd" clip-rule="evenodd" fill="#D81F26" cx="45.293" cy="29.296" r="2.487"/>
		<circle fill-rule="evenodd" clip-rule="evenodd" fill="#D81F26" cx="48.643" cy="25.956" r="1.663"/>
		<circle fill-rule="evenodd" clip-rule="evenodd" fill="#D81F26" cx="35.072" cy="39.779" r="4.136"/>
		<circle fill-rule="evenodd" clip-rule="evenodd" fill="#D81F26" cx="40.734" cy="34.017" r="3.292"/>
	</g>
	<g>
		<circle fill-rule="evenodd" clip-rule="evenodd" fill="#D81F26" cx="56.785" cy="17.788" r="2.487"/>
		<circle fill-rule="evenodd" clip-rule="evenodd" fill="#D81F26" cx="53.46" cy="21.112" r="1.663"/>
		<circle fill-rule="evenodd" clip-rule="evenodd" fill="#D81F26" cx="67.202" cy="7.527" r="4.136"/>
		<circle fill-rule="evenodd" clip-rule="evenodd" fill="#D81F26" cx="61.43" cy="13.232" r="3.292"/>
	</g>
	<g>
		<circle fill-rule="evenodd" clip-rule="evenodd" fill="#D81F26" cx="45.372" cy="17.713" r="2.486"/>
		<circle fill-rule="evenodd" clip-rule="evenodd" fill="#D81F26" cx="48.615" cy="21.092" r="1.663"/>
		<circle fill-rule="evenodd" clip-rule="evenodd" fill="#D81F26" cx="34.753" cy="7.555" r="4.136"/>
		<circle fill-rule="evenodd" clip-rule="evenodd" fill="#D81F26" cx="40.611" cy="13.171" r="3.292"/>
	</g>
</g>
<g>
	<path fill="#092452" d="M26.13,57.023c0.186,0.872,0.584,1.563,1.195,2.073s1.341,0.765,2.19,0.765
		c0.454,0,0.882-0.056,1.285-0.167c0.402-0.112,0.797-0.286,1.184-0.525c0.187-0.111,0.417-0.271,0.693-0.479
		c0.38-0.275,0.629-0.414,0.749-0.414c0.12,0,0.218,0.045,0.296,0.135c0.079,0.089,0.118,0.204,0.118,0.347
		c0,0.23-0.155,0.508-0.464,0.832c-0.309,0.323-0.72,0.635-1.235,0.932c-0.431,0.254-0.888,0.444-1.369,0.571
		c-0.48,0.127-0.984,0.189-1.514,0.189c-1.572,0-2.827-0.467-3.765-1.402c-0.938-0.935-1.408-2.185-1.408-3.749
		c0-1.712,0.557-3.148,1.67-4.307c1.114-1.158,2.486-1.737,4.118-1.737c1.243,0,2.201,0.257,2.871,0.771
		c0.67,0.515,1.005,1.24,1.005,2.179c0,1.11-0.62,1.987-1.86,2.632C30.65,56.311,28.729,56.763,26.13,57.023z M25.962,55.874
		c2.026-0.194,3.515-0.534,4.464-1.023c0.95-0.487,1.425-1.146,1.425-1.973c0-0.55-0.192-0.982-0.576-1.295
		c-0.383-0.313-0.91-0.469-1.581-0.469c-1.095,0-1.991,0.424-2.688,1.273c-0.697,0.848-1.045,1.951-1.045,3.307V55.874z"/>
	<path fill="#092452" d="M36.868,58.789c0.849-1.191,1.688-2.237,2.515-3.14c-0.679-0.744-1.366-1.585-2.062-2.52
		c-0.697-0.935-1.108-1.461-1.235-1.581c-0.097-0.089-0.292-0.207-0.587-0.352c-0.294-0.146-0.441-0.3-0.441-0.463
		c0-0.143,0.052-0.239,0.156-0.29c0.104-0.054,0.324-0.079,0.659-0.079h2.223c0.351,0,0.583,0.025,0.698,0.079
		c0.116,0.051,0.173,0.147,0.173,0.29c0,0.088-0.099,0.22-0.295,0.391c-0.198,0.171-0.296,0.328-0.296,0.469
		c0,0.208,0.188,0.566,0.564,1.073c0.376,0.507,0.903,1.103,1.581,1.787c0.611-0.61,1.106-1.185,1.486-1.721
		c0.379-0.536,0.569-0.917,0.569-1.14c0-0.127-0.113-0.271-0.34-0.437c-0.228-0.163-0.341-0.305-0.341-0.423
		c0-0.143,0.062-0.239,0.185-0.29c0.123-0.054,0.375-0.079,0.754-0.079h1.576c0.305,0,0.508,0.022,0.609,0.067
		c0.101,0.044,0.15,0.125,0.15,0.245c0,0.164-0.13,0.312-0.391,0.441c-0.261,0.13-0.443,0.252-0.547,0.362
		c-0.075,0.075-0.416,0.545-1.022,1.408c-0.608,0.864-1.242,1.646-1.905,2.348c0.723,0.781,1.488,1.672,2.296,2.67
		c0.808,0.997,1.302,1.571,1.48,1.721c0.097,0.089,0.296,0.216,0.598,0.38c0.302,0.163,0.453,0.335,0.453,0.513
		c0,0.165-0.065,0.278-0.196,0.342s-0.378,0.095-0.743,0.095h-2.335c-0.261,0-0.453-0.038-0.576-0.117
		c-0.123-0.078-0.184-0.199-0.184-0.362c0-0.135,0.089-0.286,0.268-0.454c0.178-0.167,0.268-0.3,0.268-0.396
		c0-0.262-0.22-0.663-0.659-1.208c-0.439-0.543-1.069-1.191-1.888-1.943c-0.67,0.752-1.181,1.38-1.531,1.883
		s-0.525,0.866-0.525,1.09c0,0.201,0.137,0.384,0.413,0.547c0.275,0.164,0.414,0.332,0.414,0.502c0,0.165-0.069,0.282-0.207,0.353
		c-0.138,0.071-0.359,0.106-0.665,0.106H35.65c-0.223,0-0.385-0.037-0.486-0.112c-0.101-0.073-0.151-0.189-0.151-0.347
		c0-0.215,0.197-0.408,0.592-0.58c0.395-0.172,0.651-0.328,0.771-0.469C36.458,59.352,36.623,59.132,36.868,58.789L36.868,58.789z"
		/>
	<path fill="#092452" d="M54.667,59.191c-0.492,0.692-1.095,1.214-1.811,1.565c-0.715,0.35-1.538,0.524-2.469,0.524
		c-1.109,0-1.991-0.296-2.642-0.889c-0.652-0.592-0.978-1.387-0.978-2.385c0-1.363,0.603-2.41,1.81-3.14s2.946-1.095,5.217-1.095
		h0.503c-0.089-0.789-0.423-1.406-1-1.85s-1.335-0.665-2.273-0.665c-0.536,0-1.11,0.179-1.72,0.536
		c-0.611,0.358-1.006,0.536-1.185,0.536c-0.208,0-0.382-0.058-0.52-0.173c-0.137-0.115-0.206-0.263-0.206-0.44
		c0-0.47,0.346-0.86,1.039-1.169c0.692-0.309,1.597-0.463,2.715-0.463c1.839,0,3.167,0.43,3.983,1.29s1.223,2.271,1.223,4.229v3.408
		c0,0.164,0.023,0.295,0.068,0.396c0.043,0.102,0.16,0.229,0.346,0.387c0.066,0.044,0.175,0.1,0.324,0.167
		c0.335,0.149,0.502,0.327,0.502,0.535c0,0.225-0.12,0.375-0.362,0.454c-0.242,0.077-0.847,0.117-1.815,0.117
		c-0.283,0-0.479-0.055-0.587-0.162c-0.108-0.108-0.162-0.303-0.162-0.587V59.191z M54.533,54.801h-0.302
		c-1.743,0-3.09,0.274-4.04,0.82c-0.95,0.548-1.424,1.321-1.424,2.319c0,0.604,0.207,1.097,0.62,1.48s0.952,0.575,1.614,0.575
		c0.373,0,0.74-0.048,1.101-0.146c0.361-0.097,0.684-0.23,0.968-0.401c0.55-0.343,0.932-0.708,1.145-1.095
		c0.212-0.388,0.318-0.932,0.318-1.633V54.801z"/>
	<path fill="#092452" d="M59.706,58.667V53.75c0-0.469-0.036-0.8-0.106-0.994c-0.07-0.193-0.188-0.351-0.352-0.47
		c-0.119-0.096-0.298-0.196-0.537-0.302c-0.342-0.156-0.514-0.346-0.514-0.568c0-0.091,0.049-0.2,0.146-0.33s0.23-0.259,0.402-0.386
		c0.237-0.186,0.456-0.332,0.654-0.436c0.197-0.104,0.352-0.157,0.463-0.157c0.344,0,0.636,0.275,0.878,0.827s0.385,1.281,0.43,2.19
		c0.38-0.983,0.83-1.743,1.352-2.28c0.521-0.535,1.062-0.804,1.621-0.804c0.395,0,0.699,0.146,0.915,0.441
		c0.217,0.294,0.324,0.713,0.324,1.257c0,0.172-0.054,0.313-0.162,0.425c-0.107,0.111-0.247,0.167-0.418,0.167
		c-0.18,0-0.424-0.076-0.732-0.229c-0.31-0.152-0.526-0.229-0.653-0.229c-0.492,0-0.941,0.417-1.347,1.252
		c-0.406,0.834-0.609,1.851-0.609,3.05v2.447c0,0.47,0.029,0.774,0.085,0.916c0.055,0.143,0.153,0.242,0.295,0.302
		c0.112,0.044,0.287,0.097,0.525,0.156c0.454,0.119,0.682,0.302,0.682,0.547c0,0.149-0.058,0.256-0.173,0.319
		s-0.334,0.095-0.654,0.095h-2.86c-0.312,0-0.521-0.027-0.626-0.084c-0.104-0.056-0.155-0.158-0.155-0.308
		c0-0.192,0.167-0.372,0.502-0.535c0.18-0.09,0.31-0.16,0.392-0.213c0.09-0.06,0.15-0.148,0.184-0.269
		c0.034-0.119,0.051-0.32,0.051-0.604V58.667z"/>
	<path fill="#092452" d="M67.438,52.9c0-0.268-0.027-0.454-0.083-0.558c-0.057-0.104-0.166-0.209-0.33-0.312
		c-0.067-0.046-0.167-0.102-0.302-0.168c-0.268-0.134-0.402-0.275-0.402-0.425c0-0.112,0.04-0.212,0.117-0.301
		c0.078-0.09,0.215-0.188,0.408-0.292l0.156-0.088c0.909-0.478,1.512-0.716,1.811-0.716c0.157,0,0.265,0.071,0.324,0.212
		c0.059,0.142,0.089,0.47,0.089,0.983v7.844c0,0.193,0.023,0.354,0.067,0.48c0.045,0.127,0.111,0.213,0.2,0.257
		c0.105,0.044,0.231,0.097,0.381,0.157c0.388,0.156,0.58,0.338,0.58,0.546c0,0.165-0.062,0.278-0.189,0.342
		s-0.365,0.095-0.715,0.095h-2.402c-0.32,0-0.538-0.031-0.654-0.095c-0.115-0.063-0.173-0.17-0.173-0.319
		c0-0.11,0.03-0.208,0.09-0.29s0.167-0.16,0.324-0.234c0.059-0.029,0.142-0.066,0.245-0.112c0.306-0.126,0.458-0.386,0.458-0.782
		V52.9z M66.823,46.812c0-0.344,0.121-0.622,0.363-0.839c0.241-0.216,0.557-0.324,0.944-0.324c0.38,0,0.688,0.108,0.922,0.324
		c0.234,0.217,0.352,0.495,0.352,0.839c0,0.356-0.119,0.643-0.357,0.854c-0.238,0.213-0.551,0.319-0.938,0.319
		c-0.395,0-0.708-0.106-0.938-0.319C66.939,47.455,66.823,47.169,66.823,46.812z"/>
	<path fill="#092452" d="M71.315,58.879c0-0.217,0.068-0.394,0.207-0.531c0.138-0.138,0.311-0.207,0.519-0.207
		c0.231,0,0.507,0.202,0.827,0.604c0.097,0.111,0.171,0.2,0.224,0.269c0.306,0.342,0.648,0.6,1.028,0.771s0.808,0.257,1.284,0.257
		c0.671,0,1.22-0.175,1.648-0.525c0.429-0.35,0.642-0.8,0.642-1.353c0-0.774-0.879-1.373-2.637-1.799
		c-0.096-0.022-0.175-0.04-0.233-0.055c-1.096-0.269-1.878-0.63-2.348-1.084c-0.469-0.455-0.704-1.069-0.704-1.844
		c0-0.998,0.337-1.797,1.007-2.397c0.67-0.6,1.567-0.898,2.692-0.898c1.073,0,1.9,0.154,2.486,0.463
		c0.584,0.309,0.877,0.743,0.877,1.302c0,0.41-0.029,0.685-0.09,0.822c-0.06,0.137-0.175,0.205-0.347,0.205
		c-0.2,0-0.439-0.163-0.715-0.49c-0.111-0.127-0.201-0.224-0.269-0.291c-0.282-0.29-0.617-0.514-1.005-0.67
		c-0.387-0.157-0.805-0.235-1.251-0.235c-0.537,0-0.983,0.155-1.341,0.463c-0.357,0.31-0.537,0.696-0.537,1.158
		c0,0.387,0.117,0.692,0.353,0.915c0.234,0.224,0.688,0.429,1.357,0.614c0.216,0.061,0.521,0.139,0.917,0.236
		c0.975,0.23,1.623,0.45,1.943,0.659c0.462,0.297,0.807,0.647,1.034,1.05c0.227,0.401,0.34,0.859,0.34,1.374
		c0,1.08-0.362,1.953-1.089,2.621c-0.727,0.665-1.682,0.999-2.866,0.999c-1.006,0-1.917-0.271-2.731-0.811
		C71.723,59.93,71.315,59.4,71.315,58.879z"/>
</g>
<g>
	<path fill="#092452" d="M40.412,69.904c-0.173,0.244-0.386,0.428-0.638,0.553c-0.253,0.123-0.543,0.185-0.872,0.185
		c-0.392,0-0.703-0.104-0.933-0.313c-0.23-0.208-0.346-0.49-0.346-0.842c0-0.481,0.213-0.852,0.64-1.108
		c0.426-0.257,1.04-0.388,1.842-0.388h0.177c-0.031-0.278-0.149-0.496-0.353-0.651c-0.204-0.157-0.472-0.234-0.803-0.234
		c-0.189,0-0.392,0.062-0.607,0.188c-0.215,0.127-0.354,0.188-0.418,0.188c-0.074,0-0.135-0.019-0.184-0.061
		c-0.048-0.04-0.073-0.092-0.073-0.155c0-0.166,0.123-0.304,0.367-0.412c0.245-0.109,0.564-0.164,0.958-0.164
		c0.649,0,1.119,0.151,1.407,0.455s0.431,0.803,0.431,1.493v1.203c0,0.059,0.008,0.105,0.024,0.141
		c0.015,0.035,0.056,0.081,0.122,0.137c0.023,0.015,0.062,0.035,0.115,0.059c0.118,0.052,0.177,0.115,0.177,0.188
		c0,0.079-0.042,0.133-0.128,0.16c-0.086,0.027-0.299,0.042-0.641,0.042c-0.1,0-0.169-0.02-0.207-0.058
		c-0.039-0.038-0.058-0.107-0.058-0.207V69.904z M40.365,68.354h-0.106c-0.615,0-1.09,0.096-1.426,0.29
		c-0.335,0.193-0.503,0.465-0.503,0.817c0,0.213,0.073,0.388,0.219,0.523c0.146,0.136,0.336,0.203,0.57,0.203
		c0.132,0,0.261-0.018,0.389-0.052s0.241-0.081,0.341-0.142c0.195-0.12,0.329-0.251,0.405-0.386c0.074-0.138,0.112-0.33,0.112-0.576
		V68.354z"/>
	<path fill="#092452" d="M41.785,66.788h0.761c0.152,0,0.254,0.011,0.304,0.032c0.049,0.021,0.074,0.059,0.074,0.114
		c0,0.028-0.006,0.056-0.02,0.078c-0.013,0.024-0.031,0.043-0.055,0.06c-0.005,0.002-0.018,0.01-0.036,0.019
		c-0.184,0.113-0.275,0.226-0.275,0.337c0,0.159,0.05,0.396,0.153,0.708c0.103,0.311,0.245,0.656,0.426,1.035
		c0.092,0.189,0.178,0.347,0.259,0.469c0.08,0.124,0.158,0.217,0.234,0.281c0.082-0.083,0.164-0.187,0.245-0.312
		c0.082-0.127,0.164-0.279,0.249-0.455c0.176-0.362,0.317-0.71,0.423-1.043c0.107-0.332,0.16-0.573,0.16-0.721
		c0-0.073-0.056-0.15-0.166-0.231c-0.026-0.021-0.046-0.037-0.059-0.048c-0.058-0.045-0.093-0.079-0.105-0.103
		s-0.018-0.054-0.018-0.09c0-0.048,0.02-0.082,0.059-0.101c0.04-0.021,0.11-0.03,0.213-0.03h0.576c0.107,0,0.186,0.011,0.232,0.033
		c0.047,0.022,0.071,0.06,0.071,0.113c0,0.06-0.033,0.12-0.1,0.182c-0.067,0.061-0.106,0.102-0.117,0.126
		c-0.031,0.061-0.081,0.215-0.148,0.465c-0.067,0.249-0.131,0.461-0.191,0.632c-0.234,0.667-0.486,1.218-0.757,1.652
		c-0.271,0.434-0.489,0.65-0.655,0.65c-0.134,0-0.317-0.175-0.548-0.526c-0.231-0.352-0.461-0.806-0.69-1.367
		c-0.116-0.286-0.222-0.597-0.319-0.931c-0.098-0.334-0.159-0.522-0.182-0.563c-0.018-0.029-0.068-0.069-0.15-0.123
		c-0.082-0.053-0.122-0.11-0.122-0.173c0-0.061,0.021-0.104,0.063-0.13C41.618,66.801,41.688,66.788,41.785,66.788z"/>
	<path fill="#092452" d="M46.262,67.683c0-0.094-0.01-0.16-0.03-0.197c-0.02-0.036-0.059-0.074-0.116-0.11
		c-0.023-0.016-0.06-0.036-0.106-0.06c-0.095-0.047-0.142-0.097-0.142-0.149c0-0.039,0.014-0.076,0.041-0.106
		c0.028-0.032,0.076-0.066,0.144-0.103l0.056-0.032c0.32-0.167,0.533-0.253,0.639-0.253c0.055,0,0.093,0.025,0.114,0.076
		c0.021,0.05,0.032,0.165,0.032,0.347v2.77c0,0.068,0.007,0.125,0.023,0.169c0.016,0.045,0.04,0.075,0.071,0.091
		c0.037,0.016,0.082,0.034,0.134,0.055c0.137,0.056,0.206,0.12,0.206,0.194c0,0.058-0.022,0.098-0.067,0.12
		c-0.044,0.021-0.129,0.033-0.252,0.033h-0.848c-0.113,0-0.19-0.012-0.231-0.033c-0.041-0.022-0.061-0.06-0.061-0.113
		c0-0.039,0.01-0.073,0.032-0.102c0.021-0.029,0.059-0.057,0.114-0.084c0.021-0.009,0.05-0.023,0.087-0.038
		c0.107-0.045,0.162-0.138,0.162-0.277V67.683z M46.045,65.534c0-0.122,0.042-0.219,0.128-0.296
		c0.085-0.076,0.196-0.114,0.333-0.114c0.134,0,0.243,0.038,0.325,0.114c0.083,0.077,0.125,0.174,0.125,0.296
		c0,0.125-0.042,0.227-0.126,0.302c-0.084,0.074-0.195,0.111-0.331,0.111c-0.14,0-0.25-0.037-0.332-0.111
		C46.085,65.76,46.045,65.659,46.045,65.534z"/>
	<path fill="#092452" d="M50.545,69.904c-0.173,0.244-0.386,0.428-0.639,0.553c-0.252,0.123-0.543,0.185-0.872,0.185
		c-0.392,0-0.703-0.104-0.933-0.313c-0.23-0.208-0.345-0.49-0.345-0.842c0-0.481,0.212-0.852,0.639-1.108s1.04-0.388,1.842-0.388
		h0.178c-0.031-0.278-0.149-0.496-0.353-0.651c-0.204-0.157-0.472-0.234-0.802-0.234c-0.189,0-0.392,0.062-0.607,0.188
		c-0.216,0.127-0.355,0.188-0.419,0.188c-0.073,0-0.134-0.019-0.183-0.061c-0.048-0.04-0.073-0.092-0.073-0.155
		c0-0.166,0.123-0.304,0.367-0.412c0.245-0.109,0.564-0.164,0.958-0.164c0.649,0,1.118,0.151,1.406,0.455s0.432,0.803,0.432,1.493
		v1.203c0,0.059,0.008,0.105,0.023,0.141c0.017,0.035,0.057,0.081,0.123,0.137c0.023,0.015,0.062,0.035,0.114,0.059
		c0.118,0.052,0.177,0.115,0.177,0.188c0,0.079-0.042,0.133-0.128,0.16c-0.085,0.027-0.298,0.042-0.641,0.042
		c-0.101,0-0.169-0.02-0.207-0.058s-0.058-0.107-0.058-0.207V69.904z M50.498,68.354h-0.106c-0.615,0-1.09,0.096-1.425,0.29
		c-0.335,0.193-0.503,0.465-0.503,0.817c0,0.213,0.072,0.388,0.219,0.523c0.146,0.136,0.336,0.203,0.569,0.203
		c0.132,0,0.262-0.018,0.389-0.052s0.241-0.081,0.341-0.142c0.194-0.12,0.329-0.251,0.404-0.386c0.075-0.138,0.112-0.33,0.112-0.576
		V68.354z"/>
	<path fill="#092452" d="M52.363,70.018V67.25h-0.248c-0.14,0-0.235-0.017-0.288-0.052c-0.052-0.034-0.079-0.093-0.079-0.178
		c0-0.061,0.018-0.109,0.054-0.147c0.035-0.038,0.081-0.062,0.14-0.069c0.023-0.003,0.055-0.005,0.091-0.008
		c0.168-0.013,0.276-0.046,0.323-0.099c0.059-0.061,0.109-0.277,0.154-0.65c0.013-0.108,0.023-0.192,0.031-0.253
		c0.005-0.031,0.01-0.073,0.016-0.126c0.032-0.266,0.119-0.398,0.26-0.398c0.064,0,0.105,0.021,0.129,0.062
		c0.021,0.041,0.033,0.157,0.033,0.349v1.108h0.564c0.137,0,0.232,0.018,0.287,0.053c0.056,0.036,0.084,0.096,0.084,0.18
		c0,0.079-0.03,0.137-0.089,0.174s-0.153,0.056-0.282,0.056h-0.564v2.346c0,0.158,0.014,0.272,0.038,0.342s0.069,0.115,0.132,0.137
		c0.076,0.028,0.223,0.049,0.436,0.061c0.215,0.012,0.322,0.068,0.322,0.168c0,0.086-0.024,0.146-0.074,0.177
		c-0.047,0.032-0.172,0.048-0.367,0.048h-0.754c-0.143,0-0.235-0.025-0.28-0.074C52.386,70.402,52.363,70.258,52.363,70.018z"/>
	<path fill="#092452" d="M54.6,67.683c0-0.094-0.01-0.16-0.029-0.197c-0.02-0.036-0.059-0.074-0.115-0.11
		c-0.025-0.016-0.061-0.036-0.107-0.06c-0.095-0.047-0.142-0.097-0.142-0.149c0-0.039,0.014-0.076,0.042-0.106
		c0.027-0.032,0.074-0.066,0.144-0.103l0.056-0.032c0.32-0.167,0.533-0.253,0.639-0.253c0.055,0,0.093,0.025,0.114,0.076
		c0.021,0.05,0.03,0.165,0.03,0.347v2.77c0,0.068,0.01,0.125,0.025,0.169c0.015,0.045,0.039,0.075,0.07,0.091
		c0.036,0.016,0.082,0.034,0.135,0.055c0.135,0.056,0.205,0.12,0.205,0.194c0,0.058-0.023,0.098-0.068,0.12
		c-0.045,0.021-0.129,0.033-0.252,0.033h-0.848c-0.113,0-0.191-0.012-0.231-0.033c-0.04-0.022-0.061-0.06-0.061-0.113
		c0-0.039,0.011-0.073,0.032-0.102c0.02-0.029,0.059-0.057,0.113-0.084c0.021-0.009,0.05-0.023,0.087-0.038
		c0.108-0.045,0.161-0.138,0.161-0.277V67.683z M54.383,65.534c0-0.122,0.043-0.219,0.129-0.296
		c0.086-0.076,0.197-0.114,0.333-0.114c0.134,0,0.242,0.038,0.325,0.114c0.084,0.077,0.125,0.174,0.125,0.296
		c0,0.125-0.043,0.227-0.127,0.302c-0.084,0.074-0.193,0.111-0.332,0.111s-0.249-0.037-0.33-0.111
		C54.425,65.76,54.383,65.659,54.383,65.534z"/>
	<path fill="#092452" d="M56.131,68.669c0-0.58,0.184-1.055,0.555-1.425c0.369-0.369,0.846-0.555,1.43-0.555
		c0.586,0,1.063,0.185,1.429,0.553c0.367,0.367,0.551,0.844,0.551,1.427s-0.184,1.056-0.551,1.422
		c-0.365,0.368-0.843,0.551-1.429,0.551c-0.588,0-1.064-0.183-1.432-0.551C56.314,69.724,56.131,69.252,56.131,68.669z
		 M56.824,68.669c0,0.47,0.119,0.844,0.355,1.127c0.237,0.282,0.548,0.423,0.936,0.423c0.386,0,0.697-0.141,0.932-0.423
		c0.236-0.283,0.354-0.657,0.354-1.127c0-0.471-0.118-0.848-0.354-1.132c-0.234-0.283-0.546-0.426-0.932-0.426
		c-0.385,0-0.695,0.145-0.934,0.43C56.943,67.828,56.824,68.204,56.824,68.669z"/>
	<path fill="#092452" d="M60.899,70.188c0.1-0.056,0.15-0.166,0.15-0.332v-1.802c0-0.255-0.01-0.423-0.028-0.499
		c-0.018-0.078-0.053-0.135-0.103-0.172c-0.031-0.023-0.092-0.054-0.181-0.089c-0.09-0.036-0.135-0.083-0.135-0.144
		c0-0.07,0.08-0.166,0.239-0.284c0.158-0.118,0.29-0.178,0.392-0.178c0.073,0,0.142,0.055,0.201,0.164
		c0.061,0.108,0.115,0.271,0.162,0.49c0.168-0.215,0.361-0.378,0.581-0.488c0.221-0.111,0.46-0.166,0.721-0.166
		c0.443,0,0.776,0.146,0.995,0.436c0.221,0.291,0.33,0.733,0.33,1.327v1.428c0,0.088,0.005,0.149,0.016,0.186
		c0.011,0.037,0.03,0.065,0.06,0.083c0.023,0.017,0.058,0.035,0.102,0.06c0.108,0.058,0.162,0.119,0.162,0.181
		c0,0.052-0.021,0.087-0.061,0.107c-0.041,0.021-0.11,0.031-0.207,0.031h-0.805c-0.098,0-0.167-0.011-0.207-0.029
		c-0.041-0.021-0.062-0.054-0.062-0.101c0-0.066,0.044-0.118,0.13-0.158c0.026-0.013,0.045-0.022,0.056-0.027
		c0.092-0.045,0.147-0.087,0.165-0.126c0.019-0.04,0.028-0.113,0.028-0.221v-1.42c0-0.442-0.074-0.764-0.224-0.967
		c-0.147-0.203-0.383-0.304-0.704-0.304c-0.305,0-0.548,0.088-0.729,0.265c-0.182,0.176-0.271,0.413-0.271,0.713v1.804
		c0,0.054,0.004,0.096,0.012,0.124c0.007,0.027,0.022,0.051,0.043,0.068c0.023,0.017,0.062,0.038,0.114,0.063
		c0.103,0.053,0.154,0.109,0.154,0.169c0,0.056-0.021,0.095-0.062,0.115s-0.118,0.031-0.231,0.031h-0.749
		c-0.099,0-0.168-0.01-0.204-0.027c-0.038-0.019-0.056-0.051-0.056-0.096c0-0.039,0.01-0.071,0.027-0.097
		c0.019-0.024,0.063-0.057,0.135-0.096C60.867,70.206,60.881,70.199,60.899,70.188L60.899,70.188z"/>
</g>
<g>
	<path fill="#092452" d="M80.42,59.274c0.168,0,0.332,0.044,0.491,0.13c0.16,0.086,0.284,0.209,0.373,0.369
		c0.09,0.159,0.134,0.327,0.134,0.501c0,0.172-0.044,0.337-0.131,0.496c-0.088,0.159-0.212,0.281-0.369,0.37
		c-0.159,0.088-0.325,0.131-0.498,0.131c-0.172,0-0.339-0.043-0.497-0.131c-0.157-0.089-0.28-0.211-0.369-0.37
		c-0.088-0.159-0.132-0.324-0.132-0.496c0-0.174,0.045-0.342,0.134-0.501c0.089-0.16,0.214-0.283,0.374-0.369
		C80.089,59.318,80.253,59.274,80.42,59.274z M80.42,59.44c-0.14,0-0.275,0.036-0.409,0.108c-0.132,0.071-0.237,0.174-0.312,0.308
		s-0.112,0.272-0.112,0.418c0,0.143,0.036,0.281,0.11,0.413c0.073,0.132,0.177,0.234,0.31,0.308c0.132,0.074,0.27,0.111,0.413,0.111
		c0.145,0,0.282-0.037,0.415-0.111c0.132-0.073,0.235-0.176,0.308-0.308c0.073-0.132,0.11-0.271,0.11-0.413
		c0-0.146-0.037-0.284-0.112-0.418c-0.074-0.134-0.179-0.236-0.311-0.308C80.695,59.476,80.561,59.44,80.42,59.44z M79.982,60.826
		v-1.074h0.368c0.127,0,0.219,0.01,0.275,0.029c0.056,0.02,0.102,0.055,0.135,0.104c0.033,0.051,0.05,0.103,0.05,0.157
		c0,0.08-0.028,0.147-0.084,0.206s-0.13,0.091-0.223,0.098c0.038,0.016,0.068,0.034,0.092,0.057
		c0.042,0.043,0.096,0.113,0.158,0.213l0.131,0.211h-0.212l-0.095-0.17c-0.074-0.133-0.136-0.217-0.182-0.25
		c-0.031-0.025-0.077-0.037-0.139-0.037h-0.102v0.457H79.982z M80.156,60.22h0.21c0.1,0,0.169-0.015,0.206-0.044
		c0.037-0.031,0.055-0.071,0.055-0.12c0-0.032-0.008-0.06-0.026-0.085c-0.018-0.025-0.043-0.044-0.073-0.056
		c-0.031-0.013-0.09-0.02-0.174-0.02h-0.197V60.22z"/>
</g>
</svg>
