<?xml version="1.0" encoding="utf-8"?>
<!-- Generator: Adobe Illustrator 16.0.0, SVG Export Plug-In . SVG Version: 6.00 Build 0)  -->
<!DOCTYPE svg PUBLIC "-//W3C//DTD SVG 1.1//EN" "http://www.w3.org/Graphics/SVG/1.1/DTD/svg11.dtd">
<svg version="1.1" id="Capa_1" xmlns="http://www.w3.org/2000/svg" xmlns:xlink="http://www.w3.org/1999/xlink" x="0px" y="0px"
	 width="100px" height="79.167px" viewBox="0 0 100 79.167" enable-background="new 0 0 100 79.167" xml:space="preserve">
<g>
	<path fill="#FFFFFF" d="M26.13,57.023c0.186,0.872,0.584,1.562,1.195,2.073c0.611,0.51,1.341,0.765,2.19,0.765
		c0.454,0,0.882-0.056,1.285-0.167c0.402-0.112,0.797-0.286,1.184-0.524c0.187-0.109,0.417-0.271,0.693-0.479
		c0.38-0.273,0.629-0.414,0.749-0.414c0.12,0,0.218,0.045,0.296,0.137c0.079,0.088,0.118,0.203,0.118,0.346
		c0,0.23-0.155,0.51-0.464,0.832c-0.309,0.324-0.72,0.637-1.235,0.934c-0.431,0.254-0.888,0.443-1.369,0.57
		c-0.48,0.128-0.984,0.189-1.514,0.189c-1.572,0-2.827-0.469-3.765-1.402c-0.938-0.937-1.408-2.187-1.408-3.75
		c0-1.711,0.557-3.146,1.67-4.307c1.114-1.158,2.486-1.736,4.118-1.736c1.243,0,2.201,0.256,2.871,0.771s1.005,1.24,1.005,2.179
		c0,1.11-0.62,1.987-1.86,2.633C30.65,56.311,28.729,56.763,26.13,57.023z M25.962,55.875c2.026-0.192,3.515-0.535,4.464-1.021
		c0.95-0.486,1.425-1.146,1.425-1.975c0-0.551-0.192-0.98-0.576-1.295c-0.383-0.312-0.91-0.469-1.581-0.469
		c-1.095,0-1.991,0.424-2.688,1.272c-0.697,0.848-1.045,1.95-1.045,3.307L25.962,55.875L25.962,55.875z"/>
	<path fill="#FFFFFF" d="M36.868,58.789c0.849-1.188,1.688-2.235,2.515-3.14c-0.679-0.744-1.366-1.585-2.062-2.521
		c-0.697-0.937-1.108-1.461-1.235-1.582c-0.097-0.088-0.292-0.207-0.587-0.353c-0.294-0.146-0.441-0.3-0.441-0.463
		c0-0.146,0.052-0.237,0.156-0.29c0.104-0.054,0.324-0.079,0.659-0.079h2.223c0.351,0,0.583,0.025,0.698,0.079
		c0.116,0.053,0.173,0.146,0.173,0.29c0,0.088-0.099,0.222-0.295,0.392c-0.198,0.172-0.296,0.328-0.296,0.469
		c0,0.209,0.188,0.566,0.564,1.074c0.376,0.506,0.903,1.104,1.581,1.787c0.611-0.611,1.106-1.187,1.486-1.723
		c0.379-0.536,0.569-0.917,0.569-1.143c0-0.127-0.113-0.271-0.34-0.437c-0.228-0.163-0.341-0.305-0.341-0.423
		c0-0.145,0.062-0.238,0.185-0.29c0.123-0.054,0.375-0.079,0.754-0.079h1.576c0.305,0,0.508,0.021,0.609,0.066
		s0.15,0.125,0.15,0.244c0,0.164-0.13,0.312-0.391,0.44c-0.261,0.132-0.443,0.252-0.547,0.362c-0.075,0.074-0.416,0.545-1.022,1.406
		c-0.608,0.863-1.242,1.646-1.905,2.35c0.723,0.781,1.488,1.672,2.296,2.67c0.808,0.997,1.302,1.57,1.48,1.723
		c0.097,0.088,0.296,0.215,0.598,0.379c0.302,0.164,0.453,0.336,0.453,0.515c0,0.165-0.065,0.276-0.196,0.342
		c-0.131,0.063-0.378,0.095-0.743,0.095h-2.335c-0.261,0-0.453-0.037-0.576-0.117c-0.123-0.078-0.184-0.196-0.184-0.359
		c0-0.137,0.089-0.286,0.268-0.454c0.178-0.167,0.268-0.3,0.268-0.396c0-0.263-0.22-0.662-0.659-1.207
		c-0.439-0.543-1.069-1.19-1.888-1.942c-0.67,0.752-1.181,1.38-1.531,1.883c-0.35,0.503-0.525,0.866-0.525,1.091
		c0,0.2,0.137,0.383,0.413,0.547c0.275,0.164,0.414,0.332,0.414,0.502c0,0.164-0.069,0.281-0.207,0.354
		c-0.138,0.069-0.359,0.104-0.665,0.104H35.65c-0.223,0-0.385-0.037-0.486-0.113c-0.101-0.07-0.151-0.188-0.151-0.346
		c0-0.215,0.197-0.408,0.592-0.58s0.651-0.328,0.771-0.469C36.458,59.352,36.623,59.132,36.868,58.789L36.868,58.789z"/>
	<path fill="#FFFFFF" d="M54.667,59.191c-0.492,0.691-1.095,1.214-1.812,1.564c-0.715,0.351-1.537,0.522-2.468,0.522
		c-1.109,0-1.991-0.296-2.642-0.889c-0.652-0.595-0.978-1.39-0.978-2.388c0-1.36,0.603-2.408,1.81-3.139
		c1.207-0.732,2.946-1.096,5.217-1.096h0.503c-0.089-0.789-0.423-1.406-1-1.852c-0.576-0.442-1.335-0.664-2.273-0.664
		c-0.536,0-1.107,0.18-1.717,0.535c-0.611,0.357-1.006,0.537-1.185,0.537c-0.208,0-0.382-0.06-0.52-0.175
		c-0.137-0.114-0.206-0.263-0.206-0.438c0-0.472,0.346-0.859,1.039-1.17c0.692-0.31,1.597-0.463,2.712-0.463
		c1.84,0,3.168,0.432,3.983,1.291c0.815,0.858,1.224,2.271,1.224,4.229v3.406c0,0.164,0.022,0.297,0.067,0.396
		c0.043,0.103,0.16,0.229,0.347,0.388c0.065,0.045,0.174,0.102,0.323,0.168c0.335,0.147,0.502,0.325,0.502,0.534
		c0,0.226-0.12,0.375-0.362,0.453c-0.241,0.077-0.847,0.117-1.812,0.117c-0.283,0-0.479-0.058-0.587-0.162
		c-0.106-0.106-0.162-0.304-0.162-0.587L54.667,59.191L54.667,59.191z M54.533,54.8H54.23c-1.742,0-3.09,0.275-4.042,0.82
		c-0.95,0.549-1.424,1.32-1.424,2.318c0,0.604,0.207,1.098,0.62,1.479c0.413,0.385,0.952,0.574,1.614,0.574
		c0.373,0,0.739-0.048,1.103-0.146c0.359-0.099,0.685-0.229,0.969-0.401c0.55-0.343,0.932-0.707,1.145-1.095
		c0.212-0.39,0.318-0.933,0.318-1.634V54.8z"/>
	<path fill="#FFFFFF" d="M59.706,58.667V53.75c0-0.469-0.036-0.799-0.106-0.994c-0.07-0.19-0.188-0.351-0.352-0.469
		c-0.119-0.097-0.298-0.197-0.537-0.303c-0.342-0.156-0.514-0.346-0.514-0.568c0-0.09,0.049-0.199,0.146-0.33
		c0.097-0.129,0.23-0.258,0.402-0.385c0.237-0.187,0.456-0.332,0.653-0.437s0.353-0.157,0.463-0.157
		c0.345,0,0.637,0.273,0.879,0.827c0.242,0.552,0.385,1.28,0.43,2.188c0.38-0.981,0.83-1.742,1.352-2.279
		c0.521-0.534,1.062-0.805,1.621-0.805c0.396,0,0.699,0.146,0.916,0.44c0.217,0.294,0.323,0.713,0.323,1.257
		c0,0.174-0.054,0.312-0.161,0.426c-0.107,0.11-0.248,0.168-0.419,0.168c-0.18,0-0.424-0.076-0.731-0.229
		c-0.311-0.151-0.524-0.229-0.651-0.229c-0.492,0-0.938,0.418-1.349,1.252c-0.404,0.834-0.607,1.854-0.607,3.051v2.447
		c0,0.469,0.029,0.773,0.085,0.916c0.058,0.145,0.153,0.241,0.295,0.301c0.112,0.045,0.287,0.1,0.525,0.156
		c0.452,0.119,0.682,0.303,0.682,0.547c0,0.149-0.058,0.256-0.173,0.319c-0.115,0.062-0.334,0.095-0.652,0.095h-2.859
		c-0.312,0-0.521-0.024-0.627-0.084c-0.104-0.056-0.154-0.158-0.154-0.308c0-0.192,0.167-0.372,0.502-0.535
		c0.18-0.09,0.311-0.159,0.393-0.213c0.09-0.062,0.149-0.147,0.186-0.271c0.031-0.119,0.051-0.318,0.051-0.604v-0.274h-0.006v0.002
		H59.706z"/>
	<path fill="#FFFFFF" d="M67.438,52.9c0-0.27-0.024-0.454-0.082-0.559s-0.166-0.209-0.33-0.312
		c-0.065-0.046-0.168-0.102-0.303-0.168c-0.268-0.134-0.402-0.275-0.402-0.425c0-0.112,0.041-0.212,0.117-0.302
		c0.078-0.09,0.215-0.188,0.408-0.293l0.156-0.088c0.909-0.479,1.512-0.715,1.811-0.715c0.158,0,0.268,0.069,0.324,0.211
		c0.059,0.144,0.09,0.472,0.09,0.982v7.846c0,0.191,0.022,0.354,0.066,0.479c0.045,0.127,0.111,0.213,0.2,0.257
		c0.104,0.044,0.231,0.099,0.381,0.157c0.388,0.154,0.58,0.338,0.58,0.546c0,0.165-0.062,0.276-0.188,0.342
		c-0.127,0.062-0.365,0.097-0.716,0.097h-2.401c-0.318,0-0.539-0.031-0.652-0.097c-0.115-0.063-0.176-0.17-0.176-0.317
		c0-0.109,0.031-0.209,0.093-0.291s0.167-0.16,0.321-0.232c0.062-0.029,0.145-0.066,0.246-0.112
		c0.308-0.126,0.457-0.386,0.457-0.782V52.9L67.438,52.9z M66.823,46.812c0-0.346,0.12-0.622,0.362-0.839
		c0.239-0.218,0.558-0.324,0.942-0.324c0.38,0,0.688,0.106,0.922,0.324c0.234,0.217,0.354,0.493,0.354,0.839
		c0,0.355-0.119,0.643-0.357,0.854c-0.238,0.213-0.551,0.319-0.938,0.319c-0.396,0-0.709-0.106-0.938-0.319
		C66.939,47.455,66.823,47.169,66.823,46.812z"/>
	<path fill="#FFFFFF" d="M71.314,58.878c0-0.217,0.066-0.395,0.207-0.529c0.139-0.139,0.312-0.207,0.52-0.207
		c0.23,0,0.507,0.201,0.827,0.604c0.097,0.111,0.171,0.2,0.224,0.271c0.307,0.342,0.648,0.602,1.028,0.771
		c0.38,0.172,0.808,0.258,1.284,0.258c0.671,0,1.22-0.176,1.646-0.524c0.431-0.351,0.644-0.802,0.644-1.354
		c0-0.771-0.879-1.373-2.637-1.799c-0.098-0.021-0.177-0.039-0.232-0.055c-1.096-0.27-1.879-0.63-2.348-1.084
		c-0.472-0.455-0.705-1.068-0.705-1.846c0-0.998,0.338-1.797,1.008-2.396c0.67-0.601,1.566-0.896,2.691-0.896
		c1.071,0,1.898,0.154,2.484,0.463c0.584,0.311,0.877,0.742,0.877,1.303c0,0.41-0.027,0.686-0.09,0.82
		c-0.062,0.139-0.178,0.205-0.35,0.205c-0.199,0-0.438-0.162-0.715-0.488c-0.111-0.127-0.201-0.225-0.269-0.291
		c-0.282-0.29-0.617-0.516-1.005-0.67c-0.387-0.157-0.805-0.234-1.252-0.234c-0.536,0-0.982,0.154-1.34,0.463
		c-0.357,0.311-0.537,0.695-0.537,1.157c0,0.388,0.117,0.69,0.353,0.915c0.233,0.225,0.688,0.43,1.356,0.613
		c0.217,0.062,0.521,0.14,0.918,0.236c0.975,0.229,1.623,0.449,1.943,0.658c0.461,0.297,0.807,0.646,1.031,1.051
		c0.229,0.399,0.341,0.857,0.341,1.373c0,1.08-0.36,1.953-1.09,2.621c-0.728,0.666-1.683,1-2.864,1c-1.008,0-1.916-0.271-2.73-0.812
		C71.723,59.93,71.314,59.4,71.314,58.878z"/>
</g>
<g>
	<path fill="#FFFFFF" d="M37.451,73.308c-0.236,0.332-0.527,0.582-0.87,0.752c-0.345,0.168-0.739,0.254-1.187,0.254
		c-0.534,0-0.958-0.143-1.271-0.43c-0.313-0.281-0.471-0.666-0.471-1.146c0-0.655,0.29-1.161,0.872-1.509
		c0.58-0.352,1.417-0.529,2.509-0.529h0.241c-0.042-0.379-0.204-0.675-0.481-0.886c-0.278-0.214-0.643-0.319-1.094-0.319
		c-0.258,0-0.534,0.086-0.827,0.256c-0.292,0.174-0.482,0.258-0.568,0.258c-0.102,0-0.184-0.025-0.251-0.084
		c-0.065-0.055-0.1-0.125-0.1-0.211c0-0.226,0.167-0.414,0.5-0.562c0.334-0.149,0.769-0.226,1.305-0.226
		c0.884,0,1.525,0.205,1.917,0.621c0.392,0.412,0.587,1.095,0.587,2.033v1.639c0,0.08,0.012,0.145,0.033,0.191
		s0.077,0.11,0.167,0.188c0.031,0.02,0.084,0.048,0.157,0.082c0.161,0.07,0.242,0.154,0.242,0.256c0,0.105-0.058,0.182-0.174,0.219
		c-0.118,0.037-0.408,0.057-0.874,0.057c-0.136,0-0.23-0.028-0.282-0.08c-0.052-0.051-0.079-0.146-0.079-0.281L37.451,73.308
		l0.002-0.001v0.001H37.451z M37.386,71.197h-0.145c-0.837,0-1.484,0.131-1.942,0.396c-0.456,0.261-0.685,0.633-0.685,1.111
		c0,0.291,0.099,0.529,0.298,0.713c0.199,0.186,0.458,0.276,0.777,0.276c0.179,0,0.355-0.024,0.529-0.071
		c0.176-0.047,0.328-0.108,0.464-0.192c0.266-0.163,0.448-0.343,0.551-0.525c0.101-0.19,0.153-0.45,0.153-0.784V71.197
		L37.386,71.197z"/>
	<path fill="#FFFFFF" d="M39.321,69.063h1.036c0.208,0,0.346,0.015,0.414,0.043c0.067,0.028,0.101,0.081,0.101,0.156
		c0,0.038-0.008,0.075-0.027,0.106c-0.017,0.03-0.042,0.057-0.074,0.08c-0.008,0.004-0.025,0.014-0.05,0.026
		c-0.25,0.153-0.374,0.308-0.374,0.458c0,0.218,0.067,0.539,0.208,0.964c0.141,0.427,0.334,0.896,0.581,1.411
		c0.125,0.257,0.242,0.473,0.353,0.639c0.109,0.17,0.215,0.297,0.318,0.383c0.112-0.113,0.224-0.254,0.334-0.426
		c0.112-0.173,0.224-0.38,0.34-0.619c0.24-0.492,0.431-0.967,0.576-1.422c0.145-0.451,0.218-0.779,0.218-0.98
		c0-0.1-0.077-0.205-0.226-0.315c-0.035-0.028-0.063-0.051-0.081-0.065c-0.079-0.062-0.126-0.106-0.143-0.141
		C42.808,69.33,42.8,69.289,42.8,69.24c0-0.064,0.027-0.111,0.08-0.139c0.055-0.027,0.149-0.04,0.29-0.04h0.785
		c0.146,0,0.254,0.015,0.316,0.045c0.063,0.028,0.097,0.082,0.097,0.153c0,0.082-0.046,0.164-0.136,0.248
		c-0.091,0.082-0.145,0.14-0.16,0.172c-0.042,0.084-0.111,0.293-0.202,0.635c-0.091,0.339-0.178,0.628-0.26,0.859
		c-0.319,0.908-0.662,1.66-1.031,2.252c-0.368,0.591-0.666,0.886-0.893,0.886c-0.182,0-0.431-0.239-0.746-0.718
		s-0.628-1.098-0.94-1.861c-0.158-0.391-0.302-0.812-0.435-1.27c-0.133-0.455-0.217-0.711-0.247-0.768
		c-0.025-0.039-0.094-0.093-0.205-0.167c-0.112-0.071-0.165-0.149-0.165-0.235c0-0.082,0.029-0.142,0.086-0.176
		C39.093,69.08,39.188,69.063,39.321,69.063z"/>
	<path fill="#FFFFFF" d="M45.419,70.283c0-0.13-0.014-0.22-0.042-0.27c-0.028-0.051-0.081-0.102-0.157-0.15
		c-0.032-0.021-0.082-0.05-0.145-0.082c-0.129-0.062-0.193-0.132-0.193-0.203c0-0.053,0.019-0.104,0.056-0.144
		c0.038-0.044,0.103-0.091,0.195-0.142l0.077-0.043c0.436-0.229,0.726-0.346,0.871-0.346c0.076,0,0.127,0.034,0.155,0.104
		c0.028,0.068,0.044,0.225,0.044,0.474v3.772c0,0.093,0.01,0.17,0.032,0.229c0.021,0.062,0.054,0.103,0.096,0.123
		c0.051,0.022,0.112,0.046,0.183,0.075c0.187,0.076,0.281,0.162,0.281,0.265c0,0.079-0.03,0.134-0.091,0.162
		c-0.061,0.03-0.176,0.047-0.344,0.047h-1.155c-0.154,0-0.258-0.017-0.314-0.047c-0.056-0.028-0.083-0.081-0.083-0.153
		c0-0.054,0.014-0.099,0.043-0.14c0.029-0.04,0.081-0.077,0.155-0.114c0.028-0.012,0.068-0.031,0.119-0.052
		c0.146-0.062,0.221-0.188,0.221-0.378V70.28h-0.004V70.283L45.419,70.283z M45.124,67.354c0-0.166,0.057-0.298,0.174-0.401
		c0.117-0.104,0.268-0.156,0.454-0.156c0.184,0,0.331,0.052,0.443,0.156c0.113,0.104,0.17,0.235,0.17,0.401
		c0,0.17-0.057,0.31-0.172,0.411c-0.114,0.102-0.266,0.15-0.45,0.15c-0.191,0-0.341-0.049-0.453-0.15
		C45.178,67.662,45.124,67.524,45.124,67.354z"/>
	<path fill="#FFFFFF" d="M51.253,73.308c-0.235,0.332-0.526,0.582-0.871,0.752c-0.344,0.168-0.739,0.254-1.188,0.254
		c-0.534,0-0.958-0.143-1.271-0.43c-0.313-0.281-0.47-0.666-0.47-1.146c0-0.655,0.289-1.161,0.871-1.509
		c0.581-0.35,1.417-0.529,2.508-0.529h0.243c-0.043-0.379-0.202-0.675-0.481-0.886c-0.277-0.214-0.643-0.319-1.092-0.319
		c-0.258,0-0.534,0.086-0.827,0.256c-0.293,0.174-0.483,0.258-0.57,0.258c-0.099,0-0.183-0.025-0.25-0.084
		c-0.065-0.055-0.099-0.125-0.099-0.211c0-0.226,0.167-0.414,0.5-0.562c0.333-0.149,0.769-0.226,1.305-0.226
		c0.885,0,1.522,0.205,1.916,0.621c0.392,0.412,0.588,1.095,0.588,2.033v1.639c0,0.08,0.01,0.145,0.031,0.191
		c0.023,0.049,0.077,0.11,0.166,0.188c0.032,0.02,0.086,0.048,0.155,0.082c0.162,0.07,0.242,0.154,0.242,0.256
		c0,0.105-0.058,0.182-0.175,0.219c-0.114,0.037-0.403,0.057-0.873,0.057c-0.137,0-0.229-0.028-0.282-0.08
		c-0.052-0.051-0.079-0.146-0.079-0.281L51.253,73.308L51.253,73.308z M51.189,71.197h-0.146c-0.838,0-1.485,0.131-1.941,0.396
		c-0.457,0.261-0.685,0.633-0.685,1.111c0,0.291,0.099,0.529,0.298,0.713c0.198,0.186,0.458,0.276,0.775,0.276
		c0.181,0,0.358-0.024,0.53-0.071c0.174-0.047,0.328-0.108,0.465-0.192c0.264-0.163,0.449-0.343,0.551-0.525
		c0.102-0.19,0.152-0.45,0.152-0.784V71.197L51.189,71.197z"/>
	<path fill="#FFFFFF" d="M53.73,73.462v-3.771h-0.338c-0.191,0-0.322-0.021-0.394-0.07c-0.069-0.047-0.106-0.125-0.106-0.242
		c0-0.084,0.022-0.147,0.071-0.199c0.05-0.053,0.11-0.084,0.19-0.094c0.031-0.006,0.074-0.008,0.123-0.012
		c0.229-0.019,0.375-0.062,0.439-0.136c0.082-0.085,0.15-0.378,0.211-0.886c0.018-0.146,0.031-0.26,0.043-0.344
		c0.006-0.041,0.012-0.099,0.021-0.172c0.045-0.363,0.161-0.541,0.354-0.541c0.088,0,0.145,0.026,0.176,0.084
		c0.028,0.055,0.045,0.213,0.045,0.477v1.507h0.77c0.188,0,0.318,0.026,0.393,0.073c0.078,0.049,0.114,0.131,0.114,0.244
		c0,0.108-0.04,0.188-0.12,0.238c-0.082,0.051-0.209,0.075-0.385,0.075h-0.77v3.195c0,0.216,0.02,0.37,0.053,0.466
		c0.031,0.096,0.094,0.157,0.179,0.188c0.104,0.039,0.304,0.065,0.595,0.084c0.293,0.017,0.438,0.092,0.438,0.229
		c0,0.117-0.032,0.198-0.101,0.24c-0.064,0.044-0.233,0.063-0.5,0.063h-1.026c-0.195,0-0.32-0.033-0.382-0.1
		C53.762,73.986,53.73,73.789,53.73,73.462z"/>
	<path fill="#FFFFFF" d="M56.775,70.283c0-0.13-0.014-0.22-0.041-0.27c-0.024-0.051-0.08-0.102-0.154-0.15
		c-0.033-0.021-0.084-0.05-0.145-0.082c-0.131-0.062-0.194-0.132-0.194-0.203c0-0.053,0.019-0.104,0.058-0.144
		c0.036-0.044,0.102-0.091,0.194-0.142l0.077-0.043c0.438-0.229,0.728-0.346,0.871-0.346c0.074,0,0.127,0.034,0.156,0.104
		c0.026,0.068,0.041,0.225,0.041,0.474v3.772c0,0.093,0.012,0.17,0.032,0.229c0.019,0.062,0.052,0.103,0.095,0.123
		c0.051,0.022,0.111,0.046,0.186,0.075c0.186,0.076,0.279,0.162,0.279,0.265c0,0.079-0.031,0.134-0.092,0.162
		c-0.062,0.03-0.177,0.047-0.344,0.047h-1.154c-0.154,0-0.26-0.017-0.315-0.047c-0.054-0.028-0.083-0.081-0.083-0.153
		c0-0.054,0.015-0.099,0.044-0.14c0.026-0.04,0.08-0.077,0.153-0.114c0.028-0.012,0.069-0.031,0.121-0.052
		c0.146-0.062,0.219-0.188,0.219-0.378v-2.99h-0.004V70.283z M56.48,67.354c0-0.166,0.059-0.298,0.176-0.401
		c0.117-0.104,0.269-0.156,0.455-0.156c0.181,0,0.328,0.052,0.441,0.156c0.114,0.104,0.17,0.235,0.17,0.401
		c0,0.17-0.059,0.31-0.173,0.411s-0.264,0.15-0.452,0.15s-0.34-0.049-0.449-0.15C56.538,67.662,56.48,67.524,56.48,67.354z"/>
	<path fill="#FFFFFF" d="M58.861,71.625c0-0.789,0.252-1.437,0.756-1.941c0.503-0.502,1.152-0.755,1.949-0.755
		s1.449,0.252,1.945,0.754c0.5,0.499,0.75,1.149,0.75,1.942c0,0.795-0.25,1.438-0.75,1.938c-0.498,0.501-1.148,0.752-1.945,0.752
		c-0.803,0-1.451-0.251-1.951-0.752C59.111,73.063,58.861,72.417,58.861,71.625z M59.807,71.625c0,0.642,0.162,1.15,0.483,1.535
		s0.745,0.575,1.274,0.575c0.524,0,0.949-0.19,1.27-0.575c0.322-0.386,0.48-0.895,0.48-1.535c0-0.64-0.158-1.153-0.48-1.541
		c-0.32-0.387-0.744-0.58-1.27-0.58c-0.524,0-0.947,0.197-1.271,0.584C59.971,70.48,59.807,70.992,59.807,71.625z"/>
	<path fill="#FFFFFF" d="M65.355,73.695c0.139-0.078,0.205-0.227,0.205-0.453v-2.455c0-0.349-0.015-0.576-0.037-0.679
		c-0.025-0.106-0.073-0.185-0.143-0.235c-0.041-0.031-0.124-0.072-0.246-0.121c-0.121-0.049-0.185-0.112-0.185-0.194
		c0-0.097,0.11-0.226,0.325-0.388c0.218-0.16,0.396-0.242,0.535-0.242c0.101,0,0.192,0.074,0.272,0.225
		c0.085,0.146,0.157,0.368,0.224,0.667c0.228-0.293,0.491-0.515,0.789-0.664c0.303-0.151,0.627-0.228,0.982-0.228
		c0.604,0,1.057,0.199,1.355,0.595c0.299,0.397,0.447,0.999,0.447,1.81v1.943c0,0.121,0.01,0.203,0.021,0.255
		c0.018,0.052,0.043,0.087,0.084,0.113c0.031,0.022,0.08,0.048,0.137,0.082c0.148,0.08,0.223,0.161,0.223,0.247
		c0,0.07-0.027,0.119-0.084,0.146c-0.055,0.028-0.147,0.043-0.281,0.043h-1.097c-0.133,0-0.227-0.016-0.282-0.041
		c-0.056-0.027-0.084-0.072-0.084-0.137c0-0.091,0.061-0.162,0.178-0.217c0.035-0.018,0.062-0.029,0.076-0.037
		c0.125-0.062,0.201-0.118,0.225-0.171c0.025-0.056,0.038-0.153,0.038-0.3v-1.936c0-0.604-0.103-1.041-0.306-1.316
		c-0.201-0.277-0.521-0.416-0.959-0.416c-0.414,0-0.746,0.121-0.992,0.363c-0.248,0.238-0.369,0.562-0.369,0.969v2.459
		c0,0.072,0.005,0.13,0.017,0.168c0.011,0.039,0.03,0.07,0.058,0.095c0.033,0.021,0.086,0.051,0.156,0.085
		c0.141,0.072,0.211,0.148,0.211,0.229c0,0.078-0.026,0.131-0.084,0.156c-0.056,0.028-0.162,0.045-0.315,0.045H65.43
		c-0.136,0-0.229-0.015-0.277-0.037c-0.053-0.026-0.075-0.07-0.075-0.131c0-0.055,0.013-0.098,0.036-0.134
		c0.023-0.032,0.086-0.077,0.185-0.13C65.312,73.718,65.332,73.708,65.355,73.695L65.355,73.695z"/>
</g>
<g>
	<circle fill="#D81F26" cx="56.57" cy="29.051" r="2.45"/>
	<circle fill="#D81F26" cx="53.221" cy="25.808" r="1.641"/>
	<circle fill="#D81F26" cx="66.591" cy="39.433" r="4.075"/>
	<circle fill="#D81F26" cx="61.094" cy="33.603" r="3.245"/>
</g>
<g>
	<circle fill="#D81F26" cx="45.15" cy="29.1" r="2.452"/>
	<circle fill="#D81F26" cx="48.452" cy="25.808" r="1.641"/>
	<circle fill="#D81F26" cx="35.074" cy="39.434" r="4.077"/>
	<circle fill="#D81F26" cx="40.655" cy="33.756" r="3.245"/>
</g>
<g>
	<circle fill="#D81F26" cx="56.477" cy="17.757" r="2.452"/>
	<circle fill="#D81F26" cx="53.2" cy="21.035" r="1.641"/>
	<circle fill="#D81F26" cx="66.747" cy="7.643" r="4.077"/>
	<circle fill="#D81F26" cx="61.059" cy="13.266" r="3.245"/>
</g>
<g>
	<circle fill="#D81F26" cx="45.229" cy="17.684" r="2.451"/>
	<circle fill="#D81F26" cx="48.425" cy="21.014" r="1.64"/>
	<circle fill="#D81F26" cx="34.761" cy="7.669" r="4.077"/>
	<circle fill="#D81F26" cx="40.536" cy="13.206" r="3.245"/>
</g>
<path fill="#FFFFFF" d="M80.352,57.859c0.002-1.824,1.498-3.242,3.414-3.236c1.828,0.002,3.286,1.442,3.289,3.246
	c0.004,1.873-1.471,3.293-3.418,3.286C81.82,61.147,80.35,59.669,80.352,57.859z M83.748,60.496c1.402,0,2.492-1.146,2.482-2.607
	c-0.014-1.479-1.142-2.646-2.543-2.631c-1.408,0.016-2.518,1.176-2.518,2.625C81.175,59.371,82.287,60.503,83.748,60.496z"/>
<path fill="#FFFFFF" d="M82.448,56.317c0.698-0.088,1.392-0.198,2.081,0.013c0.359,0.107,0.578,0.364,0.604,0.76
	c0.026,0.377-0.165,0.617-0.49,0.773c-0.045,0.021-0.088,0.049-0.168,0.094c0.655,0.338,0.508,1.039,0.801,1.602
	c-0.271,0-0.494,0.01-0.721-0.008c-0.055-0.004-0.121-0.094-0.146-0.158c-0.062-0.176-0.113-0.354-0.156-0.537
	c-0.118-0.475-0.25-0.578-0.738-0.58c-0.099,0-0.193,0-0.33,0c0,0.432,0,0.842,0,1.271c-0.27,0-0.494,0-0.735,0
	C82.448,58.47,82.448,57.406,82.448,56.317z M83.227,57.765c0.256-0.021,0.487-0.025,0.707-0.068
	c0.234-0.048,0.409-0.193,0.398-0.457c-0.012-0.256-0.173-0.416-0.417-0.447c-0.22-0.027-0.447-0.006-0.688-0.006
	C83.227,57.108,83.227,57.406,83.227,57.765z"/>
</svg>
