<?xml version="1.0" encoding="utf-8"?>
<!-- Generator: Adobe Illustrator 16.0.0, SVG Export Plug-In . SVG Version: 6.00 Build 0)  -->
<!DOCTYPE svg PUBLIC "-//W3C//DTD SVG 1.1//EN" "http://www.w3.org/Graphics/SVG/1.1/DTD/svg11.dtd">
<svg version="1.1" id="Capa_1" xmlns="http://www.w3.org/2000/svg" xmlns:xlink="http://www.w3.org/1999/xlink" x="0px" y="0px"
	 width="100px" height="72.025px" viewBox="0 0 100 72.025" enable-background="new 0 0 100 72.025" xml:space="preserve">
<g>
	<g>
		<circle fill="#D81F26" cx="56.88" cy="29.245" r="2.487"/>
		<circle fill="#D81F26" cx="53.479" cy="25.956" r="1.663"/>
		<circle fill="#D81F26" cx="67.044" cy="39.779" r="4.135"/>
		<circle fill="#D81F26" cx="61.467" cy="33.861" r="3.292"/>
	</g>
	<g>
		<circle fill="#D81F26" cx="45.293" cy="29.296" r="2.487"/>
		<circle fill="#D81F26" cx="48.643" cy="25.956" r="1.663"/>
		<circle fill="#D81F26" cx="35.072" cy="39.779" r="4.136"/>
		<circle fill="#D81F26" cx="40.734" cy="34.017" r="3.292"/>
	</g>
	<g>
		<circle fill="#D81F26" cx="56.785" cy="17.788" r="2.487"/>
		<circle fill="#D81F26" cx="53.46" cy="21.112" r="1.663"/>
		<circle fill="#D81F26" cx="67.202" cy="7.527" r="4.136"/>
		<circle fill="#D81F26" cx="61.43" cy="13.232" r="3.292"/>
	</g>
	<g>
		<circle fill="#D81F26" cx="45.372" cy="17.713" r="2.486"/>
		<circle fill="#D81F26" cx="48.615" cy="21.092" r="1.663"/>
		<circle fill="#D81F26" cx="34.753" cy="7.555" r="4.136"/>
		<circle fill="#D81F26" cx="40.611" cy="13.171" r="3.292"/>
	</g>
</g>
<g>
	<path fill="#FFFFFF" d="M26.13,57.023c0.186,0.872,0.584,1.562,1.195,2.073c0.611,0.51,1.341,0.765,2.19,0.765
		c0.454,0,0.882-0.056,1.285-0.167c0.402-0.112,0.797-0.286,1.184-0.525c0.187-0.11,0.417-0.271,0.693-0.479
		c0.38-0.275,0.629-0.414,0.749-0.414c0.12,0,0.218,0.045,0.296,0.135c0.079,0.089,0.118,0.204,0.118,0.347
		c0,0.23-0.155,0.509-0.464,0.832s-0.72,0.636-1.235,0.933c-0.431,0.254-0.888,0.443-1.369,0.57
		c-0.48,0.128-0.984,0.189-1.514,0.189c-1.572,0-2.827-0.467-3.765-1.402c-0.938-0.935-1.408-2.185-1.408-3.749
		c0-1.712,0.557-3.147,1.67-4.307c1.114-1.158,2.486-1.737,4.118-1.737c1.243,0,2.201,0.257,2.871,0.771s1.005,1.24,1.005,2.179
		c0,1.11-0.62,1.987-1.86,2.632C30.65,56.311,28.729,56.763,26.13,57.023z M25.962,55.874c2.026-0.193,3.515-0.534,4.464-1.022
		c0.95-0.487,1.425-1.146,1.425-1.974c0-0.55-0.192-0.981-0.576-1.295c-0.383-0.312-0.91-0.469-1.581-0.469
		c-1.095,0-1.991,0.424-2.688,1.273c-0.697,0.848-1.045,1.95-1.045,3.307L25.962,55.874L25.962,55.874z"/>
	<path fill="#FFFFFF" d="M36.868,58.789c0.849-1.19,1.688-2.237,2.515-3.14c-0.679-0.744-1.366-1.585-2.062-2.521
		c-0.697-0.935-1.108-1.461-1.235-1.581c-0.097-0.089-0.292-0.207-0.587-0.352c-0.294-0.146-0.441-0.3-0.441-0.463
		c0-0.144,0.052-0.239,0.156-0.29c0.104-0.054,0.324-0.079,0.659-0.079h2.223c0.351,0,0.583,0.025,0.698,0.079
		c0.116,0.051,0.173,0.146,0.173,0.29c0,0.088-0.099,0.22-0.295,0.391c-0.198,0.171-0.296,0.328-0.296,0.469
		c0,0.208,0.188,0.566,0.564,1.073s0.903,1.104,1.581,1.787c0.611-0.61,1.106-1.185,1.486-1.721
		c0.379-0.536,0.569-0.917,0.569-1.141c0-0.127-0.113-0.271-0.34-0.437c-0.228-0.163-0.341-0.305-0.341-0.423
		c0-0.144,0.062-0.239,0.185-0.29c0.123-0.054,0.375-0.079,0.754-0.079h1.576c0.305,0,0.508,0.021,0.609,0.067
		c0.101,0.044,0.15,0.125,0.15,0.244c0,0.164-0.13,0.312-0.391,0.441c-0.261,0.13-0.443,0.252-0.547,0.362
		c-0.075,0.075-0.416,0.545-1.022,1.407c-0.608,0.864-1.242,1.646-1.905,2.349c0.723,0.781,1.488,1.672,2.296,2.67
		c0.808,0.997,1.302,1.571,1.48,1.721c0.097,0.089,0.296,0.216,0.598,0.38c0.302,0.163,0.453,0.335,0.453,0.514
		c0,0.165-0.065,0.277-0.196,0.342c-0.131,0.063-0.378,0.095-0.743,0.095h-2.335c-0.261,0-0.453-0.038-0.576-0.117
		c-0.123-0.078-0.184-0.198-0.184-0.361c0-0.136,0.089-0.286,0.268-0.454c0.178-0.167,0.268-0.3,0.268-0.396
		c0-0.262-0.22-0.663-0.659-1.208c-0.439-0.543-1.069-1.19-1.888-1.942c-0.67,0.752-1.181,1.38-1.531,1.883
		c-0.35,0.503-0.525,0.866-0.525,1.09c0,0.201,0.137,0.384,0.413,0.547c0.275,0.164,0.414,0.332,0.414,0.502
		c0,0.165-0.069,0.282-0.207,0.354c-0.138,0.07-0.359,0.105-0.665,0.105H35.65c-0.223,0-0.385-0.037-0.486-0.112
		c-0.101-0.072-0.151-0.188-0.151-0.347c0-0.215,0.197-0.408,0.592-0.58s0.651-0.328,0.771-0.469
		C36.458,59.352,36.623,59.132,36.868,58.789L36.868,58.789z"/>
	<path fill="#FFFFFF" d="M54.667,59.191c-0.492,0.691-1.095,1.214-1.812,1.564c-0.715,0.351-1.537,0.524-2.468,0.524
		c-1.109,0-1.991-0.296-2.642-0.889c-0.652-0.593-0.978-1.388-0.978-2.386c0-1.362,0.603-2.409,1.81-3.14s2.946-1.095,5.217-1.095
		h0.503c-0.089-0.789-0.423-1.406-1-1.851c-0.576-0.443-1.335-0.665-2.273-0.665c-0.536,0-1.109,0.18-1.719,0.536
		c-0.611,0.358-1.006,0.536-1.185,0.536c-0.208,0-0.382-0.058-0.52-0.173c-0.137-0.115-0.206-0.263-0.206-0.44
		c0-0.47,0.346-0.859,1.039-1.169c0.692-0.309,1.597-0.463,2.714-0.463c1.84,0,3.168,0.431,3.983,1.29
		c0.815,0.86,1.224,2.271,1.224,4.229v3.407c0,0.164,0.022,0.296,0.067,0.396c0.043,0.102,0.16,0.229,0.347,0.387
		c0.065,0.044,0.174,0.101,0.323,0.167c0.335,0.149,0.502,0.327,0.502,0.535c0,0.226-0.12,0.375-0.362,0.454
		c-0.242,0.077-0.847,0.117-1.814,0.117c-0.283,0-0.479-0.056-0.587-0.162c-0.108-0.108-0.162-0.303-0.162-0.587V59.191z
		 M54.533,54.801H54.23c-1.742,0-3.09,0.274-4.04,0.82c-0.95,0.548-1.424,1.321-1.424,2.319c0,0.604,0.207,1.097,0.62,1.479
		c0.413,0.384,0.952,0.575,1.614,0.575c0.373,0,0.74-0.048,1.101-0.146c0.361-0.098,0.685-0.23,0.969-0.401
		c0.55-0.343,0.932-0.708,1.145-1.095c0.212-0.389,0.318-0.933,0.318-1.633V54.801z"/>
	<path fill="#FFFFFF" d="M59.706,58.667V53.75c0-0.469-0.036-0.8-0.106-0.994c-0.07-0.192-0.188-0.351-0.352-0.47
		c-0.119-0.096-0.298-0.196-0.537-0.302c-0.342-0.156-0.514-0.346-0.514-0.568c0-0.091,0.049-0.2,0.146-0.33s0.23-0.259,0.402-0.386
		c0.237-0.186,0.456-0.332,0.653-0.436c0.197-0.104,0.353-0.157,0.463-0.157c0.345,0,0.637,0.274,0.879,0.827
		c0.242,0.552,0.385,1.28,0.43,2.189c0.38-0.982,0.83-1.743,1.352-2.28c0.521-0.534,1.062-0.804,1.621-0.804
		c0.396,0,0.699,0.146,0.916,0.441c0.217,0.294,0.323,0.713,0.323,1.257c0,0.172-0.054,0.312-0.161,0.425
		c-0.107,0.111-0.248,0.167-0.419,0.167c-0.18,0-0.424-0.076-0.731-0.229c-0.311-0.152-0.526-0.229-0.653-0.229
		c-0.492,0-0.94,0.417-1.347,1.252c-0.406,0.834-0.609,1.852-0.609,3.05v2.447c0,0.47,0.029,0.774,0.085,0.916
		c0.056,0.144,0.153,0.242,0.295,0.302c0.112,0.044,0.287,0.098,0.525,0.156c0.454,0.119,0.682,0.302,0.682,0.547
		c0,0.149-0.058,0.256-0.173,0.319c-0.115,0.062-0.334,0.095-0.654,0.095h-2.859c-0.312,0-0.521-0.026-0.627-0.084
		c-0.104-0.056-0.154-0.158-0.154-0.308c0-0.192,0.167-0.372,0.502-0.535c0.18-0.09,0.311-0.16,0.393-0.213
		c0.09-0.061,0.149-0.148,0.184-0.27c0.033-0.119,0.051-0.319,0.051-0.604v-0.276H59.706z"/>
	<path fill="#FFFFFF" d="M67.438,52.9c0-0.269-0.026-0.454-0.082-0.559c-0.058-0.104-0.166-0.209-0.33-0.312
		c-0.067-0.046-0.168-0.102-0.303-0.168c-0.268-0.134-0.402-0.275-0.402-0.425c0-0.112,0.041-0.212,0.117-0.301
		c0.078-0.091,0.215-0.188,0.408-0.293l0.156-0.088c0.909-0.478,1.512-0.716,1.811-0.716c0.158,0,0.266,0.071,0.324,0.212
		c0.059,0.143,0.09,0.471,0.09,0.983v7.844c0,0.193,0.022,0.354,0.066,0.48c0.045,0.127,0.111,0.213,0.2,0.257
		c0.104,0.044,0.231,0.097,0.381,0.157c0.388,0.155,0.58,0.338,0.58,0.546c0,0.165-0.062,0.277-0.188,0.342
		c-0.127,0.063-0.365,0.095-0.716,0.095h-2.401c-0.32,0-0.539-0.031-0.654-0.095s-0.174-0.17-0.174-0.319
		c0-0.109,0.031-0.208,0.091-0.29s0.167-0.16,0.323-0.233c0.06-0.029,0.143-0.066,0.246-0.112c0.306-0.126,0.457-0.386,0.457-0.782
		V52.9L67.438,52.9z M66.823,46.812c0-0.345,0.12-0.622,0.362-0.839c0.241-0.217,0.558-0.324,0.944-0.324
		c0.38,0,0.688,0.107,0.922,0.324c0.234,0.217,0.353,0.494,0.353,0.839c0,0.355-0.119,0.643-0.357,0.854
		c-0.238,0.213-0.551,0.319-0.938,0.319c-0.396,0-0.709-0.106-0.938-0.319C66.939,47.455,66.823,47.169,66.823,46.812z"/>
	<path fill="#FFFFFF" d="M71.314,58.879c0-0.217,0.068-0.394,0.207-0.53c0.139-0.139,0.312-0.207,0.52-0.207
		c0.23,0,0.507,0.201,0.827,0.604c0.097,0.111,0.171,0.2,0.224,0.27c0.307,0.342,0.648,0.6,1.028,0.771s0.808,0.257,1.284,0.257
		c0.671,0,1.22-0.175,1.647-0.524c0.429-0.351,0.642-0.801,0.642-1.354c0-0.773-0.879-1.373-2.637-1.799
		c-0.096-0.022-0.175-0.04-0.232-0.055c-1.096-0.27-1.879-0.63-2.348-1.084c-0.47-0.455-0.705-1.069-0.705-1.845
		c0-0.998,0.338-1.797,1.008-2.396c0.67-0.601,1.566-0.898,2.691-0.898c1.073,0,1.9,0.154,2.486,0.463
		c0.584,0.31,0.877,0.743,0.877,1.303c0,0.41-0.029,0.685-0.09,0.821c-0.061,0.138-0.176,0.205-0.348,0.205
		c-0.199,0-0.438-0.163-0.715-0.489c-0.111-0.127-0.201-0.225-0.269-0.291c-0.282-0.29-0.617-0.515-1.005-0.67
		c-0.387-0.157-0.805-0.235-1.251-0.235c-0.537,0-0.983,0.155-1.341,0.463c-0.357,0.31-0.537,0.696-0.537,1.158
		c0,0.387,0.117,0.691,0.353,0.915c0.234,0.224,0.688,0.429,1.356,0.613c0.217,0.062,0.521,0.14,0.918,0.236
		c0.975,0.23,1.623,0.45,1.943,0.659c0.461,0.297,0.807,0.646,1.033,1.05c0.227,0.401,0.34,0.859,0.34,1.374
		c0,1.08-0.361,1.953-1.089,2.621c-0.727,0.665-1.682,0.999-2.866,0.999c-1.006,0-1.916-0.271-2.73-0.811
		C71.723,59.93,71.314,59.4,71.314,58.879z"/>
</g>
<g>
	<path fill="#FFFFFF" d="M40.412,69.904c-0.173,0.244-0.386,0.428-0.638,0.553c-0.253,0.123-0.543,0.186-0.872,0.186
		c-0.392,0-0.703-0.104-0.933-0.313c-0.23-0.208-0.346-0.49-0.346-0.842c0-0.481,0.213-0.853,0.64-1.108
		c0.426-0.257,1.04-0.388,1.842-0.388h0.177c-0.031-0.278-0.149-0.496-0.353-0.651c-0.204-0.156-0.472-0.233-0.803-0.233
		c-0.189,0-0.392,0.062-0.607,0.188c-0.215,0.127-0.354,0.188-0.418,0.188c-0.074,0-0.135-0.02-0.184-0.062
		c-0.048-0.04-0.073-0.092-0.073-0.154c0-0.166,0.123-0.305,0.367-0.412c0.245-0.109,0.564-0.164,0.958-0.164
		c0.649,0,1.119,0.15,1.407,0.455c0.288,0.304,0.431,0.803,0.431,1.493v1.202c0,0.06,0.008,0.105,0.024,0.142
		c0.015,0.035,0.056,0.081,0.122,0.137c0.023,0.015,0.062,0.035,0.115,0.06c0.118,0.052,0.177,0.114,0.177,0.188
		c0,0.079-0.042,0.133-0.128,0.16s-0.299,0.042-0.641,0.042c-0.1,0-0.169-0.021-0.207-0.059c-0.039-0.037-0.058-0.106-0.058-0.206
		L40.412,69.904L40.412,69.904z M40.365,68.354h-0.106c-0.615,0-1.09,0.096-1.426,0.29c-0.335,0.192-0.503,0.465-0.503,0.816
		c0,0.213,0.073,0.389,0.219,0.523c0.146,0.136,0.336,0.203,0.57,0.203c0.132,0,0.261-0.019,0.389-0.053
		c0.128-0.033,0.241-0.08,0.341-0.142c0.195-0.12,0.329-0.251,0.405-0.386c0.074-0.139,0.112-0.33,0.112-0.576L40.365,68.354
		L40.365,68.354z"/>
	<path fill="#FFFFFF" d="M41.785,66.788h0.761c0.152,0,0.254,0.011,0.304,0.032c0.049,0.021,0.074,0.059,0.074,0.114
		c0,0.027-0.006,0.056-0.02,0.078c-0.013,0.023-0.031,0.043-0.055,0.06c-0.005,0.002-0.018,0.01-0.036,0.019
		c-0.184,0.113-0.275,0.227-0.275,0.337c0,0.159,0.05,0.396,0.153,0.708s0.245,0.656,0.426,1.035
		c0.092,0.189,0.178,0.348,0.259,0.47c0.08,0.124,0.158,0.217,0.234,0.28c0.082-0.083,0.164-0.187,0.245-0.312
		c0.082-0.127,0.164-0.279,0.249-0.455c0.176-0.362,0.317-0.71,0.423-1.043c0.107-0.332,0.16-0.573,0.16-0.721
		c0-0.073-0.056-0.15-0.166-0.231c-0.026-0.021-0.046-0.037-0.059-0.048c-0.058-0.045-0.093-0.079-0.105-0.104
		c-0.012-0.023-0.018-0.054-0.018-0.09c0-0.048,0.02-0.082,0.059-0.101c0.04-0.021,0.11-0.03,0.213-0.03h0.576
		c0.107,0,0.186,0.011,0.232,0.033c0.047,0.021,0.071,0.06,0.071,0.113c0,0.06-0.033,0.12-0.1,0.182
		c-0.067,0.061-0.106,0.102-0.117,0.126c-0.031,0.061-0.081,0.215-0.148,0.465c-0.067,0.249-0.131,0.461-0.191,0.632
		c-0.234,0.667-0.486,1.219-0.757,1.652c-0.271,0.434-0.489,0.65-0.655,0.65c-0.134,0-0.317-0.176-0.548-0.526
		c-0.231-0.352-0.461-0.806-0.69-1.367c-0.116-0.286-0.222-0.597-0.319-0.931c-0.098-0.334-0.159-0.522-0.182-0.563
		c-0.018-0.028-0.068-0.068-0.15-0.123c-0.082-0.053-0.122-0.109-0.122-0.173c0-0.061,0.021-0.104,0.063-0.13
		C41.618,66.801,41.688,66.788,41.785,66.788z"/>
	<path fill="#FFFFFF" d="M46.262,67.683c0-0.095-0.01-0.16-0.03-0.197c-0.02-0.036-0.059-0.074-0.116-0.11
		c-0.023-0.016-0.06-0.036-0.106-0.06c-0.095-0.047-0.142-0.098-0.142-0.149c0-0.039,0.014-0.076,0.041-0.105
		c0.028-0.032,0.076-0.066,0.144-0.104l0.056-0.032c0.32-0.167,0.533-0.253,0.639-0.253c0.055,0,0.093,0.025,0.114,0.076
		c0.021,0.05,0.032,0.165,0.032,0.348v2.77c0,0.068,0.007,0.125,0.023,0.169c0.016,0.045,0.04,0.075,0.071,0.091
		c0.037,0.017,0.082,0.034,0.134,0.056c0.137,0.056,0.206,0.119,0.206,0.193c0,0.059-0.022,0.099-0.067,0.12
		c-0.044,0.021-0.129,0.033-0.252,0.033h-0.848c-0.113,0-0.19-0.012-0.231-0.033s-0.061-0.06-0.061-0.113
		c0-0.039,0.01-0.072,0.032-0.102c0.021-0.029,0.059-0.057,0.114-0.084c0.021-0.009,0.05-0.023,0.087-0.038
		c0.107-0.045,0.162-0.138,0.162-0.277v-2.197H46.262z M46.045,65.534c0-0.122,0.042-0.219,0.128-0.296
		c0.085-0.076,0.196-0.114,0.333-0.114c0.134,0,0.243,0.038,0.325,0.114c0.083,0.077,0.125,0.174,0.125,0.296
		c0,0.125-0.042,0.227-0.126,0.302c-0.084,0.074-0.195,0.111-0.331,0.111c-0.14,0-0.25-0.037-0.332-0.111
		C46.085,65.76,46.045,65.659,46.045,65.534z"/>
	<path fill="#FFFFFF" d="M50.545,69.904c-0.173,0.244-0.386,0.428-0.639,0.553c-0.252,0.123-0.543,0.186-0.872,0.186
		c-0.392,0-0.703-0.104-0.933-0.313c-0.23-0.208-0.345-0.49-0.345-0.842c0-0.481,0.212-0.853,0.639-1.108
		c0.427-0.256,1.04-0.388,1.842-0.388h0.178c-0.031-0.278-0.149-0.496-0.353-0.651c-0.204-0.156-0.472-0.233-0.802-0.233
		c-0.189,0-0.392,0.062-0.607,0.188c-0.216,0.127-0.355,0.188-0.419,0.188c-0.073,0-0.134-0.02-0.183-0.062
		c-0.048-0.04-0.073-0.092-0.073-0.154c0-0.166,0.123-0.305,0.367-0.412c0.245-0.109,0.564-0.164,0.958-0.164
		c0.649,0,1.118,0.15,1.406,0.455c0.288,0.304,0.432,0.803,0.432,1.493v1.202c0,0.06,0.008,0.105,0.023,0.142
		c0.018,0.035,0.057,0.081,0.123,0.137c0.023,0.015,0.062,0.035,0.113,0.06c0.119,0.052,0.178,0.114,0.178,0.188
		c0,0.079-0.042,0.133-0.128,0.16c-0.085,0.027-0.298,0.042-0.642,0.042c-0.101,0-0.168-0.021-0.207-0.059
		c-0.037-0.037-0.058-0.106-0.058-0.206L50.545,69.904L50.545,69.904z M50.498,68.354h-0.106c-0.615,0-1.09,0.096-1.425,0.29
		c-0.335,0.192-0.503,0.465-0.503,0.816c0,0.213,0.072,0.389,0.219,0.523c0.146,0.136,0.336,0.203,0.569,0.203
		c0.132,0,0.262-0.019,0.389-0.053c0.127-0.033,0.241-0.08,0.341-0.142c0.194-0.12,0.329-0.251,0.404-0.386
		c0.075-0.139,0.112-0.33,0.112-0.576V68.354z"/>
	<path fill="#FFFFFF" d="M52.363,70.018V67.25h-0.248c-0.141,0-0.235-0.017-0.288-0.052c-0.052-0.034-0.079-0.093-0.079-0.178
		c0-0.062,0.018-0.109,0.054-0.147c0.035-0.038,0.081-0.062,0.14-0.068c0.023-0.004,0.056-0.006,0.092-0.009
		c0.168-0.013,0.275-0.046,0.322-0.099c0.06-0.062,0.109-0.277,0.154-0.65c0.014-0.107,0.023-0.191,0.031-0.253
		c0.005-0.03,0.01-0.072,0.016-0.126c0.032-0.266,0.119-0.397,0.26-0.397c0.064,0,0.105,0.021,0.129,0.062
		c0.021,0.041,0.033,0.157,0.033,0.35v1.107h0.564c0.137,0,0.232,0.019,0.287,0.053c0.057,0.036,0.084,0.097,0.084,0.181
		c0,0.079-0.03,0.137-0.089,0.174c-0.06,0.037-0.153,0.056-0.282,0.056h-0.564v2.347c0,0.157,0.015,0.271,0.039,0.342
		c0.023,0.069,0.068,0.115,0.131,0.137c0.076,0.028,0.224,0.049,0.437,0.062c0.215,0.012,0.322,0.067,0.322,0.168
		c0,0.086-0.024,0.146-0.074,0.177c-0.047,0.032-0.172,0.048-0.367,0.048h-0.754c-0.144,0-0.235-0.025-0.28-0.074
		C52.387,70.402,52.363,70.258,52.363,70.018z"/>
	<path fill="#FFFFFF" d="M54.6,67.683c0-0.095-0.01-0.16-0.029-0.197c-0.02-0.036-0.059-0.074-0.114-0.11
		c-0.024-0.016-0.062-0.036-0.106-0.06c-0.096-0.047-0.143-0.098-0.143-0.149c0-0.039,0.014-0.076,0.042-0.105
		c0.026-0.032,0.074-0.066,0.144-0.104l0.057-0.032c0.32-0.167,0.533-0.253,0.639-0.253c0.055,0,0.094,0.025,0.114,0.076
		c0.021,0.05,0.03,0.165,0.03,0.348v2.77c0,0.068,0.01,0.125,0.024,0.169c0.015,0.045,0.039,0.075,0.07,0.091
		c0.036,0.017,0.082,0.034,0.135,0.056c0.136,0.056,0.205,0.119,0.205,0.193c0,0.059-0.022,0.099-0.067,0.12
		s-0.129,0.033-0.252,0.033h-0.849c-0.112,0-0.19-0.012-0.231-0.033c-0.039-0.021-0.061-0.06-0.061-0.113
		c0-0.039,0.011-0.072,0.031-0.102s0.06-0.057,0.113-0.084c0.021-0.009,0.051-0.023,0.088-0.038c0.107-0.045,0.16-0.138,0.16-0.277
		V67.683z M54.383,65.534c0-0.122,0.043-0.219,0.129-0.296c0.086-0.076,0.197-0.114,0.334-0.114c0.133,0,0.241,0.038,0.324,0.114
		c0.084,0.077,0.125,0.174,0.125,0.296c0,0.125-0.043,0.227-0.127,0.302c-0.084,0.074-0.193,0.111-0.332,0.111
		s-0.249-0.037-0.33-0.111C54.425,65.76,54.383,65.659,54.383,65.534z"/>
	<path fill="#FFFFFF" d="M56.131,68.669c0-0.58,0.184-1.055,0.555-1.425c0.369-0.369,0.847-0.555,1.431-0.555
		c0.586,0,1.063,0.185,1.429,0.553c0.367,0.367,0.551,0.844,0.551,1.427s-0.184,1.057-0.551,1.422
		c-0.365,0.368-0.843,0.552-1.429,0.552c-0.589,0-1.064-0.184-1.433-0.552C56.314,69.724,56.131,69.252,56.131,68.669z
		 M56.824,68.669c0,0.471,0.119,0.845,0.355,1.127s0.547,0.423,0.936,0.423c0.386,0,0.697-0.141,0.932-0.423
		c0.236-0.282,0.354-0.656,0.354-1.127s-0.117-0.848-0.354-1.132c-0.234-0.283-0.546-0.426-0.932-0.426
		c-0.385,0-0.695,0.145-0.934,0.43C56.943,67.828,56.824,68.204,56.824,68.669z"/>
	<path fill="#FFFFFF" d="M60.898,70.188c0.101-0.057,0.15-0.166,0.15-0.332v-1.802c0-0.256-0.01-0.424-0.027-0.499
		c-0.019-0.078-0.054-0.136-0.104-0.173c-0.031-0.022-0.092-0.054-0.182-0.089c-0.09-0.036-0.135-0.083-0.135-0.144
		c0-0.07,0.08-0.166,0.239-0.284c0.158-0.118,0.29-0.178,0.392-0.178c0.074,0,0.143,0.055,0.201,0.164
		c0.062,0.107,0.115,0.271,0.162,0.489c0.168-0.215,0.361-0.378,0.581-0.487c0.222-0.111,0.46-0.166,0.722-0.166
		c0.442,0,0.775,0.146,0.994,0.436c0.221,0.291,0.33,0.733,0.33,1.327v1.428c0,0.088,0.006,0.149,0.016,0.187
		c0.012,0.037,0.031,0.064,0.061,0.083c0.023,0.017,0.059,0.035,0.102,0.06c0.108,0.059,0.162,0.119,0.162,0.182
		c0,0.052-0.021,0.087-0.061,0.106c-0.041,0.021-0.109,0.031-0.207,0.031H63.49c-0.098,0-0.167-0.011-0.207-0.029
		c-0.041-0.021-0.062-0.054-0.062-0.101c0-0.066,0.045-0.118,0.131-0.158c0.025-0.013,0.045-0.022,0.056-0.027
		c0.092-0.045,0.147-0.087,0.165-0.126c0.019-0.04,0.027-0.112,0.027-0.221v-1.42c0-0.442-0.074-0.764-0.224-0.967
		c-0.147-0.203-0.383-0.305-0.704-0.305c-0.305,0-0.548,0.089-0.729,0.266c-0.182,0.176-0.271,0.413-0.271,0.713v1.804
		c0,0.054,0.004,0.096,0.012,0.124c0.008,0.027,0.022,0.051,0.043,0.068c0.023,0.017,0.062,0.038,0.114,0.062
		c0.103,0.054,0.154,0.109,0.154,0.169c0,0.057-0.021,0.096-0.062,0.115c-0.041,0.021-0.119,0.031-0.231,0.031h-0.749
		c-0.1,0-0.168-0.01-0.204-0.027c-0.038-0.019-0.056-0.051-0.056-0.096c0-0.039,0.01-0.071,0.027-0.097
		c0.018-0.024,0.062-0.058,0.135-0.097C60.867,70.206,60.881,70.199,60.898,70.188L60.898,70.188z"/>
</g>
<g>
	<path fill="#FFFFFF" d="M80.42,59.274c0.168,0,0.332,0.044,0.491,0.13s0.284,0.209,0.373,0.369c0.09,0.159,0.134,0.327,0.134,0.501
		c0,0.172-0.044,0.337-0.131,0.496c-0.088,0.159-0.212,0.28-0.369,0.37c-0.159,0.088-0.325,0.131-0.498,0.131
		c-0.172,0-0.339-0.043-0.497-0.131c-0.157-0.09-0.28-0.211-0.368-0.37c-0.089-0.159-0.133-0.324-0.133-0.496
		c0-0.174,0.045-0.342,0.135-0.501c0.088-0.16,0.213-0.283,0.373-0.369C80.089,59.318,80.253,59.274,80.42,59.274z M80.42,59.44
		c-0.141,0-0.275,0.036-0.408,0.107s-0.238,0.175-0.312,0.309c-0.075,0.134-0.112,0.271-0.112,0.418c0,0.143,0.036,0.281,0.11,0.413
		c0.072,0.132,0.177,0.233,0.31,0.308c0.132,0.074,0.271,0.111,0.413,0.111c0.145,0,0.282-0.037,0.415-0.111
		c0.132-0.073,0.235-0.176,0.308-0.308c0.073-0.132,0.11-0.271,0.11-0.413c0-0.146-0.037-0.284-0.112-0.418
		c-0.074-0.134-0.179-0.236-0.311-0.309C80.695,59.476,80.561,59.44,80.42,59.44z M79.982,60.826v-1.074h0.367
		c0.127,0,0.219,0.011,0.275,0.029c0.057,0.02,0.102,0.055,0.135,0.104c0.033,0.052,0.051,0.104,0.051,0.157
		c0,0.08-0.028,0.147-0.084,0.206c-0.057,0.06-0.131,0.091-0.224,0.099c0.038,0.016,0.067,0.033,0.093,0.057
		c0.041,0.043,0.096,0.113,0.157,0.213l0.131,0.211h-0.212l-0.095-0.17c-0.074-0.133-0.136-0.217-0.183-0.25
		c-0.03-0.025-0.076-0.037-0.139-0.037h-0.102v0.457L79.982,60.826L79.982,60.826z M80.156,60.22h0.21
		c0.1,0,0.169-0.016,0.206-0.045c0.037-0.03,0.055-0.07,0.055-0.119c0-0.032-0.008-0.061-0.025-0.085
		c-0.019-0.025-0.043-0.045-0.074-0.057c-0.03-0.013-0.09-0.02-0.174-0.02h-0.196L80.156,60.22L80.156,60.22z"/>
</g>
</svg>
