<?xml version="1.0" encoding="utf-8"?>
<!-- Generator: Adobe Illustrator 16.0.0, SVG Export Plug-In . SVG Version: 6.00 Build 0)  -->
<!DOCTYPE svg PUBLIC "-//W3C//DTD SVG 1.1//EN" "http://www.w3.org/Graphics/SVG/1.1/DTD/svg11.dtd">
<svg version="1.1" id="Capa_1" xmlns="http://www.w3.org/2000/svg" xmlns:xlink="http://www.w3.org/1999/xlink" x="0px" y="0px"
	 width="100px" height="79.167px" viewBox="0 0 100 79.167" enable-background="new 0 0 100 79.167" xml:space="preserve">
<g>
	<g>
		<circle fill-rule="evenodd" clip-rule="evenodd" fill="#D81F26" cx="55.381" cy="31.08" r="2.592"/>
		<circle fill-rule="evenodd" clip-rule="evenodd" fill="#D81F26" cx="51.836" cy="27.651" r="1.734"/>
		<circle fill-rule="evenodd" clip-rule="evenodd" fill="#D81F26" cx="65.978" cy="42.062" r="4.312"/>
		<circle fill-rule="evenodd" clip-rule="evenodd" fill="#D81F26" cx="60.164" cy="35.893" r="3.431"/>
	</g>
	<g>
		<circle fill-rule="evenodd" clip-rule="evenodd" fill="#D81F26" cx="43.301" cy="31.133" r="2.592"/>
		<circle fill-rule="evenodd" clip-rule="evenodd" fill="#D81F26" cx="46.793" cy="27.651" r="1.734"/>
		<circle fill-rule="evenodd" clip-rule="evenodd" fill="#D81F26" cx="32.645" cy="42.062" r="4.312"/>
		<circle fill-rule="evenodd" clip-rule="evenodd" fill="#D81F26" cx="38.548" cy="36.055" r="3.432"/>
	</g>
	<g>
		<circle fill-rule="evenodd" clip-rule="evenodd" fill="#D81F26" cx="55.281" cy="19.136" r="2.593"/>
		<circle fill-rule="evenodd" clip-rule="evenodd" fill="#D81F26" cx="51.816" cy="22.601" r="1.734"/>
		<circle fill-rule="evenodd" clip-rule="evenodd" fill="#D81F26" cx="66.143" cy="8.438" r="4.312"/>
		<circle fill-rule="evenodd" clip-rule="evenodd" fill="#D81F26" cx="60.124" cy="14.386" r="3.432"/>
	</g>
	<g>
		<circle fill-rule="evenodd" clip-rule="evenodd" fill="#D81F26" cx="43.383" cy="19.057" r="2.593"/>
		<circle fill-rule="evenodd" clip-rule="evenodd" fill="#D81F26" cx="46.765" cy="22.58" r="1.734"/>
		<circle fill-rule="evenodd" clip-rule="evenodd" fill="#D81F26" cx="32.312" cy="8.467" r="4.312"/>
		<circle fill-rule="evenodd" clip-rule="evenodd" fill="#D81F26" cx="38.419" cy="14.322" r="3.432"/>
	</g>
</g>
<g>
	<path fill="#092452" d="M23.322,60.041c0.194,0.908,0.61,1.629,1.247,2.161C25.206,62.733,25.967,63,26.852,63
		c0.474,0,0.92-0.059,1.339-0.175c0.419-0.117,0.831-0.299,1.235-0.548c0.194-0.116,0.435-0.283,0.722-0.501
		c0.396-0.287,0.656-0.431,0.781-0.431c0.124,0,0.227,0.047,0.309,0.14s0.122,0.214,0.122,0.361c0,0.24-0.161,0.529-0.483,0.867
		s-0.751,0.662-1.287,0.973c-0.451,0.265-0.926,0.462-1.427,0.595c-0.501,0.132-1.027,0.198-1.579,0.198
		c-1.639,0-2.947-0.487-3.926-1.462s-1.468-2.277-1.468-3.908c0-1.786,0.581-3.283,1.742-4.491c1.161-1.207,2.592-1.812,4.292-1.812
		c1.297,0,2.295,0.269,2.994,0.804c0.699,0.536,1.048,1.293,1.048,2.271c0,1.157-0.646,2.072-1.939,2.744
		C28.034,59.296,26.033,59.769,23.322,60.041z M23.147,58.84c2.112-0.201,3.664-0.557,4.654-1.065s1.485-1.194,1.485-2.057
		c0-0.574-0.2-1.024-0.6-1.351s-0.949-0.489-1.648-0.489c-1.141,0-2.075,0.442-2.801,1.328c-0.726,0.885-1.089,2.034-1.089,3.447
		V58.84z"/>
	<path fill="#092452" d="M34.517,61.881c0.885-1.243,1.759-2.334,2.621-3.273c-0.707-0.776-1.423-1.652-2.149-2.627
		c-0.727-0.975-1.155-1.524-1.288-1.648c-0.101-0.093-0.305-0.216-0.611-0.367c-0.307-0.151-0.46-0.312-0.46-0.483
		c0-0.147,0.054-0.248,0.163-0.303c0.108-0.054,0.337-0.081,0.687-0.081h2.318c0.365,0,0.607,0.027,0.728,0.081
		c0.12,0.055,0.18,0.155,0.18,0.303c0,0.094-0.103,0.229-0.309,0.408s-0.309,0.342-0.309,0.489c0,0.217,0.196,0.59,0.588,1.118
		c0.392,0.528,0.941,1.149,1.648,1.863c0.637-0.637,1.153-1.234,1.549-1.794c0.396-0.559,0.594-0.955,0.594-1.188
		c0-0.132-0.119-0.283-0.355-0.454s-0.355-0.318-0.355-0.443c0-0.147,0.064-0.248,0.192-0.303c0.128-0.054,0.391-0.081,0.787-0.081
		h1.643c0.318,0,0.53,0.022,0.635,0.069c0.104,0.047,0.157,0.132,0.157,0.257c0,0.171-0.136,0.324-0.408,0.46
		c-0.272,0.136-0.462,0.262-0.571,0.378c-0.078,0.078-0.433,0.567-1.066,1.468c-0.633,0.901-1.295,1.717-1.986,2.446
		c0.753,0.815,1.551,1.744,2.394,2.784c0.842,1.041,1.357,1.639,1.543,1.794c0.101,0.094,0.309,0.226,0.623,0.396
		s0.472,0.35,0.472,0.535c0,0.171-0.068,0.29-0.204,0.355c-0.136,0.066-0.394,0.1-0.774,0.1H40.76c-0.271,0-0.472-0.041-0.6-0.123
		c-0.128-0.081-0.192-0.207-0.192-0.378c0-0.14,0.093-0.297,0.28-0.472s0.279-0.312,0.279-0.414c0-0.271-0.229-0.691-0.687-1.258
		c-0.458-0.566-1.115-1.242-1.969-2.027c-0.699,0.785-1.231,1.439-1.596,1.963c-0.365,0.524-0.548,0.903-0.548,1.136
		c0,0.21,0.144,0.4,0.431,0.571s0.431,0.346,0.431,0.524c0,0.171-0.072,0.293-0.215,0.366c-0.144,0.074-0.375,0.111-0.693,0.111
		h-2.435c-0.233,0-0.402-0.039-0.507-0.117c-0.104-0.077-0.157-0.197-0.157-0.36c0-0.226,0.206-0.428,0.618-0.606
		c0.411-0.179,0.679-0.342,0.804-0.489C34.09,62.467,34.261,62.238,34.517,61.881L34.517,61.881z"/>
	<path fill="#092452" d="M53.073,62.3c-0.513,0.722-1.142,1.266-1.887,1.631c-0.746,0.365-1.604,0.548-2.575,0.548
		c-1.157,0-2.076-0.31-2.755-0.927c-0.68-0.617-1.02-1.446-1.02-2.486c0-1.422,0.629-2.513,1.887-3.273
		c1.258-0.762,3.071-1.142,5.44-1.142h0.523c-0.093-0.823-0.44-1.466-1.042-1.928c-0.603-0.462-1.392-0.693-2.371-0.693
		c-0.559,0-1.157,0.187-1.794,0.559c-0.637,0.373-1.048,0.56-1.235,0.56c-0.218,0-0.398-0.061-0.542-0.181
		c-0.144-0.12-0.216-0.273-0.216-0.46c0-0.489,0.361-0.895,1.083-1.218c0.722-0.321,1.666-0.483,2.831-0.483
		c1.918,0,3.302,0.449,4.153,1.346c0.851,0.897,1.275,2.367,1.275,4.409v3.553c0,0.171,0.023,0.309,0.07,0.414
		c0.046,0.104,0.167,0.238,0.36,0.401c0.07,0.047,0.183,0.104,0.338,0.175c0.35,0.155,0.524,0.342,0.524,0.56
		c0,0.232-0.126,0.39-0.379,0.472c-0.252,0.081-0.883,0.122-1.893,0.122c-0.295,0-0.499-0.057-0.611-0.169s-0.169-0.316-0.169-0.611
		V62.3z M52.934,57.722h-0.314c-1.817,0-3.221,0.285-4.211,0.856c-0.99,0.57-1.485,1.376-1.485,2.417
		c0,0.629,0.215,1.144,0.646,1.543c0.431,0.4,0.992,0.601,1.683,0.601c0.388,0,0.771-0.051,1.147-0.151
		c0.376-0.102,0.712-0.241,1.007-0.42c0.575-0.356,0.973-0.737,1.194-1.142c0.221-0.403,0.332-0.971,0.332-1.7V57.722z"/>
	<path fill="#092452" d="M58.327,61.752v-5.125c0-0.489-0.037-0.835-0.111-1.037c-0.073-0.201-0.196-0.364-0.366-0.489
		c-0.125-0.101-0.312-0.205-0.56-0.314c-0.357-0.163-0.536-0.361-0.536-0.594c0-0.094,0.051-0.208,0.151-0.344
		c0.102-0.136,0.241-0.27,0.42-0.402c0.248-0.193,0.476-0.345,0.682-0.454c0.205-0.108,0.366-0.163,0.483-0.163
		c0.356,0,0.661,0.288,0.914,0.862c0.252,0.575,0.401,1.336,0.448,2.283c0.396-1.025,0.866-1.817,1.409-2.376
		c0.544-0.56,1.107-0.839,1.689-0.839c0.412,0,0.729,0.153,0.955,0.46s0.338,0.743,0.338,1.311c0,0.179-0.057,0.326-0.169,0.442
		s-0.258,0.175-0.437,0.175c-0.187,0-0.441-0.079-0.763-0.239c-0.323-0.158-0.55-0.238-0.682-0.238c-0.513,0-0.98,0.435-1.404,1.305
		c-0.423,0.87-0.635,1.93-0.635,3.18v2.552c0,0.489,0.029,0.808,0.088,0.955c0.058,0.147,0.161,0.252,0.309,0.314
		c0.116,0.046,0.299,0.101,0.548,0.163c0.473,0.124,0.71,0.314,0.71,0.57c0,0.155-0.061,0.267-0.181,0.332
		c-0.12,0.066-0.348,0.1-0.682,0.1h-2.981c-0.326,0-0.544-0.029-0.652-0.088c-0.109-0.058-0.163-0.165-0.163-0.32
		c0-0.202,0.175-0.388,0.524-0.559c0.186-0.094,0.321-0.167,0.407-0.222c0.094-0.062,0.157-0.155,0.192-0.279
		s0.053-0.334,0.053-0.629V61.752z"/>
	<path fill="#092452" d="M66.388,55.742c0-0.279-0.029-0.474-0.088-0.582c-0.058-0.108-0.173-0.218-0.343-0.326
		c-0.07-0.047-0.175-0.104-0.314-0.175c-0.28-0.14-0.42-0.287-0.42-0.442c0-0.117,0.041-0.222,0.122-0.314
		c0.082-0.094,0.224-0.194,0.426-0.303l0.163-0.094c0.947-0.497,1.576-0.745,1.887-0.745c0.163,0,0.275,0.073,0.338,0.221
		s0.093,0.489,0.093,1.025v8.178c0,0.202,0.023,0.368,0.07,0.501c0.047,0.132,0.116,0.221,0.21,0.268
		c0.108,0.047,0.24,0.101,0.396,0.163c0.404,0.163,0.606,0.354,0.606,0.57c0,0.171-0.066,0.29-0.198,0.355
		c-0.133,0.066-0.381,0.1-0.746,0.1h-2.504c-0.334,0-0.562-0.033-0.682-0.1c-0.12-0.065-0.181-0.177-0.181-0.332
		c0-0.116,0.031-0.217,0.094-0.303c0.062-0.085,0.174-0.167,0.337-0.244c0.062-0.031,0.147-0.07,0.257-0.117
		c0.318-0.132,0.478-0.403,0.478-0.815V55.742z M65.747,49.393c0-0.356,0.126-0.647,0.379-0.873c0.252-0.226,0.58-0.338,0.983-0.338
		c0.396,0,0.717,0.112,0.962,0.338c0.244,0.226,0.366,0.517,0.366,0.873c0,0.373-0.124,0.67-0.372,0.892
		c-0.249,0.222-0.575,0.332-0.979,0.332c-0.412,0-0.738-0.11-0.979-0.332C65.867,50.063,65.747,49.766,65.747,49.393z"/>
	<path fill="#092452" d="M70.43,61.974c0-0.226,0.072-0.409,0.216-0.554c0.144-0.144,0.324-0.215,0.541-0.215
		c0.241,0,0.528,0.209,0.862,0.629c0.101,0.116,0.179,0.21,0.233,0.279c0.318,0.357,0.676,0.625,1.071,0.804
		c0.396,0.179,0.843,0.268,1.34,0.268c0.699,0,1.271-0.182,1.718-0.547s0.67-0.835,0.67-1.409c0-0.808-0.916-1.434-2.749-1.876
		c-0.101-0.023-0.183-0.043-0.244-0.059c-1.142-0.279-1.957-0.655-2.446-1.13c-0.489-0.474-0.734-1.114-0.734-1.922
		c0-1.04,0.35-1.873,1.049-2.498c0.698-0.625,1.635-0.938,2.807-0.938c1.118,0,1.982,0.162,2.592,0.483
		c0.61,0.322,0.915,0.775,0.915,1.357c0,0.427-0.031,0.713-0.094,0.856c-0.062,0.144-0.183,0.215-0.36,0.215
		c-0.21,0-0.459-0.17-0.746-0.512c-0.116-0.133-0.21-0.233-0.279-0.304c-0.295-0.303-0.645-0.535-1.049-0.698
		c-0.403-0.163-0.838-0.245-1.305-0.245c-0.559,0-1.024,0.161-1.397,0.483s-0.56,0.725-0.56,1.206c0,0.403,0.123,0.722,0.367,0.955
		c0.245,0.233,0.717,0.446,1.415,0.641c0.226,0.062,0.544,0.144,0.956,0.245c1.017,0.24,1.692,0.47,2.026,0.687
		c0.481,0.311,0.841,0.676,1.077,1.096c0.237,0.419,0.355,0.896,0.355,1.433c0,1.126-0.378,2.036-1.136,2.731
		c-0.757,0.695-1.753,1.043-2.987,1.043c-1.049,0-1.998-0.282-2.849-0.845C70.854,63.071,70.43,62.518,70.43,61.974z"/>
</g>
<g>
	<path fill="#092452" d="M38.212,73.468c-0.181,0.255-0.403,0.447-0.667,0.576s-0.566,0.193-0.909,0.193
		c-0.409,0-0.733-0.109-0.973-0.327s-0.36-0.511-0.36-0.878c0-0.502,0.222-0.887,0.667-1.155c0.444-0.27,1.084-0.403,1.92-0.403
		h0.185c-0.033-0.291-0.156-0.518-0.368-0.681s-0.491-0.245-0.837-0.245c-0.197,0-0.409,0.066-0.633,0.198
		c-0.225,0.131-0.37,0.197-0.436,0.197c-0.077,0-0.14-0.021-0.191-0.064c-0.051-0.042-0.076-0.097-0.076-0.162
		c0-0.173,0.127-0.315,0.382-0.43c0.255-0.113,0.588-0.171,1-0.171c0.677,0,1.166,0.158,1.466,0.476
		c0.3,0.316,0.45,0.835,0.45,1.557v1.254c0,0.061,0.008,0.108,0.025,0.146s0.059,0.085,0.127,0.143
		c0.024,0.016,0.064,0.037,0.119,0.062c0.124,0.055,0.185,0.12,0.185,0.197c0,0.082-0.044,0.138-0.134,0.166
		c-0.089,0.029-0.312,0.044-0.668,0.044c-0.104,0-0.176-0.021-0.216-0.06c-0.04-0.04-0.06-0.112-0.06-0.216V73.468z M38.163,71.852
		h-0.111c-0.642,0-1.137,0.101-1.486,0.303c-0.35,0.201-0.524,0.485-0.524,0.854c0,0.222,0.076,0.403,0.228,0.545
		c0.152,0.141,0.35,0.211,0.594,0.211c0.137,0,0.272-0.018,0.405-0.053c0.133-0.036,0.251-0.085,0.355-0.148
		c0.203-0.126,0.344-0.261,0.422-0.403s0.117-0.342,0.117-0.6V71.852z"/>
	<path fill="#092452" d="M39.643,70.22h0.794c0.159,0,0.265,0.011,0.316,0.032c0.052,0.022,0.078,0.062,0.078,0.119
		c0,0.03-0.007,0.058-0.021,0.083c-0.014,0.024-0.033,0.045-0.058,0.062c-0.005,0.003-0.018,0.01-0.037,0.021
		c-0.192,0.118-0.288,0.234-0.288,0.35c0,0.167,0.054,0.413,0.161,0.738c0.106,0.324,0.255,0.685,0.444,1.079
		c0.096,0.197,0.186,0.36,0.27,0.489c0.083,0.129,0.165,0.227,0.245,0.292c0.085-0.085,0.17-0.193,0.255-0.325
		c0.085-0.131,0.171-0.289,0.259-0.473c0.184-0.378,0.331-0.74,0.442-1.088c0.111-0.347,0.167-0.597,0.167-0.75
		c0-0.077-0.058-0.158-0.173-0.243c-0.027-0.021-0.048-0.038-0.062-0.049c-0.061-0.047-0.097-0.082-0.109-0.107
		c-0.013-0.024-0.019-0.056-0.019-0.094c0-0.05,0.021-0.085,0.062-0.105s0.115-0.03,0.222-0.03h0.601
		c0.112,0,0.193,0.012,0.242,0.034c0.05,0.023,0.074,0.062,0.074,0.117c0,0.063-0.035,0.127-0.105,0.189
		c-0.07,0.063-0.11,0.107-0.121,0.132c-0.033,0.062-0.084,0.225-0.154,0.485c-0.07,0.26-0.136,0.479-0.199,0.657
		c-0.244,0.697-0.507,1.271-0.79,1.724c-0.283,0.452-0.51,0.679-0.683,0.679c-0.14,0-0.331-0.184-0.572-0.549
		c-0.241-0.366-0.481-0.842-0.72-1.426c-0.121-0.299-0.231-0.622-0.333-0.97c-0.102-0.349-0.165-0.545-0.189-0.589
		c-0.019-0.029-0.071-0.072-0.156-0.127s-0.127-0.115-0.127-0.181c0-0.063,0.022-0.108,0.066-0.136S39.542,70.22,39.643,70.22z"/>
	<path fill="#092452" d="M44.31,71.153c0-0.099-0.01-0.167-0.031-0.205s-0.061-0.077-0.121-0.115
		c-0.025-0.017-0.062-0.037-0.111-0.062c-0.099-0.05-0.148-0.102-0.148-0.156c0-0.041,0.015-0.078,0.043-0.111
		s0.079-0.068,0.15-0.106l0.058-0.033c0.334-0.176,0.557-0.264,0.666-0.264c0.058,0,0.097,0.026,0.119,0.078
		c0.022,0.053,0.033,0.173,0.033,0.362v2.887c0,0.071,0.008,0.13,0.024,0.177c0.017,0.047,0.042,0.078,0.074,0.095
		c0.039,0.017,0.085,0.036,0.14,0.058c0.143,0.058,0.214,0.125,0.214,0.201c0,0.061-0.023,0.103-0.07,0.126
		c-0.046,0.023-0.134,0.035-0.263,0.035h-0.884c-0.118,0-0.198-0.012-0.24-0.035s-0.064-0.062-0.064-0.117
		c0-0.041,0.011-0.077,0.033-0.107c0.021-0.03,0.062-0.059,0.119-0.086c0.022-0.011,0.052-0.024,0.09-0.041
		c0.112-0.047,0.168-0.143,0.168-0.288V71.153z M44.084,68.912c0-0.126,0.044-0.229,0.134-0.308c0.089-0.08,0.205-0.119,0.348-0.119
		c0.14,0,0.252,0.039,0.339,0.119c0.086,0.079,0.13,0.182,0.13,0.308c0,0.132-0.044,0.237-0.132,0.315s-0.203,0.117-0.345,0.117
		c-0.146,0-0.261-0.039-0.346-0.117S44.084,69.043,44.084,68.912z"/>
	<path fill="#092452" d="M48.776,73.468c-0.181,0.255-0.403,0.447-0.667,0.576s-0.566,0.193-0.909,0.193
		c-0.409,0-0.733-0.109-0.973-0.327s-0.36-0.511-0.36-0.878c0-0.502,0.222-0.887,0.667-1.155c0.444-0.27,1.084-0.403,1.92-0.403
		h0.185c-0.033-0.291-0.156-0.518-0.368-0.681s-0.492-0.245-0.837-0.245c-0.197,0-0.409,0.066-0.633,0.198
		c-0.225,0.131-0.37,0.197-0.436,0.197c-0.077,0-0.14-0.021-0.191-0.064c-0.051-0.042-0.076-0.097-0.076-0.162
		c0-0.173,0.127-0.315,0.382-0.43c0.255-0.113,0.588-0.171,1-0.171c0.677,0,1.166,0.158,1.466,0.476
		c0.3,0.316,0.45,0.835,0.45,1.557v1.254c0,0.061,0.008,0.108,0.025,0.146c0.016,0.037,0.059,0.085,0.127,0.143
		c0.024,0.016,0.064,0.037,0.119,0.062c0.124,0.055,0.185,0.12,0.185,0.197c0,0.082-0.044,0.138-0.134,0.166
		c-0.089,0.029-0.312,0.044-0.668,0.044c-0.104,0-0.176-0.021-0.216-0.06c-0.04-0.04-0.06-0.112-0.06-0.216V73.468z M48.727,71.852
		h-0.111c-0.642,0-1.137,0.101-1.486,0.303c-0.35,0.201-0.524,0.485-0.524,0.854c0,0.222,0.076,0.403,0.228,0.545
		c0.152,0.141,0.35,0.211,0.594,0.211c0.137,0,0.272-0.018,0.405-0.053c0.133-0.036,0.251-0.085,0.355-0.148
		c0.203-0.126,0.343-0.261,0.421-0.403s0.117-0.342,0.117-0.6V71.852z"/>
	<path fill="#092452" d="M50.672,73.587v-2.887h-0.259c-0.145,0-0.245-0.018-0.3-0.053c-0.055-0.036-0.083-0.098-0.083-0.186
		c0-0.063,0.019-0.114,0.056-0.154s0.085-0.063,0.146-0.072c0.024-0.002,0.056-0.005,0.095-0.008
		c0.175-0.014,0.288-0.048,0.337-0.103c0.06-0.063,0.113-0.289,0.16-0.679c0.014-0.112,0.024-0.2,0.033-0.264
		c0.005-0.032,0.011-0.076,0.016-0.131c0.033-0.277,0.124-0.416,0.271-0.416c0.066,0,0.11,0.021,0.134,0.064
		c0.023,0.042,0.035,0.163,0.035,0.363v1.156h0.588c0.143,0,0.243,0.019,0.301,0.055c0.057,0.037,0.086,0.1,0.086,0.188
		c0,0.082-0.031,0.143-0.093,0.181c-0.062,0.039-0.159,0.058-0.294,0.058h-0.588v2.447c0,0.164,0.013,0.283,0.039,0.355
		s0.072,0.12,0.138,0.142c0.079,0.03,0.23,0.052,0.454,0.064c0.224,0.012,0.336,0.07,0.336,0.175c0,0.09-0.025,0.151-0.076,0.185
		s-0.18,0.05-0.385,0.05h-0.785c-0.148,0-0.246-0.026-0.292-0.078C50.695,73.988,50.672,73.837,50.672,73.587z"/>
	<path fill="#092452" d="M53.004,71.153c0-0.099-0.011-0.167-0.031-0.205s-0.061-0.077-0.121-0.115
		c-0.024-0.017-0.062-0.037-0.111-0.062c-0.099-0.05-0.147-0.102-0.147-0.156c0-0.041,0.014-0.078,0.043-0.111
		c0.028-0.033,0.078-0.068,0.149-0.106l0.058-0.033c0.335-0.176,0.557-0.264,0.667-0.264c0.058,0,0.097,0.026,0.119,0.078
		c0.021,0.053,0.032,0.173,0.032,0.362v2.887c0,0.071,0.009,0.13,0.025,0.177s0.041,0.078,0.073,0.095
		c0.039,0.017,0.085,0.036,0.141,0.058c0.143,0.058,0.214,0.125,0.214,0.201c0,0.061-0.023,0.103-0.07,0.126
		s-0.135,0.035-0.263,0.035h-0.885c-0.118,0-0.198-0.012-0.24-0.035c-0.043-0.023-0.063-0.062-0.063-0.117
		c0-0.041,0.011-0.077,0.032-0.107c0.022-0.03,0.062-0.059,0.119-0.086c0.022-0.011,0.053-0.024,0.091-0.041
		c0.112-0.047,0.169-0.143,0.169-0.288V71.153z M52.777,68.912c0-0.126,0.045-0.229,0.134-0.308c0.089-0.08,0.205-0.119,0.348-0.119
		c0.14,0,0.253,0.039,0.339,0.119c0.087,0.079,0.13,0.182,0.13,0.308c0,0.132-0.044,0.237-0.132,0.315s-0.203,0.117-0.346,0.117
		c-0.146,0-0.26-0.039-0.345-0.117S52.777,69.043,52.777,68.912z"/>
	<path fill="#092452" d="M54.6,72.181c0-0.605,0.192-1.102,0.577-1.486c0.386-0.385,0.882-0.578,1.491-0.578
		c0.611,0,1.107,0.192,1.49,0.576s0.574,0.88,0.574,1.488c0,0.606-0.191,1.101-0.574,1.482c-0.383,0.383-0.879,0.574-1.49,0.574
		s-1.109-0.191-1.493-0.574C54.791,73.282,54.6,72.788,54.6,72.181z M55.323,72.181c0,0.488,0.123,0.88,0.37,1.174
		c0.246,0.295,0.571,0.442,0.975,0.442c0.402,0,0.727-0.147,0.973-0.442c0.245-0.294,0.367-0.686,0.367-1.174
		c0-0.49-0.122-0.884-0.367-1.18c-0.246-0.297-0.57-0.444-0.973-0.444c-0.4,0-0.725,0.149-0.973,0.448S55.323,71.696,55.323,72.181z
		"/>
	<path fill="#092452" d="M59.571,73.764c0.104-0.058,0.156-0.172,0.156-0.345v-1.88c0-0.266-0.01-0.439-0.029-0.52
		c-0.02-0.081-0.055-0.141-0.106-0.18c-0.033-0.024-0.097-0.055-0.189-0.092c-0.094-0.037-0.14-0.087-0.14-0.15
		c0-0.074,0.083-0.173,0.248-0.296c0.166-0.124,0.303-0.186,0.409-0.186c0.077,0,0.147,0.058,0.21,0.171
		c0.063,0.114,0.119,0.284,0.169,0.512c0.176-0.225,0.378-0.395,0.606-0.51s0.479-0.173,0.751-0.173
		c0.463,0,0.809,0.151,1.038,0.455c0.229,0.303,0.343,0.764,0.343,1.384v1.488c0,0.091,0.006,0.155,0.017,0.193
		s0.031,0.067,0.062,0.086c0.025,0.017,0.061,0.037,0.107,0.062c0.112,0.061,0.169,0.124,0.169,0.189
		c0,0.053-0.021,0.089-0.064,0.111c-0.042,0.021-0.114,0.033-0.216,0.033h-0.839c-0.102,0-0.173-0.011-0.216-0.031
		c-0.042-0.021-0.063-0.056-0.063-0.104c0-0.069,0.045-0.124,0.136-0.165c0.027-0.014,0.046-0.023,0.058-0.028
		c0.096-0.047,0.153-0.091,0.173-0.132c0.019-0.041,0.028-0.118,0.028-0.23v-1.48c0-0.46-0.077-0.796-0.232-1.008
		c-0.154-0.211-0.399-0.316-0.734-0.316c-0.317,0-0.571,0.092-0.761,0.275c-0.188,0.184-0.283,0.433-0.283,0.745v1.879
		c0,0.058,0.004,0.101,0.013,0.13c0.008,0.028,0.022,0.053,0.045,0.071c0.024,0.017,0.064,0.039,0.119,0.066
		c0.106,0.055,0.16,0.113,0.16,0.177c0,0.058-0.021,0.097-0.063,0.119c-0.043,0.021-0.123,0.033-0.24,0.033h-0.782
		c-0.104,0-0.175-0.01-0.213-0.029c-0.039-0.02-0.058-0.052-0.058-0.099c0-0.041,0.009-0.074,0.028-0.101s0.065-0.06,0.14-0.101
		C59.536,73.784,59.552,73.776,59.571,73.764L59.571,73.764z"/>
</g>
<g>
	<path fill="#092452" d="M79.923,62.388c0.175,0,0.345,0.045,0.512,0.134c0.166,0.09,0.296,0.219,0.389,0.386s0.14,0.341,0.14,0.521
		c0,0.18-0.046,0.353-0.138,0.518c-0.091,0.166-0.22,0.294-0.385,0.386s-0.338,0.137-0.518,0.137c-0.181,0-0.354-0.045-0.519-0.137
		s-0.293-0.22-0.385-0.386c-0.093-0.165-0.139-0.338-0.139-0.518c0-0.181,0.047-0.354,0.141-0.521
		c0.093-0.167,0.223-0.296,0.39-0.386C79.577,62.433,79.748,62.388,79.923,62.388z M79.923,62.56c-0.146,0-0.289,0.038-0.427,0.112
		c-0.139,0.075-0.247,0.183-0.325,0.322c-0.078,0.139-0.117,0.284-0.117,0.435s0.038,0.294,0.115,0.432
		c0.076,0.138,0.184,0.244,0.322,0.321c0.138,0.077,0.281,0.115,0.432,0.115c0.149,0,0.294-0.038,0.432-0.115
		s0.245-0.184,0.321-0.321s0.114-0.281,0.114-0.432s-0.038-0.296-0.116-0.435c-0.078-0.14-0.187-0.247-0.325-0.322
		C80.21,62.598,80.068,62.56,79.923,62.56z M79.466,64.004v-1.12h0.385c0.132,0,0.227,0.011,0.286,0.031
		c0.059,0.021,0.105,0.057,0.141,0.108s0.053,0.106,0.053,0.164c0,0.082-0.029,0.153-0.088,0.214s-0.136,0.095-0.232,0.103
		c0.039,0.017,0.071,0.036,0.095,0.059c0.045,0.045,0.101,0.118,0.166,0.223l0.137,0.219h-0.221l-0.1-0.176
		c-0.078-0.14-0.142-0.227-0.189-0.261c-0.033-0.026-0.081-0.039-0.145-0.039h-0.106v0.476H79.466z M79.646,63.375h0.22
		c0.104,0,0.176-0.016,0.215-0.047c0.038-0.031,0.057-0.073,0.057-0.124c0-0.033-0.009-0.063-0.027-0.089
		c-0.019-0.026-0.044-0.046-0.076-0.06c-0.033-0.013-0.094-0.019-0.182-0.019h-0.206V63.375z"/>
</g>
</svg>
