<?xml version="1.0" encoding="utf-8"?>
<!-- Generator: Adobe Illustrator 16.0.0, SVG Export Plug-In . SVG Version: 6.00 Build 0)  -->
<!DOCTYPE svg PUBLIC "-//W3C//DTD SVG 1.1//EN" "http://www.w3.org/Graphics/SVG/1.1/DTD/svg11.dtd">
<svg version="1.1" id="Capa_1" xmlns="http://www.w3.org/2000/svg" xmlns:xlink="http://www.w3.org/1999/xlink" x="0px" y="0px"
	 width="100px" height="72.025px" viewBox="0 0 100 72.025" enable-background="new 0 0 100 72.025" xml:space="preserve">
<g>
	<g>
		<circle fill-rule="evenodd" clip-rule="evenodd" fill="#D81F26" cx="56.372" cy="28.881" r="2.356"/>
		<circle fill-rule="evenodd" clip-rule="evenodd" fill="#D81F26" cx="53.15" cy="25.766" r="1.576"/>
		<circle fill-rule="evenodd" clip-rule="evenodd" fill="#D81F26" cx="66" cy="38.86" r="3.919"/>
		<circle fill-rule="evenodd" clip-rule="evenodd" fill="#D81F26" cx="60.717" cy="33.254" r="3.118"/>
	</g>
	<g>
		<circle fill-rule="evenodd" clip-rule="evenodd" fill="#D81F26" cx="45.395" cy="28.929" r="2.356"/>
		<circle fill-rule="evenodd" clip-rule="evenodd" fill="#D81F26" cx="48.569" cy="25.766" r="1.575"/>
		<circle fill-rule="evenodd" clip-rule="evenodd" fill="#D81F26" cx="35.712" cy="38.86" r="3.918"/>
		<circle fill-rule="evenodd" clip-rule="evenodd" fill="#D81F26" cx="41.076" cy="33.402" r="3.119"/>
	</g>
	<g>
		<circle fill-rule="evenodd" clip-rule="evenodd" fill="#D81F26" cx="56.281" cy="18.028" r="2.356"/>
		<circle fill-rule="evenodd" clip-rule="evenodd" fill="#D81F26" cx="53.132" cy="21.177" r="1.575"/>
		<circle fill-rule="evenodd" clip-rule="evenodd" fill="#D81F26" cx="66.15" cy="8.307" r="3.919"/>
		<circle fill-rule="evenodd" clip-rule="evenodd" fill="#D81F26" cx="60.681" cy="13.712" r="3.118"/>
	</g>
	<g>
		<circle fill-rule="evenodd" clip-rule="evenodd" fill="#D81F26" cx="45.47" cy="17.957" r="2.356"/>
		<circle fill-rule="evenodd" clip-rule="evenodd" fill="#D81F26" cx="48.542" cy="21.157" r="1.575"/>
		<circle fill-rule="evenodd" clip-rule="evenodd" fill="#D81F26" cx="35.41" cy="8.334" r="3.918"/>
		<circle fill-rule="evenodd" clip-rule="evenodd" fill="#D81F26" cx="40.959" cy="13.654" r="3.118"/>
	</g>
</g>
<g>
	<path fill="#092452" d="M27.243,55.196c0.176,0.825,0.554,1.479,1.132,1.963s1.271,0.726,2.075,0.726
		c0.43,0,0.836-0.053,1.217-0.159c0.381-0.105,0.755-0.271,1.122-0.497c0.176-0.106,0.395-0.258,0.656-0.455
		c0.36-0.262,0.596-0.392,0.709-0.392s0.207,0.042,0.281,0.127c0.074,0.084,0.111,0.194,0.111,0.328
		c0,0.219-0.146,0.481-0.439,0.788c-0.293,0.308-0.683,0.602-1.17,0.884c-0.409,0.24-0.841,0.42-1.296,0.54s-0.934,0.18-1.435,0.18
		c-1.489,0-2.678-0.442-3.567-1.328s-1.333-2.069-1.333-3.551c0-1.623,0.527-2.983,1.583-4.081c1.055-1.097,2.355-1.646,3.9-1.646
		c1.178,0,2.085,0.243,2.72,0.73c0.635,0.486,0.953,1.175,0.953,2.063c0,1.052-0.587,1.883-1.763,2.493
		C31.524,54.52,29.705,54.949,27.243,55.196z M27.084,54.105c1.919-0.183,3.329-0.506,4.229-0.968
		c0.899-0.463,1.35-1.085,1.35-1.868c0-0.522-0.182-0.932-0.545-1.229c-0.363-0.296-0.862-0.444-1.498-0.444
		c-1.037,0-1.886,0.402-2.545,1.207c-0.66,0.804-0.99,1.849-0.99,3.133V54.105z"/>
	<path fill="#092452" d="M37.415,56.868c0.804-1.129,1.598-2.12,2.381-2.974c-0.642-0.706-1.293-1.502-1.953-2.388
		c-0.66-0.885-1.05-1.384-1.17-1.497c-0.092-0.085-0.277-0.196-0.556-0.334c-0.279-0.137-0.418-0.283-0.418-0.438
		c0-0.135,0.049-0.227,0.148-0.275c0.099-0.05,0.307-0.074,0.625-0.074h2.106c0.332,0,0.552,0.024,0.662,0.074
		c0.109,0.049,0.164,0.141,0.164,0.275c0,0.084-0.094,0.208-0.28,0.37c-0.188,0.162-0.281,0.311-0.281,0.444
		c0,0.198,0.178,0.536,0.535,1.017c0.356,0.479,0.855,1.044,1.498,1.693c0.579-0.579,1.048-1.122,1.408-1.63
		c0.36-0.509,0.54-0.868,0.54-1.08c0-0.12-0.108-0.257-0.323-0.413c-0.215-0.154-0.323-0.289-0.323-0.401
		c0-0.135,0.059-0.227,0.175-0.275c0.117-0.05,0.354-0.074,0.714-0.074h1.493c0.289,0,0.481,0.021,0.577,0.063
		s0.143,0.12,0.143,0.232c0,0.155-0.124,0.295-0.371,0.419c-0.247,0.123-0.42,0.237-0.519,0.344
		c-0.071,0.07-0.394,0.515-0.969,1.333c-0.575,0.819-1.176,1.56-1.805,2.224c0.685,0.74,1.41,1.584,2.175,2.529
		s1.233,1.489,1.402,1.63c0.092,0.085,0.281,0.205,0.566,0.36s0.429,0.317,0.429,0.486c0,0.155-0.062,0.263-0.185,0.323
		c-0.124,0.06-0.358,0.09-0.704,0.09h-2.212c-0.247,0-0.429-0.037-0.545-0.111c-0.116-0.074-0.174-0.188-0.174-0.344
		c0-0.127,0.084-0.271,0.254-0.429c0.169-0.159,0.254-0.284,0.254-0.376c0-0.247-0.208-0.628-0.625-1.143
		c-0.417-0.516-1.013-1.129-1.789-1.842c-0.635,0.713-1.119,1.307-1.45,1.783c-0.332,0.477-0.498,0.82-0.498,1.032
		c0,0.19,0.13,0.363,0.392,0.519s0.392,0.313,0.392,0.477c0,0.155-0.065,0.266-0.196,0.333s-0.34,0.101-0.63,0.101h-2.212
		c-0.212,0-0.365-0.035-0.46-0.105c-0.095-0.071-0.143-0.181-0.143-0.328c0-0.205,0.187-0.389,0.561-0.551s0.618-0.311,0.73-0.444
		C37.026,57.401,37.182,57.193,37.415,56.868L37.415,56.868z"/>
	<path fill="#092452" d="M54.275,57.249c-0.466,0.656-1.037,1.15-1.715,1.482c-0.677,0.331-1.457,0.497-2.339,0.497
		c-1.051,0-1.886-0.28-2.503-0.841c-0.617-0.562-0.926-1.314-0.926-2.26c0-1.292,0.571-2.283,1.714-2.975s2.791-1.037,4.943-1.037
		h0.477c-0.085-0.748-0.401-1.332-0.948-1.752s-1.265-0.63-2.153-0.63c-0.508,0-1.052,0.169-1.63,0.508s-0.953,0.509-1.122,0.509
		c-0.198,0-0.362-0.055-0.492-0.164c-0.131-0.109-0.196-0.249-0.196-0.419c0-0.444,0.328-0.812,0.984-1.105s1.513-0.439,2.572-0.439
		c1.743,0,3.001,0.407,3.773,1.223c0.772,0.814,1.159,2.15,1.159,4.006v3.229c0,0.155,0.021,0.28,0.063,0.376
		c0.042,0.095,0.151,0.217,0.328,0.365c0.063,0.042,0.166,0.095,0.307,0.158c0.317,0.142,0.477,0.311,0.477,0.509
		c0,0.211-0.115,0.354-0.344,0.429c-0.229,0.073-0.803,0.11-1.721,0.11c-0.268,0-0.453-0.051-0.556-0.153
		c-0.102-0.103-0.153-0.287-0.153-0.556V57.249z M54.148,53.09h-0.286c-1.65,0-2.926,0.259-3.826,0.778
		c-0.9,0.519-1.35,1.25-1.35,2.196c0,0.571,0.196,1.039,0.587,1.402s0.901,0.545,1.529,0.545c0.353,0,0.7-0.046,1.043-0.138
		c0.342-0.092,0.647-0.219,0.915-0.381c0.522-0.325,0.884-0.671,1.085-1.037c0.201-0.367,0.302-0.883,0.302-1.546V53.09z"/>
	<path fill="#092452" d="M59.049,56.752v-4.657c0-0.444-0.033-0.759-0.101-0.942c-0.066-0.183-0.178-0.331-0.333-0.444
		c-0.113-0.092-0.282-0.187-0.508-0.285c-0.325-0.148-0.487-0.328-0.487-0.54c0-0.085,0.046-0.188,0.138-0.312
		c0.092-0.123,0.219-0.245,0.381-0.365c0.226-0.176,0.433-0.313,0.619-0.413c0.188-0.099,0.334-0.147,0.439-0.147
		c0.324,0,0.602,0.261,0.831,0.783s0.365,1.214,0.407,2.074c0.36-0.932,0.787-1.651,1.281-2.159
		c0.493-0.508,1.005-0.762,1.534-0.762c0.374,0,0.663,0.139,0.868,0.418c0.205,0.278,0.307,0.676,0.307,1.19
		c0,0.162-0.051,0.297-0.153,0.402s-0.234,0.159-0.396,0.159c-0.17,0-0.4-0.072-0.693-0.218c-0.293-0.145-0.499-0.217-0.619-0.217
		c-0.466,0-0.891,0.396-1.275,1.186s-0.577,1.754-0.577,2.89v2.318c0,0.444,0.026,0.733,0.079,0.867
		c0.054,0.135,0.146,0.229,0.281,0.286c0.105,0.042,0.271,0.092,0.497,0.148c0.431,0.112,0.646,0.285,0.646,0.519
		c0,0.142-0.055,0.241-0.164,0.302c-0.109,0.06-0.315,0.09-0.619,0.09h-2.71c-0.296,0-0.493-0.026-0.593-0.079
		c-0.099-0.054-0.147-0.15-0.147-0.291c0-0.184,0.158-0.354,0.476-0.509c0.17-0.084,0.293-0.151,0.371-0.201
		c0.085-0.056,0.143-0.141,0.175-0.254c0.031-0.112,0.047-0.303,0.047-0.571V56.752z"/>
	<path fill="#092452" d="M66.374,51.29c0-0.254-0.026-0.43-0.08-0.529c-0.053-0.099-0.156-0.197-0.312-0.296
		c-0.063-0.042-0.159-0.096-0.286-0.159c-0.254-0.127-0.381-0.261-0.381-0.402c0-0.105,0.037-0.2,0.111-0.285
		s0.202-0.177,0.386-0.275l0.148-0.085c0.86-0.451,1.433-0.677,1.715-0.677c0.148,0,0.25,0.066,0.307,0.201
		c0.057,0.134,0.085,0.444,0.085,0.931v7.431c0,0.184,0.021,0.335,0.063,0.455s0.105,0.201,0.19,0.243
		c0.099,0.043,0.219,0.092,0.36,0.148c0.366,0.148,0.55,0.321,0.55,0.519c0,0.155-0.06,0.263-0.18,0.323
		c-0.12,0.06-0.346,0.09-0.678,0.09h-2.275c-0.304,0-0.51-0.03-0.619-0.09c-0.109-0.061-0.164-0.16-0.164-0.302
		c0-0.105,0.028-0.197,0.085-0.275c0.056-0.077,0.158-0.151,0.307-0.223c0.057-0.027,0.134-0.063,0.232-0.105
		c0.29-0.12,0.435-0.367,0.435-0.741V51.29z M65.792,45.521c0-0.324,0.114-0.589,0.344-0.794c0.229-0.204,0.527-0.307,0.895-0.307
		c0.359,0,0.65,0.103,0.873,0.307c0.222,0.205,0.333,0.47,0.333,0.794c0,0.339-0.112,0.608-0.339,0.81
		c-0.226,0.201-0.521,0.302-0.889,0.302c-0.374,0-0.671-0.101-0.889-0.302C65.901,46.13,65.792,45.86,65.792,45.521z"/>
	<path fill="#092452" d="M70.047,56.953c0-0.205,0.064-0.372,0.195-0.503s0.295-0.195,0.492-0.195c0.219,0,0.48,0.19,0.783,0.571
		c0.092,0.105,0.162,0.19,0.212,0.254c0.289,0.324,0.614,0.568,0.974,0.73c0.36,0.162,0.766,0.243,1.218,0.243
		c0.635,0,1.155-0.166,1.561-0.497c0.406-0.332,0.609-0.759,0.609-1.281c0-0.733-0.833-1.302-2.498-1.704
		c-0.092-0.021-0.166-0.038-0.223-0.053c-1.037-0.254-1.778-0.596-2.223-1.026s-0.667-1.013-0.667-1.747
		c0-0.945,0.317-1.702,0.953-2.271c0.635-0.567,1.485-0.852,2.551-0.852c1.016,0,1.801,0.146,2.354,0.439s0.831,0.704,0.831,1.232
		c0,0.389-0.028,0.647-0.085,0.778s-0.165,0.196-0.328,0.196c-0.19,0-0.416-0.155-0.677-0.466c-0.106-0.12-0.19-0.212-0.254-0.275
		c-0.269-0.275-0.586-0.487-0.953-0.635c-0.367-0.148-0.762-0.223-1.186-0.223c-0.508,0-0.932,0.146-1.27,0.439
		c-0.339,0.293-0.509,0.658-0.509,1.096c0,0.366,0.111,0.656,0.334,0.867c0.222,0.212,0.65,0.406,1.286,0.582
		c0.204,0.057,0.493,0.131,0.867,0.223c0.925,0.219,1.539,0.427,1.842,0.625c0.438,0.282,0.764,0.613,0.979,0.994
		c0.215,0.382,0.322,0.815,0.322,1.303c0,1.022-0.344,1.851-1.031,2.481c-0.688,0.632-1.594,0.947-2.715,0.947
		c-0.953,0-1.815-0.256-2.588-0.768C70.433,57.95,70.047,57.447,70.047,56.953z"/>
</g>
<g>
	<path fill="#092452" d="M37.567,67.061c0.055,0,0.099,0.011,0.132,0.033s0.051,0.053,0.051,0.09c0,0.072-0.038,0.162-0.112,0.271
		s-0.173,0.21-0.295,0.305c-0.142,0.112-0.299,0.196-0.473,0.252c-0.173,0.057-0.364,0.085-0.573,0.085
		c-0.466,0-0.85-0.165-1.153-0.495s-0.454-0.75-0.454-1.258c0-0.57,0.167-1.045,0.501-1.424c0.333-0.379,0.751-0.567,1.251-0.567
		c0.336,0,0.619,0.07,0.848,0.211c0.229,0.141,0.344,0.306,0.344,0.495c0,0.082-0.031,0.153-0.093,0.215
		c-0.062,0.061-0.136,0.091-0.22,0.091c-0.103,0-0.209-0.073-0.322-0.22c-0.017-0.022-0.03-0.039-0.037-0.049
		c-0.11-0.142-0.206-0.233-0.29-0.274s-0.187-0.062-0.309-0.062c-0.301,0-0.546,0.139-0.734,0.416
		c-0.188,0.278-0.282,0.644-0.282,1.097c0,0.414,0.101,0.744,0.303,0.992s0.471,0.372,0.807,0.372c0.1,0,0.199-0.014,0.297-0.041
		c0.099-0.027,0.192-0.067,0.282-0.12c0.109-0.062,0.219-0.146,0.327-0.254C37.472,67.115,37.54,67.061,37.567,67.061z"/>
	<path fill="#092452" d="M38.072,66.227c0-0.55,0.175-1,0.525-1.351c0.35-0.35,0.801-0.524,1.354-0.524
		c0.556,0,1.007,0.174,1.354,0.522s0.521,0.8,0.521,1.353c0,0.551-0.174,1-0.521,1.348s-0.799,0.521-1.354,0.521
		s-1.008-0.174-1.356-0.521S38.072,66.778,38.072,66.227z M38.729,66.227c0,0.443,0.112,0.8,0.336,1.067s0.52,0.401,0.886,0.401
		s0.661-0.134,0.884-0.401c0.223-0.268,0.334-0.624,0.334-1.067c0-0.445-0.112-0.803-0.334-1.072
		c-0.223-0.269-0.518-0.403-0.884-0.403c-0.364,0-0.658,0.136-0.884,0.407S38.729,65.787,38.729,66.227z"/>
	<path fill="#092452" d="M42.589,67.666c0.094-0.052,0.142-0.156,0.142-0.313v-1.708c0-0.241-0.008-0.398-0.026-0.473
		c-0.018-0.073-0.05-0.127-0.097-0.162c-0.03-0.022-0.087-0.051-0.172-0.084c-0.085-0.034-0.127-0.079-0.127-0.137
		c0-0.067,0.075-0.156,0.226-0.269c0.15-0.112,0.274-0.168,0.372-0.168c0.07,0,0.133,0.052,0.19,0.154
		c0.058,0.104,0.108,0.259,0.153,0.466c0.16-0.204,0.343-0.359,0.551-0.464s0.435-0.156,0.682-0.156
		c0.421,0,0.736,0.138,0.944,0.412c0.208,0.275,0.312,0.694,0.312,1.258v1.353c0,0.082,0.005,0.141,0.015,0.176
		c0.01,0.035,0.029,0.061,0.056,0.078c0.022,0.016,0.055,0.034,0.097,0.057c0.102,0.055,0.153,0.111,0.153,0.172
		c0,0.047-0.02,0.081-0.058,0.101s-0.104,0.03-0.196,0.03h-0.762c-0.092,0-0.157-0.01-0.196-0.028
		c-0.039-0.019-0.058-0.051-0.058-0.096c0-0.062,0.041-0.112,0.124-0.149c0.024-0.013,0.042-0.021,0.052-0.026
		c0.087-0.042,0.139-0.082,0.157-0.119s0.026-0.107,0.026-0.209v-1.346c0-0.418-0.071-0.724-0.211-0.915
		c-0.141-0.192-0.363-0.288-0.667-0.288c-0.289,0-0.519,0.084-0.691,0.251c-0.172,0.166-0.258,0.392-0.258,0.676v1.708
		c0,0.052,0.003,0.091,0.011,0.117c0.007,0.026,0.021,0.048,0.041,0.065c0.022,0.016,0.058,0.035,0.108,0.06
		c0.097,0.05,0.146,0.104,0.146,0.161c0,0.053-0.02,0.089-0.058,0.108s-0.111,0.03-0.218,0.03h-0.71
		c-0.095,0-0.16-0.009-0.194-0.026c-0.035-0.018-0.052-0.048-0.052-0.09c0-0.037,0.009-0.068,0.026-0.092
		c0.018-0.023,0.06-0.054,0.127-0.092C42.558,67.683,42.572,67.677,42.589,67.666L42.589,67.666z"/>
	<path fill="#092452" d="M46.408,67.293c0-0.072,0.023-0.132,0.069-0.178s0.104-0.069,0.174-0.069c0.077,0,0.169,0.067,0.276,0.202
		c0.033,0.037,0.058,0.067,0.075,0.09c0.102,0.114,0.217,0.2,0.344,0.258c0.127,0.057,0.271,0.086,0.43,0.086
		c0.225,0,0.408-0.059,0.551-0.176s0.215-0.268,0.215-0.452c0-0.259-0.294-0.46-0.882-0.602c-0.032-0.008-0.059-0.014-0.079-0.019
		c-0.366-0.09-0.627-0.211-0.785-0.362c-0.157-0.152-0.235-0.357-0.235-0.617c0-0.333,0.112-0.601,0.336-0.801
		c0.224-0.201,0.524-0.301,0.9-0.301c0.359,0,0.636,0.052,0.832,0.154c0.195,0.104,0.293,0.249,0.293,0.436
		c0,0.137-0.01,0.229-0.03,0.274c-0.02,0.047-0.059,0.069-0.116,0.069c-0.067,0-0.147-0.055-0.239-0.164
		c-0.038-0.043-0.067-0.075-0.09-0.098c-0.095-0.097-0.207-0.172-0.336-0.224c-0.129-0.053-0.269-0.079-0.418-0.079
		c-0.179,0-0.329,0.052-0.448,0.155s-0.18,0.232-0.18,0.387c0,0.13,0.04,0.231,0.118,0.307c0.079,0.074,0.23,0.144,0.454,0.205
		c0.072,0.021,0.174,0.047,0.307,0.079c0.326,0.077,0.543,0.15,0.65,0.22c0.155,0.101,0.27,0.217,0.346,0.352
		s0.114,0.288,0.114,0.46c0,0.361-0.122,0.653-0.365,0.876c-0.243,0.223-0.562,0.335-0.958,0.335c-0.336,0-0.641-0.091-0.914-0.271
		C46.544,67.644,46.408,67.467,46.408,67.293z"/>
	<path fill="#092452" d="M52.771,64.721v2.082c0,0.177,0.004,0.32,0.011,0.432c0.008,0.11,0.017,0.177,0.026,0.199
		c0.027,0.058,0.06,0.104,0.098,0.139c0.037,0.035,0.1,0.068,0.187,0.101c0.013,0.005,0.028,0.012,0.049,0.019
		c0.09,0.035,0.134,0.085,0.134,0.149c0,0.07-0.043,0.118-0.129,0.145c-0.086,0.025-0.265,0.039-0.536,0.039
		c-0.139,0-0.236-0.031-0.291-0.094s-0.082-0.173-0.082-0.332c0-0.013,0.001-0.034,0.004-0.063c0.002-0.03,0.003-0.053,0.003-0.067
		c-0.156,0.209-0.335,0.364-0.536,0.467c-0.2,0.103-0.43,0.153-0.689,0.153c-0.438,0-0.757-0.132-0.956-0.395
		s-0.299-0.688-0.299-1.275v-1.178c0-0.122-0.015-0.205-0.043-0.25c-0.029-0.045-0.085-0.095-0.17-0.149
		c-0.002,0-0.005-0.001-0.007-0.004c-0.102-0.06-0.153-0.119-0.153-0.18c0-0.072,0.076-0.141,0.228-0.207s0.321-0.099,0.508-0.099
		c0.082,0,0.141,0.029,0.176,0.089c0.035,0.061,0.052,0.166,0.052,0.318v1.674c0,0.413,0.071,0.717,0.212,0.911
		c0.143,0.194,0.364,0.292,0.666,0.292c0.291,0,0.522-0.082,0.692-0.247c0.171-0.164,0.256-0.389,0.256-0.672v-1.532
		c0-0.08-0.009-0.139-0.025-0.178c-0.018-0.038-0.047-0.07-0.086-0.095c-0.016-0.011-0.038-0.024-0.067-0.042
		c-0.11-0.062-0.165-0.123-0.165-0.183c0-0.08,0.076-0.155,0.229-0.228c0.151-0.072,0.312-0.108,0.479-0.108
		c0.082,0,0.141,0.027,0.175,0.082C52.754,64.489,52.771,64.585,52.771,64.721z"/>
	<path fill="#092452" d="M54.02,63.264c0-0.087-0.01-0.148-0.028-0.183c-0.019-0.035-0.054-0.07-0.106-0.105
		c-0.022-0.015-0.055-0.033-0.097-0.056c-0.09-0.045-0.135-0.094-0.135-0.146c0-0.037,0.014-0.073,0.041-0.106
		c0.027-0.034,0.072-0.066,0.135-0.1l0.022-0.011c0.313-0.167,0.522-0.25,0.628-0.25c0.052,0,0.088,0.022,0.107,0.068
		c0.021,0.047,0.03,0.154,0.03,0.323v4.66c0,0.064,0.009,0.119,0.026,0.162c0.018,0.044,0.04,0.072,0.067,0.084
		c0.024,0.01,0.063,0.025,0.115,0.045c0.143,0.055,0.213,0.118,0.213,0.19c0,0.053-0.021,0.09-0.064,0.112
		c-0.044,0.022-0.124,0.034-0.241,0.034H53.93c-0.107,0-0.182-0.011-0.223-0.032s-0.062-0.057-0.062-0.106
		c0-0.035,0.011-0.066,0.032-0.094c0.021-0.027,0.059-0.055,0.113-0.082c0.021-0.01,0.047-0.021,0.079-0.033
		c0.1-0.04,0.149-0.129,0.149-0.266V63.264z"/>
	<path fill="#092452" d="M55.828,67.506v-2.623h-0.235c-0.132,0-0.224-0.017-0.273-0.049s-0.074-0.088-0.074-0.168
		c0-0.058,0.017-0.104,0.051-0.141c0.033-0.035,0.077-0.058,0.132-0.064c0.022-0.003,0.052-0.006,0.086-0.008
		c0.16-0.013,0.262-0.044,0.307-0.094c0.055-0.057,0.104-0.263,0.146-0.616c0.013-0.103,0.022-0.182,0.03-0.239
		c0.005-0.03,0.01-0.069,0.015-0.119c0.03-0.252,0.112-0.378,0.247-0.378c0.06,0,0.1,0.02,0.121,0.058
		c0.021,0.039,0.032,0.149,0.032,0.331v1.05h0.534c0.129,0,0.221,0.017,0.272,0.051c0.053,0.033,0.079,0.09,0.079,0.17
		c0,0.075-0.028,0.13-0.085,0.164c-0.056,0.035-0.145,0.053-0.267,0.053h-0.534v2.224c0,0.149,0.012,0.257,0.035,0.323
		c0.023,0.065,0.065,0.108,0.125,0.129c0.072,0.027,0.21,0.046,0.413,0.058c0.203,0.011,0.305,0.064,0.305,0.158
		c0,0.083-0.023,0.139-0.069,0.169c-0.046,0.029-0.162,0.045-0.35,0.045h-0.713c-0.135,0-0.224-0.024-0.266-0.071
		C55.849,67.869,55.828,67.732,55.828,67.506z"/>
	<path fill="#092452" d="M57.946,65.294c0-0.09-0.009-0.152-0.027-0.188c-0.02-0.034-0.056-0.069-0.11-0.104
		c-0.022-0.015-0.057-0.033-0.102-0.056c-0.089-0.045-0.134-0.092-0.134-0.142c0-0.038,0.013-0.071,0.039-0.102
		c0.026-0.029,0.071-0.062,0.137-0.097l0.052-0.03c0.304-0.159,0.506-0.239,0.605-0.239c0.053,0,0.088,0.024,0.108,0.071
		c0.02,0.047,0.03,0.157,0.03,0.329v2.623c0,0.064,0.007,0.118,0.021,0.16c0.016,0.043,0.038,0.071,0.067,0.086
		c0.035,0.016,0.077,0.032,0.127,0.053c0.13,0.052,0.194,0.113,0.194,0.183c0,0.055-0.021,0.093-0.063,0.114
		c-0.042,0.021-0.122,0.032-0.239,0.032H57.85c-0.107,0-0.18-0.011-0.219-0.032s-0.058-0.057-0.058-0.106
		c0-0.037,0.01-0.069,0.029-0.098c0.021-0.027,0.057-0.053,0.108-0.078c0.021-0.01,0.048-0.022,0.082-0.037
		c0.103-0.042,0.153-0.13,0.153-0.262V65.294z M57.741,63.257c0-0.114,0.04-0.207,0.121-0.28c0.081-0.071,0.187-0.107,0.316-0.107
		c0.127,0,0.229,0.036,0.308,0.107c0.079,0.073,0.118,0.166,0.118,0.28c0,0.12-0.04,0.215-0.12,0.286
		c-0.079,0.071-0.184,0.106-0.313,0.106c-0.132,0-0.236-0.035-0.314-0.106C57.779,63.471,57.741,63.377,57.741,63.257z"/>
	<path fill="#092452" d="M59.658,67.666c0.095-0.052,0.142-0.156,0.142-0.313v-1.708c0-0.241-0.009-0.398-0.026-0.473
		c-0.018-0.073-0.05-0.127-0.097-0.162c-0.03-0.022-0.087-0.051-0.172-0.084c-0.085-0.034-0.127-0.079-0.127-0.137
		c0-0.067,0.075-0.156,0.226-0.269c0.151-0.112,0.275-0.168,0.372-0.168c0.069,0,0.133,0.052,0.19,0.154
		c0.058,0.104,0.108,0.259,0.153,0.466c0.159-0.204,0.343-0.359,0.551-0.464s0.436-0.156,0.683-0.156
		c0.421,0,0.735,0.138,0.943,0.412c0.208,0.275,0.312,0.694,0.312,1.258v1.353c0,0.082,0.005,0.141,0.016,0.176
		c0.01,0.035,0.028,0.061,0.056,0.078c0.022,0.016,0.055,0.034,0.097,0.057c0.103,0.055,0.153,0.111,0.153,0.172
		c0,0.047-0.019,0.081-0.058,0.101s-0.104,0.03-0.196,0.03h-0.762c-0.093,0-0.158-0.01-0.196-0.028
		c-0.039-0.019-0.059-0.051-0.059-0.096c0-0.062,0.042-0.112,0.124-0.149c0.024-0.013,0.042-0.021,0.052-0.026
		c0.088-0.042,0.14-0.082,0.157-0.119s0.026-0.107,0.026-0.209v-1.346c0-0.418-0.07-0.724-0.211-0.915
		c-0.142-0.192-0.363-0.288-0.667-0.288c-0.289,0-0.52,0.084-0.691,0.251c-0.172,0.166-0.258,0.392-0.258,0.676v1.708
		c0,0.052,0.004,0.091,0.011,0.117c0.008,0.026,0.021,0.048,0.041,0.065c0.022,0.016,0.059,0.035,0.108,0.06
		c0.098,0.05,0.146,0.104,0.146,0.161c0,0.053-0.019,0.089-0.058,0.108c-0.038,0.02-0.111,0.03-0.219,0.03h-0.71
		c-0.095,0-0.159-0.009-0.194-0.026c-0.034-0.018-0.052-0.048-0.052-0.09c0-0.037,0.009-0.068,0.026-0.092
		c0.017-0.023,0.06-0.054,0.127-0.092C59.627,67.683,59.641,67.677,59.658,67.666L59.658,67.666z"/>
	<path fill="#092452" d="M66.208,67.498c0.271,0.098,0.474,0.219,0.605,0.362c0.132,0.145,0.198,0.316,0.198,0.516
		c0,0.342-0.168,0.613-0.503,0.815c-0.335,0.201-0.788,0.303-1.358,0.303c-0.488,0-0.865-0.06-1.132-0.178s-0.399-0.286-0.399-0.503
		c0-0.122,0.042-0.23,0.127-0.325c0.084-0.095,0.181-0.142,0.287-0.142c0.035,0,0.064,0.014,0.088,0.041s0.036,0.062,0.036,0.104
		c0,0.022-0.007,0.052-0.02,0.088c-0.012,0.036-0.019,0.061-0.019,0.073c0,0.114,0.091,0.203,0.271,0.265
		c0.181,0.062,0.437,0.094,0.768,0.094c0.398,0,0.706-0.055,0.923-0.163c0.217-0.107,0.325-0.263,0.325-0.465
		c0-0.137-0.049-0.257-0.147-0.358c-0.099-0.103-0.259-0.199-0.48-0.292c-0.149,0.03-0.274,0.052-0.375,0.065
		c-0.102,0.014-0.186,0.021-0.253,0.021c-0.468,0-0.851-0.16-1.146-0.481c-0.297-0.321-0.445-0.737-0.445-1.248
		c0-0.516,0.152-0.935,0.456-1.256s0.7-0.481,1.188-0.481c0.137,0,0.315,0.014,0.534,0.043c0.22,0.028,0.374,0.043,0.464,0.043
		c0.02,0,0.091-0.003,0.215-0.008c0.123-0.005,0.234-0.008,0.334-0.008c0.122,0,0.215,0.021,0.278,0.06
		c0.063,0.04,0.096,0.099,0.096,0.176c0,0.083-0.038,0.142-0.114,0.178s-0.206,0.055-0.391,0.055c-0.005,0-0.018-0.002-0.037-0.004
		c-0.07-0.003-0.136-0.004-0.198-0.004c0.149,0.145,0.265,0.319,0.346,0.524c0.081,0.206,0.121,0.426,0.121,0.66
		c0,0.291-0.054,0.558-0.162,0.798S66.42,67.316,66.208,67.498z M64.194,66.067c0,0.436,0.087,0.771,0.262,1.007
		c0.174,0.235,0.423,0.354,0.747,0.354c0.331,0,0.584-0.117,0.759-0.35c0.174-0.233,0.262-0.57,0.262-1.011
		c0-0.416-0.09-0.739-0.27-0.97s-0.43-0.346-0.751-0.346c-0.319,0-0.566,0.114-0.743,0.344
		C64.282,65.325,64.194,65.648,64.194,66.067z"/>
</g>
<g>
	<path fill="#092452" d="M78.672,57.329c0.159,0,0.313,0.041,0.465,0.122c0.151,0.082,0.27,0.198,0.354,0.35
		c0.085,0.152,0.127,0.311,0.127,0.475c0,0.163-0.042,0.32-0.125,0.471s-0.199,0.267-0.35,0.35c-0.15,0.084-0.307,0.125-0.471,0.125
		s-0.32-0.041-0.471-0.125c-0.15-0.083-0.267-0.199-0.351-0.35c-0.083-0.15-0.125-0.308-0.125-0.471
		c0-0.164,0.042-0.322,0.127-0.475c0.085-0.151,0.203-0.268,0.354-0.35C78.358,57.37,78.513,57.329,78.672,57.329z M78.672,57.486
		c-0.133,0-0.263,0.033-0.388,0.102c-0.126,0.068-0.225,0.166-0.296,0.292c-0.07,0.127-0.106,0.259-0.106,0.396
		s0.035,0.267,0.104,0.392c0.07,0.125,0.168,0.223,0.293,0.292c0.126,0.07,0.256,0.105,0.393,0.105c0.136,0,0.267-0.035,0.393-0.105
		c0.125-0.069,0.223-0.167,0.292-0.292s0.104-0.255,0.104-0.392s-0.035-0.269-0.105-0.396c-0.07-0.126-0.169-0.224-0.295-0.292
		C78.933,57.519,78.804,57.486,78.672,57.486z M78.257,58.799V57.78h0.35c0.12,0,0.206,0.01,0.26,0.028s0.096,0.052,0.128,0.099
		c0.031,0.047,0.048,0.097,0.048,0.149c0,0.074-0.027,0.139-0.08,0.194c-0.053,0.055-0.123,0.086-0.211,0.093
		c0.036,0.015,0.064,0.032,0.086,0.054c0.041,0.04,0.092,0.107,0.15,0.201l0.125,0.2h-0.201l-0.09-0.161
		c-0.071-0.126-0.129-0.205-0.172-0.236c-0.03-0.023-0.074-0.035-0.132-0.035h-0.097v0.433H78.257z M78.421,58.225h0.199
		c0.096,0,0.16-0.015,0.195-0.043c0.034-0.028,0.052-0.065,0.052-0.112c0-0.03-0.008-0.058-0.024-0.081
		c-0.018-0.023-0.04-0.042-0.07-0.054c-0.029-0.012-0.084-0.018-0.164-0.018h-0.188V58.225z"/>
</g>
</svg>
