<?xml version="1.0" encoding="utf-8"?>
<!-- Generator: Adobe Illustrator 16.0.0, SVG Export Plug-In . SVG Version: 6.00 Build 0)  -->
<!DOCTYPE svg PUBLIC "-//W3C//DTD SVG 1.1//EN" "http://www.w3.org/Graphics/SVG/1.1/DTD/svg11.dtd">
<svg version="1.1" id="Capa_1" xmlns="http://www.w3.org/2000/svg" xmlns:xlink="http://www.w3.org/1999/xlink" x="0px" y="0px"
	 width="100px" height="74.68px" viewBox="0 0 100 74.68" enable-background="new 0 0 100 74.68" xml:space="preserve">
<g>
	<g>
		<circle fill="#D81F26" cx="56.372" cy="25.465" r="2.356"/>
		<circle fill="#D81F26" cx="53.15" cy="22.35" r="1.576"/>
		<circle fill="#D81F26" cx="66" cy="35.444" r="3.919"/>
		<circle fill="#D81F26" cx="60.717" cy="29.838" r="3.118"/>
	</g>
	<g>
		<circle fill="#D81F26" cx="45.395" cy="25.513" r="2.356"/>
		<circle fill="#D81F26" cx="48.569" cy="22.35" r="1.575"/>
		<circle fill="#D81F26" cx="35.712" cy="35.444" r="3.918"/>
		<circle fill="#D81F26" cx="41.076" cy="29.986" r="3.119"/>
	</g>
	<g>
		<circle fill="#D81F26" cx="56.281" cy="14.612" r="2.356"/>
		<circle fill="#D81F26" cx="53.132" cy="17.761" r="1.575"/>
		<circle fill="#D81F26" cx="66.15" cy="4.891" r="3.919"/>
		<circle fill="#D81F26" cx="60.682" cy="10.296" r="3.118"/>
	</g>
	<g>
		<circle fill="#D81F26" cx="45.47" cy="14.541" r="2.356"/>
		<circle fill="#D81F26" cx="48.542" cy="17.741" r="1.575"/>
		<circle fill="#D81F26" cx="35.41" cy="4.918" r="3.918"/>
		<circle fill="#D81F26" cx="40.959" cy="10.238" r="3.118"/>
	</g>
</g>
<g>
	<path fill="#FFFFFF" d="M31.653,68.196c0.088,0,0.158,0.018,0.211,0.053c0.052,0.035,0.081,0.085,0.081,0.144
		c0,0.114-0.061,0.259-0.178,0.433c-0.119,0.174-0.276,0.335-0.471,0.484c-0.226,0.179-0.477,0.312-0.753,0.402
		c-0.276,0.091-0.58,0.136-0.913,0.136c-0.742,0-1.354-0.263-1.836-0.789c-0.483-0.524-0.724-1.193-0.724-2.005
		c0-0.906,0.267-1.664,0.798-2.267c0.53-0.604,1.196-0.903,1.993-0.903c0.535,0,0.985,0.11,1.351,0.336
		c0.364,0.225,0.547,0.487,0.547,0.789c0,0.131-0.049,0.242-0.147,0.342c-0.099,0.098-0.217,0.146-0.351,0.146
		c-0.164,0-0.333-0.117-0.513-0.352c-0.027-0.036-0.047-0.062-0.059-0.077c-0.176-0.228-0.328-0.372-0.462-0.438
		c-0.134-0.066-0.299-0.101-0.492-0.101c-0.479,0-0.87,0.224-1.169,0.662c-0.3,0.444-0.449,1.026-0.449,1.748
		c0,0.66,0.161,1.188,0.482,1.581c0.322,0.396,0.75,0.591,1.285,0.591c0.16,0,0.317-0.021,0.474-0.062
		c0.157-0.044,0.305-0.107,0.449-0.191c0.173-0.1,0.348-0.232,0.521-0.403C31.503,68.281,31.61,68.196,31.653,68.196z"/>
	<path fill="#FFFFFF" d="M32.458,66.868c0-0.877,0.279-1.594,0.837-2.153c0.557-0.556,1.275-0.833,2.156-0.833
		c0.885,0,1.604,0.277,2.156,0.83c0.552,0.556,0.83,1.272,0.83,2.156c0,0.877-0.278,1.593-0.83,2.146
		c-0.553,0.554-1.273,0.83-2.156,0.83c-0.884,0-1.606-0.278-2.16-0.83C32.737,68.462,32.458,67.745,32.458,66.868z M33.504,66.868
		c0,0.703,0.178,1.272,0.534,1.697c0.357,0.427,0.829,0.64,1.412,0.64s1.052-0.213,1.407-0.64s0.532-0.994,0.532-1.697
		c0-0.709-0.178-1.28-0.532-1.708c-0.355-0.431-0.824-0.644-1.407-0.644c-0.58,0-1.049,0.218-1.408,0.648
		C33.682,65.598,33.504,66.166,33.504,66.868z"/>
	<path fill="#FFFFFF" d="M39.652,69.158c0.149-0.082,0.226-0.248,0.226-0.496V65.94c0-0.384-0.012-0.634-0.041-0.754
		c-0.028-0.115-0.08-0.202-0.154-0.259c-0.048-0.033-0.139-0.08-0.273-0.133c-0.136-0.054-0.202-0.125-0.202-0.218
		c0-0.106,0.118-0.249,0.359-0.429c0.239-0.179,0.437-0.268,0.593-0.268c0.111,0,0.212,0.082,0.303,0.244
		c0.092,0.166,0.172,0.414,0.243,0.744c0.255-0.326,0.546-0.573,0.878-0.741c0.33-0.167,0.692-0.247,1.086-0.247
		c0.67,0,1.172,0.22,1.503,0.656c0.332,0.437,0.497,1.104,0.497,2.003v2.153c0,0.132,0.009,0.227,0.023,0.28
		c0.018,0.056,0.047,0.099,0.09,0.125c0.035,0.025,0.088,0.054,0.155,0.091c0.161,0.088,0.243,0.177,0.243,0.274
		c0,0.074-0.031,0.129-0.093,0.16c-0.061,0.031-0.165,0.048-0.312,0.048h-1.214c-0.146,0-0.25-0.017-0.312-0.045
		c-0.062-0.03-0.093-0.081-0.093-0.152c0-0.099,0.065-0.179,0.198-0.238c0.038-0.021,0.066-0.032,0.082-0.041
		c0.14-0.065,0.223-0.13,0.251-0.188c0.029-0.061,0.041-0.172,0.041-0.334V66.53c0-0.665-0.113-1.153-0.336-1.456
		c-0.225-0.309-0.578-0.459-1.062-0.459c-0.461,0-0.827,0.133-1.102,0.398c-0.273,0.265-0.411,0.623-0.411,1.076v2.721
		c0,0.082,0.006,0.146,0.018,0.188c0.012,0.04,0.034,0.074,0.065,0.103c0.035,0.026,0.093,0.058,0.172,0.096
		c0.155,0.08,0.232,0.166,0.232,0.259c0,0.084-0.032,0.142-0.092,0.171c-0.061,0.029-0.177,0.048-0.347,0.048h-1.132
		c-0.151,0-0.255-0.014-0.309-0.042c-0.056-0.028-0.083-0.076-0.083-0.145c0-0.059,0.014-0.105,0.041-0.146
		c0.029-0.037,0.096-0.086,0.202-0.146C39.603,69.186,39.625,69.177,39.652,69.158L39.652,69.158z"/>
	<path fill="#FFFFFF" d="M45.735,68.565c0-0.113,0.036-0.211,0.109-0.283c0.073-0.072,0.166-0.109,0.277-0.109
		c0.123,0,0.269,0.105,0.439,0.322c0.053,0.059,0.092,0.105,0.119,0.142c0.163,0.183,0.346,0.319,0.548,0.413
		c0.203,0.091,0.432,0.137,0.685,0.137c0.358,0,0.65-0.095,0.879-0.281c0.228-0.186,0.342-0.427,0.342-0.72
		c0-0.413-0.469-0.732-1.404-0.959c-0.052-0.013-0.095-0.021-0.126-0.028c-0.583-0.146-0.999-0.337-1.251-0.577
		c-0.249-0.242-0.374-0.569-0.374-0.982c0-0.531,0.178-0.957,0.535-1.276c0.357-0.319,0.835-0.479,1.434-0.479
		c0.572,0,1.014,0.082,1.324,0.244c0.312,0.166,0.467,0.396,0.467,0.694c0,0.219-0.017,0.364-0.047,0.437
		c-0.033,0.076-0.095,0.109-0.187,0.109c-0.105,0-0.234-0.086-0.38-0.262c-0.062-0.067-0.106-0.119-0.145-0.154
		c-0.15-0.155-0.329-0.273-0.535-0.357c-0.205-0.084-0.428-0.125-0.665-0.125c-0.284,0-0.523,0.083-0.713,0.246
		c-0.189,0.165-0.287,0.37-0.287,0.617c0,0.207,0.064,0.367,0.188,0.487c0.127,0.119,0.367,0.229,0.724,0.327
		c0.115,0.032,0.276,0.074,0.489,0.126c0.519,0.123,0.863,0.237,1.035,0.351c0.247,0.16,0.431,0.346,0.552,0.561
		c0.12,0.216,0.182,0.459,0.182,0.731c0,0.576-0.194,1.041-0.582,1.396c-0.388,0.356-0.896,0.535-1.526,0.535
		c-0.535,0-1.021-0.146-1.455-0.433C45.951,69.125,45.735,68.842,45.735,68.565z"/>
	<path fill="#FFFFFF" d="M55.871,64.469v3.315c0,0.281,0.006,0.509,0.018,0.688c0.012,0.176,0.025,0.281,0.041,0.317
		c0.043,0.091,0.096,0.164,0.156,0.22c0.059,0.057,0.158,0.109,0.297,0.161c0.02,0.009,0.045,0.02,0.078,0.031
		c0.145,0.056,0.213,0.135,0.213,0.235c0,0.112-0.068,0.188-0.205,0.231c-0.139,0.04-0.422,0.062-0.854,0.062
		c-0.223,0-0.377-0.05-0.465-0.147c-0.086-0.103-0.131-0.277-0.131-0.528c0-0.021,0-0.056,0.008-0.103
		c0.002-0.048,0.004-0.084,0.004-0.106c-0.248,0.334-0.533,0.58-0.854,0.744s-0.686,0.243-1.099,0.243
		c-0.697,0-1.205-0.21-1.522-0.629c-0.316-0.418-0.476-1.097-0.476-2.031v-1.875c0-0.194-0.024-0.326-0.069-0.398
		c-0.046-0.07-0.135-0.15-0.271-0.236c-0.002,0-0.006-0.002-0.01-0.008c-0.162-0.095-0.244-0.188-0.244-0.285
		c0-0.115,0.121-0.225,0.365-0.33c0.24-0.105,0.51-0.157,0.807-0.157c0.132,0,0.226,0.046,0.281,0.143
		c0.056,0.098,0.082,0.265,0.082,0.505v2.669c0,0.656,0.112,1.142,0.338,1.45c0.229,0.309,0.58,0.464,1.062,0.464
		c0.465,0,0.83-0.13,1.102-0.394c0.273-0.261,0.408-0.619,0.408-1.07V65.21c0-0.127-0.016-0.224-0.039-0.284
		c-0.029-0.06-0.076-0.111-0.139-0.151c-0.025-0.017-0.061-0.037-0.105-0.065c-0.174-0.1-0.264-0.196-0.264-0.291
		c0-0.128,0.121-0.248,0.365-0.364c0.24-0.113,0.496-0.171,0.764-0.171c0.129,0,0.223,0.042,0.279,0.13
		C55.842,64.099,55.871,64.252,55.871,64.469z"/>
	<path fill="#FFFFFF" d="M57.857,62.148c0-0.14-0.016-0.235-0.043-0.292c-0.031-0.057-0.088-0.111-0.168-0.166
		c-0.037-0.024-0.09-0.053-0.156-0.09c-0.143-0.072-0.215-0.148-0.215-0.231c0-0.06,0.021-0.116,0.064-0.169
		c0.045-0.056,0.117-0.104,0.215-0.159l0.035-0.019c0.5-0.266,0.832-0.396,1.002-0.396c0.082,0,0.141,0.033,0.17,0.106
		c0.031,0.074,0.049,0.245,0.049,0.516v7.422c0,0.102,0.014,0.189,0.039,0.258c0.029,0.07,0.064,0.114,0.107,0.135
		c0.039,0.016,0.102,0.039,0.184,0.071c0.227,0.087,0.34,0.188,0.34,0.302c0,0.085-0.033,0.146-0.102,0.18
		c-0.072,0.034-0.199,0.055-0.387,0.055h-1.277c-0.17,0-0.291-0.019-0.355-0.052c-0.064-0.032-0.1-0.091-0.1-0.167
		c0-0.058,0.02-0.106,0.053-0.151c0.033-0.043,0.094-0.088,0.18-0.131c0.033-0.017,0.074-0.033,0.125-0.052
		c0.16-0.063,0.238-0.207,0.238-0.426v-6.542L57.857,62.148L57.857,62.148z"/>
	<path fill="#FFFFFF" d="M60.738,68.904v-4.178h-0.375c-0.211,0-0.355-0.025-0.434-0.078c-0.078-0.051-0.119-0.14-0.119-0.268
		c0-0.092,0.029-0.165,0.082-0.224c0.053-0.057,0.123-0.095,0.211-0.104c0.035-0.005,0.08-0.01,0.137-0.013
		c0.254-0.021,0.416-0.07,0.488-0.149c0.088-0.092,0.166-0.418,0.232-0.98c0.02-0.163,0.035-0.289,0.049-0.383
		c0.006-0.046,0.014-0.107,0.023-0.188c0.047-0.401,0.178-0.604,0.393-0.604c0.096,0,0.158,0.033,0.191,0.095
		c0.035,0.062,0.053,0.235,0.053,0.526v1.672h0.85c0.205,0,0.354,0.026,0.434,0.081c0.084,0.054,0.127,0.144,0.127,0.271
		c0,0.119-0.047,0.207-0.137,0.262c-0.09,0.057-0.229,0.083-0.426,0.083h-0.85v3.543c0,0.236,0.02,0.41,0.057,0.516
		c0.037,0.103,0.102,0.172,0.199,0.206c0.115,0.042,0.334,0.072,0.656,0.092c0.322,0.018,0.486,0.103,0.486,0.252
		c0,0.133-0.037,0.221-0.109,0.269c-0.074,0.047-0.26,0.071-0.559,0.071h-1.137c-0.215,0-0.355-0.039-0.422-0.113
		C60.771,69.482,60.738,69.264,60.738,68.904z"/>
	<path fill="#FFFFFF" d="M64.109,65.381c0-0.145-0.012-0.24-0.041-0.298c-0.033-0.056-0.09-0.11-0.176-0.167
		c-0.035-0.023-0.09-0.054-0.162-0.089c-0.141-0.071-0.213-0.146-0.213-0.227c0-0.061,0.021-0.113,0.061-0.163
		c0.045-0.046,0.115-0.098,0.221-0.153l0.082-0.049c0.484-0.254,0.807-0.381,0.965-0.381c0.084,0,0.139,0.039,0.17,0.113
		c0.033,0.075,0.049,0.25,0.049,0.524v4.178c0,0.101,0.01,0.188,0.033,0.255c0.025,0.068,0.061,0.111,0.107,0.137
		c0.057,0.025,0.121,0.051,0.201,0.084c0.207,0.083,0.311,0.182,0.311,0.291c0,0.089-0.035,0.149-0.102,0.183
		c-0.066,0.034-0.193,0.052-0.383,0.052h-1.273c-0.17,0-0.287-0.018-0.35-0.052c-0.062-0.032-0.092-0.091-0.092-0.168
		c0-0.06,0.016-0.11,0.045-0.157c0.033-0.042,0.092-0.084,0.172-0.124c0.033-0.017,0.076-0.034,0.133-0.06
		c0.162-0.066,0.242-0.207,0.242-0.417V65.381L64.109,65.381z M63.785,62.136c0-0.181,0.062-0.33,0.191-0.445
		c0.131-0.112,0.299-0.171,0.504-0.171c0.201,0,0.365,0.059,0.49,0.171c0.125,0.115,0.188,0.266,0.188,0.445
		c0,0.191-0.062,0.344-0.188,0.456c-0.129,0.113-0.295,0.169-0.5,0.169c-0.211,0-0.375-0.056-0.5-0.169
		C63.846,62.478,63.785,62.328,63.785,62.136z"/>
	<path fill="#FFFFFF" d="M66.838,69.158c0.15-0.082,0.227-0.248,0.227-0.496V65.94c0-0.384-0.016-0.634-0.043-0.754
		c-0.027-0.115-0.078-0.202-0.154-0.259c-0.047-0.033-0.137-0.08-0.271-0.133c-0.135-0.054-0.203-0.125-0.203-0.218
		c0-0.106,0.119-0.249,0.359-0.429c0.24-0.179,0.438-0.268,0.594-0.268c0.109,0,0.211,0.082,0.303,0.244
		c0.094,0.166,0.17,0.414,0.242,0.744c0.254-0.326,0.547-0.573,0.879-0.741c0.33-0.167,0.695-0.247,1.088-0.247
		c0.672,0,1.17,0.22,1.502,0.656s0.498,1.104,0.498,2.003v2.153c0,0.132,0.006,0.227,0.023,0.28c0.016,0.056,0.045,0.099,0.09,0.125
		c0.035,0.025,0.088,0.054,0.154,0.091c0.164,0.088,0.242,0.177,0.242,0.274c0,0.074-0.027,0.129-0.092,0.16
		c-0.061,0.031-0.166,0.048-0.311,0.048H70.75c-0.146,0-0.252-0.017-0.312-0.045c-0.062-0.03-0.094-0.081-0.094-0.152
		c0-0.099,0.064-0.179,0.197-0.238c0.039-0.021,0.066-0.032,0.084-0.041c0.139-0.065,0.221-0.13,0.248-0.188
		c0.027-0.061,0.043-0.172,0.043-0.334V66.53c0-0.665-0.111-1.153-0.336-1.456c-0.227-0.309-0.578-0.459-1.064-0.459
		c-0.459,0-0.826,0.133-1.1,0.398c-0.273,0.265-0.412,0.623-0.412,1.076v2.721c0,0.082,0.008,0.146,0.02,0.188
		c0.012,0.04,0.033,0.074,0.064,0.103c0.035,0.026,0.094,0.058,0.172,0.096c0.156,0.08,0.232,0.166,0.232,0.259
		c0,0.084-0.029,0.142-0.094,0.171c-0.059,0.032-0.178,0.048-0.348,0.048H66.92c-0.152,0-0.254-0.014-0.311-0.042
		c-0.053-0.028-0.082-0.076-0.082-0.145c0-0.059,0.016-0.105,0.041-0.146c0.027-0.037,0.096-0.086,0.203-0.146
		C66.789,69.186,66.811,69.177,66.838,69.158L66.838,69.158z"/>
	<path fill="#FFFFFF" d="M77.27,68.891c0.432,0.157,0.754,0.35,0.963,0.576c0.211,0.231,0.318,0.503,0.318,0.822
		c0,0.545-0.271,0.977-0.803,1.299c-0.533,0.32-1.254,0.48-2.162,0.48c-0.777,0-1.379-0.094-1.807-0.281
		c-0.424-0.188-0.633-0.456-0.633-0.803c0-0.193,0.066-0.366,0.201-0.518c0.135-0.15,0.289-0.226,0.457-0.226
		c0.057,0,0.104,0.021,0.141,0.064c0.037,0.042,0.059,0.098,0.059,0.165c0,0.035-0.012,0.082-0.033,0.14
		c-0.02,0.059-0.029,0.1-0.029,0.117c0,0.183,0.146,0.323,0.432,0.421c0.289,0.101,0.695,0.149,1.225,0.149
		c0.633,0,1.123-0.087,1.471-0.259c0.346-0.17,0.516-0.42,0.516-0.741c0-0.218-0.076-0.409-0.232-0.569
		c-0.158-0.165-0.412-0.316-0.766-0.465c-0.236,0.048-0.436,0.082-0.598,0.104c-0.162,0.022-0.297,0.033-0.4,0.033
		c-0.748,0-1.355-0.255-1.826-0.768c-0.473-0.509-0.709-1.172-0.709-1.986c0-0.821,0.242-1.488,0.729-2.001
		c0.48-0.51,1.113-0.766,1.891-0.766c0.219,0,0.502,0.021,0.85,0.069c0.354,0.043,0.598,0.066,0.74,0.066
		c0.031,0,0.145-0.004,0.342-0.012c0.197-0.009,0.375-0.015,0.533-0.015c0.193,0,0.342,0.034,0.439,0.097
		c0.104,0.063,0.154,0.157,0.154,0.28c0,0.132-0.061,0.226-0.182,0.282c-0.121,0.058-0.326,0.088-0.621,0.088
		c-0.01,0-0.029-0.002-0.061-0.006c-0.111-0.006-0.219-0.008-0.314-0.008c0.236,0.232,0.42,0.509,0.551,0.836
		c0.127,0.327,0.193,0.678,0.193,1.051c0,0.465-0.086,0.889-0.258,1.271C77.863,68.268,77.607,68.602,77.27,68.891z M74.062,66.612
		c0,0.694,0.139,1.229,0.418,1.604c0.275,0.374,0.672,0.563,1.189,0.563c0.525,0,0.93-0.187,1.209-0.559
		c0.277-0.37,0.418-0.908,0.418-1.61c0-0.661-0.146-1.177-0.432-1.544c-0.287-0.367-0.688-0.553-1.195-0.553
		c-0.51,0-0.902,0.183-1.186,0.55C74.203,65.43,74.062,65.946,74.062,66.612z"/>
</g>
<g>
	<path fill="#FFFFFF" d="M28.288,51.225c0.174,0.815,0.546,1.46,1.117,1.938c0.572,0.477,1.255,0.715,2.048,0.715
		c0.425,0,0.827-0.052,1.202-0.157c0.377-0.104,0.746-0.269,1.106-0.491c0.175-0.104,0.39-0.255,0.649-0.448
		c0.354-0.26,0.587-0.389,0.699-0.389c0.113,0,0.204,0.042,0.277,0.126c0.074,0.083,0.11,0.191,0.11,0.322
		c0,0.218-0.146,0.476-0.434,0.779c-0.29,0.304-0.674,0.595-1.155,0.873c-0.404,0.234-0.83,0.413-1.28,0.532
		c-0.448,0.117-0.92,0.178-1.415,0.178c-1.47,0-2.643-0.438-3.521-1.312c-0.874-0.873-1.314-2.042-1.314-3.503
		c0-1.604,0.52-2.944,1.56-4.029c1.042-1.082,2.326-1.625,3.853-1.625c1.161,0,2.057,0.24,2.684,0.723
		c0.628,0.479,0.941,1.159,0.941,2.038c0,1.038-0.58,1.857-1.739,2.461C32.513,50.558,30.717,50.98,28.288,51.225z M28.129,50.148
		c1.895-0.181,3.285-0.5,4.174-0.955c0.889-0.456,1.333-1.07,1.333-1.845c0-0.515-0.181-0.919-0.539-1.211
		c-0.358-0.295-0.851-0.44-1.478-0.44c-1.024,0-1.86,0.398-2.513,1.19c-0.652,0.795-0.976,1.825-0.976,3.094L28.129,50.148
		L28.129,50.148z"/>
	<path fill="#FFFFFF" d="M39.999,49.939c-0.634-0.695-1.275-1.48-1.927-2.355c-0.652-0.874-1.037-1.366-1.155-1.479
		c-0.09-0.084-0.273-0.192-0.549-0.329c-0.276-0.136-0.413-0.279-0.413-0.434c0-0.132,0.05-0.222,0.147-0.271
		c0.097-0.048,0.302-0.071,0.615-0.071h2.079c0.328,0,0.546,0.023,0.653,0.071c0.107,0.051,0.162,0.141,0.162,0.271
		c0,0.084-0.093,0.206-0.276,0.365c-0.186,0.161-0.277,0.307-0.277,0.438c0,0.194,0.176,0.53,0.526,1.002
		c0.352,0.475,0.846,1.031,1.479,1.671c0.572-0.569,1.035-1.106,1.391-1.607c0.355-0.503,0.532-0.856,0.532-1.065
		c0-0.12-0.106-0.256-0.319-0.409c-0.212-0.151-0.318-0.284-0.318-0.396c0-0.131,0.058-0.222,0.173-0.271
		c0.114-0.047,0.349-0.07,0.704-0.07H44.7c0.285,0,0.476,0.021,0.568,0.062c0.095,0.042,0.143,0.12,0.143,0.229
		c0,0.153-0.122,0.291-0.366,0.413c-0.243,0.119-0.414,0.232-0.512,0.34c-0.068,0.068-0.388,0.508-0.956,1.314
		c-0.568,0.81-1.162,1.54-1.782,2.194c0.677,0.731,1.393,1.564,2.147,2.498c0.756,0.933,1.218,1.47,1.385,1.608
		c0.091,0.084,0.276,0.201,0.559,0.355c0.281,0.153,0.423,0.312,0.423,0.48c0,0.153-0.062,0.259-0.183,0.317
		c-0.122,0.06-0.354,0.088-0.694,0.088H43.25c-0.245,0-0.424-0.036-0.539-0.108c-0.114-0.072-0.171-0.187-0.171-0.34
		c0-0.126,0.082-0.267,0.25-0.425c0.167-0.155,0.25-0.278,0.25-0.369c0-0.243-0.205-0.62-0.614-1.13
		c-0.412-0.508-1-1.112-1.767-1.815c-0.627,0.703-1.104,1.289-1.431,1.76c-0.326,0.471-0.49,0.811-0.49,1.021
		c0,0.188,0.129,0.357,0.386,0.511c0.258,0.155,0.386,0.312,0.386,0.471c0,0.152-0.064,0.264-0.193,0.328
		c-0.129,0.067-0.336,0.1-0.62,0.1H36.51c-0.208,0-0.36-0.034-0.455-0.104c-0.093-0.071-0.141-0.178-0.141-0.324
		c0-0.203,0.184-0.384,0.554-0.544c0.369-0.16,0.609-0.308,0.722-0.438c0.077-0.092,0.229-0.297,0.459-0.616
		C38.441,51.761,39.228,50.782,39.999,49.939z"/>
	<path fill="#FFFFFF" d="M54.291,53.252c-0.459,0.646-1.022,1.135-1.69,1.463c-0.669,0.327-1.438,0.491-2.309,0.491
		c-1.038,0-1.861-0.276-2.471-0.831c-0.609-0.555-0.915-1.298-0.915-2.23c0-1.274,0.565-2.253,1.694-2.936
		c1.127-0.684,2.753-1.024,4.877-1.024h0.469c-0.082-0.738-0.395-1.313-0.936-1.729c-0.539-0.413-1.248-0.621-2.125-0.621
		c-0.502,0-1.04,0.169-1.609,0.503s-0.939,0.501-1.107,0.501c-0.194,0-0.356-0.054-0.484-0.161
		c-0.129-0.109-0.194-0.246-0.194-0.414c0-0.438,0.323-0.801,0.971-1.09c0.649-0.289,1.495-0.434,2.541-0.434
		c1.719,0,2.961,0.4,3.724,1.206c0.762,0.805,1.146,2.121,1.146,3.953v3.188c0,0.154,0.021,0.277,0.062,0.371
		c0.043,0.094,0.147,0.214,0.321,0.36c0.064,0.04,0.164,0.094,0.306,0.157c0.312,0.14,0.471,0.307,0.471,0.501
		c0,0.209-0.112,0.352-0.34,0.423c-0.228,0.072-0.793,0.109-1.699,0.109c-0.266,0-0.446-0.05-0.547-0.151
		c-0.104-0.101-0.151-0.282-0.151-0.548v-1.058H54.291z M54.164,49.145h-0.279c-1.631,0-2.889,0.256-3.777,0.77
		c-0.889,0.511-1.333,1.232-1.333,2.167c0,0.563,0.194,1.025,0.58,1.384c0.386,0.359,0.891,0.538,1.509,0.538
		c0.35,0,0.691-0.046,1.03-0.135c0.338-0.091,0.638-0.218,0.901-0.376c0.519-0.32,0.873-0.661,1.072-1.023s0.297-0.871,0.297-1.525
		V49.145z"/>
	<path fill="#FFFFFF" d="M59.004,52.76v-4.598c0-0.439-0.033-0.749-0.1-0.931s-0.176-0.327-0.328-0.438
		c-0.113-0.091-0.279-0.186-0.504-0.282c-0.318-0.146-0.479-0.322-0.479-0.533c0-0.082,0.045-0.186,0.135-0.308
		c0.09-0.121,0.217-0.242,0.375-0.361c0.223-0.173,0.428-0.311,0.609-0.407c0.186-0.098,0.332-0.146,0.436-0.146
		c0.318,0,0.594,0.257,0.82,0.772c0.227,0.517,0.361,1.198,0.402,2.048c0.354-0.919,0.776-1.628,1.264-2.132
		c0.488-0.501,0.992-0.752,1.516-0.752c0.369,0,0.654,0.139,0.857,0.412c0.201,0.275,0.303,0.667,0.303,1.178
		c0,0.16-0.051,0.292-0.15,0.396c-0.102,0.104-0.234,0.156-0.393,0.156c-0.168,0-0.396-0.072-0.686-0.214
		c-0.289-0.144-0.492-0.215-0.609-0.215c-0.459,0-0.881,0.389-1.26,1.169c-0.379,0.779-0.57,1.73-0.57,2.853v2.289
		c0,0.439,0.027,0.725,0.08,0.854c0.051,0.134,0.145,0.228,0.275,0.282c0.104,0.042,0.268,0.091,0.489,0.146
		c0.427,0.111,0.64,0.282,0.64,0.513c0,0.139-0.056,0.237-0.162,0.298c-0.107,0.06-0.312,0.088-0.611,0.088H58.68
		c-0.293,0-0.488-0.025-0.586-0.078c-0.098-0.052-0.146-0.147-0.146-0.286c0-0.182,0.156-0.35,0.47-0.502
		c0.168-0.084,0.289-0.149,0.364-0.198c0.084-0.057,0.142-0.14,0.171-0.251c0.032-0.112,0.049-0.301,0.049-0.564V52.76H59.004z"/>
	<path fill="#FFFFFF" d="M66.234,47.37c0-0.251-0.027-0.427-0.078-0.522c-0.055-0.098-0.156-0.195-0.311-0.293
		c-0.062-0.041-0.156-0.094-0.279-0.157c-0.252-0.124-0.379-0.257-0.379-0.396c0-0.105,0.039-0.2,0.111-0.282
		c0.072-0.084,0.199-0.175,0.381-0.271l0.146-0.083c0.851-0.447,1.414-0.67,1.693-0.67c0.146,0,0.246,0.066,0.305,0.199
		c0.054,0.132,0.082,0.438,0.082,0.919v7.335c0,0.181,0.021,0.33,0.062,0.449c0.041,0.117,0.104,0.198,0.188,0.24
		c0.099,0.041,0.218,0.09,0.354,0.146c0.361,0.146,0.546,0.317,0.546,0.513c0,0.153-0.062,0.26-0.179,0.317
		c-0.121,0.06-0.342,0.088-0.668,0.088h-2.252c-0.299,0-0.502-0.028-0.608-0.088c-0.107-0.061-0.162-0.157-0.162-0.298
		c0-0.104,0.026-0.196,0.084-0.271c0.055-0.076,0.155-0.15,0.303-0.22c0.058-0.027,0.134-0.062,0.229-0.104
		c0.285-0.12,0.428-0.362,0.428-0.731v-5.819h0.004V47.37z M65.658,41.676c0-0.319,0.115-0.581,0.34-0.784
		c0.226-0.201,0.521-0.302,0.883-0.302c0.355,0,0.644,0.101,0.863,0.302c0.217,0.203,0.328,0.464,0.328,0.784
		c0,0.335-0.111,0.602-0.336,0.799c-0.221,0.199-0.514,0.298-0.875,0.298c-0.369,0-0.664-0.099-0.879-0.298
		C65.766,42.276,65.658,42.01,65.658,41.676z"/>
	<path fill="#FFFFFF" d="M69.859,52.96c0-0.203,0.064-0.368,0.191-0.498c0.129-0.127,0.293-0.192,0.488-0.192
		c0.215,0,0.473,0.188,0.771,0.563c0.09,0.104,0.161,0.188,0.211,0.25c0.285,0.319,0.604,0.562,0.959,0.722
		c0.356,0.162,0.758,0.24,1.203,0.24c0.627,0,1.139-0.163,1.538-0.49c0.402-0.329,0.604-0.749,0.604-1.265
		c0-0.726-0.821-1.285-2.467-1.684c-0.09-0.021-0.164-0.037-0.219-0.053c-1.023-0.25-1.757-0.588-2.195-1.013s-0.655-1-0.655-1.726
		c0-0.933,0.313-1.679,0.94-2.239c0.625-0.562,1.465-0.844,2.519-0.844c1.002,0,1.774,0.146,2.323,0.435
		c0.55,0.289,0.82,0.695,0.82,1.219c0,0.384-0.027,0.64-0.084,0.768c-0.058,0.129-0.164,0.193-0.324,0.193
		c-0.188,0-0.41-0.154-0.666-0.46c-0.104-0.117-0.188-0.208-0.254-0.271c-0.265-0.271-0.576-0.479-0.938-0.626
		c-0.361-0.147-0.752-0.22-1.17-0.22c-0.505,0-0.921,0.146-1.255,0.435c-0.334,0.289-0.502,0.648-0.502,1.081
		c0,0.361,0.111,0.648,0.328,0.856c0.22,0.208,0.646,0.399,1.271,0.574c0.201,0.056,0.486,0.129,0.855,0.219
		c0.912,0.217,1.518,0.421,1.816,0.615c0.432,0.278,0.754,0.606,0.967,0.984c0.213,0.374,0.318,0.803,0.318,1.282
		c0,1.012-0.34,1.826-1.019,2.45c-0.68,0.623-1.571,0.937-2.683,0.937c-0.938,0-1.791-0.253-2.555-0.757
		C70.242,53.943,69.859,53.446,69.859,52.96z"/>
</g>
<path fill="#FFFFFF" d="M78.068,52.576c0.001-1.731,1.422-3.077,3.239-3.071c1.733,0.002,3.118,1.369,3.12,3.08
	c0.002,1.774-1.396,3.123-3.244,3.117C79.463,55.695,78.067,54.292,78.068,52.576z M81.291,55.077
	c1.332-0.001,2.363-1.088,2.354-2.476c-0.013-1.402-1.08-2.512-2.412-2.496c-1.335,0.015-2.388,1.114-2.388,2.491
	C78.85,54.008,79.904,55.083,81.291,55.077z"/>
<path fill="#FFFFFF" d="M80.059,51.113c0.662-0.083,1.32-0.188,1.974,0.011c0.341,0.104,0.55,0.347,0.573,0.722
	c0.025,0.358-0.156,0.588-0.466,0.734c-0.044,0.021-0.083,0.045-0.16,0.088c0.623,0.322,0.481,0.986,0.761,1.52
	c-0.257,0-0.47,0.009-0.683-0.007c-0.052-0.004-0.117-0.09-0.14-0.152c-0.062-0.165-0.109-0.336-0.15-0.508
	c-0.11-0.448-0.235-0.55-0.699-0.552c-0.093,0-0.184,0-0.314,0c0,0.409,0,0.798,0,1.205c-0.254,0-0.467,0-0.696,0
	C80.059,53.154,80.059,52.145,80.059,51.113z M80.797,52.486c0.242-0.021,0.461-0.022,0.67-0.063
	c0.223-0.045,0.388-0.186,0.377-0.435c-0.01-0.241-0.164-0.396-0.395-0.426c-0.21-0.026-0.425-0.006-0.652-0.006
	C80.797,51.863,80.797,52.145,80.797,52.486z"/>
</svg>
