<?xml version="1.0" encoding="utf-8"?>
<!-- Generator: Adobe Illustrator 16.0.0, SVG Export Plug-In . SVG Version: 6.00 Build 0)  -->
<!DOCTYPE svg PUBLIC "-//W3C//DTD SVG 1.1//EN" "http://www.w3.org/Graphics/SVG/1.1/DTD/svg11.dtd">
<svg version="1.1" id="Capa_1" xmlns="http://www.w3.org/2000/svg" xmlns:xlink="http://www.w3.org/1999/xlink" x="0px" y="0px"
	 width="100px" height="72.025px" viewBox="0 0 100 72.025" enable-background="new 0 0 100 72.025" xml:space="preserve">
<g>
	<g>
		<circle fill="#D81F26" cx="56.372" cy="28.881" r="2.356"/>
		<circle fill="#D81F26" cx="53.15" cy="25.766" r="1.576"/>
		<circle fill="#D81F26" cx="66" cy="38.86" r="3.919"/>
		<circle fill="#D81F26" cx="60.717" cy="33.254" r="3.118"/>
	</g>
	<g>
		<circle fill="#D81F26" cx="45.395" cy="28.929" r="2.356"/>
		<circle fill="#D81F26" cx="48.569" cy="25.766" r="1.575"/>
		<circle fill="#D81F26" cx="35.712" cy="38.86" r="3.918"/>
		<circle fill="#D81F26" cx="41.076" cy="33.402" r="3.119"/>
	</g>
	<g>
		<circle fill="#D81F26" cx="56.281" cy="18.028" r="2.356"/>
		<circle fill="#D81F26" cx="53.132" cy="21.177" r="1.575"/>
		<circle fill="#D81F26" cx="66.15" cy="8.307" r="3.919"/>
		<circle fill="#D81F26" cx="60.682" cy="13.712" r="3.118"/>
	</g>
	<g>
		<circle fill="#D81F26" cx="45.47" cy="17.957" r="2.356"/>
		<circle fill="#D81F26" cx="48.542" cy="21.157" r="1.575"/>
		<circle fill="#D81F26" cx="35.41" cy="8.334" r="3.918"/>
		<circle fill="#D81F26" cx="40.959" cy="13.654" r="3.118"/>
	</g>
</g>
<g>
	<path fill="#FFFFFF" d="M27.243,55.196c0.176,0.825,0.554,1.479,1.132,1.963s1.271,0.726,2.075,0.726
		c0.43,0,0.836-0.053,1.217-0.158s0.755-0.271,1.122-0.497c0.176-0.106,0.395-0.258,0.656-0.455c0.36-0.262,0.596-0.393,0.709-0.393
		c0.113,0,0.207,0.042,0.281,0.127c0.074,0.084,0.111,0.194,0.111,0.328c0,0.22-0.146,0.481-0.439,0.788
		c-0.293,0.309-0.683,0.603-1.17,0.884c-0.409,0.24-0.841,0.421-1.296,0.54c-0.455,0.12-0.934,0.181-1.435,0.181
		c-1.489,0-2.678-0.442-3.567-1.328c-0.889-0.886-1.333-2.069-1.333-3.551c0-1.623,0.527-2.983,1.583-4.081
		c1.055-1.098,2.355-1.646,3.9-1.646c1.178,0,2.085,0.243,2.72,0.73c0.635,0.485,0.953,1.175,0.953,2.062
		c0,1.052-0.587,1.883-1.763,2.493C31.524,54.52,29.705,54.949,27.243,55.196z M27.084,54.105c1.919-0.184,3.329-0.506,4.229-0.968
		c0.899-0.464,1.35-1.086,1.35-1.868c0-0.522-0.182-0.933-0.545-1.229c-0.363-0.296-0.862-0.443-1.498-0.443
		c-1.037,0-1.886,0.401-2.545,1.207c-0.66,0.804-0.99,1.849-0.99,3.133L27.084,54.105L27.084,54.105z"/>
	<path fill="#FFFFFF" d="M37.415,56.868c0.804-1.129,1.598-2.12,2.381-2.974c-0.642-0.706-1.293-1.502-1.953-2.389
		c-0.66-0.885-1.05-1.384-1.17-1.497c-0.092-0.085-0.277-0.195-0.556-0.334c-0.279-0.137-0.418-0.282-0.418-0.438
		c0-0.135,0.049-0.228,0.148-0.275c0.099-0.05,0.307-0.073,0.625-0.073h2.106c0.332,0,0.552,0.023,0.662,0.073
		c0.109,0.049,0.164,0.142,0.164,0.275c0,0.084-0.094,0.208-0.28,0.37c-0.188,0.162-0.281,0.311-0.281,0.443
		c0,0.198,0.178,0.536,0.535,1.018c0.356,0.479,0.855,1.044,1.498,1.692c0.579-0.578,1.048-1.121,1.408-1.63
		c0.36-0.509,0.54-0.867,0.54-1.08c0-0.119-0.108-0.257-0.323-0.412c-0.215-0.154-0.323-0.289-0.323-0.401
		c0-0.135,0.059-0.228,0.175-0.275c0.117-0.05,0.354-0.073,0.714-0.073h1.493c0.289,0,0.481,0.021,0.577,0.062
		c0.096,0.042,0.143,0.12,0.143,0.232c0,0.154-0.124,0.295-0.371,0.419c-0.247,0.123-0.42,0.236-0.519,0.344
		c-0.071,0.07-0.394,0.515-0.969,1.333c-0.575,0.819-1.176,1.56-1.805,2.224c0.685,0.74,1.41,1.584,2.175,2.529
		s1.233,1.489,1.402,1.63c0.092,0.085,0.281,0.205,0.566,0.36c0.285,0.154,0.429,0.316,0.429,0.485c0,0.155-0.062,0.264-0.185,0.323
		c-0.124,0.061-0.358,0.09-0.704,0.09h-2.212c-0.247,0-0.429-0.037-0.545-0.11c-0.116-0.074-0.174-0.188-0.174-0.345
		c0-0.127,0.084-0.271,0.254-0.429c0.169-0.159,0.254-0.284,0.254-0.376c0-0.247-0.208-0.628-0.625-1.143
		c-0.417-0.517-1.013-1.129-1.789-1.843c-0.635,0.714-1.119,1.308-1.45,1.783c-0.332,0.478-0.498,0.82-0.498,1.032
		c0,0.19,0.13,0.363,0.392,0.519c0.262,0.156,0.392,0.313,0.392,0.478c0,0.155-0.065,0.266-0.196,0.333s-0.34,0.101-0.63,0.101
		H36.26c-0.212,0-0.365-0.035-0.46-0.104c-0.095-0.071-0.143-0.182-0.143-0.328c0-0.205,0.187-0.389,0.561-0.551
		s0.618-0.312,0.73-0.444C37.026,57.401,37.182,57.193,37.415,56.868L37.415,56.868z"/>
	<path fill="#FFFFFF" d="M54.275,57.249c-0.467,0.656-1.037,1.15-1.715,1.482c-0.678,0.331-1.457,0.497-2.339,0.497
		c-1.051,0-1.886-0.28-2.503-0.841c-0.617-0.562-0.926-1.314-0.926-2.261c0-1.292,0.571-2.283,1.714-2.975
		c1.143-0.692,2.791-1.037,4.943-1.037h0.477c-0.085-0.748-0.4-1.332-0.947-1.752s-1.266-0.63-2.153-0.63
		c-0.508,0-1.052,0.169-1.63,0.508c-0.578,0.339-0.953,0.509-1.122,0.509c-0.198,0-0.362-0.055-0.492-0.164
		c-0.131-0.108-0.196-0.249-0.196-0.419c0-0.443,0.328-0.812,0.984-1.104c0.656-0.293,1.513-0.439,2.572-0.439
		c1.742,0,3,0.407,3.772,1.224c0.772,0.813,1.159,2.149,1.159,4.006v3.229c0,0.155,0.021,0.28,0.062,0.376
		c0.043,0.095,0.151,0.217,0.328,0.365c0.063,0.042,0.166,0.095,0.307,0.158c0.318,0.142,0.478,0.311,0.478,0.509
		c0,0.211-0.114,0.354-0.344,0.429c-0.229,0.073-0.804,0.11-1.722,0.11c-0.268,0-0.453-0.051-0.556-0.153
		c-0.102-0.103-0.153-0.287-0.153-0.556v-1.07H54.275z M54.148,53.09h-0.287c-1.649,0-2.926,0.26-3.825,0.778
		c-0.9,0.52-1.35,1.25-1.35,2.196c0,0.57,0.196,1.039,0.587,1.401c0.391,0.363,0.901,0.545,1.529,0.545
		c0.353,0,0.7-0.046,1.044-0.138c0.342-0.092,0.646-0.219,0.914-0.381c0.522-0.325,0.885-0.671,1.086-1.037
		c0.2-0.367,0.301-0.883,0.301-1.546V53.09H54.148z"/>
	<path fill="#FFFFFF" d="M59.049,56.752v-4.656c0-0.444-0.033-0.76-0.101-0.942c-0.066-0.183-0.179-0.331-0.333-0.444
		c-0.113-0.092-0.282-0.187-0.508-0.285c-0.325-0.147-0.487-0.327-0.487-0.54c0-0.085,0.046-0.188,0.138-0.312
		c0.092-0.123,0.219-0.245,0.381-0.365c0.227-0.176,0.434-0.312,0.619-0.413c0.188-0.099,0.334-0.146,0.439-0.146
		c0.324,0,0.602,0.261,0.83,0.783c0.229,0.521,0.365,1.214,0.408,2.073c0.359-0.932,0.787-1.65,1.28-2.158
		c0.493-0.509,1.005-0.763,1.534-0.763c0.374,0,0.663,0.14,0.868,0.418s0.307,0.676,0.307,1.19c0,0.162-0.051,0.297-0.153,0.401
		c-0.102,0.105-0.233,0.159-0.396,0.159c-0.17,0-0.399-0.071-0.692-0.218c-0.293-0.145-0.5-0.217-0.619-0.217
		c-0.467,0-0.892,0.396-1.275,1.186c-0.385,0.79-0.577,1.754-0.577,2.891v2.317c0,0.444,0.026,0.733,0.079,0.867
		c0.055,0.135,0.146,0.229,0.281,0.286c0.104,0.042,0.271,0.092,0.496,0.148c0.432,0.111,0.646,0.284,0.646,0.519
		c0,0.142-0.055,0.241-0.164,0.302s-0.314,0.09-0.619,0.09h-2.709c-0.297,0-0.494-0.025-0.594-0.079s-0.146-0.149-0.146-0.29
		c0-0.185,0.158-0.354,0.476-0.51c0.17-0.084,0.293-0.15,0.371-0.201c0.085-0.056,0.144-0.141,0.175-0.254
		c0.031-0.111,0.047-0.303,0.047-0.57v-0.267H59.049z"/>
	<path fill="#FFFFFF" d="M66.374,51.29c0-0.254-0.026-0.43-0.08-0.529c-0.053-0.099-0.155-0.196-0.312-0.296
		c-0.063-0.042-0.159-0.096-0.287-0.158c-0.254-0.127-0.381-0.262-0.381-0.402c0-0.105,0.037-0.2,0.111-0.285
		s0.202-0.177,0.387-0.275l0.147-0.085c0.86-0.45,1.433-0.677,1.715-0.677c0.148,0,0.25,0.066,0.308,0.201
		c0.057,0.134,0.084,0.444,0.084,0.931v7.432c0,0.184,0.021,0.335,0.063,0.455s0.104,0.2,0.19,0.242
		c0.099,0.043,0.219,0.093,0.359,0.148c0.366,0.148,0.551,0.321,0.551,0.519c0,0.155-0.061,0.264-0.181,0.323
		c-0.12,0.061-0.346,0.09-0.678,0.09h-2.274c-0.305,0-0.511-0.029-0.619-0.09c-0.109-0.061-0.164-0.16-0.164-0.302
		c0-0.105,0.027-0.197,0.084-0.275c0.057-0.076,0.158-0.15,0.308-0.223c0.058-0.027,0.134-0.062,0.231-0.104
		c0.291-0.12,0.436-0.367,0.436-0.741L66.374,51.29L66.374,51.29z M65.792,45.521c0-0.324,0.114-0.589,0.345-0.794
		c0.229-0.204,0.526-0.308,0.895-0.308c0.359,0,0.65,0.104,0.873,0.308c0.222,0.205,0.332,0.47,0.332,0.794
		c0,0.339-0.111,0.607-0.338,0.81c-0.227,0.201-0.521,0.302-0.89,0.302c-0.374,0-0.671-0.101-0.889-0.302
		C65.9,46.13,65.792,45.86,65.792,45.521z"/>
	<path fill="#FFFFFF" d="M70.047,56.953c0-0.205,0.064-0.372,0.195-0.503s0.295-0.195,0.492-0.195c0.219,0,0.479,0.19,0.783,0.571
		c0.092,0.105,0.162,0.19,0.211,0.254c0.289,0.324,0.614,0.568,0.975,0.73c0.359,0.162,0.766,0.243,1.218,0.243
		c0.636,0,1.155-0.166,1.562-0.497c0.406-0.332,0.608-0.76,0.608-1.281c0-0.733-0.833-1.302-2.498-1.704
		c-0.092-0.021-0.166-0.038-0.223-0.053c-1.037-0.254-1.778-0.597-2.224-1.026c-0.444-0.43-0.666-1.013-0.666-1.747
		c0-0.945,0.316-1.702,0.953-2.271c0.635-0.567,1.484-0.853,2.551-0.853c1.016,0,1.801,0.146,2.354,0.439s0.831,0.704,0.831,1.231
		c0,0.39-0.028,0.647-0.085,0.778s-0.165,0.196-0.328,0.196c-0.189,0-0.416-0.155-0.677-0.467c-0.106-0.119-0.19-0.212-0.254-0.274
		c-0.269-0.275-0.587-0.487-0.953-0.635c-0.367-0.148-0.763-0.224-1.187-0.224c-0.508,0-0.932,0.146-1.27,0.439
		c-0.339,0.293-0.509,0.658-0.509,1.096c0,0.366,0.11,0.656,0.334,0.867c0.222,0.212,0.649,0.406,1.286,0.582
		c0.203,0.057,0.492,0.131,0.867,0.223c0.924,0.219,1.539,0.427,1.842,0.625c0.438,0.282,0.764,0.613,0.979,0.994
		c0.215,0.382,0.322,0.815,0.322,1.303c0,1.022-0.344,1.852-1.031,2.481c-0.688,0.632-1.594,0.947-2.715,0.947
		c-0.953,0-1.814-0.257-2.588-0.769C70.434,57.95,70.047,57.447,70.047,56.953z"/>
</g>
<g>
	<path fill="#FFFFFF" d="M37.567,67.061c0.055,0,0.099,0.011,0.132,0.032c0.033,0.022,0.051,0.054,0.051,0.091
		c0,0.071-0.038,0.162-0.112,0.271c-0.074,0.109-0.173,0.21-0.295,0.305c-0.142,0.112-0.299,0.196-0.473,0.253
		c-0.173,0.057-0.364,0.085-0.573,0.085c-0.466,0-0.85-0.165-1.153-0.495c-0.303-0.33-0.454-0.75-0.454-1.259
		c0-0.569,0.167-1.045,0.501-1.424c0.333-0.379,0.751-0.566,1.251-0.566c0.336,0,0.619,0.069,0.848,0.211
		c0.229,0.141,0.344,0.306,0.344,0.495c0,0.082-0.031,0.152-0.093,0.215c-0.062,0.061-0.136,0.091-0.22,0.091
		c-0.103,0-0.209-0.073-0.322-0.22c-0.017-0.022-0.03-0.039-0.037-0.049c-0.11-0.143-0.206-0.233-0.29-0.274
		s-0.187-0.062-0.309-0.062c-0.301,0-0.546,0.14-0.734,0.416c-0.188,0.278-0.282,0.645-0.282,1.098c0,0.414,0.101,0.744,0.303,0.992
		c0.202,0.248,0.471,0.371,0.807,0.371c0.1,0,0.199-0.014,0.297-0.04c0.099-0.027,0.192-0.067,0.282-0.12
		c0.109-0.062,0.219-0.146,0.327-0.254C37.472,67.115,37.54,67.061,37.567,67.061z"/>
	<path fill="#FFFFFF" d="M38.072,66.227c0-0.551,0.175-1,0.525-1.352c0.35-0.35,0.801-0.523,1.354-0.523
		c0.556,0,1.007,0.174,1.354,0.521c0.347,0.349,0.521,0.8,0.521,1.354c0,0.551-0.174,1-0.521,1.348
		c-0.347,0.348-0.799,0.521-1.354,0.521c-0.555,0-1.008-0.175-1.356-0.521C38.247,67.228,38.072,66.778,38.072,66.227z
		 M38.729,66.227c0,0.442,0.112,0.8,0.336,1.066c0.224,0.268,0.52,0.401,0.886,0.401c0.366,0,0.661-0.134,0.884-0.401
		s0.334-0.624,0.334-1.066c0-0.445-0.112-0.804-0.334-1.072c-0.223-0.27-0.518-0.403-0.884-0.403c-0.364,0-0.658,0.137-0.884,0.407
		C38.841,65.43,38.729,65.787,38.729,66.227z"/>
	<path fill="#FFFFFF" d="M42.589,67.666c0.094-0.052,0.142-0.156,0.142-0.312v-1.708c0-0.241-0.008-0.398-0.026-0.474
		c-0.018-0.072-0.05-0.127-0.097-0.162c-0.03-0.021-0.087-0.051-0.172-0.084s-0.127-0.078-0.127-0.137
		c0-0.066,0.075-0.156,0.226-0.269c0.15-0.112,0.274-0.168,0.372-0.168c0.07,0,0.133,0.052,0.19,0.153
		c0.058,0.104,0.108,0.26,0.153,0.467c0.16-0.204,0.343-0.359,0.551-0.465c0.208-0.104,0.435-0.155,0.682-0.155
		c0.421,0,0.736,0.138,0.944,0.412s0.312,0.693,0.312,1.258v1.353c0,0.082,0.005,0.142,0.015,0.176
		c0.01,0.035,0.029,0.062,0.056,0.078c0.022,0.017,0.055,0.034,0.097,0.058c0.102,0.055,0.153,0.11,0.153,0.172
		c0,0.047-0.02,0.081-0.058,0.101c-0.038,0.021-0.104,0.03-0.196,0.03h-0.762c-0.092,0-0.157-0.01-0.196-0.028
		s-0.058-0.051-0.058-0.096c0-0.062,0.041-0.112,0.124-0.149c0.024-0.013,0.042-0.021,0.052-0.025
		c0.087-0.042,0.139-0.082,0.157-0.119s0.026-0.107,0.026-0.209v-1.346c0-0.418-0.071-0.725-0.211-0.915
		c-0.141-0.192-0.363-0.288-0.667-0.288c-0.289,0-0.519,0.084-0.691,0.251c-0.172,0.166-0.258,0.392-0.258,0.676v1.708
		c0,0.052,0.003,0.091,0.011,0.117c0.007,0.025,0.021,0.048,0.041,0.064c0.022,0.017,0.058,0.035,0.108,0.061
		c0.097,0.05,0.146,0.104,0.146,0.161c0,0.053-0.02,0.089-0.058,0.107c-0.038,0.02-0.111,0.03-0.218,0.03h-0.71
		c-0.095,0-0.16-0.009-0.194-0.026c-0.035-0.018-0.052-0.048-0.052-0.09c0-0.037,0.009-0.067,0.026-0.092
		c0.018-0.023,0.06-0.054,0.127-0.092C42.558,67.683,42.572,67.677,42.589,67.666L42.589,67.666z"/>
	<path fill="#FFFFFF" d="M46.408,67.293c0-0.071,0.023-0.132,0.069-0.178s0.104-0.069,0.174-0.069c0.077,0,0.169,0.067,0.276,0.202
		c0.033,0.037,0.058,0.067,0.075,0.09c0.102,0.114,0.217,0.2,0.344,0.259c0.127,0.057,0.271,0.086,0.43,0.086
		c0.225,0,0.408-0.06,0.551-0.177c0.143-0.116,0.215-0.268,0.215-0.451c0-0.26-0.294-0.461-0.882-0.603
		c-0.032-0.008-0.059-0.014-0.079-0.019c-0.366-0.091-0.627-0.211-0.785-0.362c-0.157-0.152-0.235-0.357-0.235-0.617
		c0-0.333,0.112-0.601,0.336-0.801c0.224-0.201,0.524-0.301,0.9-0.301c0.359,0,0.636,0.052,0.832,0.153
		c0.195,0.104,0.293,0.249,0.293,0.437c0,0.137-0.01,0.229-0.03,0.273c-0.02,0.048-0.059,0.069-0.116,0.069
		c-0.067,0-0.147-0.055-0.239-0.164c-0.038-0.043-0.067-0.075-0.09-0.098c-0.095-0.098-0.207-0.172-0.336-0.225
		c-0.129-0.053-0.269-0.078-0.418-0.078c-0.179,0-0.329,0.052-0.448,0.154c-0.119,0.104-0.18,0.232-0.18,0.388
		c0,0.13,0.04,0.23,0.118,0.307c0.079,0.074,0.23,0.144,0.454,0.205c0.072,0.021,0.174,0.047,0.307,0.079
		c0.326,0.077,0.543,0.149,0.65,0.22c0.155,0.101,0.27,0.217,0.346,0.352c0.076,0.136,0.114,0.288,0.114,0.46
		c0,0.361-0.122,0.653-0.365,0.876c-0.243,0.224-0.562,0.336-0.958,0.336c-0.336,0-0.641-0.092-0.914-0.271
		C46.544,67.644,46.408,67.467,46.408,67.293z"/>
	<path fill="#FFFFFF" d="M52.771,64.721v2.082c0,0.177,0.004,0.319,0.011,0.432c0.008,0.11,0.017,0.177,0.026,0.199
		c0.026,0.058,0.06,0.104,0.098,0.139c0.037,0.035,0.1,0.068,0.187,0.101c0.013,0.006,0.028,0.013,0.05,0.02
		c0.09,0.035,0.133,0.085,0.133,0.148c0,0.07-0.043,0.118-0.129,0.146c-0.086,0.025-0.265,0.039-0.535,0.039
		c-0.139,0-0.236-0.031-0.291-0.094c-0.055-0.063-0.082-0.174-0.082-0.332c0-0.014,0-0.034,0.004-0.063
		c0.002-0.03,0.003-0.053,0.003-0.067c-0.156,0.21-0.335,0.364-0.536,0.468c-0.2,0.103-0.43,0.152-0.689,0.152
		c-0.438,0-0.756-0.132-0.956-0.395c-0.199-0.263-0.299-0.688-0.299-1.275v-1.178c0-0.122-0.015-0.205-0.043-0.25
		c-0.029-0.045-0.085-0.095-0.17-0.149c-0.002,0-0.005-0.001-0.007-0.004c-0.102-0.06-0.153-0.119-0.153-0.18
		c0-0.072,0.076-0.141,0.228-0.207c0.152-0.066,0.321-0.099,0.508-0.099c0.082,0,0.141,0.028,0.176,0.089
		c0.035,0.061,0.052,0.166,0.052,0.317v1.675c0,0.413,0.071,0.717,0.212,0.911c0.143,0.193,0.363,0.292,0.666,0.292
		c0.291,0,0.521-0.082,0.691-0.247c0.172-0.164,0.256-0.39,0.256-0.673v-1.531c0-0.08-0.009-0.14-0.024-0.179
		c-0.019-0.037-0.048-0.069-0.087-0.095c-0.016-0.011-0.037-0.023-0.066-0.042c-0.109-0.062-0.165-0.123-0.165-0.183
		c0-0.08,0.076-0.155,0.229-0.229c0.15-0.071,0.312-0.107,0.479-0.107c0.082,0,0.141,0.026,0.176,0.082
		C52.754,64.489,52.771,64.585,52.771,64.721z"/>
	<path fill="#FFFFFF" d="M54.02,63.264c0-0.088-0.01-0.148-0.027-0.184c-0.02-0.035-0.055-0.07-0.105-0.104
		c-0.023-0.016-0.056-0.033-0.098-0.057c-0.09-0.045-0.135-0.094-0.135-0.146c0-0.037,0.014-0.073,0.041-0.106
		c0.027-0.034,0.072-0.065,0.135-0.1l0.021-0.011c0.313-0.167,0.522-0.25,0.629-0.25c0.052,0,0.088,0.021,0.106,0.067
		c0.021,0.047,0.03,0.154,0.03,0.323v4.66c0,0.063,0.009,0.119,0.025,0.162c0.019,0.044,0.041,0.071,0.067,0.084
		c0.024,0.01,0.063,0.024,0.115,0.045c0.143,0.055,0.213,0.118,0.213,0.189c0,0.054-0.021,0.091-0.063,0.112
		c-0.045,0.022-0.125,0.034-0.242,0.034H53.93c-0.106,0-0.182-0.011-0.223-0.032c-0.041-0.021-0.062-0.057-0.062-0.105
		c0-0.035,0.012-0.066,0.032-0.095c0.021-0.026,0.06-0.055,0.113-0.082c0.021-0.01,0.047-0.021,0.079-0.032
		c0.1-0.04,0.148-0.13,0.148-0.267v-4.107H54.02z"/>
	<path fill="#FFFFFF" d="M55.828,67.506v-2.623h-0.235c-0.132,0-0.224-0.017-0.272-0.049s-0.074-0.088-0.074-0.168
		c0-0.058,0.018-0.104,0.051-0.141c0.033-0.035,0.077-0.059,0.133-0.064c0.021-0.003,0.051-0.006,0.086-0.008
		c0.159-0.013,0.262-0.044,0.307-0.094c0.055-0.058,0.104-0.263,0.146-0.616c0.013-0.103,0.022-0.182,0.03-0.239
		c0.005-0.029,0.01-0.068,0.016-0.119c0.029-0.252,0.111-0.378,0.246-0.378c0.061,0,0.1,0.021,0.121,0.059
		c0.021,0.039,0.032,0.148,0.032,0.331v1.05h0.534c0.129,0,0.221,0.017,0.271,0.051c0.053,0.033,0.079,0.09,0.079,0.17
		c0,0.075-0.028,0.13-0.085,0.164c-0.056,0.035-0.145,0.053-0.268,0.053h-0.533v2.225c0,0.148,0.012,0.257,0.035,0.323
		c0.023,0.064,0.064,0.107,0.125,0.129c0.072,0.026,0.21,0.046,0.412,0.058c0.203,0.011,0.306,0.064,0.306,0.158
		c0,0.083-0.022,0.139-0.069,0.169c-0.046,0.029-0.162,0.045-0.35,0.045h-0.713c-0.135,0-0.225-0.024-0.266-0.071
		C55.85,67.869,55.828,67.732,55.828,67.506z"/>
	<path fill="#FFFFFF" d="M57.945,65.294c0-0.09-0.008-0.151-0.026-0.188c-0.021-0.034-0.056-0.069-0.11-0.104
		c-0.021-0.015-0.057-0.033-0.102-0.056c-0.089-0.045-0.134-0.092-0.134-0.142c0-0.038,0.013-0.071,0.038-0.103
		c0.027-0.029,0.072-0.062,0.138-0.097l0.052-0.03c0.305-0.159,0.506-0.239,0.605-0.239c0.053,0,0.088,0.024,0.107,0.071
		c0.021,0.047,0.03,0.157,0.03,0.329v2.623c0,0.063,0.007,0.118,0.021,0.16c0.017,0.043,0.039,0.07,0.067,0.086
		c0.035,0.016,0.077,0.032,0.127,0.053c0.13,0.052,0.194,0.113,0.194,0.183c0,0.056-0.021,0.094-0.062,0.114
		c-0.043,0.021-0.123,0.032-0.24,0.032H57.85c-0.106,0-0.18-0.011-0.219-0.032c-0.039-0.021-0.058-0.057-0.058-0.105
		c0-0.037,0.01-0.069,0.028-0.099c0.021-0.026,0.058-0.053,0.108-0.078c0.021-0.01,0.048-0.021,0.082-0.037
		c0.103-0.042,0.153-0.13,0.153-0.262V65.294L57.945,65.294z M57.741,63.257c0-0.113,0.04-0.207,0.12-0.279
		c0.082-0.071,0.188-0.107,0.316-0.107c0.127,0,0.229,0.036,0.309,0.107c0.078,0.072,0.117,0.166,0.117,0.279
		c0,0.12-0.039,0.216-0.119,0.286c-0.08,0.071-0.185,0.106-0.313,0.106c-0.132,0-0.235-0.035-0.313-0.106
		S57.741,63.377,57.741,63.257z"/>
	<path fill="#FFFFFF" d="M59.658,67.666c0.095-0.052,0.142-0.156,0.142-0.312v-1.708c0-0.241-0.009-0.398-0.026-0.474
		c-0.018-0.072-0.049-0.127-0.097-0.162c-0.03-0.021-0.087-0.051-0.172-0.084s-0.127-0.078-0.127-0.137
		c0-0.066,0.075-0.156,0.226-0.269c0.151-0.112,0.275-0.168,0.373-0.168c0.068,0,0.133,0.052,0.189,0.153
		c0.059,0.104,0.107,0.26,0.152,0.467c0.16-0.204,0.344-0.359,0.552-0.465c0.208-0.104,0.437-0.155,0.683-0.155
		c0.422,0,0.735,0.138,0.943,0.412s0.312,0.693,0.312,1.258v1.353c0,0.082,0.004,0.142,0.016,0.176
		c0.01,0.035,0.027,0.062,0.056,0.078c0.022,0.017,0.056,0.034,0.097,0.058c0.104,0.055,0.153,0.11,0.153,0.172
		c0,0.047-0.019,0.081-0.058,0.101c-0.039,0.021-0.104,0.03-0.196,0.03h-0.763c-0.092,0-0.157-0.01-0.195-0.028
		c-0.039-0.019-0.059-0.051-0.059-0.096c0-0.062,0.041-0.112,0.123-0.149c0.024-0.013,0.043-0.021,0.053-0.025
		c0.088-0.042,0.14-0.082,0.156-0.119c0.018-0.037,0.026-0.107,0.026-0.209v-1.346c0-0.418-0.069-0.725-0.211-0.915
		c-0.142-0.192-0.362-0.288-0.667-0.288c-0.289,0-0.52,0.084-0.691,0.251c-0.172,0.166-0.258,0.392-0.258,0.676v1.708
		c0,0.052,0.004,0.091,0.012,0.117c0.008,0.025,0.021,0.048,0.041,0.064c0.021,0.017,0.059,0.035,0.107,0.061
		c0.098,0.05,0.146,0.104,0.146,0.161c0,0.053-0.02,0.089-0.059,0.107c-0.037,0.021-0.111,0.03-0.219,0.03h-0.71
		c-0.095,0-0.159-0.009-0.194-0.026c-0.033-0.018-0.052-0.048-0.052-0.09c0-0.037,0.009-0.067,0.026-0.092
		c0.017-0.023,0.06-0.054,0.127-0.092C59.627,67.683,59.641,67.677,59.658,67.666L59.658,67.666z"/>
	<path fill="#FFFFFF" d="M66.208,67.498c0.271,0.099,0.474,0.219,0.604,0.362c0.133,0.145,0.199,0.315,0.199,0.516
		c0,0.342-0.169,0.613-0.504,0.815c-0.335,0.201-0.787,0.303-1.357,0.303c-0.488,0-0.865-0.06-1.133-0.178
		c-0.267-0.118-0.398-0.286-0.398-0.503c0-0.122,0.042-0.23,0.127-0.325c0.084-0.095,0.181-0.142,0.287-0.142
		c0.035,0,0.064,0.014,0.088,0.041c0.023,0.026,0.036,0.062,0.036,0.104c0,0.022-0.007,0.052-0.021,0.088
		c-0.012,0.036-0.019,0.062-0.019,0.073c0,0.114,0.091,0.203,0.271,0.265c0.182,0.062,0.438,0.094,0.769,0.094
		c0.397,0,0.706-0.055,0.923-0.162s0.324-0.264,0.324-0.466c0-0.137-0.049-0.257-0.146-0.357c-0.099-0.104-0.259-0.199-0.48-0.292
		c-0.148,0.03-0.273,0.052-0.375,0.064c-0.102,0.015-0.186,0.021-0.252,0.021c-0.469,0-0.852-0.16-1.146-0.481
		c-0.297-0.32-0.445-0.736-0.445-1.248c0-0.516,0.152-0.935,0.457-1.256c0.303-0.32,0.699-0.48,1.188-0.48
		c0.137,0,0.314,0.014,0.533,0.043c0.221,0.027,0.375,0.043,0.465,0.043c0.02,0,0.091-0.003,0.215-0.008
		c0.123-0.006,0.234-0.009,0.334-0.009c0.122,0,0.215,0.021,0.277,0.061c0.063,0.04,0.097,0.099,0.097,0.176
		c0,0.083-0.038,0.142-0.114,0.178s-0.205,0.056-0.391,0.056c-0.006,0-0.018-0.002-0.037-0.004c-0.07-0.004-0.137-0.005-0.198-0.005
		c0.149,0.146,0.265,0.319,0.347,0.524c0.08,0.206,0.121,0.426,0.121,0.66c0,0.291-0.055,0.558-0.162,0.798
		C66.581,67.106,66.42,67.316,66.208,67.498z M64.193,66.067c0,0.436,0.088,0.771,0.263,1.007c0.174,0.235,0.423,0.354,0.747,0.354
		c0.331,0,0.584-0.117,0.759-0.351c0.175-0.232,0.263-0.57,0.263-1.011c0-0.416-0.091-0.739-0.271-0.97
		c-0.181-0.231-0.431-0.347-0.751-0.347c-0.319,0-0.566,0.114-0.743,0.345C64.282,65.325,64.193,65.648,64.193,66.067z"/>
</g>
<g>
	<path fill="#FFFFFF" d="M78.672,57.329c0.159,0,0.312,0.041,0.465,0.122c0.151,0.082,0.271,0.198,0.354,0.35
		c0.085,0.152,0.127,0.312,0.127,0.476c0,0.163-0.042,0.32-0.125,0.471c-0.083,0.151-0.199,0.268-0.351,0.351
		c-0.149,0.084-0.307,0.125-0.471,0.125s-0.32-0.041-0.471-0.125c-0.15-0.083-0.268-0.199-0.352-0.351
		c-0.082-0.149-0.125-0.308-0.125-0.471c0-0.164,0.043-0.322,0.127-0.476c0.086-0.15,0.203-0.268,0.354-0.35
		C78.357,57.37,78.514,57.329,78.672,57.329z M78.672,57.486c-0.133,0-0.263,0.033-0.388,0.102
		c-0.126,0.068-0.226,0.166-0.296,0.292c-0.07,0.127-0.106,0.26-0.106,0.396s0.035,0.267,0.104,0.392
		c0.07,0.125,0.168,0.224,0.293,0.292c0.125,0.07,0.256,0.105,0.393,0.105s0.268-0.035,0.393-0.105
		c0.125-0.068,0.224-0.167,0.293-0.292c0.068-0.125,0.104-0.255,0.104-0.392s-0.035-0.27-0.105-0.396
		c-0.069-0.126-0.168-0.224-0.295-0.292S78.805,57.486,78.672,57.486z M78.257,58.799V57.78h0.351c0.119,0,0.205,0.01,0.26,0.028
		c0.054,0.018,0.096,0.052,0.128,0.099c0.03,0.047,0.048,0.097,0.048,0.149c0,0.073-0.027,0.139-0.08,0.193
		c-0.053,0.056-0.123,0.086-0.211,0.093c0.036,0.016,0.064,0.032,0.086,0.055c0.041,0.04,0.092,0.106,0.15,0.201l0.125,0.199h-0.201
		l-0.09-0.16c-0.071-0.127-0.129-0.205-0.172-0.236c-0.03-0.023-0.074-0.035-0.133-0.035h-0.097v0.433H78.257z M78.421,58.225h0.199
		c0.096,0,0.159-0.016,0.194-0.043c0.035-0.028,0.053-0.065,0.053-0.112c0-0.03-0.008-0.058-0.024-0.081
		c-0.018-0.023-0.04-0.042-0.069-0.054c-0.029-0.013-0.084-0.019-0.164-0.019h-0.188V58.225z"/>
</g>
</svg>
