<?xml version="1.0" encoding="utf-8"?>
<!-- Generator: Adobe Illustrator 16.0.0, SVG Export Plug-In . SVG Version: 6.00 Build 0)  -->
<!DOCTYPE svg PUBLIC "-//W3C//DTD SVG 1.1//EN" "http://www.w3.org/Graphics/SVG/1.1/DTD/svg11.dtd">
<svg version="1.1" id="Capa_1" xmlns="http://www.w3.org/2000/svg" xmlns:xlink="http://www.w3.org/1999/xlink" x="0px" y="0px"
	 width="100px" height="74.68px" viewBox="0 0 100 74.68" enable-background="new 0 0 100 74.68" xml:space="preserve">
<g>
	<g>
		<circle fill="#D81F26" cx="56.372" cy="25.465" r="2.356"/>
		<circle fill="#D81F26" cx="53.15" cy="22.35" r="1.576"/>
		<circle fill="#D81F26" cx="66" cy="35.444" r="3.919"/>
		<circle fill="#D81F26" cx="60.717" cy="29.838" r="3.118"/>
	</g>
	<g>
		<circle fill="#D81F26" cx="45.395" cy="25.513" r="2.356"/>
		<circle fill="#D81F26" cx="48.569" cy="22.35" r="1.575"/>
		<circle fill="#D81F26" cx="35.712" cy="35.444" r="3.918"/>
		<circle fill="#D81F26" cx="41.076" cy="29.986" r="3.119"/>
	</g>
	<g>
		<circle fill="#D81F26" cx="56.281" cy="14.612" r="2.356"/>
		<circle fill="#D81F26" cx="53.132" cy="17.761" r="1.575"/>
		<circle fill="#D81F26" cx="66.15" cy="4.891" r="3.919"/>
		<circle fill="#D81F26" cx="60.682" cy="10.296" r="3.118"/>
	</g>
	<g>
		<circle fill="#D81F26" cx="45.47" cy="14.541" r="2.356"/>
		<circle fill="#D81F26" cx="48.542" cy="17.741" r="1.575"/>
		<circle fill="#D81F26" cx="35.41" cy="4.918" r="3.918"/>
		<circle fill="#D81F26" cx="40.959" cy="10.238" r="3.118"/>
	</g>
</g>
<g>
	<path fill="#092452" d="M28.753,68.196c0.088,0,0.158,0.017,0.211,0.052c0.052,0.035,0.081,0.085,0.081,0.144
		c0,0.114-0.061,0.259-0.178,0.432c-0.119,0.174-0.276,0.335-0.471,0.485c-0.226,0.179-0.477,0.312-0.753,0.402
		c-0.276,0.091-0.58,0.136-0.913,0.136c-0.742,0-1.354-0.263-1.836-0.789c-0.483-0.525-0.724-1.194-0.724-2.005
		c0-0.906,0.267-1.664,0.798-2.267c0.53-0.604,1.196-0.903,1.993-0.903c0.535,0,0.985,0.11,1.351,0.336
		c0.364,0.225,0.547,0.487,0.547,0.789c0,0.131-0.049,0.242-0.147,0.342c-0.099,0.097-0.217,0.146-0.351,0.146
		c-0.164,0-0.333-0.117-0.513-0.351c-0.027-0.036-0.047-0.062-0.059-0.077c-0.176-0.228-0.328-0.372-0.462-0.438
		s-0.299-0.1-0.492-0.1c-0.479,0-0.87,0.223-1.169,0.662c-0.3,0.444-0.449,1.026-0.449,1.748c0,0.66,0.161,1.187,0.482,1.581
		c0.322,0.395,0.75,0.591,1.285,0.591c0.16,0,0.317-0.021,0.474-0.063c0.157-0.044,0.305-0.107,0.449-0.191
		c0.173-0.1,0.348-0.233,0.521-0.404C28.603,68.281,28.71,68.196,28.753,68.196z"/>
	<path fill="#092452" d="M29.558,66.868c0-0.877,0.279-1.593,0.837-2.153c0.557-0.556,1.275-0.833,2.156-0.833
		c0.885,0,1.604,0.277,2.156,0.83c0.552,0.556,0.83,1.273,0.83,2.156c0,0.877-0.278,1.593-0.83,2.146
		c-0.553,0.554-1.273,0.83-2.156,0.83c-0.884,0-1.606-0.278-2.16-0.83C29.837,68.462,29.558,67.745,29.558,66.868z M30.604,66.868
		c0,0.704,0.178,1.273,0.534,1.698c0.357,0.426,0.829,0.639,1.412,0.639s1.052-0.213,1.407-0.639
		c0.355-0.427,0.532-0.994,0.532-1.698c0-0.709-0.178-1.28-0.532-1.708c-0.355-0.43-0.824-0.643-1.407-0.643
		c-0.58,0-1.049,0.218-1.408,0.648C30.782,65.598,30.604,66.166,30.604,66.868z"/>
	<path fill="#092452" d="M36.752,69.158c0.149-0.082,0.226-0.248,0.226-0.496V65.94c0-0.384-0.012-0.634-0.041-0.754
		c-0.028-0.115-0.08-0.202-0.154-0.259c-0.048-0.033-0.139-0.08-0.273-0.133c-0.136-0.054-0.202-0.125-0.202-0.218
		c0-0.106,0.118-0.249,0.359-0.428c0.239-0.179,0.437-0.268,0.593-0.268c0.111,0,0.212,0.082,0.303,0.244
		c0.092,0.166,0.172,0.414,0.243,0.744c0.255-0.326,0.546-0.573,0.878-0.741c0.33-0.167,0.692-0.247,1.086-0.247
		c0.67,0,1.172,0.22,1.503,0.656c0.332,0.437,0.497,1.104,0.497,2.003v2.154c0,0.131,0.009,0.226,0.023,0.28
		c0.018,0.056,0.047,0.099,0.09,0.125c0.035,0.025,0.088,0.054,0.155,0.091c0.161,0.088,0.243,0.176,0.243,0.274
		c0,0.074-0.031,0.129-0.093,0.16c-0.061,0.032-0.165,0.048-0.312,0.048h-1.214c-0.146,0-0.25-0.016-0.312-0.045
		c-0.062-0.03-0.093-0.081-0.093-0.152c0-0.099,0.065-0.179,0.198-0.238c0.038-0.021,0.066-0.033,0.082-0.041
		c0.14-0.066,0.223-0.13,0.251-0.188c0.029-0.06,0.041-0.172,0.041-0.334v-2.143c0-0.666-0.113-1.154-0.336-1.457
		c-0.225-0.308-0.578-0.459-1.062-0.459c-0.461,0-0.827,0.133-1.102,0.399c-0.273,0.265-0.411,0.623-0.411,1.076v2.721
		c0,0.082,0.006,0.145,0.018,0.187c0.012,0.04,0.034,0.075,0.065,0.103c0.035,0.026,0.093,0.057,0.172,0.096
		c0.155,0.08,0.232,0.166,0.232,0.258c0,0.084-0.032,0.142-0.092,0.171c-0.061,0.03-0.177,0.048-0.347,0.048h-1.132
		c-0.151,0-0.255-0.014-0.309-0.042c-0.056-0.028-0.083-0.076-0.083-0.144c0-0.059,0.014-0.106,0.041-0.146
		c0.029-0.037,0.096-0.086,0.202-0.146C36.703,69.186,36.725,69.177,36.752,69.158L36.752,69.158z"/>
	<path fill="#092452" d="M42.835,68.565c0-0.114,0.036-0.211,0.109-0.284c0.073-0.072,0.166-0.109,0.277-0.109
		c0.123,0,0.269,0.106,0.439,0.322c0.053,0.059,0.092,0.106,0.119,0.142c0.163,0.183,0.346,0.319,0.548,0.413
		c0.203,0.091,0.432,0.137,0.685,0.137c0.358,0,0.65-0.095,0.879-0.281c0.228-0.186,0.342-0.427,0.342-0.72
		c0-0.413-0.469-0.733-1.404-0.959c-0.052-0.013-0.095-0.021-0.126-0.029c-0.583-0.145-0.999-0.336-1.251-0.577
		c-0.249-0.242-0.374-0.569-0.374-0.982c0-0.531,0.178-0.957,0.535-1.276c0.357-0.32,0.835-0.479,1.434-0.479
		c0.572,0,1.014,0.082,1.324,0.244c0.312,0.166,0.467,0.396,0.467,0.695c0,0.218-0.016,0.364-0.047,0.436
		c-0.032,0.076-0.094,0.109-0.186,0.109c-0.105,0-0.234-0.086-0.38-0.261c-0.062-0.068-0.106-0.119-0.145-0.155
		c-0.15-0.155-0.329-0.273-0.535-0.357c-0.205-0.084-0.428-0.125-0.665-0.125c-0.284,0-0.523,0.083-0.713,0.246
		c-0.189,0.165-0.287,0.37-0.287,0.617c0,0.207,0.064,0.367,0.188,0.488c0.127,0.119,0.367,0.229,0.724,0.327
		c0.115,0.032,0.276,0.074,0.489,0.126c0.519,0.123,0.863,0.237,1.035,0.35c0.247,0.16,0.43,0.346,0.551,0.561
		c0.121,0.216,0.182,0.459,0.182,0.731c0,0.576-0.194,1.041-0.581,1.396c-0.388,0.356-0.896,0.535-1.526,0.535
		c-0.535,0-1.021-0.146-1.455-0.433C43.051,69.125,42.835,68.842,42.835,68.565z"/>
	<path fill="#092452" d="M52.97,64.469v3.315c0,0.282,0.007,0.509,0.018,0.688c0.012,0.176,0.026,0.281,0.041,0.317
		c0.043,0.091,0.096,0.164,0.156,0.22c0.059,0.057,0.159,0.109,0.297,0.161c0.021,0.009,0.045,0.02,0.079,0.031
		c0.144,0.056,0.212,0.135,0.212,0.236c0,0.112-0.068,0.188-0.205,0.231c-0.138,0.04-0.422,0.062-0.853,0.062
		c-0.222,0-0.377-0.05-0.464-0.148c-0.087-0.102-0.131-0.277-0.131-0.528c0-0.022,0-0.056,0.007-0.103
		c0.003-0.047,0.004-0.084,0.004-0.106c-0.248,0.334-0.533,0.58-0.854,0.744c-0.319,0.164-0.685,0.243-1.098,0.243
		c-0.697,0-1.205-0.21-1.522-0.629c-0.316-0.418-0.476-1.096-0.476-2.031v-1.875c0-0.194-0.024-0.326-0.069-0.398
		c-0.046-0.071-0.135-0.151-0.271-0.237c-0.002,0-0.007-0.002-0.011-0.007c-0.162-0.095-0.243-0.189-0.243-0.286
		c0-0.115,0.121-0.224,0.364-0.33c0.241-0.105,0.51-0.157,0.808-0.157c0.131,0,0.225,0.046,0.281,0.143
		c0.055,0.097,0.082,0.264,0.082,0.505v2.668c0,0.657,0.112,1.142,0.338,1.451c0.228,0.308,0.58,0.464,1.062,0.464
		c0.464,0,0.83-0.13,1.101-0.394c0.274-0.261,0.408-0.619,0.408-1.07V65.21c0-0.127-0.015-0.223-0.039-0.284
		c-0.029-0.06-0.076-0.111-0.139-0.151c-0.024-0.017-0.059-0.037-0.105-0.066c-0.174-0.099-0.263-0.196-0.263-0.291
		c0-0.128,0.121-0.248,0.365-0.364c0.24-0.113,0.496-0.171,0.763-0.171c0.13,0,0.224,0.042,0.28,0.13
		C52.942,64.099,52.97,64.252,52.97,64.469z"/>
	<path fill="#092452" d="M54.957,62.148c0-0.14-0.015-0.236-0.043-0.292c-0.031-0.057-0.087-0.112-0.168-0.166
		c-0.037-0.025-0.089-0.053-0.156-0.09c-0.143-0.072-0.214-0.149-0.214-0.232c0-0.059,0.021-0.116,0.064-0.169
		c0.045-0.055,0.116-0.104,0.215-0.159l0.035-0.018c0.499-0.266,0.832-0.397,1.001-0.397c0.083,0,0.141,0.033,0.17,0.107
		c0.032,0.074,0.049,0.245,0.049,0.515v7.422c0,0.102,0.014,0.19,0.039,0.258c0.03,0.07,0.065,0.114,0.108,0.135
		c0.039,0.015,0.101,0.039,0.183,0.071c0.228,0.087,0.34,0.188,0.34,0.302c0,0.085-0.033,0.145-0.102,0.179
		c-0.071,0.035-0.199,0.055-0.386,0.055h-1.278c-0.169,0-0.29-0.018-0.354-0.052c-0.065-0.032-0.1-0.09-0.1-0.167
		c0-0.057,0.019-0.106,0.052-0.151c0.034-0.043,0.094-0.088,0.18-0.131c0.033-0.016,0.074-0.033,0.126-0.052
		c0.159-0.063,0.237-0.207,0.237-0.425v-6.542H54.957z"/>
	<path fill="#092452" d="M57.839,68.904v-4.178h-0.375c-0.211,0-0.356-0.026-0.435-0.078c-0.078-0.051-0.118-0.14-0.118-0.268
		c0-0.092,0.028-0.165,0.081-0.224c0.053-0.056,0.123-0.094,0.211-0.103c0.035-0.005,0.081-0.01,0.138-0.013
		c0.253-0.021,0.416-0.07,0.488-0.149c0.087-0.092,0.165-0.418,0.231-0.981c0.021-0.163,0.036-0.289,0.049-0.382
		c0.007-0.046,0.015-0.108,0.024-0.188c0.047-0.401,0.177-0.603,0.392-0.603c0.097,0,0.158,0.033,0.193,0.094
		c0.034,0.062,0.051,0.236,0.051,0.527v1.672h0.851c0.205,0,0.353,0.026,0.433,0.081c0.084,0.053,0.127,0.143,0.127,0.271
		c0,0.119-0.046,0.207-0.136,0.262c-0.09,0.056-0.23,0.083-0.426,0.083h-0.851v3.543c0,0.236,0.02,0.41,0.057,0.515
		c0.037,0.103,0.103,0.172,0.199,0.206c0.115,0.042,0.334,0.073,0.656,0.092c0.323,0.018,0.487,0.103,0.487,0.252
		c0,0.133-0.036,0.221-0.11,0.269c-0.073,0.047-0.259,0.071-0.558,0.071h-1.136c-0.215,0-0.356-0.039-0.422-0.113
		C57.872,69.482,57.839,69.264,57.839,68.904z"/>
	<path fill="#092452" d="M61.21,65.381c0-0.144-0.012-0.24-0.042-0.298c-0.033-0.055-0.089-0.11-0.175-0.167
		c-0.035-0.023-0.091-0.053-0.162-0.089c-0.142-0.071-0.213-0.146-0.213-0.226c0-0.061,0.02-0.113,0.06-0.163
		c0.044-0.046,0.115-0.098,0.22-0.154l0.082-0.048c0.485-0.254,0.807-0.381,0.965-0.381c0.084,0,0.14,0.039,0.171,0.113
		c0.032,0.075,0.049,0.25,0.049,0.524v4.178c0,0.101,0.01,0.188,0.032,0.255c0.026,0.068,0.062,0.111,0.107,0.137
		c0.057,0.025,0.123,0.051,0.202,0.084c0.207,0.083,0.31,0.181,0.31,0.291c0,0.089-0.034,0.149-0.1,0.182
		c-0.068,0.035-0.195,0.052-0.383,0.052h-1.275c-0.169,0-0.286-0.017-0.349-0.052c-0.062-0.032-0.091-0.09-0.091-0.168
		c0-0.059,0.015-0.11,0.045-0.157c0.033-0.042,0.091-0.084,0.172-0.124c0.033-0.016,0.076-0.034,0.132-0.059
		c0.162-0.067,0.243-0.207,0.243-0.417V65.381L61.21,65.381z M60.885,62.136c0-0.181,0.063-0.33,0.192-0.445
		c0.13-0.113,0.298-0.171,0.503-0.171c0.202,0,0.366,0.058,0.491,0.171c0.125,0.115,0.187,0.265,0.187,0.445
		c0,0.191-0.062,0.344-0.188,0.456c-0.129,0.113-0.295,0.169-0.5,0.169c-0.21,0-0.375-0.056-0.499-0.169
		C60.946,62.478,60.885,62.328,60.885,62.136z"/>
	<path fill="#092452" d="M63.938,69.158c0.15-0.082,0.226-0.248,0.226-0.496V65.94c0-0.384-0.015-0.634-0.043-0.754
		c-0.027-0.115-0.077-0.202-0.153-0.259c-0.048-0.033-0.138-0.08-0.273-0.133c-0.135-0.054-0.202-0.125-0.202-0.218
		c0-0.106,0.119-0.249,0.358-0.428c0.242-0.179,0.438-0.268,0.595-0.268c0.108,0,0.211,0.082,0.302,0.244
		c0.094,0.166,0.171,0.414,0.243,0.744c0.254-0.326,0.547-0.573,0.878-0.741c0.331-0.167,0.696-0.247,1.088-0.247
		c0.672,0,1.171,0.22,1.502,0.656c0.332,0.437,0.498,1.104,0.498,2.003v2.154c0,0.131,0.006,0.226,0.024,0.28
		c0.016,0.056,0.044,0.099,0.089,0.125c0.036,0.025,0.089,0.054,0.154,0.091c0.165,0.088,0.243,0.176,0.243,0.274
		c0,0.074-0.028,0.129-0.091,0.16c-0.062,0.032-0.167,0.048-0.312,0.048h-1.215c-0.146,0-0.251-0.016-0.311-0.045
		c-0.063-0.03-0.094-0.081-0.094-0.152c0-0.099,0.065-0.179,0.196-0.238c0.039-0.021,0.067-0.033,0.084-0.041
		c0.14-0.066,0.222-0.13,0.248-0.188c0.028-0.06,0.043-0.172,0.043-0.334v-2.143c0-0.666-0.111-1.154-0.336-1.457
		c-0.226-0.308-0.578-0.459-1.063-0.459c-0.46,0-0.827,0.133-1.101,0.399c-0.273,0.265-0.411,0.623-0.411,1.076v2.721
		c0,0.082,0.007,0.145,0.019,0.187c0.013,0.04,0.033,0.075,0.065,0.103c0.035,0.026,0.094,0.057,0.171,0.096
		c0.156,0.08,0.233,0.166,0.233,0.258c0,0.084-0.03,0.142-0.093,0.171c-0.059,0.032-0.178,0.048-0.349,0.048h-1.131
		c-0.151,0-0.254-0.014-0.31-0.042c-0.053-0.028-0.082-0.076-0.082-0.144c0-0.059,0.015-0.106,0.042-0.146
		c0.026-0.037,0.095-0.086,0.202-0.146C63.889,69.186,63.91,69.177,63.938,69.158L63.938,69.158z"/>
	<path fill="#092452" d="M74.37,68.891c0.431,0.157,0.754,0.349,0.963,0.576c0.211,0.231,0.317,0.503,0.317,0.822
		c0,0.545-0.27,0.977-0.803,1.299c-0.533,0.32-1.253,0.481-2.162,0.481c-0.777,0-1.378-0.094-1.805-0.282
		c-0.424-0.188-0.634-0.456-0.634-0.802c0-0.194,0.066-0.367,0.202-0.518c0.134-0.15,0.288-0.226,0.457-0.226
		c0.057,0,0.103,0.021,0.141,0.065c0.037,0.042,0.058,0.098,0.058,0.165c0,0.035-0.012,0.082-0.033,0.14
		c-0.019,0.058-0.03,0.099-0.03,0.117c0,0.182,0.146,0.323,0.432,0.421c0.289,0.1,0.696,0.149,1.225,0.149
		c0.633,0,1.123-0.087,1.47-0.259c0.345-0.17,0.516-0.42,0.516-0.741c0-0.218-0.077-0.409-0.233-0.569
		c-0.157-0.165-0.412-0.317-0.765-0.465c-0.237,0.048-0.436,0.082-0.598,0.103c-0.162,0.023-0.296,0.034-0.401,0.034
		c-0.747,0-1.355-0.255-1.825-0.768c-0.474-0.509-0.71-1.172-0.71-1.986c0-0.822,0.243-1.489,0.729-2.001
		c0.481-0.51,1.113-0.766,1.891-0.766c0.219,0,0.501,0.022,0.85,0.069c0.352,0.043,0.597,0.067,0.74,0.067
		c0.031,0,0.145-0.004,0.342-0.012c0.196-0.009,0.374-0.015,0.532-0.015c0.194,0,0.342,0.035,0.441,0.097
		c0.102,0.064,0.154,0.157,0.154,0.28c0,0.132-0.062,0.226-0.183,0.283s-0.326,0.088-0.621,0.088c-0.01,0-0.028-0.002-0.06-0.006
		c-0.112-0.006-0.218-0.008-0.315-0.008c0.237,0.232,0.421,0.509,0.552,0.836c0.127,0.327,0.192,0.678,0.192,1.051
		c0,0.464-0.086,0.888-0.258,1.271C74.964,68.268,74.708,68.602,74.37,68.891z M71.162,66.612c0,0.694,0.14,1.228,0.418,1.604
		c0.276,0.374,0.673,0.564,1.189,0.564c0.527,0,0.93-0.187,1.209-0.559c0.278-0.37,0.418-0.908,0.418-1.61
		c0-0.662-0.145-1.177-0.431-1.544c-0.287-0.368-0.687-0.553-1.196-0.553c-0.509,0-0.902,0.183-1.184,0.55
		C71.303,65.43,71.162,65.946,71.162,66.612z"/>
</g>
<g>
	<path fill="#092452" d="M26.471,51.225c0.174,0.815,0.546,1.46,1.117,1.938c0.572,0.477,1.255,0.715,2.048,0.715
		c0.425,0,0.827-0.052,1.202-0.157c0.377-0.105,0.746-0.269,1.106-0.491c0.175-0.105,0.39-0.255,0.649-0.449
		c0.354-0.259,0.587-0.388,0.699-0.388c0.113,0,0.204,0.042,0.277,0.126c0.074,0.083,0.11,0.191,0.11,0.322
		c0,0.218-0.146,0.476-0.434,0.779c-0.29,0.304-0.674,0.595-1.155,0.873c-0.404,0.235-0.83,0.413-1.28,0.533
		c-0.448,0.117-0.92,0.177-1.415,0.177c-1.47,0-2.643-0.438-3.521-1.312C25,53.018,24.56,51.849,24.56,50.388
		c0-1.604,0.52-2.944,1.56-4.029c1.042-1.082,2.326-1.625,3.853-1.625c1.161,0,2.057,0.24,2.684,0.722
		c0.628,0.479,0.941,1.159,0.941,2.038c0,1.038-0.58,1.858-1.739,2.461C30.697,50.558,28.901,50.98,26.471,51.225z M26.313,50.148
		c1.895-0.181,3.285-0.5,4.174-0.955c0.889-0.456,1.333-1.071,1.333-1.845c0-0.515-0.181-0.919-0.539-1.211
		c-0.358-0.295-0.851-0.44-1.478-0.44c-1.024,0-1.86,0.398-2.513,1.19c-0.652,0.795-0.976,1.825-0.976,3.094v0.167H26.313z"/>
	<path fill="#092452" d="M38.182,49.939c-0.634-0.696-1.275-1.481-1.927-2.356c-0.652-0.874-1.037-1.366-1.155-1.478
		c-0.09-0.084-0.273-0.193-0.549-0.329s-0.413-0.28-0.413-0.434c0-0.132,0.05-0.222,0.147-0.271
		c0.097-0.048,0.302-0.072,0.615-0.072h2.079c0.328,0,0.546,0.024,0.653,0.072c0.107,0.05,0.162,0.14,0.162,0.271
		c0,0.084-0.093,0.206-0.276,0.365c-0.186,0.161-0.277,0.307-0.277,0.439c0,0.194,0.176,0.53,0.526,1.002
		c0.352,0.474,0.846,1.031,1.479,1.671c0.572-0.57,1.035-1.107,1.391-1.608c0.355-0.503,0.532-0.856,0.532-1.065
		c0-0.12-0.106-0.256-0.319-0.409c-0.212-0.152-0.318-0.285-0.318-0.397c0-0.131,0.058-0.222,0.173-0.271
		c0.114-0.047,0.349-0.071,0.704-0.071h1.475c0.285,0,0.476,0.021,0.568,0.062c0.095,0.042,0.143,0.12,0.143,0.229
		c0,0.154-0.122,0.291-0.366,0.413c-0.243,0.12-0.414,0.233-0.512,0.34c-0.068,0.069-0.388,0.508-0.956,1.315
		c-0.568,0.809-1.162,1.54-1.782,2.194c0.677,0.731,1.393,1.564,2.147,2.498c0.756,0.933,1.218,1.47,1.385,1.608
		c0.091,0.084,0.276,0.202,0.559,0.356c0.281,0.153,0.423,0.312,0.423,0.48c0,0.154-0.062,0.259-0.183,0.318
		c-0.122,0.059-0.354,0.088-0.694,0.088h-2.183c-0.245,0-0.424-0.036-0.539-0.109c-0.114-0.072-0.171-0.186-0.171-0.34
		c0-0.126,0.082-0.266,0.25-0.424c0.167-0.156,0.25-0.279,0.25-0.37c0-0.243-0.205-0.62-0.614-1.129
		c-0.412-0.508-1-1.113-1.767-1.816c-0.627,0.703-1.104,1.289-1.431,1.76c-0.326,0.471-0.49,0.81-0.49,1.02
		c0,0.188,0.129,0.358,0.386,0.511c0.258,0.155,0.386,0.312,0.386,0.471c0,0.152-0.064,0.264-0.193,0.328
		c-0.129,0.067-0.336,0.1-0.62,0.1h-2.186c-0.208,0-0.36-0.035-0.455-0.104c-0.093-0.071-0.141-0.178-0.141-0.324
		c0-0.203,0.184-0.384,0.554-0.544c0.369-0.16,0.609-0.308,0.722-0.438c0.077-0.091,0.229-0.296,0.459-0.616
		C36.625,51.761,37.411,50.782,38.182,49.939z"/>
	<path fill="#092452" d="M52.475,53.252c-0.459,0.647-1.023,1.135-1.691,1.463c-0.669,0.327-1.438,0.491-2.309,0.491
		c-1.038,0-1.861-0.276-2.471-0.831c-0.609-0.554-0.915-1.298-0.915-2.23c0-1.275,0.565-2.253,1.694-2.936
		c1.127-0.683,2.753-1.024,4.877-1.024h0.469c-0.082-0.738-0.395-1.314-0.936-1.729c-0.539-0.413-1.248-0.621-2.124-0.621
		c-0.503,0-1.04,0.169-1.61,0.503s-0.939,0.501-1.107,0.501c-0.194,0-0.356-0.054-0.484-0.161c-0.129-0.109-0.194-0.246-0.194-0.414
		c0-0.438,0.323-0.801,0.971-1.09c0.649-0.289,1.495-0.434,2.54-0.434c1.72,0,2.962,0.401,3.724,1.207
		c0.762,0.804,1.145,2.121,1.145,3.953v3.187c0,0.154,0.021,0.277,0.062,0.371c0.043,0.094,0.148,0.214,0.322,0.361
		c0.064,0.04,0.164,0.093,0.305,0.157c0.312,0.139,0.471,0.306,0.471,0.501c0,0.209-0.113,0.351-0.34,0.423
		s-0.793,0.109-1.699,0.109c-0.266,0-0.447-0.05-0.547-0.151c-0.104-0.101-0.152-0.283-0.152-0.548V53.252L52.475,53.252z
		 M52.348,49.145h-0.279c-1.631,0-2.89,0.256-3.778,0.769c-0.889,0.511-1.333,1.233-1.333,2.167c0,0.564,0.194,1.026,0.58,1.384
		c0.386,0.359,0.891,0.538,1.509,0.538c0.349,0,0.691-0.046,1.03-0.135c0.338-0.09,0.638-0.217,0.902-0.376
		c0.518-0.32,0.873-0.661,1.072-1.023s0.297-0.871,0.297-1.525V49.145z"/>
	<path fill="#092452" d="M57.188,52.76v-4.598c0-0.439-0.033-0.749-0.1-0.93c-0.066-0.182-0.176-0.327-0.328-0.439
		c-0.113-0.091-0.279-0.185-0.504-0.282c-0.318-0.146-0.479-0.322-0.479-0.533c0-0.082,0.045-0.186,0.135-0.308
		c0.09-0.121,0.217-0.242,0.375-0.361c0.223-0.173,0.428-0.311,0.609-0.407c0.186-0.098,0.332-0.146,0.436-0.146
		c0.318,0,0.594,0.257,0.82,0.773c0.227,0.516,0.361,1.198,0.402,2.047c0.355-0.919,0.777-1.628,1.264-2.131
		c0.488-0.501,0.992-0.752,1.516-0.752c0.369,0,0.654,0.138,0.857,0.412c0.201,0.275,0.303,0.667,0.303,1.177
		c0,0.161-0.051,0.292-0.15,0.397c-0.102,0.104-0.234,0.156-0.393,0.156c-0.168,0-0.396-0.072-0.686-0.214
		c-0.289-0.143-0.492-0.215-0.609-0.215c-0.459,0-0.881,0.389-1.26,1.169s-0.57,1.731-0.57,2.853v2.289
		c0,0.439,0.027,0.725,0.08,0.855c0.051,0.133,0.145,0.227,0.275,0.282c0.105,0.042,0.268,0.091,0.49,0.146
		c0.426,0.112,0.639,0.282,0.639,0.513c0,0.139-0.055,0.237-0.162,0.298c-0.107,0.059-0.312,0.088-0.611,0.088h-2.674
		c-0.293,0-0.488-0.026-0.586-0.078s-0.145-0.148-0.145-0.287c0-0.181,0.156-0.349,0.469-0.502c0.168-0.084,0.289-0.149,0.365-0.198
		c0.084-0.056,0.141-0.139,0.17-0.251c0.033-0.112,0.049-0.301,0.049-0.564V52.76H57.188z"/>
	<path fill="#092452" d="M64.418,47.37c0-0.251-0.027-0.426-0.078-0.522c-0.055-0.098-0.156-0.195-0.311-0.293
		c-0.062-0.041-0.156-0.094-0.279-0.157c-0.252-0.124-0.379-0.257-0.379-0.396c0-0.105,0.039-0.2,0.111-0.282
		c0.072-0.084,0.199-0.175,0.381-0.271l0.146-0.083c0.85-0.447,1.414-0.669,1.693-0.669c0.145,0,0.246,0.066,0.305,0.199
		c0.053,0.132,0.082,0.438,0.082,0.919v7.335c0,0.18,0.021,0.33,0.062,0.449c0.041,0.117,0.104,0.198,0.188,0.24
		c0.098,0.041,0.217,0.09,0.355,0.146c0.361,0.146,0.545,0.317,0.545,0.512c0,0.154-0.061,0.26-0.178,0.318
		c-0.121,0.059-0.342,0.088-0.668,0.088h-2.252c-0.299,0-0.502-0.029-0.609-0.088c-0.107-0.061-0.162-0.158-0.162-0.298
		c0-0.105,0.027-0.196,0.084-0.271c0.055-0.076,0.156-0.15,0.303-0.219c0.057-0.028,0.133-0.063,0.229-0.104
		c0.285-0.12,0.428-0.362,0.428-0.731v-5.82H64.418z M63.842,41.676c0-0.319,0.115-0.581,0.34-0.784
		c0.225-0.201,0.521-0.302,0.883-0.302c0.355,0,0.643,0.101,0.863,0.302c0.217,0.203,0.328,0.464,0.328,0.784
		c0,0.335-0.111,0.602-0.336,0.799c-0.221,0.199-0.514,0.298-0.875,0.298c-0.369,0-0.664-0.099-0.879-0.298
		C63.949,42.276,63.842,42.01,63.842,41.676z"/>
	<path fill="#092452" d="M68.043,52.96c0-0.203,0.064-0.368,0.191-0.498c0.129-0.127,0.293-0.192,0.488-0.192
		c0.215,0,0.473,0.188,0.771,0.563c0.09,0.104,0.162,0.188,0.211,0.25c0.285,0.32,0.604,0.562,0.959,0.722
		c0.357,0.162,0.758,0.24,1.203,0.24c0.627,0,1.139-0.163,1.539-0.49c0.402-0.329,0.604-0.749,0.604-1.265
		c0-0.725-0.822-1.285-2.467-1.683c-0.09-0.021-0.164-0.037-0.219-0.053c-1.023-0.25-1.756-0.588-2.195-1.013
		c-0.438-0.425-0.656-1-0.656-1.725c0-0.933,0.314-1.679,0.941-2.24c0.625-0.561,1.465-0.843,2.518-0.843
		c1.002,0,1.775,0.146,2.324,0.434c0.549,0.289,0.82,0.696,0.82,1.219c0,0.384-0.027,0.64-0.084,0.768s-0.164,0.193-0.324,0.193
		c-0.188,0-0.41-0.154-0.666-0.46c-0.105-0.117-0.189-0.208-0.254-0.271c-0.264-0.271-0.576-0.479-0.939-0.626
		c-0.361-0.147-0.752-0.219-1.17-0.219c-0.504,0-0.92,0.146-1.254,0.434c-0.334,0.289-0.502,0.649-0.502,1.081
		c0,0.362,0.111,0.649,0.328,0.857c0.219,0.208,0.645,0.399,1.271,0.574c0.201,0.056,0.486,0.129,0.855,0.219
		c0.912,0.217,1.518,0.421,1.816,0.615c0.432,0.278,0.754,0.606,0.967,0.984c0.213,0.374,0.318,0.803,0.318,1.283
		c0,1.011-0.34,1.826-1.018,2.45c-0.68,0.623-1.572,0.936-2.682,0.936c-0.939,0-1.791-0.253-2.555-0.757
		C68.426,53.943,68.043,53.446,68.043,52.96z"/>
</g>
<path fill="#092452" d="M76.252,52.576c0.001-1.731,1.422-3.077,3.239-3.071c1.734,0.002,3.118,1.369,3.12,3.08
	c0.003,1.775-1.395,3.123-3.244,3.117C77.646,55.695,76.251,54.292,76.252,52.576z M79.474,55.077
	c1.332-0.001,2.364-1.088,2.355-2.475c-0.012-1.403-1.08-2.512-2.412-2.496c-1.335,0.014-2.387,1.114-2.387,2.491
	C77.033,54.008,78.088,55.083,79.474,55.077z"/>
<path fill="#092452" d="M78.242,51.113c0.662-0.083,1.32-0.189,1.974,0.01c0.341,0.104,0.549,0.347,0.573,0.722
	c0.025,0.358-0.156,0.588-0.466,0.734c-0.043,0.021-0.083,0.045-0.16,0.088c0.623,0.322,0.481,0.987,0.761,1.52
	c-0.257,0-0.47,0.009-0.683-0.007c-0.052-0.004-0.117-0.09-0.14-0.152c-0.062-0.165-0.109-0.336-0.15-0.508
	c-0.11-0.448-0.235-0.55-0.699-0.552c-0.093,0-0.184,0-0.314,0c0,0.409,0,0.798,0,1.205c-0.254,0-0.467,0-0.697,0
	C78.242,53.154,78.242,52.145,78.242,51.113z M78.98,52.486c0.242-0.021,0.461-0.023,0.67-0.064
	c0.223-0.045,0.388-0.185,0.378-0.434c-0.01-0.242-0.164-0.396-0.395-0.426c-0.21-0.027-0.425-0.006-0.653-0.006
	C78.98,51.863,78.98,52.145,78.98,52.486z"/>
</svg>
