<?xml version="1.0" encoding="utf-8"?>
<!-- Generator: Adobe Illustrator 16.0.0, SVG Export Plug-In . SVG Version: 6.00 Build 0)  -->
<!DOCTYPE svg PUBLIC "-//W3C//DTD SVG 1.1//EN" "http://www.w3.org/Graphics/SVG/1.1/DTD/svg11.dtd">
<svg version="1.1" id="Capa_1" xmlns="http://www.w3.org/2000/svg" xmlns:xlink="http://www.w3.org/1999/xlink" x="0px" y="0px"
	 width="100px" height="74.68px" viewBox="0 0 100 74.68" enable-background="new 0 0 100 74.68" xml:space="preserve">
<g>
	<g>
		<circle fill-rule="evenodd" clip-rule="evenodd" fill="#D81F26" cx="57.606" cy="28.804" r="2.441"/>
		<circle fill-rule="evenodd" clip-rule="evenodd" fill="#D81F26" cx="54.271" cy="25.576" r="1.632"/>
		<circle fill-rule="evenodd" clip-rule="evenodd" fill="#D81F26" cx="67.582" cy="39.141" r="4.059"/>
		<circle fill-rule="evenodd" clip-rule="evenodd" fill="#D81F26" cx="62.108" cy="33.335" r="3.232"/>
	</g>
	<g>
		<circle fill-rule="evenodd" clip-rule="evenodd" fill="#D81F26" cx="46.236" cy="28.854" r="2.44"/>
		<circle fill-rule="evenodd" clip-rule="evenodd" fill="#D81F26" cx="49.523" cy="25.576" r="1.633"/>
		<circle fill-rule="evenodd" clip-rule="evenodd" fill="#D81F26" cx="36.205" cy="39.141" r="4.058"/>
		<circle fill-rule="evenodd" clip-rule="evenodd" fill="#D81F26" cx="41.761" cy="33.488" r="3.231"/>
	</g>
	<g>
		<circle fill-rule="evenodd" clip-rule="evenodd" fill="#D81F26" cx="57.514" cy="17.561" r="2.441"/>
		<circle fill-rule="evenodd" clip-rule="evenodd" fill="#D81F26" cx="54.251" cy="20.823" r="1.632"/>
		<circle fill-rule="evenodd" clip-rule="evenodd" fill="#D81F26" cx="67.736" cy="7.491" r="4.059"/>
		<circle fill-rule="evenodd" clip-rule="evenodd" fill="#D81F26" cx="62.071" cy="13.091" r="3.23"/>
	</g>
	<g>
		<circle fill-rule="evenodd" clip-rule="evenodd" fill="#D81F26" cx="46.313" cy="17.487" r="2.44"/>
		<circle fill-rule="evenodd" clip-rule="evenodd" fill="#D81F26" cx="49.497" cy="20.803" r="1.632"/>
		<circle fill-rule="evenodd" clip-rule="evenodd" fill="#D81F26" cx="35.893" cy="7.519" r="4.059"/>
		<circle fill-rule="evenodd" clip-rule="evenodd" fill="#D81F26" cx="41.641" cy="13.03" r="3.23"/>
	</g>
</g>
<g>
	<path fill="#092452" d="M27.431,56.065c0.183,0.855,0.574,1.533,1.173,2.035c0.6,0.5,1.316,0.75,2.149,0.75
		c0.446,0,0.867-0.055,1.261-0.164c0.396-0.109,0.782-0.281,1.163-0.516c0.182-0.111,0.409-0.266,0.68-0.473
		c0.373-0.27,0.618-0.404,0.735-0.404c0.117,0,0.213,0.043,0.291,0.131c0.076,0.088,0.115,0.201,0.115,0.34
		c0,0.229-0.152,0.5-0.455,0.816c-0.304,0.318-0.708,0.625-1.212,0.914c-0.424,0.252-0.872,0.436-1.343,0.561
		c-0.472,0.125-0.967,0.188-1.486,0.188c-1.542,0-2.774-0.459-3.695-1.375c-0.921-0.92-1.382-2.145-1.382-3.68
		c0-1.68,0.547-3.092,1.64-4.227c1.092-1.139,2.439-1.705,4.04-1.705c1.221,0,2.16,0.252,2.818,0.756
		c0.658,0.506,0.987,1.219,0.987,2.137c0,1.092-0.608,1.951-1.825,2.584C31.866,55.364,29.982,55.809,27.431,56.065z M27.266,54.934
		c1.989-0.188,3.449-0.523,4.381-1.002c0.932-0.477,1.398-1.123,1.398-1.934c0-0.541-0.189-0.967-0.565-1.273
		c-0.376-0.307-0.894-0.461-1.552-0.461c-1.074,0-1.953,0.418-2.637,1.25c-0.684,0.834-1.025,1.916-1.025,3.246V54.934z"/>
	<path fill="#092452" d="M37.968,57.797c0.834-1.17,1.656-2.195,2.468-3.08c-0.666-0.732-1.34-1.557-2.023-2.473
		c-0.683-0.918-1.087-1.438-1.211-1.553c-0.095-0.088-0.287-0.201-0.576-0.346c-0.289-0.143-0.433-0.293-0.433-0.453
		c0-0.141,0.051-0.236,0.153-0.285c0.102-0.051,0.318-0.078,0.647-0.078h2.182c0.343,0,0.572,0.027,0.685,0.078
		c0.113,0.049,0.17,0.145,0.17,0.285c0,0.086-0.098,0.215-0.291,0.383s-0.291,0.322-0.291,0.461c0,0.205,0.185,0.555,0.554,1.053
		c0.369,0.496,0.886,1.08,1.551,1.754c0.6-0.6,1.085-1.164,1.459-1.689c0.373-0.527,0.559-0.898,0.559-1.117
		c0-0.125-0.111-0.268-0.333-0.428c-0.224-0.162-0.335-0.301-0.335-0.416c0-0.141,0.061-0.236,0.181-0.285
		c0.121-0.051,0.367-0.078,0.74-0.078h1.546c0.3,0,0.499,0.023,0.598,0.066c0.099,0.045,0.148,0.125,0.148,0.24
		c0,0.162-0.128,0.307-0.384,0.434c-0.256,0.127-0.435,0.248-0.537,0.357c-0.073,0.072-0.408,0.531-1.004,1.381
		c-0.596,0.848-1.219,1.615-1.869,2.303c0.709,0.768,1.46,1.643,2.253,2.619c0.793,0.98,1.278,1.543,1.453,1.691
		c0.095,0.086,0.291,0.209,0.586,0.371c0.296,0.16,0.444,0.328,0.444,0.502c0,0.162-0.064,0.273-0.192,0.338
		c-0.128,0.061-0.371,0.092-0.729,0.092h-2.292c-0.256,0-0.443-0.037-0.564-0.115c-0.121-0.076-0.181-0.195-0.181-0.355
		c0-0.133,0.087-0.279,0.263-0.445c0.175-0.164,0.263-0.293,0.263-0.387c0-0.258-0.216-0.652-0.646-1.188
		c-0.432-0.533-1.05-1.168-1.854-1.906c-0.658,0.738-1.158,1.354-1.502,1.846c-0.344,0.494-0.516,0.852-0.516,1.07
		c0,0.197,0.136,0.377,0.407,0.539c0.27,0.16,0.405,0.324,0.405,0.492c0,0.162-0.068,0.275-0.203,0.346s-0.353,0.104-0.652,0.104
		h-2.292c-0.22,0-0.378-0.037-0.477-0.109c-0.098-0.074-0.148-0.188-0.148-0.34c0-0.213,0.194-0.402,0.581-0.57
		s0.64-0.322,0.756-0.461C37.566,58.35,37.727,58.133,37.968,57.797L37.968,57.797z"/>
	<path fill="#092452" d="M55.436,58.192c-0.482,0.68-1.074,1.191-1.775,1.535c-0.703,0.342-1.51,0.516-2.424,0.516
		c-1.089,0-1.954-0.291-2.594-0.871c-0.64-0.582-0.959-1.363-0.959-2.342c0-1.338,0.592-2.363,1.776-3.08
		c1.185-0.719,2.89-1.076,5.121-1.076h0.492c-0.086-0.773-0.414-1.379-0.98-1.814c-0.566-0.434-1.311-0.65-2.23-0.65
		c-0.527,0-1.09,0.174-1.689,0.525c-0.601,0.352-0.987,0.525-1.162,0.525c-0.205,0-0.375-0.057-0.511-0.17
		c-0.135-0.111-0.202-0.258-0.202-0.434c0-0.461,0.34-0.844,1.02-1.145c0.68-0.305,1.568-0.455,2.664-0.455
		c1.807,0,3.109,0.422,3.91,1.266c0.799,0.846,1.199,2.229,1.199,4.15v3.346c0,0.158,0.023,0.289,0.066,0.389
		c0.045,0.098,0.158,0.225,0.34,0.379c0.066,0.041,0.172,0.098,0.318,0.164c0.33,0.145,0.494,0.32,0.494,0.525
		c0,0.221-0.121,0.367-0.357,0.443c-0.236,0.078-0.832,0.115-1.781,0.115c-0.277,0-0.471-0.053-0.576-0.16
		c-0.105-0.105-0.158-0.297-0.158-0.574V58.192z M55.303,53.883h-0.295c-1.711,0-3.031,0.268-3.965,0.807
		c-0.931,0.535-1.397,1.295-1.397,2.273c0,0.594,0.202,1.078,0.609,1.453c0.405,0.377,0.932,0.566,1.584,0.566
		c0.365,0,0.725-0.049,1.08-0.143c0.354-0.096,0.668-0.229,0.947-0.396c0.541-0.336,0.916-0.693,1.125-1.074
		c0.207-0.381,0.311-0.914,0.311-1.602V53.883z"/>
	<path fill="#092452" d="M60.381,57.676v-4.824c0-0.461-0.035-0.785-0.105-0.977c-0.068-0.189-0.184-0.342-0.346-0.461
		c-0.115-0.094-0.291-0.193-0.525-0.295c-0.336-0.152-0.504-0.34-0.504-0.561c0-0.086,0.047-0.195,0.143-0.322
		c0.094-0.127,0.227-0.254,0.395-0.377c0.234-0.184,0.447-0.326,0.641-0.43c0.193-0.102,0.346-0.152,0.455-0.152
		c0.338,0,0.623,0.27,0.861,0.811c0.238,0.543,0.377,1.258,0.422,2.148c0.373-0.963,0.816-1.709,1.326-2.236
		c0.512-0.525,1.043-0.789,1.59-0.789c0.389,0,0.689,0.145,0.9,0.434c0.213,0.287,0.316,0.699,0.316,1.234
		c0,0.168-0.051,0.307-0.158,0.416c-0.105,0.109-0.242,0.164-0.41,0.164c-0.176,0-0.416-0.074-0.721-0.225
		c-0.303-0.15-0.516-0.225-0.639-0.225c-0.482,0-0.924,0.41-1.322,1.227c-0.398,0.82-0.598,1.816-0.598,2.994v2.402
		c0,0.459,0.027,0.76,0.082,0.898s0.152,0.238,0.291,0.295c0.109,0.045,0.281,0.098,0.516,0.156
		c0.445,0.115,0.668,0.295,0.668,0.535c0,0.148-0.057,0.25-0.17,0.314c-0.113,0.061-0.328,0.092-0.643,0.092h-2.805
		c-0.307,0-0.512-0.027-0.615-0.082c-0.102-0.055-0.154-0.156-0.154-0.301c0-0.191,0.166-0.365,0.494-0.527
		c0.176-0.086,0.305-0.158,0.385-0.209c0.088-0.059,0.146-0.145,0.18-0.262c0.035-0.115,0.051-0.314,0.051-0.592V57.676z"/>
	<path fill="#092452" d="M67.969,52.018c0-0.262-0.029-0.445-0.084-0.549c-0.055-0.1-0.162-0.203-0.322-0.307
		c-0.066-0.043-0.164-0.096-0.297-0.164c-0.262-0.131-0.395-0.271-0.395-0.416c0-0.109,0.039-0.209,0.115-0.297
		s0.211-0.182,0.4-0.285l0.154-0.086c0.891-0.469,1.482-0.703,1.775-0.703c0.154,0,0.26,0.07,0.318,0.209s0.088,0.459,0.088,0.965
		v7.697c0,0.189,0.023,0.348,0.066,0.471c0.043,0.125,0.109,0.209,0.195,0.252c0.104,0.045,0.229,0.098,0.373,0.154
		c0.381,0.154,0.57,0.332,0.57,0.535c0,0.162-0.062,0.273-0.186,0.338c-0.125,0.061-0.357,0.092-0.701,0.092h-2.359
		c-0.312,0-0.527-0.031-0.641-0.092c-0.113-0.064-0.17-0.166-0.17-0.314c0-0.109,0.029-0.203,0.088-0.283
		c0.059-0.082,0.166-0.158,0.318-0.23c0.059-0.029,0.139-0.068,0.242-0.109c0.299-0.125,0.449-0.381,0.449-0.768V52.018z
		 M67.365,46.043c0-0.336,0.119-0.609,0.355-0.822c0.238-0.213,0.547-0.318,0.928-0.318c0.373,0,0.674,0.105,0.904,0.318
		c0.229,0.213,0.346,0.486,0.346,0.822c0,0.352-0.117,0.631-0.352,0.838c-0.234,0.209-0.541,0.314-0.92,0.314
		c-0.389,0-0.695-0.105-0.922-0.314C67.479,46.674,67.365,46.395,67.365,46.043z"/>
	<path fill="#092452" d="M71.773,57.885c0-0.213,0.066-0.387,0.201-0.521c0.137-0.135,0.307-0.201,0.512-0.201
		c0.227,0,0.496,0.197,0.811,0.59c0.096,0.109,0.168,0.199,0.219,0.266c0.301,0.336,0.637,0.586,1.01,0.754
		c0.373,0.17,0.793,0.254,1.26,0.254c0.658,0,1.197-0.172,1.617-0.516c0.422-0.344,0.631-0.785,0.631-1.328
		c0-0.758-0.861-1.348-2.588-1.764c-0.094-0.023-0.172-0.041-0.23-0.055c-1.074-0.262-1.842-0.617-2.303-1.064
		c-0.459-0.445-0.689-1.049-0.689-1.807c0-0.982,0.328-1.766,0.986-2.354c0.658-0.59,1.539-0.883,2.643-0.883
		c1.053,0,1.865,0.15,2.439,0.455c0.574,0.301,0.861,0.729,0.861,1.277c0,0.4-0.029,0.67-0.088,0.805
		c-0.059,0.137-0.172,0.205-0.34,0.205c-0.197,0-0.432-0.162-0.701-0.484c-0.109-0.125-0.199-0.219-0.264-0.283
		c-0.277-0.287-0.607-0.506-0.986-0.658c-0.381-0.154-0.791-0.232-1.229-0.232c-0.525,0-0.965,0.152-1.316,0.457
		c-0.352,0.303-0.525,0.682-0.525,1.133c0,0.381,0.113,0.682,0.344,0.9c0.232,0.219,0.676,0.42,1.334,0.604
		c0.211,0.059,0.512,0.135,0.898,0.229c0.957,0.227,1.594,0.443,1.908,0.648c0.453,0.291,0.791,0.635,1.014,1.029
		c0.223,0.396,0.334,0.846,0.334,1.35c0,1.061-0.357,1.918-1.068,2.572c-0.713,0.654-1.65,0.98-2.812,0.98
		c-0.986,0-1.881-0.266-2.682-0.795C72.172,58.916,71.773,58.395,71.773,57.885z"/>
</g>
<g>
	<path fill="#092452" d="M38.126,68.356c0.057,0,0.103,0.01,0.137,0.035c0.035,0.023,0.052,0.055,0.052,0.094
		c0,0.074-0.039,0.168-0.116,0.279c-0.078,0.113-0.18,0.219-0.306,0.314c-0.147,0.119-0.311,0.205-0.49,0.264
		c-0.179,0.057-0.377,0.086-0.594,0.086c-0.482,0-0.881-0.17-1.194-0.514c-0.313-0.34-0.471-0.775-0.471-1.301
		c0-0.592,0.173-1.082,0.519-1.477c0.346-0.391,0.778-0.588,1.297-0.588c0.349,0,0.641,0.074,0.879,0.221
		c0.237,0.145,0.356,0.314,0.356,0.51c0,0.088-0.032,0.16-0.097,0.225c-0.065,0.064-0.141,0.094-0.229,0.094
		c-0.105,0-0.216-0.076-0.333-0.227c-0.018-0.023-0.031-0.041-0.039-0.051c-0.113-0.146-0.213-0.242-0.3-0.283
		c-0.086-0.045-0.193-0.066-0.319-0.066c-0.312,0-0.565,0.145-0.761,0.434c-0.194,0.285-0.292,0.664-0.292,1.135
		c0,0.428,0.104,0.77,0.313,1.027c0.209,0.258,0.488,0.387,0.836,0.387c0.103,0,0.206-0.016,0.308-0.045
		c0.102-0.027,0.199-0.068,0.292-0.123c0.114-0.064,0.227-0.152,0.34-0.264C38.027,68.41,38.098,68.356,38.126,68.356z"/>
	<path fill="#092452" d="M38.649,67.494c0-0.57,0.182-1.037,0.544-1.4c0.363-0.363,0.831-0.545,1.403-0.545
		c0.575,0,1.043,0.18,1.403,0.543c0.36,0.361,0.541,0.828,0.541,1.402c0,0.568-0.18,1.033-0.541,1.393
		c-0.36,0.363-0.828,0.541-1.403,0.541c-0.576,0-1.044-0.178-1.406-0.541C38.83,68.528,38.649,68.063,38.649,67.494z M39.331,67.494
		c0,0.457,0.116,0.826,0.349,1.104c0.231,0.277,0.538,0.416,0.917,0.416c0.379,0,0.685-0.139,0.915-0.416
		c0.231-0.277,0.347-0.646,0.347-1.104c0-0.463-0.116-0.834-0.347-1.113c-0.23-0.279-0.536-0.418-0.915-0.418
		c-0.377,0-0.682,0.141-0.915,0.422C39.447,66.668,39.331,67.035,39.331,67.494z"/>
	<path fill="#092452" d="M43.329,68.985c0.098-0.055,0.147-0.164,0.147-0.326v-1.77c0-0.248-0.009-0.412-0.027-0.488
		c-0.018-0.078-0.052-0.135-0.101-0.168c-0.031-0.023-0.09-0.055-0.178-0.09c-0.088-0.035-0.132-0.08-0.132-0.141
		c0-0.068,0.078-0.162,0.234-0.279c0.155-0.115,0.284-0.174,0.385-0.174c0.072,0,0.138,0.055,0.198,0.162
		c0.059,0.107,0.112,0.266,0.159,0.48c0.165-0.211,0.355-0.371,0.571-0.479c0.215-0.109,0.451-0.164,0.707-0.164
		c0.436,0,0.762,0.143,0.978,0.428c0.215,0.285,0.323,0.721,0.323,1.303v1.402c0,0.084,0.005,0.145,0.016,0.18
		c0.011,0.039,0.03,0.064,0.058,0.082c0.023,0.016,0.057,0.037,0.101,0.059c0.106,0.059,0.159,0.117,0.159,0.178
		c0,0.051-0.021,0.084-0.061,0.105s-0.107,0.031-0.203,0.031h-0.79c-0.096,0-0.164-0.01-0.203-0.029c-0.04-0.02-0.06-0.053-0.06-0.1
		c0-0.064,0.042-0.115,0.128-0.154c0.025-0.014,0.044-0.021,0.054-0.027c0.091-0.045,0.145-0.084,0.163-0.125
		c0.019-0.037,0.027-0.109,0.027-0.217v-1.391c0-0.434-0.073-0.752-0.219-0.949c-0.146-0.199-0.376-0.299-0.691-0.299
		c-0.3,0-0.538,0.086-0.716,0.26c-0.178,0.172-0.267,0.406-0.267,0.701v1.77c0,0.055,0.004,0.094,0.012,0.121
		c0.008,0.027,0.021,0.049,0.042,0.066c0.023,0.016,0.061,0.037,0.112,0.062c0.101,0.053,0.151,0.107,0.151,0.168
		c0,0.055-0.02,0.09-0.06,0.111s-0.115,0.031-0.226,0.031h-0.735c-0.098,0-0.166-0.008-0.201-0.027
		c-0.037-0.02-0.054-0.049-0.054-0.092c0-0.041,0.009-0.072,0.027-0.098c0.018-0.023,0.062-0.055,0.131-0.094
		C43.297,69.002,43.311,68.992,43.329,68.985L43.329,68.985z"/>
	<path fill="#092452" d="M47.285,68.596c0-0.074,0.024-0.135,0.072-0.184c0.047-0.049,0.108-0.072,0.18-0.072
		c0.08,0,0.175,0.07,0.286,0.209c0.034,0.041,0.06,0.072,0.078,0.092c0.106,0.121,0.225,0.209,0.356,0.268
		c0.132,0.061,0.28,0.09,0.445,0.09c0.232,0,0.422-0.061,0.571-0.182c0.147-0.123,0.222-0.275,0.222-0.467
		c0-0.27-0.305-0.479-0.913-0.625c-0.034-0.008-0.06-0.014-0.081-0.02c-0.379-0.092-0.651-0.219-0.812-0.375
		c-0.163-0.158-0.244-0.371-0.244-0.639c0-0.346,0.116-0.623,0.348-0.83s0.543-0.312,0.933-0.312c0.371,0,0.658,0.055,0.86,0.162
		c0.204,0.107,0.305,0.256,0.305,0.449c0,0.143-0.011,0.238-0.031,0.287c-0.021,0.045-0.062,0.07-0.12,0.07
		c-0.069,0-0.152-0.057-0.247-0.17c-0.04-0.045-0.07-0.078-0.094-0.102c-0.098-0.1-0.213-0.178-0.348-0.232
		c-0.135-0.053-0.278-0.08-0.434-0.08c-0.187,0-0.341,0.053-0.464,0.16c-0.124,0.107-0.186,0.238-0.186,0.398
		c0,0.137,0.04,0.242,0.122,0.32c0.081,0.076,0.238,0.146,0.47,0.213c0.075,0.02,0.181,0.047,0.317,0.082
		c0.339,0.078,0.562,0.154,0.673,0.227c0.161,0.104,0.281,0.225,0.358,0.363c0.079,0.141,0.118,0.299,0.118,0.477
		c0,0.375-0.125,0.676-0.378,0.906c-0.251,0.232-0.582,0.348-0.992,0.348c-0.348,0-0.664-0.094-0.946-0.279
		C47.426,68.961,47.285,68.776,47.285,68.596z"/>
	<path fill="#092452" d="M53.877,65.934v2.154c0,0.184,0.004,0.332,0.012,0.449c0.008,0.113,0.016,0.182,0.027,0.205
		c0.027,0.059,0.062,0.107,0.102,0.143c0.037,0.037,0.102,0.072,0.193,0.105c0.012,0.006,0.029,0.012,0.049,0.02
		c0.094,0.035,0.139,0.088,0.139,0.154c0,0.072-0.043,0.123-0.133,0.15s-0.273,0.039-0.557,0.039c-0.143,0-0.244-0.031-0.301-0.096
		c-0.057-0.066-0.086-0.18-0.086-0.346c0-0.012,0.002-0.033,0.004-0.064c0.004-0.031,0.006-0.055,0.006-0.07
		c-0.164,0.217-0.35,0.379-0.557,0.484s-0.445,0.158-0.713,0.158c-0.455,0-0.785-0.135-0.992-0.408
		c-0.207-0.271-0.309-0.713-0.309-1.32v-1.221c0-0.127-0.016-0.213-0.045-0.26c-0.031-0.047-0.088-0.098-0.178-0.154
		c-0.002,0-0.004-0.002-0.006-0.004c-0.107-0.061-0.16-0.123-0.16-0.188c0-0.072,0.079-0.145,0.238-0.213
		c0.156-0.068,0.332-0.104,0.525-0.104c0.084,0,0.145,0.031,0.182,0.094c0.037,0.061,0.055,0.17,0.055,0.328v1.734
		c0,0.43,0.072,0.742,0.221,0.945c0.146,0.201,0.377,0.303,0.688,0.303c0.303,0,0.543-0.086,0.719-0.258
		c0.176-0.17,0.266-0.4,0.266-0.695v-1.588c0-0.082-0.01-0.143-0.027-0.182c-0.018-0.041-0.049-0.074-0.09-0.1
		c-0.016-0.01-0.037-0.025-0.07-0.045c-0.111-0.064-0.168-0.125-0.168-0.188c0-0.082,0.078-0.16,0.234-0.236
		c0.158-0.076,0.324-0.113,0.496-0.113c0.086,0,0.146,0.029,0.182,0.086C53.859,65.692,53.877,65.791,53.877,65.934z"/>
	<path fill="#092452" d="M55.17,64.424c0-0.09-0.01-0.156-0.029-0.191c-0.02-0.033-0.057-0.072-0.111-0.107
		c-0.021-0.018-0.055-0.035-0.1-0.059c-0.094-0.047-0.139-0.098-0.139-0.15c0-0.039,0.014-0.074,0.041-0.111
		c0.029-0.033,0.076-0.068,0.141-0.102l0.023-0.012c0.324-0.174,0.541-0.258,0.648-0.258c0.055,0,0.094,0.023,0.113,0.07
		c0.021,0.047,0.031,0.158,0.031,0.336v4.824c0,0.068,0.008,0.125,0.027,0.168c0.018,0.047,0.041,0.076,0.07,0.09
		c0.023,0.01,0.064,0.025,0.119,0.045c0.146,0.057,0.221,0.123,0.221,0.197c0,0.055-0.021,0.094-0.066,0.117
		c-0.047,0.023-0.129,0.035-0.252,0.035h-0.832c-0.109,0-0.188-0.01-0.23-0.033c-0.041-0.021-0.062-0.059-0.062-0.109
		c0-0.039,0.01-0.07,0.033-0.098c0.02-0.029,0.061-0.057,0.117-0.086c0.021-0.01,0.049-0.021,0.08-0.033
		c0.105-0.043,0.156-0.135,0.156-0.275V64.424z"/>
	<path fill="#092452" d="M57.043,68.817V66.1h-0.244c-0.137,0-0.23-0.018-0.281-0.051c-0.053-0.033-0.078-0.092-0.078-0.174
		c0-0.059,0.018-0.107,0.053-0.146c0.033-0.037,0.08-0.061,0.137-0.066c0.023-0.002,0.053-0.006,0.09-0.008
		c0.164-0.014,0.271-0.045,0.316-0.098c0.057-0.059,0.107-0.271,0.15-0.639c0.014-0.105,0.023-0.188,0.031-0.246
		c0.006-0.031,0.012-0.074,0.018-0.125c0.029-0.26,0.115-0.391,0.254-0.391c0.062,0,0.104,0.02,0.125,0.059
		c0.023,0.041,0.033,0.156,0.033,0.344v1.086h0.555c0.135,0,0.229,0.02,0.281,0.053c0.055,0.037,0.082,0.096,0.082,0.178
		c0,0.078-0.029,0.135-0.088,0.17c-0.057,0.035-0.15,0.055-0.275,0.055h-0.555v2.303c0,0.154,0.014,0.266,0.037,0.336
		c0.025,0.066,0.068,0.111,0.131,0.133c0.072,0.029,0.217,0.049,0.428,0.059c0.209,0.012,0.314,0.066,0.314,0.166
		c0,0.084-0.023,0.143-0.07,0.174c-0.049,0.029-0.168,0.047-0.363,0.047h-0.738c-0.141,0-0.232-0.025-0.275-0.074
		C57.066,69.192,57.043,69.051,57.043,68.817z"/>
	<path fill="#092452" d="M59.238,66.524c0-0.092-0.01-0.154-0.029-0.193c-0.02-0.035-0.057-0.07-0.115-0.107
		c-0.021-0.014-0.057-0.035-0.104-0.059c-0.092-0.045-0.141-0.094-0.141-0.146c0-0.037,0.014-0.074,0.041-0.104
		c0.027-0.031,0.074-0.064,0.143-0.102l0.055-0.031c0.314-0.166,0.523-0.248,0.627-0.248c0.053,0,0.09,0.025,0.113,0.074
		c0.02,0.049,0.029,0.162,0.029,0.34v2.717c0,0.068,0.008,0.125,0.021,0.168c0.018,0.045,0.041,0.074,0.072,0.09
		c0.035,0.014,0.078,0.033,0.131,0.055c0.135,0.051,0.201,0.117,0.201,0.188c0,0.059-0.021,0.098-0.066,0.119
		c-0.043,0.023-0.125,0.033-0.248,0.033h-0.832c-0.109,0-0.186-0.01-0.225-0.033c-0.041-0.021-0.062-0.059-0.062-0.109
		c0-0.041,0.012-0.074,0.033-0.102c0.02-0.029,0.057-0.057,0.111-0.082c0.02-0.01,0.049-0.023,0.086-0.037
		c0.105-0.045,0.158-0.135,0.158-0.271V66.524z M59.025,64.416c0-0.119,0.041-0.215,0.125-0.291s0.193-0.113,0.328-0.113
		c0.131,0,0.236,0.037,0.318,0.113s0.123,0.172,0.123,0.291c0,0.123-0.043,0.223-0.125,0.295c-0.082,0.074-0.191,0.109-0.324,0.109
		c-0.137,0-0.246-0.035-0.326-0.109C59.064,64.639,59.025,64.539,59.025,64.416z"/>
	<path fill="#092452" d="M61.012,68.985c0.098-0.055,0.146-0.164,0.146-0.326v-1.77c0-0.248-0.008-0.412-0.025-0.488
		c-0.02-0.078-0.053-0.135-0.104-0.168c-0.029-0.023-0.09-0.055-0.178-0.09s-0.131-0.08-0.131-0.141
		c0-0.068,0.078-0.162,0.234-0.279c0.156-0.115,0.283-0.174,0.385-0.174c0.072,0,0.139,0.055,0.197,0.162s0.111,0.266,0.16,0.48
		c0.164-0.211,0.354-0.371,0.57-0.479c0.215-0.109,0.449-0.164,0.707-0.164c0.436,0,0.76,0.143,0.977,0.428
		c0.215,0.285,0.322,0.721,0.322,1.303v1.402c0,0.084,0.006,0.145,0.016,0.18c0.01,0.039,0.031,0.064,0.059,0.082
		c0.023,0.016,0.057,0.037,0.102,0.059c0.105,0.059,0.158,0.117,0.158,0.178c0,0.051-0.021,0.084-0.061,0.105
		c-0.041,0.021-0.107,0.031-0.203,0.031h-0.789c-0.096,0-0.164-0.01-0.203-0.029c-0.041-0.02-0.061-0.053-0.061-0.1
		c0-0.064,0.043-0.115,0.127-0.154c0.027-0.014,0.045-0.021,0.055-0.027c0.09-0.045,0.145-0.084,0.164-0.125
		c0.018-0.037,0.025-0.109,0.025-0.217v-1.391c0-0.434-0.072-0.752-0.219-0.949c-0.145-0.199-0.377-0.299-0.689-0.299
		c-0.301,0-0.539,0.086-0.717,0.26c-0.178,0.172-0.268,0.406-0.268,0.701v1.77c0,0.055,0.004,0.094,0.012,0.121
		s0.021,0.049,0.043,0.066c0.023,0.016,0.061,0.037,0.111,0.062c0.102,0.053,0.15,0.107,0.15,0.168c0,0.055-0.02,0.09-0.059,0.111
		c-0.041,0.021-0.115,0.031-0.227,0.031h-0.734c-0.1,0-0.166-0.008-0.203-0.027s-0.055-0.049-0.055-0.092
		c0-0.041,0.01-0.072,0.027-0.098c0.02-0.023,0.062-0.055,0.133-0.094C60.979,69.002,60.992,68.992,61.012,68.985L61.012,68.985z"/>
	<path fill="#092452" d="M67.797,68.811c0.281,0.098,0.49,0.225,0.627,0.373c0.137,0.15,0.205,0.328,0.205,0.535
		c0,0.352-0.174,0.635-0.521,0.844s-0.816,0.312-1.406,0.312c-0.506,0-0.896-0.062-1.172-0.184c-0.277-0.121-0.416-0.297-0.416-0.52
		c0-0.129,0.045-0.24,0.133-0.336c0.086-0.1,0.188-0.15,0.299-0.15c0.035,0,0.066,0.016,0.09,0.043
		c0.025,0.029,0.037,0.064,0.037,0.109c0,0.023-0.006,0.055-0.02,0.09c-0.014,0.039-0.02,0.064-0.02,0.076
		c0,0.119,0.094,0.211,0.281,0.275c0.186,0.064,0.451,0.098,0.795,0.098c0.412,0,0.732-0.059,0.955-0.17
		c0.227-0.111,0.338-0.273,0.338-0.48c0-0.143-0.051-0.268-0.152-0.373c-0.104-0.104-0.27-0.205-0.498-0.301
		c-0.154,0.029-0.283,0.053-0.389,0.068c-0.105,0.012-0.193,0.021-0.262,0.021c-0.484,0-0.881-0.166-1.189-0.502
		c-0.307-0.332-0.459-0.762-0.459-1.291c0-0.535,0.156-0.969,0.471-1.301s0.727-0.5,1.232-0.5c0.141,0,0.326,0.016,0.553,0.047
		c0.229,0.029,0.387,0.043,0.48,0.043c0.021,0,0.094-0.002,0.223-0.008c0.127-0.004,0.242-0.008,0.346-0.008
		c0.127,0,0.223,0.02,0.289,0.062c0.064,0.039,0.1,0.1,0.1,0.18c0,0.088-0.041,0.148-0.119,0.186
		c-0.08,0.039-0.213,0.055-0.404,0.055c-0.006,0-0.02,0-0.039-0.004c-0.072,0-0.141-0.002-0.205-0.002
		c0.154,0.148,0.273,0.332,0.357,0.545c0.084,0.211,0.125,0.439,0.125,0.682c0,0.303-0.055,0.578-0.168,0.828
		C68.182,68.403,68.016,68.621,67.797,68.811z M65.709,67.326c0,0.451,0.092,0.801,0.271,1.045c0.182,0.242,0.439,0.363,0.775,0.363
		c0.344,0,0.605-0.121,0.785-0.361c0.18-0.242,0.271-0.59,0.271-1.047c0-0.43-0.094-0.766-0.279-1.004
		c-0.186-0.24-0.445-0.359-0.777-0.359s-0.588,0.119-0.771,0.357C65.803,66.559,65.709,66.893,65.709,67.326z"/>
</g>
<g>
	<path fill="#092452" d="M80.709,58.274c0.164,0,0.324,0.043,0.482,0.127c0.154,0.086,0.277,0.205,0.365,0.363
		c0.088,0.156,0.131,0.318,0.131,0.492c0,0.168-0.043,0.33-0.129,0.484c-0.088,0.156-0.207,0.279-0.363,0.365
		c-0.154,0.086-0.316,0.127-0.486,0.127c-0.172,0-0.332-0.041-0.488-0.127s-0.277-0.209-0.363-0.365
		c-0.088-0.154-0.131-0.316-0.131-0.484c0-0.174,0.045-0.336,0.133-0.492c0.088-0.158,0.211-0.277,0.367-0.363
		C80.383,58.317,80.545,58.274,80.709,58.274z M80.709,58.438c-0.139,0-0.273,0.033-0.402,0.105
		c-0.131,0.068-0.232,0.172-0.307,0.303c-0.072,0.131-0.109,0.268-0.109,0.41c0,0.141,0.035,0.275,0.107,0.406
		c0.072,0.127,0.174,0.229,0.305,0.299c0.129,0.074,0.264,0.109,0.406,0.109c0.141,0,0.275-0.035,0.406-0.109
		c0.129-0.07,0.23-0.172,0.301-0.299c0.074-0.131,0.109-0.266,0.109-0.406c0-0.143-0.037-0.279-0.109-0.41
		c-0.074-0.131-0.176-0.234-0.307-0.303C80.979,58.471,80.846,58.438,80.709,58.438z M80.277,59.795v-1.053h0.363
		c0.123,0,0.213,0.008,0.27,0.029c0.055,0.02,0.1,0.053,0.133,0.102c0.031,0.049,0.049,0.098,0.049,0.154
		c0,0.076-0.027,0.145-0.082,0.201s-0.129,0.09-0.219,0.096c0.035,0.018,0.066,0.035,0.088,0.057
		c0.043,0.041,0.096,0.109,0.156,0.209l0.129,0.205h-0.207l-0.094-0.166c-0.074-0.129-0.133-0.211-0.18-0.242
		c-0.029-0.025-0.076-0.039-0.135-0.039h-0.1v0.447H80.277z M80.449,59.203h0.205c0.1,0,0.166-0.016,0.203-0.045
		c0.035-0.029,0.055-0.066,0.055-0.117c0-0.031-0.01-0.059-0.027-0.082c-0.018-0.025-0.041-0.045-0.072-0.057
		c-0.031-0.01-0.088-0.02-0.17-0.02h-0.193V59.203z"/>
</g>
</svg>
