<?xml version="1.0" encoding="utf-8"?>
<!-- Generator: Adobe Illustrator 16.0.0, SVG Export Plug-In . SVG Version: 6.00 Build 0)  -->
<!DOCTYPE svg PUBLIC "-//W3C//DTD SVG 1.1//EN" "http://www.w3.org/Graphics/SVG/1.1/DTD/svg11.dtd">
<svg version="1.1" id="Capa_1" xmlns="http://www.w3.org/2000/svg" xmlns:xlink="http://www.w3.org/1999/xlink" x="0px" y="0px"
	 width="100px" height="72.025px" viewBox="0 0 100 72.025" enable-background="new 0 0 100 72.025" xml:space="preserve">
<g>
	<g>
		<circle fill-rule="evenodd" clip-rule="evenodd" fill="#D81F26" cx="55.849" cy="29.329" r="2.351"/>
		<circle fill-rule="evenodd" clip-rule="evenodd" fill="#D81F26" cx="52.636" cy="26.221" r="1.572"/>
		<circle fill-rule="evenodd" clip-rule="evenodd" fill="#D81F26" cx="65.454" cy="39.282" r="3.908"/>
		<circle fill-rule="evenodd" clip-rule="evenodd" fill="#D81F26" cx="60.184" cy="33.691" r="3.11"/>
	</g>
	<g>
		<circle fill-rule="evenodd" clip-rule="evenodd" fill="#D81F26" cx="44.899" cy="29.376" r="2.35"/>
		<circle fill-rule="evenodd" clip-rule="evenodd" fill="#D81F26" cx="48.064" cy="26.221" r="1.571"/>
		<circle fill-rule="evenodd" clip-rule="evenodd" fill="#D81F26" cx="35.241" cy="39.282" r="3.908"/>
		<circle fill-rule="evenodd" clip-rule="evenodd" fill="#D81F26" cx="40.592" cy="33.839" r="3.111"/>
	</g>
	<g>
		<circle fill-rule="evenodd" clip-rule="evenodd" fill="#D81F26" cx="55.759" cy="18.503" r="2.349"/>
		<circle fill-rule="evenodd" clip-rule="evenodd" fill="#D81F26" cx="52.617" cy="21.644" r="1.572"/>
		<circle fill-rule="evenodd" clip-rule="evenodd" fill="#D81F26" cx="65.603" cy="8.806" r="3.908"/>
		<circle fill-rule="evenodd" clip-rule="evenodd" fill="#D81F26" cx="60.148" cy="14.198" r="3.111"/>
	</g>
	<g>
		<circle fill-rule="evenodd" clip-rule="evenodd" fill="#D81F26" cx="44.974" cy="18.432" r="2.349"/>
		<circle fill-rule="evenodd" clip-rule="evenodd" fill="#D81F26" cx="48.039" cy="21.625" r="1.571"/>
		<circle fill-rule="evenodd" clip-rule="evenodd" fill="#D81F26" cx="34.94" cy="8.833" r="3.908"/>
		<circle fill-rule="evenodd" clip-rule="evenodd" fill="#D81F26" cx="40.475" cy="14.14" r="3.11"/>
	</g>
</g>
<g>
	<path fill="#092452" d="M26.792,55.578c0.176,0.823,0.553,1.477,1.13,1.959c0.577,0.481,1.267,0.723,2.069,0.723
		c0.429,0,0.834-0.053,1.214-0.158c0.38-0.105,0.753-0.271,1.119-0.496c0.176-0.105,0.394-0.257,0.654-0.454
		c0.359-0.261,0.595-0.391,0.708-0.391s0.206,0.042,0.28,0.127c0.074,0.084,0.111,0.193,0.111,0.327c0,0.218-0.146,0.48-0.438,0.786
		c-0.292,0.307-0.681,0.601-1.167,0.882c-0.408,0.239-0.839,0.419-1.293,0.538c-0.454,0.12-0.931,0.18-1.431,0.18
		c-1.485,0-2.671-0.441-3.558-1.325c-0.887-0.883-1.331-2.063-1.331-3.542c0-1.618,0.526-2.976,1.579-4.07
		c1.052-1.094,2.349-1.642,3.891-1.642c1.175,0,2.08,0.243,2.713,0.729c0.634,0.486,0.95,1.172,0.95,2.059
		c0,1.049-0.586,1.878-1.758,2.487C31.062,54.904,29.248,55.332,26.792,55.578z M26.633,54.491c1.915-0.184,3.32-0.506,4.218-0.967
		s1.346-1.082,1.346-1.863c0-0.521-0.181-0.929-0.543-1.225c-0.363-0.296-0.861-0.443-1.494-0.443c-1.035,0-1.881,0.401-2.539,1.203
		c-0.658,0.803-0.987,1.845-0.987,3.126V54.491z"/>
	<path fill="#092452" d="M36.938,57.246c0.802-1.126,1.594-2.115,2.375-2.967c-0.641-0.703-1.29-1.497-1.948-2.381
		c-0.658-0.883-1.047-1.381-1.167-1.493c-0.091-0.085-0.276-0.196-0.554-0.333c-0.278-0.138-0.417-0.283-0.417-0.438
		c0-0.134,0.049-0.225,0.148-0.274c0.098-0.049,0.306-0.074,0.623-0.074H38.1c0.331,0,0.55,0.025,0.66,0.074
		c0.109,0.05,0.164,0.141,0.164,0.274c0,0.085-0.093,0.208-0.28,0.37s-0.28,0.31-0.28,0.443c0,0.197,0.178,0.535,0.533,1.014
		s0.854,1.041,1.494,1.688c0.577-0.576,1.045-1.119,1.404-1.625c0.359-0.507,0.538-0.866,0.538-1.077
		c0-0.12-0.107-0.257-0.322-0.412c-0.215-0.154-0.322-0.288-0.322-0.401c0-0.134,0.058-0.225,0.174-0.274
		c0.116-0.049,0.354-0.074,0.713-0.074h1.488c0.289,0,0.48,0.021,0.576,0.063c0.095,0.043,0.143,0.12,0.143,0.232
		c0,0.155-0.124,0.294-0.37,0.417c-0.247,0.123-0.419,0.238-0.518,0.344c-0.07,0.07-0.392,0.514-0.966,1.33s-1.174,1.556-1.8,2.217
		c0.683,0.739,1.406,1.58,2.17,2.523c0.764,0.943,1.23,1.485,1.399,1.626c0.091,0.085,0.28,0.204,0.565,0.359
		c0.285,0.154,0.427,0.316,0.427,0.485c0,0.155-0.062,0.263-0.185,0.322s-0.357,0.09-0.702,0.09h-2.207
		c-0.247,0-0.428-0.037-0.544-0.111c-0.116-0.073-0.174-0.188-0.174-0.343c0-0.127,0.084-0.27,0.253-0.428s0.253-0.283,0.253-0.375
		c0-0.246-0.208-0.626-0.623-1.14c-0.416-0.514-1.01-1.127-1.785-1.838c-0.633,0.711-1.116,1.305-1.446,1.779
		c-0.331,0.476-0.496,0.818-0.496,1.029c0,0.19,0.13,0.363,0.391,0.518c0.26,0.155,0.391,0.313,0.391,0.475
		c0,0.155-0.065,0.267-0.195,0.333c-0.13,0.067-0.34,0.101-0.628,0.101h-2.207c-0.211,0-0.364-0.035-0.459-0.105
		c-0.095-0.07-0.142-0.18-0.142-0.328c0-0.203,0.186-0.387,0.56-0.549c0.373-0.161,0.616-0.31,0.729-0.443
		C36.551,57.778,36.706,57.57,36.938,57.246L36.938,57.246z"/>
	<path fill="#092452" d="M53.757,57.627c-0.465,0.654-1.034,1.146-1.71,1.478S50.593,59.6,49.713,59.6
		c-1.049,0-1.881-0.279-2.497-0.839c-0.616-0.56-0.924-1.312-0.924-2.254c0-1.288,0.57-2.277,1.71-2.967
		c1.14-0.69,2.783-1.035,4.931-1.035h0.475c-0.084-0.746-0.399-1.328-0.944-1.747c-0.546-0.419-1.262-0.629-2.149-0.629
		c-0.507,0-1.049,0.169-1.626,0.507s-0.95,0.507-1.119,0.507c-0.197,0-0.361-0.054-0.491-0.163c-0.13-0.109-0.195-0.248-0.195-0.417
		c0-0.443,0.327-0.812,0.982-1.104c0.654-0.292,1.51-0.438,2.565-0.438c1.739,0,2.994,0.406,3.764,1.22
		c0.771,0.812,1.156,2.146,1.156,3.996v3.221c0,0.154,0.021,0.279,0.063,0.374c0.042,0.096,0.15,0.217,0.327,0.364
		c0.063,0.043,0.165,0.096,0.306,0.159c0.317,0.141,0.476,0.31,0.476,0.506c0,0.212-0.115,0.354-0.344,0.428
		c-0.229,0.074-0.801,0.111-1.715,0.111c-0.269,0-0.453-0.052-0.555-0.153c-0.103-0.102-0.153-0.287-0.153-0.555V57.627z
		 M53.63,53.477h-0.285c-1.646,0-2.919,0.259-3.816,0.775c-0.897,0.518-1.346,1.248-1.346,2.191c0,0.569,0.195,1.036,0.586,1.398
		s0.899,0.544,1.526,0.544c0.352,0,0.698-0.046,1.04-0.138c0.341-0.091,0.646-0.218,0.913-0.38c0.521-0.323,0.882-0.668,1.082-1.034
		c0.201-0.366,0.301-0.88,0.301-1.542V53.477z"/>
	<path fill="#092452" d="M58.519,57.13v-4.646c0-0.443-0.033-0.756-0.101-0.939c-0.066-0.183-0.178-0.331-0.332-0.443
		c-0.113-0.092-0.282-0.187-0.507-0.285c-0.324-0.147-0.485-0.327-0.485-0.538c0-0.085,0.045-0.188,0.137-0.312
		s0.218-0.245,0.38-0.364c0.226-0.176,0.432-0.313,0.618-0.412s0.332-0.147,0.438-0.147c0.324,0,0.601,0.261,0.829,0.781
		s0.364,1.211,0.406,2.069c0.359-0.929,0.785-1.647,1.278-2.154c0.492-0.507,1.003-0.76,1.53-0.76c0.373,0,0.662,0.139,0.866,0.417
		s0.306,0.674,0.306,1.188c0,0.162-0.051,0.296-0.152,0.401c-0.103,0.105-0.234,0.158-0.396,0.158c-0.169,0-0.399-0.072-0.691-0.216
		c-0.292-0.145-0.498-0.217-0.618-0.217c-0.464,0-0.889,0.395-1.271,1.183c-0.384,0.788-0.576,1.749-0.576,2.882v2.312
		c0,0.443,0.027,0.732,0.08,0.866s0.146,0.229,0.279,0.285c0.105,0.042,0.271,0.091,0.496,0.147c0.43,0.112,0.645,0.285,0.645,0.518
		c0,0.141-0.055,0.241-0.164,0.301s-0.315,0.09-0.617,0.09h-2.703c-0.296,0-0.493-0.026-0.592-0.079s-0.147-0.149-0.147-0.291
		c0-0.183,0.158-0.352,0.476-0.507c0.169-0.084,0.292-0.151,0.369-0.2c0.085-0.057,0.143-0.141,0.174-0.253
		c0.032-0.113,0.048-0.303,0.048-0.57V57.13z"/>
	<path fill="#092452" d="M65.825,51.682c0-0.254-0.026-0.43-0.079-0.528c-0.054-0.099-0.157-0.197-0.312-0.296
		c-0.063-0.042-0.159-0.095-0.285-0.158c-0.254-0.127-0.381-0.26-0.381-0.401c0-0.105,0.037-0.2,0.111-0.285
		c0.074-0.084,0.202-0.176,0.386-0.274l0.147-0.084c0.858-0.45,1.429-0.676,1.71-0.676c0.148,0,0.25,0.067,0.307,0.2
		c0.057,0.134,0.084,0.443,0.084,0.93v7.411c0,0.184,0.021,0.335,0.063,0.454c0.043,0.12,0.105,0.201,0.19,0.243
		c0.099,0.042,0.218,0.092,0.359,0.147c0.365,0.148,0.549,0.32,0.549,0.518c0,0.155-0.061,0.263-0.18,0.322
		c-0.12,0.06-0.345,0.09-0.676,0.09h-2.27c-0.303,0-0.509-0.03-0.618-0.09s-0.164-0.16-0.164-0.301c0-0.105,0.028-0.197,0.085-0.274
		c0.057-0.078,0.158-0.151,0.306-0.222c0.057-0.028,0.134-0.063,0.232-0.106c0.289-0.119,0.434-0.365,0.434-0.738V51.682z
		 M65.244,45.927c0-0.323,0.114-0.587,0.343-0.791s0.526-0.307,0.893-0.307c0.359,0,0.649,0.103,0.871,0.307
		s0.332,0.468,0.332,0.791c0,0.338-0.112,0.607-0.338,0.809c-0.225,0.2-0.521,0.301-0.887,0.301c-0.373,0-0.669-0.101-0.887-0.301
		C65.354,46.535,65.244,46.265,65.244,45.927z"/>
	<path fill="#092452" d="M69.488,57.331c0-0.204,0.065-0.371,0.195-0.502c0.131-0.13,0.294-0.195,0.491-0.195
		c0.218,0,0.479,0.19,0.781,0.57c0.092,0.105,0.162,0.19,0.211,0.254c0.289,0.323,0.612,0.566,0.972,0.729
		c0.358,0.161,0.764,0.242,1.214,0.242c0.634,0,1.152-0.165,1.558-0.496c0.404-0.331,0.607-0.757,0.607-1.277
		c0-0.732-0.831-1.299-2.492-1.7c-0.092-0.021-0.165-0.038-0.222-0.053c-1.035-0.253-1.773-0.595-2.217-1.024
		c-0.443-0.429-0.666-1.01-0.666-1.741c0-0.943,0.317-1.698,0.95-2.265c0.634-0.567,1.482-0.851,2.545-0.851
		c1.014,0,1.797,0.146,2.35,0.438c0.552,0.292,0.828,0.702,0.828,1.229c0,0.388-0.028,0.646-0.084,0.776
		c-0.057,0.131-0.166,0.195-0.327,0.195c-0.19,0-0.416-0.154-0.676-0.465c-0.105-0.119-0.19-0.211-0.254-0.274
		c-0.268-0.274-0.584-0.485-0.95-0.633c-0.366-0.148-0.76-0.222-1.183-0.222c-0.507,0-0.929,0.146-1.267,0.438
		s-0.507,0.656-0.507,1.093c0,0.366,0.111,0.655,0.333,0.866s0.648,0.404,1.282,0.58c0.204,0.057,0.493,0.131,0.866,0.222
		c0.922,0.219,1.534,0.427,1.837,0.623c0.437,0.282,0.762,0.612,0.977,0.993c0.215,0.38,0.322,0.812,0.322,1.298
		c0,1.021-0.344,1.847-1.029,2.477c-0.687,0.63-1.59,0.944-2.709,0.944c-0.95,0-1.811-0.255-2.581-0.766
		C69.874,58.325,69.488,57.823,69.488,57.331z"/>
</g>
<g>
	<path fill="#092452" d="M40.295,67.026c0.062,0.29,0.195,0.521,0.399,0.691c0.204,0.17,0.447,0.255,0.73,0.255
		c0.152,0,0.294-0.019,0.429-0.056s0.266-0.096,0.395-0.176c0.062-0.037,0.139-0.09,0.231-0.16c0.126-0.092,0.21-0.138,0.25-0.138
		s0.073,0.015,0.099,0.045c0.026,0.029,0.039,0.068,0.039,0.115c0,0.077-0.051,0.17-0.154,0.278
		c-0.104,0.107-0.241,0.212-0.412,0.311c-0.144,0.085-0.296,0.148-0.457,0.19s-0.329,0.063-0.505,0.063
		c-0.524,0-0.943-0.156-1.256-0.468c-0.313-0.312-0.47-0.729-0.47-1.251c0-0.571,0.186-1.05,0.558-1.437
		c0.371-0.387,0.829-0.58,1.374-0.58c0.415,0,0.734,0.086,0.958,0.258c0.224,0.171,0.335,0.413,0.335,0.727
		c0,0.37-0.207,0.663-0.621,0.878C41.803,66.788,41.163,66.939,40.295,67.026z M40.24,66.642c0.676-0.065,1.172-0.179,1.489-0.342
		c0.317-0.162,0.476-0.382,0.476-0.657c0-0.185-0.064-0.328-0.192-0.433c-0.128-0.104-0.304-0.156-0.528-0.156
		c-0.365,0-0.664,0.142-0.896,0.425c-0.232,0.283-0.349,0.65-0.349,1.103V66.642z"/>
	<path fill="#092452" d="M43.68,68.017c0.094-0.053,0.142-0.156,0.142-0.313v-1.703c0-0.241-0.009-0.398-0.026-0.472
		c-0.017-0.073-0.05-0.127-0.097-0.162c-0.03-0.022-0.087-0.05-0.171-0.084c-0.085-0.033-0.127-0.078-0.127-0.136
		c0-0.067,0.075-0.156,0.226-0.269c0.15-0.111,0.274-0.168,0.371-0.168c0.07,0,0.133,0.052,0.19,0.155
		c0.057,0.103,0.108,0.258,0.153,0.464c0.159-0.204,0.342-0.357,0.55-0.462c0.207-0.104,0.434-0.157,0.68-0.157
		c0.42,0,0.733,0.138,0.941,0.412s0.311,0.693,0.311,1.255v1.349c0,0.082,0.005,0.141,0.015,0.176
		c0.01,0.034,0.028,0.061,0.056,0.078c0.022,0.015,0.054,0.033,0.097,0.056c0.102,0.055,0.153,0.111,0.153,0.172
		c0,0.047-0.02,0.08-0.058,0.101c-0.039,0.02-0.104,0.029-0.196,0.029h-0.76c-0.092,0-0.157-0.009-0.196-0.028
		c-0.039-0.019-0.058-0.05-0.058-0.095c0-0.062,0.041-0.111,0.123-0.149c0.025-0.012,0.042-0.021,0.052-0.025
		c0.087-0.042,0.139-0.082,0.157-0.119c0.018-0.038,0.026-0.107,0.026-0.209V66.37c0-0.418-0.07-0.722-0.21-0.913
		c-0.14-0.191-0.362-0.287-0.665-0.287c-0.289,0-0.518,0.083-0.69,0.25c-0.171,0.166-0.257,0.391-0.257,0.674v1.704
		c0,0.052,0.003,0.091,0.011,0.117c0.007,0.026,0.021,0.048,0.041,0.065c0.022,0.015,0.058,0.034,0.108,0.06
		c0.097,0.05,0.146,0.103,0.146,0.16c0,0.052-0.02,0.088-0.058,0.108c-0.039,0.02-0.111,0.029-0.218,0.029h-0.708
		c-0.094,0-0.159-0.009-0.194-0.026c-0.035-0.017-0.052-0.047-0.052-0.089c0-0.037,0.008-0.068,0.026-0.092s0.06-0.054,0.127-0.091
		C43.649,68.035,43.663,68.027,43.68,68.017L43.68,68.017z"/>
	<path fill="#092452" d="M48.283,67.026c0.062,0.29,0.195,0.521,0.399,0.691c0.204,0.17,0.447,0.255,0.73,0.255
		c0.151,0,0.294-0.019,0.429-0.056c0.134-0.037,0.266-0.096,0.395-0.176c0.062-0.037,0.139-0.09,0.231-0.16
		c0.126-0.092,0.209-0.138,0.25-0.138s0.073,0.015,0.099,0.045c0.026,0.029,0.039,0.068,0.039,0.115c0,0.077-0.051,0.17-0.154,0.278
		c-0.104,0.107-0.24,0.212-0.412,0.311c-0.145,0.085-0.296,0.148-0.457,0.19c-0.16,0.042-0.329,0.063-0.505,0.063
		c-0.524,0-0.943-0.156-1.256-0.468c-0.313-0.312-0.47-0.729-0.47-1.251c0-0.571,0.186-1.05,0.557-1.437s0.829-0.58,1.374-0.58
		c0.415,0,0.734,0.086,0.958,0.258c0.223,0.171,0.335,0.413,0.335,0.727c0,0.37-0.207,0.663-0.621,0.878
		C49.791,66.788,49.15,66.939,48.283,67.026z M48.227,66.642c0.676-0.065,1.172-0.179,1.489-0.342
		c0.317-0.162,0.475-0.382,0.475-0.657c0-0.185-0.064-0.328-0.192-0.433s-0.304-0.156-0.527-0.156c-0.365,0-0.664,0.142-0.896,0.425
		s-0.349,0.65-0.349,1.103V66.642z"/>
	<path fill="#092452" d="M51.765,67.574v-1.641c0-0.156-0.012-0.267-0.036-0.331c-0.023-0.064-0.062-0.117-0.117-0.157
		c-0.04-0.032-0.1-0.065-0.179-0.101c-0.114-0.052-0.172-0.115-0.172-0.189c0-0.03,0.017-0.066,0.049-0.11
		c0.032-0.043,0.077-0.086,0.134-0.129c0.08-0.062,0.152-0.11,0.219-0.145c0.065-0.035,0.117-0.053,0.154-0.053
		c0.114,0,0.212,0.092,0.293,0.276c0.08,0.184,0.128,0.427,0.144,0.73c0.126-0.328,0.276-0.582,0.45-0.761
		c0.175-0.179,0.354-0.269,0.541-0.269c0.132,0,0.233,0.049,0.306,0.147s0.108,0.238,0.108,0.419c0,0.058-0.019,0.104-0.055,0.142
		c-0.036,0.038-0.082,0.057-0.14,0.057c-0.06,0-0.141-0.025-0.244-0.077c-0.104-0.051-0.176-0.076-0.218-0.076
		c-0.164,0-0.313,0.14-0.449,0.418s-0.203,0.617-0.203,1.018v0.815c0,0.157,0.009,0.259,0.028,0.306
		c0.019,0.048,0.051,0.081,0.099,0.101c0.037,0.016,0.096,0.033,0.175,0.053c0.151,0.04,0.228,0.101,0.228,0.183
		c0,0.05-0.02,0.085-0.058,0.106c-0.039,0.021-0.111,0.031-0.219,0.031h-0.954c-0.104,0-0.174-0.009-0.208-0.028
		c-0.035-0.019-0.053-0.053-0.053-0.102c0-0.065,0.056-0.125,0.168-0.18c0.06-0.029,0.103-0.053,0.131-0.07
		c0.029-0.021,0.05-0.05,0.062-0.09c0.011-0.039,0.017-0.106,0.017-0.201V67.574z"/>
	<path fill="#092452" d="M56.506,67.849c0.271,0.097,0.472,0.218,0.604,0.361c0.132,0.145,0.197,0.315,0.197,0.515
		c0,0.341-0.167,0.611-0.501,0.812S56.02,69.84,55.45,69.84c-0.486,0-0.863-0.059-1.129-0.177s-0.398-0.285-0.398-0.501
		c0-0.122,0.042-0.23,0.126-0.324c0.085-0.095,0.181-0.142,0.287-0.142c0.035,0,0.064,0.013,0.088,0.04s0.035,0.062,0.035,0.104
		c0,0.022-0.006,0.052-0.019,0.088s-0.019,0.061-0.019,0.072c0,0.114,0.09,0.203,0.271,0.265c0.18,0.062,0.436,0.094,0.766,0.094
		c0.397,0,0.704-0.054,0.921-0.162c0.216-0.108,0.324-0.263,0.324-0.464c0-0.137-0.049-0.256-0.147-0.358
		c-0.099-0.102-0.258-0.198-0.479-0.29c-0.149,0.029-0.274,0.051-0.375,0.064s-0.185,0.021-0.252,0.021
		c-0.467,0-0.849-0.16-1.144-0.48c-0.296-0.32-0.444-0.735-0.444-1.245c0-0.514,0.152-0.932,0.455-1.252
		c0.304-0.32,0.698-0.481,1.186-0.481c0.137,0,0.314,0.015,0.533,0.043c0.218,0.029,0.372,0.043,0.462,0.043
		c0.02,0,0.091-0.002,0.214-0.007s0.234-0.008,0.334-0.008c0.122,0,0.214,0.02,0.277,0.06s0.096,0.099,0.096,0.175
		c0,0.082-0.038,0.142-0.114,0.178c-0.075,0.036-0.205,0.054-0.39,0.054c-0.005,0-0.017-0.001-0.037-0.004
		c-0.069-0.002-0.136-0.004-0.197-0.004c0.149,0.145,0.264,0.319,0.345,0.524s0.121,0.424,0.121,0.657
		c0,0.291-0.054,0.557-0.162,0.796C56.876,67.458,56.717,67.668,56.506,67.849z M54.496,66.422c0,0.436,0.087,0.77,0.261,1.005
		c0.175,0.234,0.423,0.353,0.746,0.353c0.33,0,0.582-0.116,0.757-0.349c0.174-0.232,0.261-0.568,0.261-1.009
		c0-0.415-0.09-0.737-0.269-0.967s-0.429-0.345-0.749-0.345c-0.318,0-0.565,0.114-0.742,0.343
		C54.585,65.681,54.496,66.005,54.496,66.422z"/>
	<path fill="#092452" d="M59.637,68.024c-0.07,0.038-0.139,0.066-0.207,0.086c-0.068,0.021-0.138,0.03-0.207,0.03
		c-0.328,0-0.604-0.167-0.827-0.5s-0.401-0.841-0.533-1.524c-0.025-0.142-0.048-0.312-0.067-0.512c-0.02-0.2-0.04-0.321-0.06-0.364
		c-0.024-0.047-0.074-0.099-0.149-0.154c-0.074-0.056-0.111-0.112-0.111-0.17c0-0.042,0.022-0.071,0.067-0.087
		c0.044-0.017,0.136-0.024,0.275-0.024h0.503c0.172,0,0.279,0.01,0.324,0.029c0.045,0.021,0.067,0.059,0.067,0.116
		c0,0.06-0.038,0.11-0.115,0.152c-0.018,0.01-0.03,0.018-0.037,0.022c-0.082,0.05-0.136,0.102-0.161,0.156
		c-0.024,0.055-0.037,0.155-0.037,0.303c0,0.156,0.023,0.344,0.071,0.562c0.047,0.219,0.116,0.456,0.208,0.712
		c0.107,0.296,0.226,0.513,0.356,0.652c0.131,0.139,0.281,0.209,0.453,0.209c0.153,0,0.28-0.048,0.378-0.144
		c0.099-0.096,0.199-0.279,0.304-0.55c0.095-0.249,0.17-0.514,0.228-0.794c0.057-0.281,0.086-0.531,0.086-0.749
		c0-0.075-0.009-0.137-0.026-0.187s-0.045-0.09-0.082-0.119c-0.029-0.022-0.073-0.048-0.13-0.075
		c-0.098-0.045-0.146-0.098-0.146-0.16c0-0.052,0.021-0.088,0.062-0.108c0.041-0.02,0.127-0.029,0.259-0.029h0.406
		c0.134,0,0.226,0.013,0.275,0.037s0.075,0.068,0.075,0.131c0,0.027-0.024,0.071-0.073,0.134c-0.048,0.062-0.082,0.122-0.103,0.179
		c-0.024,0.067-0.063,0.27-0.117,0.605c-0.054,0.337-0.118,0.634-0.195,0.89c-0.269,0.899-0.648,1.628-1.139,2.186
		c-0.491,0.558-0.979,0.837-1.463,0.837c-0.135,0-0.239-0.028-0.315-0.086c-0.076-0.057-0.113-0.135-0.113-0.234
		c0-0.08,0.029-0.143,0.089-0.188s0.142-0.069,0.246-0.069c0.03,0,0.078,0.007,0.146,0.02c0.067,0.012,0.12,0.019,0.16,0.019
		c0.238,0,0.484-0.113,0.736-0.338S59.462,68.4,59.637,68.024z"/>
</g>
<g>
	<path fill="#092452" d="M78.093,57.705c0.158,0,0.312,0.041,0.464,0.122c0.15,0.081,0.268,0.197,0.353,0.349
		c0.084,0.151,0.126,0.309,0.126,0.474c0,0.162-0.042,0.318-0.124,0.469c-0.083,0.149-0.199,0.267-0.35,0.35
		c-0.149,0.083-0.306,0.124-0.469,0.124c-0.164,0-0.32-0.041-0.47-0.124s-0.267-0.2-0.35-0.35c-0.083-0.15-0.125-0.307-0.125-0.469
		c0-0.165,0.042-0.322,0.127-0.474c0.084-0.151,0.202-0.268,0.354-0.349C77.779,57.746,77.934,57.705,78.093,57.705z M78.093,57.861
		c-0.133,0-0.262,0.034-0.388,0.102c-0.125,0.068-0.224,0.165-0.294,0.292c-0.071,0.126-0.106,0.258-0.106,0.395
		c0,0.136,0.035,0.266,0.104,0.391c0.069,0.124,0.167,0.222,0.292,0.291s0.255,0.104,0.392,0.104c0.136,0,0.266-0.035,0.391-0.104
		s0.223-0.167,0.292-0.291c0.068-0.125,0.104-0.255,0.104-0.391c0-0.137-0.035-0.269-0.105-0.395
		c-0.07-0.127-0.169-0.224-0.295-0.292C78.353,57.895,78.224,57.861,78.093,57.861z M77.679,59.171v-1.016h0.349
		c0.119,0,0.205,0.009,0.259,0.028c0.054,0.019,0.096,0.051,0.128,0.098c0.031,0.047,0.047,0.097,0.047,0.149
		c0,0.074-0.026,0.139-0.079,0.193s-0.123,0.086-0.211,0.093c0.036,0.015,0.064,0.033,0.087,0.054
		c0.04,0.04,0.091,0.107,0.149,0.201l0.124,0.199h-0.2l-0.09-0.16c-0.071-0.126-0.128-0.205-0.172-0.236
		c-0.029-0.023-0.073-0.035-0.131-0.035h-0.097v0.432H77.679z M77.842,58.598h0.199c0.095,0,0.16-0.014,0.194-0.042
		c0.035-0.028,0.052-0.066,0.052-0.112c0-0.03-0.008-0.058-0.024-0.081s-0.04-0.041-0.069-0.053
		c-0.03-0.012-0.085-0.018-0.165-0.018h-0.187V58.598z"/>
</g>
</svg>
