<?xml version="1.0" encoding="utf-8"?>
<!-- Generator: Adobe Illustrator 16.0.0, SVG Export Plug-In . SVG Version: 6.00 Build 0)  -->
<!DOCTYPE svg PUBLIC "-//W3C//DTD SVG 1.1//EN" "http://www.w3.org/Graphics/SVG/1.1/DTD/svg11.dtd">
<svg version="1.1" id="Capa_1" xmlns="http://www.w3.org/2000/svg" xmlns:xlink="http://www.w3.org/1999/xlink" x="0px" y="0px"
	 width="100px" height="76.77px" viewBox="0 0 100 76.77" enable-background="new 0 0 100 76.77" xml:space="preserve">
<g>
	<g>
		<circle fill-rule="evenodd" clip-rule="evenodd" fill="#D81F26" cx="55.379" cy="29.787" r="2.467"/>
		<circle fill-rule="evenodd" clip-rule="evenodd" fill="#D81F26" cx="52.006" cy="26.524" r="1.65"/>
		<circle fill-rule="evenodd" clip-rule="evenodd" fill="#D81F26" cx="65.463" cy="40.237" r="4.103"/>
		<circle fill-rule="evenodd" clip-rule="evenodd" fill="#D81F26" cx="59.93" cy="34.367" r="3.266"/>
	</g>
	<g>
		<circle fill-rule="evenodd" clip-rule="evenodd" fill="#D81F26" cx="43.884" cy="29.837" r="2.467"/>
		<circle fill-rule="evenodd" clip-rule="evenodd" fill="#D81F26" cx="47.207" cy="26.524" r="1.65"/>
		<circle fill-rule="evenodd" clip-rule="evenodd" fill="#D81F26" cx="33.743" cy="40.237" r="4.103"/>
		<circle fill-rule="evenodd" clip-rule="evenodd" fill="#D81F26" cx="39.361" cy="34.521" r="3.266"/>
	</g>
	<g>
		<circle fill-rule="evenodd" clip-rule="evenodd" fill="#D81F26" cx="55.285" cy="18.42" r="2.467"/>
		<circle fill-rule="evenodd" clip-rule="evenodd" fill="#D81F26" cx="51.986" cy="21.718" r="1.65"/>
		<circle fill-rule="evenodd" clip-rule="evenodd" fill="#D81F26" cx="65.621" cy="8.24" r="4.103"/>
		<circle fill-rule="evenodd" clip-rule="evenodd" fill="#D81F26" cx="59.893" cy="13.901" r="3.266"/>
	</g>
	<g>
		<circle fill-rule="evenodd" clip-rule="evenodd" fill="#D81F26" cx="43.962" cy="18.346" r="2.467"/>
		<circle fill-rule="evenodd" clip-rule="evenodd" fill="#D81F26" cx="47.18" cy="21.698" r="1.65"/>
		<circle fill-rule="evenodd" clip-rule="evenodd" fill="#D81F26" cx="33.427" cy="8.268" r="4.103"/>
		<circle fill-rule="evenodd" clip-rule="evenodd" fill="#D81F26" cx="39.239" cy="13.84" r="3.266"/>
	</g>
</g>
<g>
	<path fill="#092452" d="M24.872,57.347c0.185,0.864,0.58,1.55,1.186,2.056c0.606,0.507,1.33,0.76,2.173,0.76
		c0.451,0,0.875-0.056,1.275-0.166c0.399-0.111,0.791-0.285,1.175-0.521c0.185-0.11,0.414-0.27,0.688-0.477
		c0.376-0.273,0.624-0.41,0.743-0.41c0.118,0,0.216,0.045,0.293,0.133c0.078,0.089,0.117,0.204,0.117,0.344
		c0,0.229-0.154,0.505-0.46,0.826s-0.715,0.63-1.225,0.926c-0.429,0.251-0.881,0.439-1.358,0.565
		c-0.477,0.125-0.978,0.188-1.502,0.188c-1.56,0-2.805-0.464-3.736-1.392s-1.397-2.167-1.397-3.719c0-1.7,0.553-3.124,1.657-4.273
		c1.105-1.149,2.467-1.724,4.085-1.724c1.234,0,2.184,0.255,2.849,0.765s0.998,1.23,0.998,2.161c0,1.102-0.615,1.972-1.846,2.611
		C29.356,56.639,27.451,57.088,24.872,57.347z M24.706,56.205c2.01-0.192,3.486-0.53,4.429-1.015s1.414-1.136,1.414-1.956
		c0-0.547-0.19-0.976-0.571-1.286c-0.38-0.311-0.903-0.466-1.568-0.466c-1.086,0-1.975,0.421-2.666,1.264s-1.037,1.937-1.037,3.281
		V56.205z"/>
	<path fill="#092452" d="M35.525,59.098c0.842-1.182,1.674-2.221,2.494-3.114c-0.673-0.739-1.354-1.572-2.045-2.5
		s-1.099-1.45-1.225-1.568c-0.096-0.089-0.29-0.205-0.582-0.35c-0.292-0.144-0.438-0.297-0.438-0.46
		c0-0.141,0.052-0.236,0.155-0.288s0.321-0.077,0.654-0.077h2.206c0.347,0,0.578,0.025,0.693,0.077
		c0.114,0.052,0.172,0.147,0.172,0.288c0,0.089-0.098,0.218-0.294,0.388c-0.196,0.171-0.293,0.325-0.293,0.466
		c0,0.207,0.187,0.562,0.56,1.064s0.896,1.094,1.568,1.773c0.606-0.605,1.098-1.175,1.475-1.707s0.565-0.909,0.565-1.131
		c0-0.125-0.113-0.27-0.338-0.433c-0.226-0.162-0.338-0.303-0.338-0.421c0-0.141,0.061-0.236,0.183-0.288
		c0.122-0.052,0.372-0.077,0.749-0.077h1.563c0.303,0,0.504,0.021,0.604,0.066c0.1,0.044,0.15,0.125,0.15,0.243
		c0,0.163-0.129,0.309-0.388,0.438c-0.259,0.129-0.44,0.249-0.543,0.36c-0.074,0.073-0.412,0.539-1.015,1.396
		c-0.602,0.857-1.232,1.633-1.89,2.328c0.716,0.775,1.476,1.659,2.278,2.649s1.292,1.559,1.469,1.707
		c0.096,0.088,0.294,0.214,0.593,0.377c0.299,0.162,0.449,0.332,0.449,0.51c0,0.162-0.065,0.275-0.194,0.338
		c-0.129,0.062-0.375,0.094-0.737,0.094h-2.317c-0.259,0-0.449-0.038-0.571-0.116c-0.122-0.077-0.183-0.197-0.183-0.36
		c0-0.133,0.089-0.282,0.266-0.448c0.178-0.167,0.266-0.298,0.266-0.394c0-0.259-0.218-0.658-0.654-1.197
		c-0.436-0.54-1.061-1.183-1.874-1.929c-0.665,0.746-1.171,1.368-1.519,1.867c-0.348,0.499-0.521,0.859-0.521,1.081
		c0,0.199,0.137,0.381,0.41,0.543c0.273,0.163,0.41,0.329,0.41,0.499c0,0.163-0.068,0.279-0.205,0.35s-0.357,0.104-0.66,0.104
		h-2.317c-0.222,0-0.382-0.036-0.482-0.11c-0.1-0.074-0.15-0.188-0.15-0.344c0-0.214,0.196-0.406,0.587-0.576
		c0.392-0.17,0.647-0.325,0.765-0.466C35.118,59.656,35.281,59.438,35.525,59.098L35.525,59.098z"/>
	<path fill="#092452" d="M53.184,59.497c-0.488,0.688-1.087,1.204-1.796,1.552c-0.71,0.348-1.526,0.521-2.45,0.521
		c-1.102,0-1.975-0.294-2.622-0.882c-0.646-0.587-0.97-1.376-0.97-2.366c0-1.353,0.599-2.391,1.796-3.115s2.922-1.086,5.176-1.086
		h0.499c-0.089-0.783-0.419-1.396-0.992-1.835c-0.572-0.439-1.324-0.659-2.255-0.659c-0.532,0-1.102,0.177-1.708,0.531
		c-0.606,0.355-0.998,0.532-1.175,0.532c-0.207,0-0.379-0.057-0.516-0.172c-0.137-0.114-0.205-0.26-0.205-0.438
		c0-0.466,0.344-0.852,1.031-1.158c0.687-0.307,1.585-0.46,2.693-0.46c1.825,0,3.143,0.427,3.952,1.28
		c0.809,0.854,1.214,2.252,1.214,4.195v3.381c0,0.163,0.021,0.294,0.066,0.394c0.044,0.1,0.159,0.228,0.344,0.383
		c0.066,0.044,0.173,0.1,0.321,0.166c0.332,0.148,0.499,0.325,0.499,0.532c0,0.222-0.12,0.371-0.36,0.449
		c-0.24,0.077-0.841,0.116-1.802,0.116c-0.28,0-0.475-0.054-0.582-0.161c-0.106-0.106-0.16-0.301-0.16-0.582V59.497z M53.051,55.141
		h-0.3c-1.729,0-3.065,0.271-4.007,0.814c-0.942,0.543-1.413,1.311-1.413,2.301c0,0.599,0.205,1.088,0.615,1.469
		c0.41,0.38,0.944,0.57,1.602,0.57c0.37,0,0.733-0.048,1.092-0.144c0.358-0.097,0.678-0.229,0.959-0.399
		c0.546-0.34,0.925-0.702,1.136-1.086c0.211-0.385,0.316-0.924,0.316-1.619V55.141z"/>
	<path fill="#092452" d="M58.183,58.976v-4.877c0-0.466-0.035-0.794-0.105-0.986s-0.187-0.348-0.349-0.466
		c-0.118-0.096-0.296-0.195-0.532-0.3c-0.34-0.154-0.51-0.343-0.51-0.564c0-0.089,0.048-0.198,0.144-0.327
		c0.097-0.13,0.229-0.257,0.399-0.383c0.236-0.185,0.452-0.329,0.648-0.433c0.195-0.103,0.35-0.155,0.46-0.155
		c0.34,0,0.63,0.274,0.87,0.82c0.24,0.548,0.383,1.271,0.427,2.173c0.377-0.976,0.824-1.729,1.342-2.261
		c0.517-0.532,1.053-0.799,1.607-0.799c0.392,0,0.694,0.146,0.908,0.438c0.215,0.292,0.321,0.707,0.321,1.247
		c0,0.17-0.054,0.311-0.16,0.421c-0.107,0.111-0.246,0.166-0.416,0.166c-0.177,0-0.419-0.075-0.726-0.227s-0.523-0.228-0.648-0.228
		c-0.488,0-0.934,0.414-1.336,1.241c-0.403,0.828-0.604,1.837-0.604,3.026v2.428c0,0.466,0.028,0.769,0.083,0.909
		c0.056,0.141,0.153,0.24,0.294,0.299c0.111,0.045,0.284,0.097,0.521,0.155c0.45,0.118,0.676,0.3,0.676,0.543
		c0,0.148-0.058,0.254-0.172,0.316s-0.331,0.094-0.648,0.094h-2.838c-0.311,0-0.518-0.027-0.62-0.083
		c-0.104-0.055-0.155-0.156-0.155-0.305c0-0.192,0.166-0.369,0.498-0.532c0.178-0.089,0.307-0.158,0.389-0.21
		c0.089-0.06,0.149-0.148,0.183-0.267s0.05-0.317,0.05-0.599V58.976z"/>
	<path fill="#092452" d="M65.854,53.256c0-0.266-0.027-0.45-0.083-0.554s-0.165-0.207-0.327-0.311
		c-0.066-0.045-0.166-0.1-0.299-0.166c-0.267-0.134-0.399-0.273-0.399-0.422c0-0.11,0.039-0.21,0.116-0.299
		c0.078-0.089,0.213-0.185,0.404-0.288l0.155-0.089c0.902-0.473,1.501-0.71,1.796-0.71c0.155,0,0.263,0.07,0.321,0.211
		c0.06,0.141,0.089,0.466,0.089,0.976v7.781c0,0.192,0.022,0.352,0.066,0.478c0.045,0.125,0.111,0.21,0.2,0.255
		c0.104,0.044,0.229,0.096,0.377,0.155c0.384,0.154,0.576,0.336,0.576,0.543c0,0.162-0.062,0.275-0.188,0.338
		s-0.362,0.094-0.71,0.094h-2.383c-0.317,0-0.534-0.031-0.648-0.094s-0.172-0.168-0.172-0.316c0-0.11,0.029-0.206,0.089-0.288
		c0.059-0.081,0.166-0.158,0.321-0.232c0.059-0.029,0.141-0.066,0.244-0.111c0.303-0.125,0.454-0.384,0.454-0.775V53.256z
		 M65.244,47.215c0-0.34,0.12-0.617,0.36-0.831c0.24-0.215,0.552-0.322,0.937-0.322c0.377,0,0.682,0.107,0.914,0.322
		c0.233,0.214,0.35,0.491,0.35,0.831c0,0.354-0.118,0.638-0.354,0.848c-0.237,0.211-0.547,0.316-0.932,0.316
		c-0.392,0-0.702-0.105-0.931-0.316C65.358,47.853,65.244,47.57,65.244,47.215z"/>
	<path fill="#092452" d="M69.7,59.187c0-0.214,0.068-0.39,0.205-0.526s0.309-0.205,0.516-0.205c0.229,0,0.502,0.199,0.82,0.599
		c0.096,0.11,0.17,0.199,0.222,0.266c0.303,0.34,0.643,0.596,1.02,0.766s0.802,0.255,1.274,0.255c0.666,0,1.211-0.174,1.636-0.521
		s0.637-0.794,0.637-1.341c0-0.769-0.872-1.364-2.615-1.785c-0.097-0.022-0.174-0.04-0.233-0.056
		c-1.086-0.266-1.862-0.624-2.328-1.075c-0.465-0.45-0.698-1.061-0.698-1.829c0-0.99,0.333-1.782,0.998-2.377
		c0.665-0.596,1.556-0.893,2.672-0.893c1.063,0,1.886,0.153,2.466,0.46s0.87,0.737,0.87,1.291c0,0.407-0.029,0.679-0.089,0.815
		c-0.059,0.137-0.173,0.205-0.343,0.205c-0.2,0-0.437-0.163-0.71-0.488c-0.11-0.125-0.199-0.222-0.266-0.288
		c-0.281-0.288-0.614-0.51-0.998-0.665c-0.385-0.155-0.798-0.232-1.241-0.232c-0.532,0-0.976,0.153-1.33,0.46
		c-0.355,0.307-0.532,0.688-0.532,1.146c0,0.385,0.116,0.688,0.349,0.909c0.233,0.222,0.682,0.425,1.347,0.61
		c0.215,0.059,0.518,0.137,0.909,0.232c0.969,0.229,1.611,0.447,1.929,0.654c0.458,0.295,0.8,0.643,1.025,1.042
		c0.226,0.398,0.339,0.854,0.339,1.363c0,1.071-0.36,1.938-1.081,2.6c-0.721,0.661-1.669,0.992-2.844,0.992
		c-0.997,0-1.9-0.269-2.71-0.804C70.104,60.231,69.7,59.704,69.7,59.187z"/>
</g>
<g>
	<path fill="#092452" d="M39.05,69.365c0.065,0.306,0.205,0.548,0.418,0.727s0.47,0.268,0.767,0.268c0.159,0,0.309-0.02,0.45-0.059
		c0.141-0.039,0.279-0.101,0.415-0.184c0.065-0.039,0.146-0.096,0.243-0.168c0.133-0.097,0.22-0.146,0.262-0.146
		c0.042,0,0.076,0.016,0.104,0.047s0.041,0.072,0.041,0.122c0,0.08-0.054,0.178-0.162,0.291s-0.252,0.223-0.433,0.327
		c-0.151,0.089-0.311,0.155-0.479,0.199c-0.168,0.044-0.345,0.066-0.53,0.066c-0.551,0-0.99-0.163-1.319-0.491
		c-0.329-0.327-0.493-0.765-0.493-1.312c0-0.601,0.195-1.103,0.585-1.509c0.39-0.405,0.871-0.608,1.442-0.608
		c0.436,0,0.771,0.09,1.006,0.27c0.235,0.181,0.352,0.435,0.352,0.764c0,0.389-0.217,0.696-0.651,0.922S39.96,69.275,39.05,69.365z
		 M38.991,68.963c0.71-0.068,1.231-0.188,1.563-0.358s0.499-0.401,0.499-0.69c0-0.193-0.067-0.345-0.202-0.454
		s-0.319-0.164-0.554-0.164c-0.383,0-0.697,0.148-0.941,0.445c-0.244,0.298-0.366,0.684-0.366,1.159V68.963z"/>
	<path fill="#092452" d="M42.604,70.406c0.099-0.055,0.148-0.164,0.148-0.328v-1.789c0-0.253-0.009-0.418-0.027-0.494
		c-0.018-0.077-0.052-0.134-0.102-0.171c-0.031-0.023-0.091-0.053-0.18-0.088s-0.133-0.083-0.133-0.143
		c0-0.07,0.079-0.164,0.236-0.282c0.158-0.117,0.288-0.176,0.39-0.176c0.073,0,0.14,0.054,0.2,0.162
		c0.06,0.108,0.113,0.271,0.16,0.487c0.167-0.214,0.359-0.376,0.577-0.485s0.456-0.164,0.714-0.164c0.441,0,0.77,0.145,0.988,0.433
		c0.218,0.288,0.327,0.728,0.327,1.316v1.417c0,0.086,0.005,0.147,0.016,0.184c0.01,0.037,0.03,0.064,0.059,0.082
		c0.023,0.016,0.058,0.035,0.102,0.059c0.107,0.058,0.161,0.118,0.161,0.181c0,0.05-0.02,0.085-0.061,0.105
		s-0.109,0.031-0.206,0.031h-0.798c-0.097,0-0.165-0.01-0.206-0.029s-0.061-0.053-0.061-0.1c0-0.065,0.043-0.117,0.129-0.157
		c0.026-0.013,0.044-0.021,0.055-0.027c0.091-0.044,0.146-0.086,0.164-0.125c0.019-0.039,0.028-0.112,0.028-0.219v-1.409
		c0-0.438-0.074-0.758-0.221-0.959c-0.147-0.2-0.38-0.301-0.699-0.301c-0.303,0-0.544,0.087-0.724,0.262
		c-0.18,0.175-0.27,0.411-0.27,0.709v1.788c0,0.055,0.004,0.096,0.012,0.123c0.008,0.027,0.022,0.051,0.043,0.068
		c0.023,0.016,0.061,0.037,0.113,0.062c0.102,0.053,0.153,0.108,0.153,0.169c0,0.055-0.021,0.093-0.061,0.113
		c-0.04,0.021-0.117,0.031-0.229,0.031h-0.744c-0.099,0-0.167-0.009-0.204-0.027s-0.055-0.05-0.055-0.094
		c0-0.039,0.009-0.071,0.027-0.096c0.018-0.025,0.062-0.057,0.133-0.097C42.571,70.425,42.585,70.417,42.604,70.406L42.604,70.406z"
		/>
	<path fill="#092452" d="M47.436,69.365c0.065,0.306,0.205,0.548,0.419,0.727s0.47,0.268,0.767,0.268c0.159,0,0.309-0.02,0.45-0.059
		c0.141-0.039,0.279-0.101,0.415-0.184c0.065-0.039,0.146-0.096,0.243-0.168c0.133-0.097,0.22-0.146,0.262-0.146
		c0.042,0,0.076,0.016,0.104,0.047s0.041,0.072,0.041,0.122c0,0.08-0.054,0.178-0.162,0.291c-0.108,0.113-0.252,0.223-0.433,0.327
		c-0.151,0.089-0.311,0.155-0.479,0.199c-0.168,0.044-0.345,0.066-0.53,0.066c-0.55,0-0.99-0.163-1.318-0.491
		c-0.329-0.327-0.493-0.765-0.493-1.312c0-0.601,0.195-1.103,0.585-1.509c0.39-0.405,0.871-0.608,1.442-0.608
		c0.436,0,0.771,0.09,1.006,0.27c0.235,0.181,0.352,0.435,0.352,0.764c0,0.389-0.217,0.696-0.651,0.922
		C49.019,69.116,48.347,69.275,47.436,69.365z M47.377,68.963c0.709-0.068,1.231-0.188,1.563-0.358s0.499-0.401,0.499-0.69
		c0-0.193-0.067-0.345-0.202-0.454s-0.319-0.164-0.554-0.164c-0.383,0-0.697,0.148-0.941,0.445
		c-0.244,0.298-0.366,0.684-0.366,1.159V68.963z"/>
	<path fill="#092452" d="M51.091,69.942v-1.723c0-0.164-0.012-0.28-0.037-0.348c-0.024-0.068-0.065-0.123-0.123-0.165
		c-0.042-0.033-0.104-0.068-0.188-0.105c-0.12-0.055-0.181-0.121-0.181-0.199c0-0.031,0.018-0.07,0.052-0.115
		c0.033-0.046,0.08-0.091,0.141-0.136c0.083-0.064,0.159-0.115,0.229-0.152c0.069-0.036,0.123-0.055,0.163-0.055
		c0.119,0,0.222,0.097,0.307,0.29c0.085,0.192,0.135,0.448,0.15,0.767c0.134-0.345,0.291-0.61,0.474-0.799
		c0.183-0.188,0.372-0.281,0.567-0.281c0.139,0,0.245,0.052,0.321,0.154c0.075,0.104,0.113,0.25,0.113,0.44
		c0,0.061-0.019,0.109-0.057,0.148s-0.087,0.059-0.146,0.059c-0.062,0-0.148-0.026-0.257-0.08c-0.108-0.053-0.185-0.08-0.229-0.08
		c-0.172,0-0.329,0.146-0.472,0.438s-0.213,0.648-0.213,1.068v0.857c0,0.164,0.01,0.271,0.029,0.32s0.054,0.085,0.104,0.105
		c0.039,0.016,0.101,0.034,0.184,0.055c0.159,0.042,0.239,0.106,0.239,0.192c0,0.052-0.021,0.089-0.061,0.111
		c-0.041,0.022-0.117,0.033-0.229,0.033H50.97c-0.109,0-0.183-0.01-0.219-0.029c-0.037-0.02-0.055-0.056-0.055-0.107
		c0-0.068,0.059-0.131,0.176-0.188c0.062-0.031,0.108-0.056,0.137-0.074c0.031-0.021,0.053-0.052,0.064-0.094
		s0.018-0.112,0.018-0.211V69.942z"/>
	<path fill="#092452" d="M56.069,70.231c0.284,0.102,0.495,0.229,0.634,0.38c0.138,0.151,0.207,0.331,0.207,0.54
		c0,0.357-0.176,0.642-0.526,0.853c-0.351,0.212-0.825,0.317-1.422,0.317c-0.512,0-0.907-0.062-1.187-0.186
		c-0.278-0.124-0.418-0.3-0.418-0.526c0-0.128,0.044-0.242,0.133-0.341c0.089-0.1,0.189-0.148,0.301-0.148
		c0.037,0,0.067,0.014,0.093,0.043c0.024,0.028,0.037,0.065,0.037,0.109c0,0.023-0.007,0.054-0.02,0.092
		c-0.014,0.038-0.02,0.063-0.02,0.076c0,0.12,0.094,0.213,0.283,0.278s0.457,0.098,0.805,0.098c0.417,0,0.739-0.057,0.966-0.17
		c0.228-0.114,0.341-0.276,0.341-0.487c0-0.144-0.052-0.269-0.154-0.376c-0.104-0.106-0.271-0.209-0.503-0.305
		c-0.156,0.031-0.288,0.054-0.394,0.068c-0.105,0.014-0.193,0.021-0.264,0.021c-0.491,0-0.892-0.169-1.202-0.505
		c-0.311-0.337-0.465-0.772-0.465-1.308c0-0.54,0.158-0.978,0.477-1.314s0.733-0.505,1.245-0.505c0.144,0,0.33,0.015,0.56,0.045
		s0.391,0.045,0.485,0.045c0.021,0,0.096-0.002,0.225-0.008c0.129-0.005,0.246-0.008,0.351-0.008c0.128,0,0.225,0.021,0.291,0.062
		c0.066,0.042,0.1,0.104,0.1,0.185c0,0.086-0.039,0.147-0.119,0.186c-0.079,0.038-0.216,0.057-0.409,0.057
		c-0.005,0-0.018-0.001-0.039-0.004c-0.072-0.003-0.142-0.004-0.207-0.004c0.156,0.151,0.277,0.335,0.362,0.55
		c0.084,0.215,0.127,0.445,0.127,0.69c0,0.306-0.057,0.584-0.17,0.836C56.458,69.82,56.291,70.04,56.069,70.231z M53.96,68.732
		c0,0.457,0.091,0.809,0.273,1.055c0.183,0.247,0.443,0.37,0.783,0.37c0.347,0,0.611-0.122,0.794-0.366
		c0.183-0.243,0.274-0.597,0.274-1.059c0-0.436-0.095-0.773-0.282-1.016c-0.188-0.241-0.45-0.361-0.786-0.361
		c-0.334,0-0.594,0.12-0.779,0.359C54.053,67.954,53.96,68.293,53.96,68.732z"/>
	<path fill="#092452" d="M59.356,70.414c-0.073,0.039-0.146,0.069-0.218,0.091c-0.071,0.021-0.144,0.031-0.217,0.031
		c-0.345,0-0.634-0.175-0.869-0.524c-0.234-0.35-0.421-0.884-0.56-1.601c-0.025-0.149-0.05-0.328-0.07-0.538
		s-0.042-0.338-0.062-0.382c-0.026-0.05-0.078-0.104-0.156-0.162s-0.117-0.118-0.117-0.179c0-0.044,0.023-0.074,0.07-0.092
		c0.047-0.017,0.144-0.025,0.289-0.025h0.528c0.18,0,0.294,0.011,0.341,0.031c0.047,0.021,0.07,0.062,0.07,0.121
		c0,0.063-0.041,0.116-0.121,0.161c-0.019,0.01-0.031,0.018-0.039,0.023c-0.087,0.052-0.143,0.106-0.169,0.164
		c-0.025,0.058-0.039,0.163-0.039,0.317c0,0.164,0.025,0.361,0.074,0.591c0.05,0.229,0.123,0.479,0.22,0.747
		c0.112,0.311,0.236,0.539,0.373,0.685c0.138,0.146,0.296,0.22,0.476,0.22c0.162,0,0.295-0.051,0.397-0.15
		c0.104-0.101,0.209-0.293,0.319-0.578c0.099-0.261,0.179-0.538,0.238-0.833c0.061-0.295,0.09-0.557,0.09-0.787
		c0-0.078-0.009-0.143-0.027-0.195c-0.018-0.052-0.047-0.094-0.086-0.125c-0.031-0.023-0.077-0.05-0.137-0.078
		c-0.102-0.047-0.152-0.104-0.152-0.169c0-0.055,0.021-0.092,0.064-0.113c0.043-0.021,0.134-0.031,0.271-0.031h0.427
		c0.141,0,0.237,0.014,0.289,0.039c0.053,0.026,0.079,0.072,0.079,0.137c0,0.029-0.025,0.076-0.077,0.142
		c-0.051,0.065-0.086,0.128-0.107,0.188c-0.025,0.07-0.067,0.282-0.123,0.636s-0.125,0.665-0.205,0.934
		c-0.282,0.944-0.681,1.709-1.196,2.295c-0.515,0.586-1.026,0.879-1.535,0.879c-0.142,0-0.252-0.03-0.331-0.09
		c-0.079-0.061-0.119-0.143-0.119-0.247c0-0.083,0.031-0.149,0.094-0.197c0.062-0.049,0.148-0.072,0.258-0.072
		c0.032,0,0.083,0.006,0.153,0.02c0.07,0.013,0.126,0.02,0.168,0.02c0.251,0,0.508-0.118,0.772-0.354
		C58.95,71.123,59.174,70.809,59.356,70.414z"/>
</g>
<g>
	<path fill="#092452" d="M78.734,59.58c0.166,0,0.328,0.041,0.487,0.127c0.158,0.086,0.281,0.207,0.37,0.367
		c0.088,0.158,0.133,0.324,0.133,0.496c0,0.17-0.044,0.334-0.131,0.492s-0.209,0.279-0.366,0.367s-0.321,0.131-0.493,0.131
		s-0.336-0.043-0.493-0.131s-0.279-0.209-0.367-0.367c-0.087-0.158-0.131-0.322-0.131-0.492c0-0.172,0.045-0.338,0.133-0.496
		c0.089-0.16,0.213-0.281,0.371-0.367S78.568,59.58,78.734,59.58z M78.734,59.744c-0.14,0-0.274,0.035-0.406,0.105
		c-0.132,0.072-0.235,0.174-0.31,0.307s-0.111,0.271-0.111,0.414s0.036,0.279,0.109,0.41s0.176,0.232,0.307,0.307
		c0.132,0.072,0.269,0.109,0.411,0.109s0.279-0.037,0.411-0.109c0.131-0.074,0.233-0.176,0.306-0.307s0.109-0.268,0.109-0.41
		s-0.037-0.281-0.111-0.414s-0.177-0.234-0.31-0.307C79.008,59.78,78.873,59.744,78.734,59.744z M78.3,61.117v-1.064h0.366
		c0.125,0,0.216,0.01,0.271,0.029c0.057,0.02,0.101,0.053,0.134,0.102c0.034,0.051,0.051,0.102,0.051,0.156
		c0,0.078-0.028,0.146-0.084,0.205c-0.056,0.057-0.129,0.09-0.221,0.096c0.037,0.016,0.067,0.035,0.09,0.057
		c0.043,0.043,0.096,0.113,0.158,0.211l0.13,0.209h-0.21l-0.095-0.168c-0.074-0.131-0.135-0.215-0.18-0.248
		c-0.031-0.023-0.078-0.037-0.138-0.037h-0.102v0.453H78.3z M78.472,60.518h0.209c0.1,0,0.168-0.014,0.204-0.045
		c0.036-0.029,0.055-0.068,0.055-0.117c0-0.031-0.009-0.061-0.026-0.086c-0.018-0.023-0.042-0.043-0.073-0.055
		s-0.089-0.02-0.173-0.02h-0.195V60.518z"/>
</g>
</svg>
