<?xml version="1.0" encoding="utf-8"?>
<!-- Generator: Adobe Illustrator 16.0.0, SVG Export Plug-In . SVG Version: 6.00 Build 0)  -->
<!DOCTYPE svg PUBLIC "-//W3C//DTD SVG 1.1//EN" "http://www.w3.org/Graphics/SVG/1.1/DTD/svg11.dtd">
<svg version="1.1" id="Capa_1" xmlns="http://www.w3.org/2000/svg" xmlns:xlink="http://www.w3.org/1999/xlink" x="0px" y="0px"
	 width="100px" height="72.025px" viewBox="0 0 100 72.025" enable-background="new 0 0 100 72.025" xml:space="preserve">
<g>
	<g>
		<circle fill="#D81F26" cx="55.85" cy="29.329" r="2.351"/>
		<circle fill="#D81F26" cx="52.637" cy="26.221" r="1.572"/>
		<circle fill="#D81F26" cx="65.454" cy="39.282" r="3.908"/>
		<circle fill="#D81F26" cx="60.184" cy="33.691" r="3.11"/>
	</g>
	<g>
		<circle fill="#D81F26" cx="44.899" cy="29.376" r="2.35"/>
		<circle fill="#D81F26" cx="48.064" cy="26.221" r="1.571"/>
		<circle fill="#D81F26" cx="35.241" cy="39.282" r="3.908"/>
		<circle fill="#D81F26" cx="40.592" cy="33.839" r="3.111"/>
	</g>
	<g>
		<circle fill="#D81F26" cx="55.759" cy="18.503" r="2.349"/>
		<circle fill="#D81F26" cx="52.617" cy="21.644" r="1.572"/>
		<circle fill="#D81F26" cx="65.604" cy="8.806" r="3.908"/>
		<circle fill="#D81F26" cx="60.148" cy="14.198" r="3.111"/>
	</g>
	<g>
		<circle fill="#D81F26" cx="44.974" cy="18.432" r="2.349"/>
		<circle fill="#D81F26" cx="48.039" cy="21.625" r="1.571"/>
		<circle fill="#D81F26" cx="34.94" cy="8.833" r="3.908"/>
		<circle fill="#D81F26" cx="40.475" cy="14.14" r="3.11"/>
	</g>
</g>
<g>
	<path fill="#FFFFFF" d="M26.792,55.578c0.176,0.823,0.553,1.478,1.13,1.959c0.577,0.481,1.267,0.723,2.069,0.723
		c0.429,0,0.834-0.053,1.214-0.157c0.38-0.105,0.753-0.271,1.119-0.496c0.176-0.105,0.394-0.257,0.654-0.454
		c0.359-0.261,0.595-0.392,0.708-0.392s0.206,0.043,0.28,0.128c0.074,0.084,0.111,0.192,0.111,0.326c0,0.219-0.146,0.48-0.438,0.786
		c-0.292,0.308-0.681,0.602-1.167,0.882c-0.408,0.239-0.839,0.419-1.293,0.538c-0.454,0.12-0.931,0.181-1.431,0.181
		c-1.485,0-2.671-0.441-3.558-1.325c-0.887-0.883-1.331-2.063-1.331-3.542c0-1.618,0.526-2.977,1.579-4.07
		c1.052-1.094,2.349-1.642,3.891-1.642c1.175,0,2.08,0.243,2.713,0.729c0.634,0.486,0.95,1.172,0.95,2.06
		c0,1.049-0.586,1.878-1.758,2.486C31.062,54.904,29.248,55.332,26.792,55.578z M26.633,54.491c1.915-0.184,3.32-0.506,4.218-0.967
		s1.346-1.082,1.346-1.863c0-0.521-0.181-0.929-0.543-1.225c-0.363-0.296-0.861-0.443-1.494-0.443c-1.035,0-1.881,0.401-2.539,1.203
		c-0.658,0.803-0.987,1.845-0.987,3.126L26.633,54.491L26.633,54.491z"/>
	<path fill="#FFFFFF" d="M36.938,57.246c0.802-1.126,1.594-2.115,2.375-2.967c-0.641-0.703-1.29-1.497-1.948-2.381
		c-0.658-0.883-1.047-1.381-1.167-1.493c-0.091-0.085-0.276-0.196-0.554-0.333c-0.278-0.138-0.417-0.283-0.417-0.438
		c0-0.134,0.049-0.225,0.148-0.273c0.098-0.049,0.306-0.074,0.623-0.074H38.1c0.331,0,0.55,0.025,0.66,0.074
		c0.109,0.05,0.164,0.141,0.164,0.273c0,0.085-0.093,0.208-0.28,0.37s-0.28,0.311-0.28,0.443c0,0.197,0.178,0.535,0.533,1.014
		c0.355,0.479,0.854,1.041,1.494,1.688c0.577-0.576,1.045-1.119,1.404-1.625c0.359-0.507,0.538-0.866,0.538-1.077
		c0-0.12-0.107-0.257-0.322-0.412c-0.215-0.154-0.322-0.288-0.322-0.401c0-0.134,0.058-0.225,0.174-0.273
		c0.116-0.049,0.354-0.074,0.713-0.074h1.488c0.289,0,0.48,0.021,0.576,0.063c0.095,0.043,0.143,0.119,0.143,0.231
		c0,0.155-0.124,0.294-0.37,0.417c-0.247,0.123-0.419,0.238-0.518,0.344c-0.07,0.07-0.392,0.515-0.966,1.33
		c-0.574,0.816-1.174,1.557-1.8,2.218c0.683,0.738,1.406,1.579,2.17,2.522c0.764,0.943,1.23,1.485,1.399,1.626
		c0.091,0.085,0.28,0.204,0.565,0.359c0.285,0.153,0.427,0.315,0.427,0.484c0,0.155-0.062,0.264-0.185,0.322
		c-0.123,0.06-0.357,0.09-0.702,0.09h-2.207c-0.247,0-0.428-0.037-0.544-0.11c-0.116-0.073-0.174-0.188-0.174-0.344
		c0-0.127,0.084-0.27,0.253-0.428s0.253-0.283,0.253-0.375c0-0.246-0.208-0.626-0.623-1.14c-0.416-0.515-1.01-1.127-1.785-1.838
		c-0.633,0.711-1.116,1.305-1.446,1.778c-0.331,0.477-0.496,0.818-0.496,1.029c0,0.19,0.13,0.363,0.391,0.518
		c0.26,0.155,0.391,0.313,0.391,0.476c0,0.155-0.065,0.267-0.195,0.333s-0.34,0.101-0.628,0.101h-2.207
		c-0.211,0-0.364-0.035-0.459-0.104c-0.095-0.07-0.142-0.181-0.142-0.328c0-0.203,0.186-0.387,0.56-0.549
		c0.373-0.161,0.616-0.311,0.729-0.443C36.551,57.778,36.706,57.57,36.938,57.246L36.938,57.246z"/>
	<path fill="#FFFFFF" d="M53.757,57.627c-0.465,0.654-1.034,1.146-1.71,1.479S50.593,59.6,49.713,59.6
		c-1.049,0-1.881-0.279-2.497-0.84c-0.616-0.56-0.924-1.312-0.924-2.254c0-1.288,0.57-2.276,1.71-2.967
		c1.14-0.689,2.783-1.035,4.932-1.035h0.475c-0.084-0.746-0.399-1.328-0.944-1.747c-0.546-0.419-1.262-0.629-2.149-0.629
		c-0.507,0-1.049,0.169-1.626,0.507c-0.577,0.339-0.95,0.508-1.119,0.508c-0.197,0-0.361-0.055-0.491-0.163
		c-0.13-0.109-0.195-0.248-0.195-0.417c0-0.443,0.327-0.812,0.982-1.104c0.654-0.292,1.51-0.438,2.565-0.438
		c1.739,0,2.994,0.405,3.764,1.22c0.771,0.812,1.156,2.146,1.156,3.996v3.221c0,0.154,0.021,0.279,0.062,0.374
		c0.042,0.097,0.15,0.217,0.327,0.364c0.063,0.043,0.165,0.096,0.306,0.159c0.316,0.141,0.477,0.31,0.477,0.506
		c0,0.212-0.115,0.354-0.344,0.428c-0.229,0.074-0.802,0.111-1.716,0.111c-0.269,0-0.453-0.052-0.555-0.153
		c-0.103-0.102-0.153-0.287-0.153-0.555L53.757,57.627L53.757,57.627z M53.63,53.477h-0.284c-1.646,0-2.92,0.259-3.817,0.774
		c-0.897,0.519-1.346,1.248-1.346,2.191c0,0.569,0.195,1.036,0.586,1.397c0.391,0.362,0.899,0.544,1.526,0.544
		c0.352,0,0.698-0.046,1.04-0.138c0.341-0.091,0.646-0.218,0.913-0.38c0.521-0.323,0.882-0.668,1.082-1.034
		c0.201-0.366,0.301-0.88,0.301-1.542L53.63,53.477L53.63,53.477z"/>
	<path fill="#FFFFFF" d="M58.52,57.13v-4.646c0-0.443-0.033-0.756-0.102-0.939c-0.066-0.183-0.178-0.331-0.332-0.442
		c-0.113-0.093-0.281-0.188-0.507-0.285c-0.324-0.147-0.485-0.327-0.485-0.538c0-0.085,0.045-0.188,0.137-0.312
		c0.093-0.124,0.219-0.244,0.381-0.363c0.226-0.177,0.432-0.313,0.617-0.412c0.187-0.1,0.332-0.147,0.438-0.147
		c0.324,0,0.601,0.262,0.829,0.781c0.229,0.521,0.363,1.211,0.406,2.069c0.359-0.93,0.785-1.647,1.277-2.154s1.004-0.76,1.53-0.76
		c0.373,0,0.662,0.139,0.866,0.417c0.203,0.277,0.306,0.674,0.306,1.188c0,0.162-0.051,0.296-0.151,0.401
		c-0.104,0.104-0.234,0.158-0.396,0.158c-0.169,0-0.398-0.072-0.691-0.216c-0.291-0.146-0.498-0.218-0.617-0.218
		c-0.465,0-0.889,0.396-1.271,1.184c-0.384,0.788-0.576,1.749-0.576,2.882v2.312c0,0.443,0.027,0.732,0.08,0.866
		s0.146,0.229,0.279,0.285c0.105,0.042,0.271,0.091,0.496,0.147c0.43,0.111,0.645,0.284,0.645,0.518
		c0,0.141-0.055,0.241-0.164,0.301c-0.109,0.061-0.314,0.09-0.617,0.09h-2.703c-0.295,0-0.492-0.025-0.592-0.079
		c-0.099-0.053-0.146-0.148-0.146-0.291c0-0.183,0.158-0.352,0.477-0.507c0.168-0.084,0.291-0.15,0.368-0.2
		c0.085-0.057,0.144-0.141,0.175-0.253s0.047-0.303,0.047-0.569V57.13H58.52z"/>
	<path fill="#FFFFFF" d="M65.825,51.682c0-0.254-0.026-0.431-0.079-0.528c-0.055-0.099-0.157-0.197-0.312-0.296
		c-0.062-0.042-0.158-0.095-0.285-0.158c-0.254-0.127-0.381-0.26-0.381-0.401c0-0.104,0.037-0.199,0.111-0.284
		c0.074-0.084,0.202-0.177,0.387-0.274l0.146-0.084c0.857-0.45,1.429-0.676,1.71-0.676c0.147,0,0.25,0.066,0.308,0.2
		c0.057,0.134,0.084,0.442,0.084,0.93v7.411c0,0.184,0.021,0.335,0.062,0.454c0.043,0.12,0.105,0.2,0.189,0.242
		c0.1,0.042,0.219,0.093,0.359,0.147c0.365,0.148,0.549,0.32,0.549,0.518c0,0.155-0.061,0.264-0.18,0.322
		c-0.12,0.061-0.346,0.09-0.676,0.09h-2.271c-0.303,0-0.509-0.029-0.618-0.09c-0.109-0.06-0.164-0.16-0.164-0.301
		c0-0.105,0.028-0.197,0.086-0.274c0.057-0.078,0.157-0.15,0.306-0.222c0.057-0.028,0.134-0.062,0.231-0.106
		c0.289-0.118,0.435-0.364,0.435-0.737v-5.882H65.825z M65.244,45.927c0-0.322,0.113-0.587,0.343-0.791
		c0.229-0.203,0.526-0.307,0.894-0.307c0.358,0,0.648,0.104,0.871,0.307c0.222,0.204,0.332,0.469,0.332,0.791
		c0,0.339-0.113,0.607-0.338,0.81c-0.226,0.2-0.521,0.301-0.888,0.301c-0.373,0-0.669-0.101-0.888-0.301
		C65.354,46.535,65.244,46.265,65.244,45.927z"/>
	<path fill="#FFFFFF" d="M69.488,57.331c0-0.204,0.064-0.371,0.195-0.502c0.131-0.13,0.293-0.195,0.49-0.195
		c0.219,0,0.479,0.19,0.781,0.57c0.092,0.105,0.162,0.19,0.211,0.254c0.289,0.323,0.611,0.566,0.973,0.729
		c0.357,0.161,0.764,0.242,1.213,0.242c0.635,0,1.152-0.165,1.559-0.496c0.404-0.331,0.607-0.758,0.607-1.277
		c0-0.732-0.832-1.299-2.492-1.7c-0.092-0.021-0.166-0.038-0.223-0.053c-1.035-0.253-1.773-0.595-2.217-1.024
		c-0.443-0.429-0.666-1.01-0.666-1.74c0-0.943,0.316-1.698,0.95-2.266c0.634-0.566,1.481-0.851,2.545-0.851
		c1.015,0,1.797,0.146,2.351,0.438c0.551,0.292,0.827,0.702,0.827,1.229c0,0.388-0.028,0.646-0.084,0.775
		c-0.057,0.132-0.166,0.195-0.327,0.195c-0.189,0-0.416-0.154-0.676-0.465c-0.105-0.119-0.189-0.211-0.254-0.274
		c-0.268-0.273-0.584-0.484-0.95-0.633c-0.366-0.147-0.76-0.222-1.183-0.222c-0.508,0-0.93,0.146-1.268,0.438
		s-0.506,0.656-0.506,1.094c0,0.365,0.11,0.654,0.332,0.865c0.223,0.211,0.648,0.404,1.282,0.58
		c0.204,0.058,0.493,0.131,0.866,0.223c0.922,0.219,1.533,0.427,1.837,0.623c0.437,0.281,0.762,0.611,0.978,0.992
		c0.215,0.381,0.321,0.812,0.321,1.299c0,1.021-0.344,1.847-1.028,2.477c-0.688,0.63-1.591,0.944-2.709,0.944
		c-0.951,0-1.812-0.255-2.582-0.767C69.874,58.325,69.488,57.823,69.488,57.331z"/>
</g>
<g>
	<path fill="#FFFFFF" d="M40.295,67.026c0.062,0.29,0.195,0.521,0.399,0.69c0.204,0.171,0.447,0.256,0.73,0.256
		c0.152,0,0.294-0.02,0.429-0.057c0.135-0.037,0.266-0.096,0.395-0.176c0.062-0.037,0.139-0.09,0.231-0.16
		c0.126-0.092,0.21-0.138,0.25-0.138s0.073,0.015,0.099,0.045c0.026,0.029,0.039,0.068,0.039,0.115c0,0.077-0.051,0.17-0.154,0.277
		c-0.104,0.107-0.241,0.212-0.412,0.312c-0.144,0.085-0.296,0.147-0.457,0.189c-0.161,0.042-0.329,0.063-0.505,0.063
		c-0.524,0-0.943-0.156-1.256-0.468c-0.313-0.312-0.47-0.729-0.47-1.251c0-0.571,0.186-1.051,0.558-1.438
		c0.371-0.387,0.829-0.58,1.374-0.58c0.415,0,0.734,0.086,0.958,0.258s0.335,0.413,0.335,0.728c0,0.37-0.207,0.663-0.621,0.878
		C41.803,66.788,41.163,66.939,40.295,67.026z M40.24,66.642c0.676-0.065,1.172-0.18,1.489-0.343
		c0.317-0.161,0.476-0.382,0.476-0.656c0-0.186-0.064-0.328-0.192-0.434c-0.128-0.104-0.304-0.155-0.528-0.155
		c-0.365,0-0.664,0.142-0.896,0.425s-0.349,0.649-0.349,1.103V66.642z"/>
	<path fill="#FFFFFF" d="M43.68,68.017c0.094-0.054,0.142-0.156,0.142-0.313v-1.703c0-0.241-0.009-0.397-0.026-0.472
		c-0.017-0.073-0.05-0.127-0.097-0.162c-0.03-0.022-0.087-0.05-0.171-0.084c-0.085-0.033-0.127-0.078-0.127-0.136
		c0-0.067,0.075-0.156,0.226-0.27c0.15-0.11,0.274-0.168,0.371-0.168c0.07,0,0.133,0.053,0.19,0.155s0.108,0.258,0.153,0.464
		c0.159-0.204,0.342-0.356,0.55-0.462c0.207-0.104,0.434-0.157,0.68-0.157c0.42,0,0.733,0.139,0.941,0.412
		c0.208,0.274,0.311,0.693,0.311,1.255v1.35c0,0.082,0.005,0.141,0.015,0.176c0.01,0.034,0.028,0.061,0.056,0.078
		c0.022,0.015,0.054,0.033,0.097,0.056c0.102,0.055,0.153,0.111,0.153,0.172c0,0.047-0.02,0.08-0.058,0.102
		c-0.039,0.02-0.104,0.028-0.196,0.028h-0.76c-0.092,0-0.157-0.009-0.196-0.027c-0.039-0.02-0.058-0.051-0.058-0.096
		c0-0.062,0.041-0.11,0.123-0.148c0.025-0.012,0.042-0.021,0.052-0.025c0.087-0.042,0.139-0.082,0.157-0.119
		c0.018-0.038,0.026-0.106,0.026-0.209V66.37c0-0.418-0.07-0.722-0.21-0.913c-0.14-0.19-0.362-0.287-0.665-0.287
		c-0.289,0-0.518,0.083-0.69,0.25c-0.171,0.166-0.257,0.392-0.257,0.674v1.704c0,0.053,0.003,0.092,0.011,0.117
		c0.007,0.026,0.021,0.048,0.041,0.065c0.022,0.015,0.058,0.034,0.108,0.06c0.097,0.05,0.146,0.104,0.146,0.16
		c0,0.052-0.02,0.088-0.058,0.108c-0.039,0.02-0.111,0.028-0.218,0.028h-0.708c-0.094,0-0.159-0.009-0.194-0.025
		c-0.035-0.018-0.052-0.047-0.052-0.089c0-0.037,0.008-0.068,0.026-0.093c0.018-0.023,0.06-0.054,0.127-0.091
		C43.649,68.035,43.663,68.027,43.68,68.017L43.68,68.017z"/>
	<path fill="#FFFFFF" d="M48.283,67.026c0.062,0.29,0.195,0.521,0.399,0.69c0.204,0.171,0.447,0.256,0.73,0.256
		c0.151,0,0.294-0.02,0.429-0.057c0.134-0.037,0.266-0.096,0.395-0.176c0.062-0.037,0.139-0.09,0.231-0.16
		c0.126-0.092,0.209-0.138,0.25-0.138s0.073,0.015,0.1,0.045c0.025,0.029,0.039,0.068,0.039,0.115c0,0.077-0.051,0.17-0.154,0.277
		s-0.24,0.212-0.412,0.312c-0.145,0.085-0.296,0.147-0.457,0.189c-0.16,0.042-0.329,0.063-0.505,0.063
		c-0.524,0-0.943-0.156-1.256-0.468c-0.313-0.312-0.47-0.729-0.47-1.251c0-0.571,0.186-1.051,0.557-1.438
		c0.371-0.387,0.829-0.58,1.374-0.58c0.415,0,0.734,0.086,0.958,0.258c0.223,0.172,0.335,0.413,0.335,0.728
		c0,0.37-0.207,0.663-0.621,0.878C49.791,66.788,49.15,66.939,48.283,67.026z M48.227,66.642c0.676-0.065,1.172-0.18,1.489-0.343
		c0.317-0.161,0.475-0.382,0.475-0.656c0-0.186-0.064-0.328-0.192-0.434c-0.128-0.104-0.304-0.155-0.527-0.155
		c-0.365,0-0.664,0.142-0.896,0.425c-0.232,0.283-0.349,0.649-0.349,1.103V66.642L48.227,66.642z"/>
	<path fill="#FFFFFF" d="M51.766,67.574v-1.641c0-0.156-0.013-0.268-0.037-0.331c-0.022-0.064-0.062-0.117-0.117-0.157
		c-0.039-0.032-0.1-0.065-0.178-0.102c-0.115-0.052-0.172-0.114-0.172-0.188c0-0.03,0.016-0.066,0.049-0.11
		c0.031-0.043,0.076-0.086,0.133-0.129c0.08-0.062,0.152-0.109,0.22-0.145c0.065-0.035,0.116-0.054,0.153-0.054
		c0.115,0,0.213,0.093,0.293,0.276c0.08,0.185,0.129,0.427,0.145,0.73c0.126-0.328,0.275-0.582,0.45-0.762
		c0.175-0.179,0.354-0.269,0.541-0.269c0.132,0,0.233,0.049,0.306,0.146c0.073,0.099,0.108,0.238,0.108,0.419
		c0,0.059-0.019,0.104-0.056,0.143c-0.035,0.038-0.082,0.057-0.14,0.057c-0.06,0-0.141-0.024-0.243-0.077
		c-0.104-0.051-0.177-0.075-0.219-0.075c-0.164,0-0.312,0.14-0.449,0.418c-0.136,0.277-0.203,0.616-0.203,1.018v0.815
		c0,0.156,0.01,0.259,0.028,0.306c0.019,0.048,0.052,0.081,0.099,0.101c0.037,0.017,0.097,0.033,0.176,0.054
		c0.15,0.04,0.228,0.101,0.228,0.183c0,0.05-0.021,0.085-0.058,0.106c-0.039,0.021-0.111,0.03-0.219,0.03h-0.955
		c-0.104,0-0.174-0.009-0.207-0.027c-0.035-0.02-0.053-0.054-0.053-0.103c0-0.064,0.055-0.125,0.168-0.18
		c0.06-0.029,0.103-0.053,0.131-0.07c0.028-0.021,0.049-0.05,0.062-0.09c0.011-0.039,0.017-0.105,0.017-0.201V67.574L51.766,67.574z
		"/>
	<path fill="#FFFFFF" d="M56.506,67.849c0.271,0.097,0.473,0.218,0.604,0.36c0.133,0.146,0.197,0.315,0.197,0.516
		c0,0.341-0.166,0.61-0.5,0.812S56.02,69.84,55.45,69.84c-0.486,0-0.863-0.059-1.13-0.177c-0.266-0.118-0.397-0.285-0.397-0.501
		c0-0.122,0.042-0.229,0.126-0.324c0.085-0.095,0.182-0.142,0.287-0.142c0.035,0,0.064,0.013,0.088,0.04
		c0.024,0.027,0.035,0.062,0.035,0.104c0,0.022-0.006,0.053-0.02,0.088c-0.013,0.036-0.019,0.062-0.019,0.072
		c0,0.114,0.091,0.203,0.271,0.266c0.181,0.062,0.437,0.094,0.767,0.094c0.397,0,0.704-0.054,0.921-0.162s0.324-0.263,0.324-0.464
		c0-0.137-0.049-0.256-0.146-0.358c-0.1-0.102-0.259-0.198-0.479-0.29c-0.149,0.029-0.274,0.051-0.375,0.064
		c-0.101,0.013-0.185,0.021-0.252,0.021c-0.468,0-0.849-0.16-1.144-0.479c-0.297-0.32-0.445-0.735-0.445-1.245
		c0-0.514,0.152-0.932,0.455-1.252c0.305-0.32,0.699-0.481,1.187-0.481c0.138,0,0.313,0.016,0.533,0.043
		c0.218,0.029,0.372,0.043,0.462,0.043c0.02,0,0.091-0.002,0.214-0.007s0.233-0.008,0.334-0.008c0.122,0,0.214,0.02,0.277,0.06
		s0.096,0.1,0.096,0.176c0,0.082-0.038,0.142-0.114,0.178c-0.074,0.036-0.205,0.054-0.39,0.054c-0.005,0-0.017-0.001-0.037-0.004
		c-0.069-0.002-0.136-0.004-0.196-0.004c0.148,0.146,0.264,0.319,0.344,0.524c0.082,0.205,0.121,0.424,0.121,0.656
		c0,0.291-0.054,0.558-0.162,0.796C56.876,67.458,56.717,67.668,56.506,67.849z M54.496,66.422c0,0.437,0.087,0.771,0.261,1.005
		c0.175,0.234,0.423,0.354,0.746,0.354c0.33,0,0.582-0.116,0.757-0.349c0.174-0.232,0.262-0.568,0.262-1.01
		c0-0.415-0.09-0.736-0.27-0.967c-0.179-0.229-0.429-0.345-0.749-0.345c-0.317,0-0.565,0.114-0.741,0.343
		C54.585,65.681,54.496,66.005,54.496,66.422z"/>
	<path fill="#FFFFFF" d="M59.637,68.024c-0.07,0.038-0.139,0.065-0.207,0.086s-0.138,0.03-0.207,0.03
		c-0.328,0-0.604-0.167-0.826-0.5c-0.224-0.333-0.401-0.842-0.533-1.524c-0.025-0.142-0.049-0.312-0.067-0.512
		c-0.021-0.2-0.04-0.321-0.06-0.364c-0.024-0.047-0.074-0.099-0.149-0.154c-0.073-0.056-0.11-0.111-0.11-0.17
		c0-0.042,0.021-0.07,0.066-0.087c0.044-0.017,0.137-0.023,0.275-0.023h0.502c0.173,0,0.279,0.01,0.324,0.028
		c0.045,0.021,0.067,0.06,0.067,0.116c0,0.06-0.038,0.11-0.114,0.152c-0.019,0.01-0.031,0.018-0.037,0.021
		c-0.082,0.05-0.137,0.103-0.162,0.156c-0.023,0.055-0.037,0.155-0.037,0.303c0,0.156,0.023,0.344,0.072,0.562
		c0.047,0.219,0.115,0.456,0.207,0.712c0.107,0.296,0.227,0.513,0.356,0.651c0.131,0.14,0.28,0.209,0.453,0.209
		c0.153,0,0.28-0.048,0.378-0.144c0.099-0.096,0.199-0.279,0.304-0.55c0.095-0.249,0.17-0.515,0.228-0.794
		c0.058-0.281,0.086-0.531,0.086-0.749c0-0.075-0.008-0.138-0.025-0.188s-0.045-0.09-0.082-0.119
		c-0.029-0.021-0.072-0.048-0.13-0.074c-0.099-0.045-0.146-0.099-0.146-0.16c0-0.052,0.021-0.088,0.062-0.108
		c0.041-0.02,0.127-0.029,0.259-0.029h0.406c0.134,0,0.227,0.014,0.275,0.037c0.049,0.024,0.074,0.068,0.074,0.132
		c0,0.026-0.023,0.07-0.072,0.134c-0.049,0.062-0.082,0.122-0.104,0.179c-0.023,0.067-0.062,0.271-0.117,0.605
		c-0.054,0.337-0.117,0.634-0.195,0.89c-0.269,0.899-0.647,1.628-1.139,2.186c-0.49,0.559-0.979,0.837-1.463,0.837
		c-0.135,0-0.238-0.027-0.314-0.086c-0.076-0.057-0.113-0.135-0.113-0.233c0-0.08,0.029-0.144,0.089-0.188s0.142-0.068,0.246-0.068
		c0.03,0,0.078,0.007,0.146,0.02c0.067,0.012,0.121,0.02,0.16,0.02c0.238,0,0.484-0.113,0.736-0.339
		C59.25,68.701,59.462,68.4,59.637,68.024z"/>
</g>
<g>
	<path fill="#FFFFFF" d="M78.093,57.705c0.158,0,0.312,0.041,0.464,0.122c0.15,0.081,0.269,0.197,0.354,0.349
		c0.084,0.151,0.126,0.31,0.126,0.475c0,0.162-0.042,0.317-0.124,0.469c-0.083,0.149-0.199,0.267-0.35,0.35
		c-0.149,0.083-0.307,0.124-0.47,0.124s-0.319-0.041-0.47-0.124s-0.268-0.199-0.35-0.35c-0.084-0.15-0.125-0.307-0.125-0.469
		c0-0.165,0.041-0.322,0.127-0.475c0.084-0.15,0.201-0.268,0.354-0.349C77.779,57.746,77.934,57.705,78.093,57.705z M78.093,57.861
		c-0.133,0-0.262,0.034-0.388,0.102c-0.125,0.068-0.225,0.165-0.294,0.292c-0.071,0.126-0.106,0.259-0.106,0.396
		c0,0.136,0.035,0.266,0.104,0.391c0.069,0.124,0.167,0.223,0.292,0.291c0.125,0.069,0.255,0.104,0.392,0.104
		c0.136,0,0.267-0.035,0.392-0.104c0.125-0.068,0.223-0.167,0.291-0.291c0.068-0.125,0.104-0.255,0.104-0.391
		c0-0.137-0.034-0.27-0.104-0.396c-0.07-0.127-0.17-0.224-0.295-0.292C78.354,57.895,78.225,57.861,78.093,57.861z M77.68,59.171
		v-1.016h0.348c0.119,0,0.205,0.009,0.26,0.028c0.054,0.019,0.096,0.051,0.128,0.098c0.03,0.047,0.047,0.097,0.047,0.149
		c0,0.073-0.026,0.139-0.079,0.192s-0.123,0.086-0.211,0.093c0.036,0.016,0.064,0.033,0.087,0.055
		c0.04,0.04,0.091,0.106,0.149,0.201l0.124,0.198h-0.2l-0.09-0.16c-0.071-0.126-0.128-0.204-0.172-0.235
		c-0.029-0.023-0.073-0.035-0.131-0.035h-0.098v0.432H77.68z M77.842,58.598h0.199c0.096,0,0.16-0.015,0.193-0.042
		c0.035-0.028,0.053-0.066,0.053-0.112c0-0.03-0.008-0.059-0.023-0.081c-0.017-0.023-0.041-0.041-0.07-0.053
		c-0.029-0.013-0.084-0.019-0.164-0.019h-0.188V58.598z"/>
</g>
</svg>
