<?xml version="1.0" encoding="utf-8"?>
<!-- Generator: Adobe Illustrator 16.0.0, SVG Export Plug-In . SVG Version: 6.00 Build 0)  -->
<!DOCTYPE svg PUBLIC "-//W3C//DTD SVG 1.1//EN" "http://www.w3.org/Graphics/SVG/1.1/DTD/svg11.dtd">
<svg version="1.1" id="Capa_1" xmlns="http://www.w3.org/2000/svg" xmlns:xlink="http://www.w3.org/1999/xlink" x="0px" y="0px"
	 width="100px" height="76.77px" viewBox="0 0 100 76.77" enable-background="new 0 0 100 76.77" xml:space="preserve">
<g>
	<g>
		<circle fill="#D81F26" cx="55.85" cy="29.329" r="2.351"/>
		<circle fill="#D81F26" cx="52.637" cy="26.221" r="1.572"/>
		<circle fill="#D81F26" cx="65.454" cy="39.282" r="3.908"/>
		<circle fill="#D81F26" cx="60.184" cy="33.691" r="3.11"/>
	</g>
	<g>
		<circle fill="#D81F26" cx="44.899" cy="29.376" r="2.35"/>
		<circle fill="#D81F26" cx="48.064" cy="26.221" r="1.571"/>
		<circle fill="#D81F26" cx="35.241" cy="39.282" r="3.908"/>
		<circle fill="#D81F26" cx="40.592" cy="33.839" r="3.111"/>
	</g>
	<g>
		<circle fill="#D81F26" cx="55.759" cy="18.503" r="2.349"/>
		<circle fill="#D81F26" cx="52.617" cy="21.644" r="1.572"/>
		<circle fill="#D81F26" cx="65.604" cy="8.806" r="3.908"/>
		<circle fill="#D81F26" cx="60.148" cy="14.198" r="3.111"/>
	</g>
	<g>
		<circle fill="#D81F26" cx="44.974" cy="18.432" r="2.349"/>
		<circle fill="#D81F26" cx="48.039" cy="21.625" r="1.571"/>
		<circle fill="#D81F26" cx="34.94" cy="8.833" r="3.908"/>
		<circle fill="#D81F26" cx="40.475" cy="14.14" r="3.11"/>
	</g>
</g>
<g>
	<path fill="#092452" d="M35.489,72.017c0.089,0.418,0.281,0.75,0.574,0.994c0.294,0.246,0.644,0.368,1.051,0.368
		c0.219,0,0.423-0.027,0.617-0.081s0.384-0.138,0.569-0.253c0.089-0.054,0.2-0.13,0.332-0.23c0.182-0.133,0.303-0.198,0.36-0.198
		s0.104,0.021,0.143,0.064c0.037,0.042,0.056,0.099,0.056,0.166c0,0.11-0.073,0.244-0.222,0.399
		c-0.149,0.154-0.347,0.305-0.594,0.448c-0.206,0.122-0.426,0.212-0.657,0.272s-0.474,0.092-0.727,0.092
		c-0.755,0-1.357-0.226-1.809-0.674c-0.45-0.45-0.677-1.05-0.677-1.801c0-0.822,0.268-1.513,0.804-2.069
		c0.534-0.557,1.193-0.835,1.978-0.835c0.598,0,1.057,0.124,1.379,0.371c0.323,0.248,0.482,0.595,0.482,1.048
		c0,0.532-0.298,0.954-0.894,1.264C37.66,71.675,36.738,71.892,35.489,72.017z M35.41,71.466c0.973-0.095,1.687-0.259,2.144-0.494
		c0.456-0.231,0.685-0.549,0.685-0.944c0-0.267-0.092-0.472-0.276-0.624c-0.185-0.149-0.438-0.224-0.76-0.224
		c-0.525,0-0.956,0.204-1.29,0.611c-0.334,0.408-0.502,0.936-0.502,1.587V71.466z"/>
	<path fill="#092452" d="M40.362,73.445c0.135-0.078,0.203-0.226,0.203-0.452v-2.451c0-0.348-0.013-0.572-0.037-0.679
		c-0.024-0.105-0.071-0.183-0.139-0.233c-0.044-0.032-0.126-0.072-0.247-0.121c-0.122-0.048-0.183-0.112-0.183-0.195
		c0-0.097,0.108-0.225,0.325-0.388c0.216-0.159,0.395-0.242,0.534-0.242c0.101,0,0.191,0.076,0.273,0.224s0.155,0.371,0.22,0.668
		c0.229-0.294,0.493-0.514,0.793-0.665c0.298-0.149,0.624-0.227,0.978-0.227c0.605,0,1.056,0.199,1.355,0.593
		c0.3,0.396,0.448,0.999,0.448,1.807v1.943c0,0.117,0.007,0.202,0.021,0.253c0.015,0.049,0.041,0.087,0.081,0.112
		c0.031,0.021,0.078,0.048,0.14,0.08c0.146,0.078,0.22,0.16,0.22,0.247c0,0.067-0.028,0.115-0.083,0.146
		c-0.057,0.028-0.15,0.041-0.282,0.041h-1.094c-0.133,0-0.226-0.013-0.282-0.04s-0.084-0.072-0.084-0.138
		c0-0.088,0.06-0.158,0.178-0.214c0.035-0.017,0.061-0.03,0.074-0.036c0.126-0.061,0.2-0.118,0.227-0.172
		c0.025-0.055,0.037-0.152,0.037-0.301v-1.933c0-0.602-0.101-1.039-0.303-1.314c-0.201-0.273-0.521-0.413-0.957-0.413
		c-0.416,0-0.746,0.119-0.993,0.36c-0.246,0.238-0.369,0.563-0.369,0.97v2.453c0,0.075,0.004,0.132,0.015,0.168
		c0.011,0.038,0.03,0.069,0.06,0.095c0.031,0.021,0.083,0.049,0.155,0.086c0.14,0.071,0.21,0.148,0.21,0.23
		c0,0.074-0.028,0.126-0.083,0.155c-0.056,0.028-0.16,0.041-0.314,0.041h-1.019c-0.135,0-0.229-0.013-0.279-0.036
		c-0.051-0.025-0.075-0.067-0.075-0.128c0-0.054,0.012-0.099,0.038-0.134c0.026-0.033,0.086-0.077,0.183-0.131
		C40.317,73.469,40.337,73.459,40.362,73.445L40.362,73.445z"/>
	<path fill="#092452" d="M46.988,72.017c0.089,0.418,0.28,0.75,0.574,0.994c0.294,0.246,0.643,0.368,1.051,0.368
		c0.217,0,0.423-0.027,0.617-0.081c0.193-0.054,0.383-0.138,0.568-0.253c0.089-0.054,0.2-0.13,0.332-0.23
		c0.182-0.133,0.302-0.198,0.36-0.198s0.105,0.021,0.144,0.064c0.036,0.042,0.056,0.099,0.056,0.166c0,0.11-0.072,0.244-0.222,0.399
		c-0.149,0.154-0.346,0.305-0.594,0.448c-0.208,0.122-0.426,0.212-0.657,0.272c-0.23,0.061-0.474,0.092-0.727,0.092
		c-0.755,0-1.358-0.226-1.81-0.674c-0.45-0.45-0.676-1.05-0.676-1.801c0-0.822,0.268-1.513,0.802-2.069s1.193-0.835,1.979-0.835
		c0.597,0,1.057,0.124,1.379,0.371c0.32,0.248,0.482,0.595,0.482,1.048c0,0.532-0.298,0.954-0.895,1.264
		C49.158,71.675,48.235,71.892,46.988,72.017z M46.907,71.466c0.973-0.095,1.687-0.259,2.144-0.494
		c0.456-0.231,0.684-0.549,0.684-0.944c0-0.267-0.092-0.472-0.276-0.624c-0.185-0.15-0.438-0.224-0.759-0.224
		c-0.525,0-0.955,0.204-1.29,0.611c-0.334,0.408-0.502,0.936-0.502,1.587V71.466L46.907,71.466z"/>
	<path fill="#092452" d="M52.001,72.806v-2.361c0-0.226-0.019-0.386-0.054-0.477c-0.032-0.093-0.088-0.169-0.168-0.227
		c-0.057-0.047-0.144-0.094-0.256-0.146c-0.166-0.074-0.248-0.164-0.248-0.271c0-0.043,0.022-0.095,0.07-0.158
		c0.045-0.062,0.109-0.124,0.191-0.186c0.115-0.089,0.22-0.157,0.316-0.208c0.094-0.051,0.167-0.077,0.221-0.077
		c0.166,0,0.307,0.133,0.422,0.397c0.115,0.266,0.186,0.614,0.208,1.052c0.181-0.473,0.396-0.838,0.647-1.097
		c0.252-0.258,0.511-0.387,0.779-0.387c0.189,0,0.336,0.07,0.439,0.211c0.105,0.142,0.156,0.343,0.156,0.603
		c0,0.085-0.026,0.15-0.08,0.206c-0.051,0.055-0.118,0.081-0.201,0.081c-0.086,0-0.202-0.035-0.35-0.111
		c-0.15-0.072-0.255-0.107-0.315-0.107c-0.235,0-0.449,0.2-0.646,0.602c-0.195,0.398-0.292,0.887-0.292,1.465v1.174
		c0,0.225,0.014,0.372,0.041,0.439c0.026,0.069,0.074,0.117,0.142,0.145c0.054,0.024,0.139,0.048,0.253,0.078
		c0.217,0.058,0.327,0.145,0.327,0.263c0,0.071-0.029,0.122-0.083,0.153c-0.056,0.029-0.16,0.043-0.314,0.043h-1.375
		c-0.148,0-0.25-0.013-0.298-0.039c-0.051-0.028-0.076-0.077-0.076-0.147c0-0.093,0.079-0.18,0.242-0.259
		c0.086-0.042,0.147-0.076,0.188-0.102c0.041-0.029,0.07-0.071,0.089-0.129c0.015-0.057,0.023-0.152,0.023-0.29V72.806
		L52.001,72.806z"/>
	<path fill="#092452" d="M58.824,73.203c0.391,0.139,0.681,0.313,0.869,0.519c0.191,0.21,0.284,0.454,0.284,0.742
		c0,0.491-0.239,0.879-0.72,1.168c-0.481,0.29-1.134,0.437-1.953,0.437c-0.7,0-1.242-0.085-1.626-0.255
		c-0.383-0.17-0.572-0.41-0.572-0.721c0-0.176,0.061-0.331,0.181-0.467c0.123-0.137,0.262-0.204,0.414-0.204
		c0.05,0,0.093,0.019,0.126,0.058c0.035,0.039,0.051,0.089,0.051,0.149c0,0.032-0.009,0.075-0.028,0.126
		c-0.018,0.052-0.026,0.089-0.026,0.104c0,0.164,0.131,0.292,0.39,0.382c0.26,0.089,0.628,0.135,1.104,0.135
		c0.571,0,1.013-0.077,1.325-0.233c0.312-0.155,0.467-0.378,0.467-0.667c0-0.197-0.07-0.368-0.211-0.517
		c-0.144-0.146-0.372-0.285-0.69-0.417c-0.215,0.042-0.395,0.073-0.54,0.093c-0.145,0.019-0.266,0.029-0.362,0.029
		c-0.673,0-1.222-0.23-1.646-0.69c-0.427-0.461-0.641-1.059-0.641-1.792c0-0.739,0.22-1.341,0.655-1.802
		c0.438-0.462,1.007-0.693,1.708-0.693c0.198,0,0.451,0.022,0.768,0.062c0.313,0.042,0.535,0.062,0.665,0.062
		c0.027,0,0.131-0.003,0.308-0.01c0.177-0.008,0.336-0.012,0.48-0.012c0.176,0,0.308,0.028,0.399,0.086s0.138,0.144,0.138,0.253
		c0,0.118-0.055,0.204-0.164,0.256c-0.107,0.052-0.296,0.077-0.562,0.077c-0.007,0-0.023-0.001-0.053-0.006
		c-0.101-0.003-0.195-0.005-0.283-0.005c0.214,0.209,0.38,0.459,0.495,0.755c0.118,0.295,0.174,0.609,0.174,0.944
		c0,0.419-0.077,0.803-0.233,1.146C59.357,72.639,59.128,72.941,58.824,73.203z M55.932,71.147c0,0.629,0.125,1.109,0.375,1.447
		c0.252,0.337,0.608,0.509,1.074,0.509c0.475,0,0.838-0.168,1.089-0.502c0.251-0.335,0.377-0.818,0.377-1.454
		c0-0.597-0.129-1.06-0.388-1.392c-0.258-0.33-0.617-0.496-1.078-0.496c-0.457,0-0.814,0.165-1.067,0.493
		C56.06,70.082,55.932,70.548,55.932,71.147z"/>
	<path fill="#092452" d="M63.331,73.455c-0.102,0.055-0.199,0.094-0.298,0.123s-0.198,0.044-0.298,0.044
		c-0.473,0-0.869-0.24-1.189-0.72c-0.322-0.479-0.578-1.212-0.768-2.194c-0.036-0.204-0.07-0.448-0.097-0.736
		c-0.03-0.289-0.058-0.463-0.086-0.524c-0.035-0.067-0.107-0.143-0.215-0.223c-0.105-0.08-0.159-0.16-0.159-0.244
		c0-0.061,0.031-0.102,0.096-0.125c0.063-0.024,0.196-0.034,0.396-0.034h0.723c0.248,0,0.401,0.014,0.467,0.041
		C61.968,68.893,62,68.948,62,69.029c0,0.086-0.055,0.159-0.165,0.22c-0.026,0.014-0.045,0.025-0.053,0.03
		c-0.118,0.072-0.197,0.148-0.233,0.226c-0.034,0.078-0.054,0.224-0.054,0.436c0,0.225,0.034,0.495,0.104,0.81
		c0.067,0.314,0.166,0.656,0.298,1.024c0.154,0.427,0.326,0.738,0.513,0.938c0.188,0.2,0.403,0.301,0.652,0.301
		c0.221,0,0.403-0.069,0.544-0.207c0.143-0.138,0.287-0.402,0.438-0.791c0.137-0.358,0.244-0.741,0.327-1.144
		c0.083-0.404,0.124-0.765,0.124-1.078c0-0.108-0.012-0.198-0.036-0.27c-0.025-0.072-0.065-0.13-0.118-0.172
		c-0.043-0.03-0.104-0.068-0.188-0.106c-0.142-0.064-0.209-0.143-0.209-0.23c0-0.075,0.029-0.127,0.088-0.156
		c0.06-0.028,0.184-0.042,0.373-0.042h0.585c0.192,0,0.326,0.02,0.396,0.053c0.07,0.035,0.106,0.099,0.106,0.19
		c0,0.038-0.034,0.101-0.104,0.192c-0.069,0.089-0.117,0.176-0.148,0.257c-0.034,0.098-0.09,0.39-0.169,0.872
		c-0.077,0.485-0.169,0.912-0.281,1.28c-0.387,1.295-0.932,2.344-1.639,3.146c-0.706,0.804-1.409,1.204-2.105,1.204
		c-0.194,0-0.344-0.039-0.453-0.123c-0.109-0.082-0.163-0.194-0.163-0.336c0-0.115,0.042-0.207,0.128-0.271s0.204-0.099,0.354-0.099
		c0.043,0,0.112,0.01,0.209,0.028c0.098,0.017,0.175,0.028,0.23,0.028c0.344,0,0.697-0.163,1.061-0.488
		C62.774,74.428,63.079,73.996,63.331,73.455z"/>
</g>
<g>
	<path fill="#092452" d="M26.459,55.668c0.176,0.825,0.552,1.478,1.131,1.961c0.578,0.483,1.269,0.725,2.072,0.725
		c0.43,0,0.836-0.053,1.215-0.158c0.382-0.107,0.755-0.272,1.121-0.497c0.176-0.108,0.394-0.259,0.656-0.456
		c0.358-0.262,0.595-0.392,0.708-0.392c0.114,0,0.206,0.043,0.28,0.128c0.074,0.082,0.111,0.192,0.111,0.325
		c0,0.22-0.146,0.481-0.438,0.788c-0.294,0.308-0.682,0.603-1.169,0.885c-0.409,0.238-0.84,0.417-1.296,0.538
		c-0.453,0.119-0.93,0.179-1.432,0.179c-1.487,0-2.674-0.442-3.562-1.326c-0.887-0.885-1.331-2.066-1.331-3.545
		c0-1.622,0.525-2.98,1.578-4.078c1.054-1.095,2.354-1.643,3.897-1.643c1.176,0,2.081,0.243,2.716,0.729s0.952,1.173,0.952,2.062
		c0,1.051-0.586,1.881-1.76,2.49C30.734,54.994,28.917,55.421,26.459,55.668z M26.299,54.58c1.917-0.184,3.324-0.507,4.224-0.968
		c0.899-0.462,1.348-1.083,1.348-1.867c0-0.52-0.182-0.93-0.545-1.226c-0.362-0.298-0.86-0.444-1.495-0.444
		c-1.036,0-1.882,0.403-2.542,1.205c-0.66,0.805-0.987,1.847-0.987,3.13v0.17H26.299z"/>
	<path fill="#092452" d="M38.309,54.366c-0.642-0.703-1.291-1.498-1.949-2.383c-0.66-0.884-1.05-1.384-1.169-1.496
		c-0.092-0.084-0.277-0.194-0.556-0.332s-0.418-0.284-0.418-0.439c0-0.133,0.051-0.225,0.148-0.275
		c0.099-0.048,0.307-0.071,0.624-0.071h2.103c0.333,0,0.553,0.023,0.661,0.071c0.109,0.051,0.164,0.143,0.164,0.275
		c0,0.084-0.094,0.208-0.279,0.371c-0.188,0.162-0.281,0.309-0.281,0.444c0,0.197,0.178,0.536,0.533,1.013
		c0.356,0.479,0.855,1.045,1.496,1.69c0.578-0.577,1.047-1.12,1.406-1.626c0.36-0.509,0.539-0.866,0.539-1.079
		c0-0.122-0.107-0.26-0.323-0.413c-0.214-0.155-0.322-0.288-0.322-0.403c0-0.133,0.059-0.225,0.176-0.274
		c0.115-0.048,0.353-0.071,0.712-0.071h1.492c0.288,0,0.481,0.021,0.575,0.062c0.096,0.044,0.145,0.122,0.145,0.234
		c0,0.155-0.124,0.293-0.37,0.417c-0.247,0.121-0.42,0.235-0.519,0.344c-0.069,0.07-0.393,0.513-0.968,1.331
		c-0.575,0.817-1.175,1.558-1.803,2.22c0.685,0.74,1.409,1.583,2.173,2.527s1.231,1.487,1.401,1.629
		c0.092,0.085,0.279,0.204,0.564,0.359c0.285,0.156,0.429,0.316,0.429,0.486c0,0.155-0.063,0.264-0.186,0.323
		c-0.123,0.06-0.357,0.089-0.702,0.089h-2.209c-0.247,0-0.429-0.036-0.545-0.112c-0.116-0.073-0.174-0.188-0.174-0.344
		c0-0.126,0.084-0.268,0.254-0.428c0.169-0.158,0.253-0.282,0.253-0.374c0-0.247-0.207-0.628-0.622-1.144
		c-0.417-0.513-1.012-1.127-1.787-1.837c-0.635,0.71-1.117,1.304-1.448,1.78c-0.33,0.477-0.496,0.82-0.496,1.031
		c0,0.189,0.131,0.364,0.391,0.518c0.262,0.155,0.391,0.313,0.391,0.477c0,0.153-0.065,0.266-0.195,0.332
		c-0.131,0.066-0.341,0.101-0.628,0.101h-2.211c-0.211,0-0.364-0.036-0.461-0.105c-0.094-0.073-0.142-0.181-0.142-0.327
		c0-0.206,0.186-0.39,0.56-0.55c0.374-0.163,0.616-0.312,0.73-0.444c0.077-0.092,0.232-0.301,0.465-0.624
		C36.733,56.211,37.527,55.221,38.309,54.366z"/>
	<path fill="#092452" d="M52.771,57.719c-0.465,0.655-1.035,1.147-1.713,1.479c-0.677,0.333-1.453,0.498-2.335,0.498
		c-1.051,0-1.884-0.28-2.5-0.841c-0.616-0.56-0.926-1.313-0.926-2.257c0-1.29,0.571-2.28,1.714-2.97
		c1.141-0.692,2.786-1.038,4.936-1.038h0.475c-0.083-0.747-0.399-1.329-0.947-1.748c-0.545-0.419-1.262-0.63-2.148-0.63
		c-0.509,0-1.052,0.172-1.63,0.509c-0.577,0.339-0.95,0.508-1.12,0.508c-0.197,0-0.36-0.055-0.49-0.164
		c-0.131-0.11-0.197-0.248-0.197-0.417c0-0.445,0.328-0.812,0.983-1.104c0.656-0.291,1.512-0.438,2.569-0.438
		c1.74,0,2.998,0.405,3.768,1.221c0.772,0.813,1.158,2.146,1.158,4.001v3.224c0,0.155,0.022,0.279,0.063,0.375
		c0.043,0.095,0.151,0.216,0.327,0.364c0.064,0.042,0.166,0.095,0.308,0.161c0.315,0.14,0.477,0.309,0.477,0.506
		c0,0.211-0.115,0.355-0.344,0.429c-0.229,0.073-0.802,0.109-1.719,0.109c-0.269,0-0.453-0.05-0.555-0.153
		c-0.104-0.101-0.154-0.286-0.154-0.554L52.771,57.719L52.771,57.719z M52.643,53.564h-0.284c-1.649,0-2.924,0.259-3.822,0.777
		c-0.898,0.518-1.348,1.248-1.348,2.192c0,0.57,0.195,1.038,0.586,1.399c0.391,0.364,0.902,0.546,1.527,0.546
		c0.353,0,0.699-0.046,1.043-0.138c0.341-0.09,0.646-0.218,0.913-0.38c0.521-0.323,0.882-0.67,1.084-1.036s0.301-0.88,0.301-1.542
		V53.564z"/>
	<path fill="#092452" d="M57.539,57.221V52.57c0-0.444-0.033-0.759-0.102-0.941c-0.066-0.184-0.177-0.33-0.332-0.444
		c-0.114-0.092-0.283-0.186-0.509-0.284c-0.322-0.149-0.485-0.328-0.485-0.541c0-0.083,0.046-0.188,0.138-0.312
		c0.09-0.121,0.219-0.245,0.379-0.364c0.226-0.177,0.432-0.314,0.617-0.412c0.188-0.099,0.335-0.149,0.44-0.149
		c0.323,0,0.602,0.261,0.829,0.783c0.229,0.521,0.365,1.213,0.408,2.071c0.359-0.93,0.785-1.647,1.278-2.155
		c0.495-0.509,1.003-0.761,1.532-0.761c0.374,0,0.664,0.137,0.869,0.417c0.203,0.277,0.307,0.673,0.307,1.188
		c0,0.163-0.053,0.296-0.153,0.403c-0.104,0.105-0.236,0.158-0.396,0.158c-0.171,0-0.401-0.073-0.694-0.218
		c-0.292-0.145-0.498-0.218-0.616-0.218c-0.465,0-0.892,0.395-1.274,1.185c-0.385,0.788-0.577,1.751-0.577,2.885v2.316
		c0,0.444,0.026,0.733,0.08,0.866c0.053,0.135,0.146,0.229,0.278,0.286c0.106,0.041,0.271,0.092,0.498,0.146
		c0.429,0.115,0.645,0.287,0.645,0.521c0,0.14-0.055,0.24-0.164,0.3c-0.108,0.06-0.314,0.09-0.617,0.09h-2.706
		c-0.297,0-0.494-0.025-0.592-0.078c-0.099-0.053-0.148-0.151-0.148-0.291c0-0.184,0.158-0.353,0.475-0.509
		c0.171-0.085,0.293-0.151,0.37-0.199c0.085-0.058,0.143-0.142,0.173-0.254c0.032-0.115,0.048-0.305,0.048-0.57v-0.264H57.539z"/>
	<path fill="#092452" d="M64.854,51.768c0-0.255-0.026-0.431-0.079-0.529c-0.054-0.099-0.157-0.197-0.312-0.296
		c-0.064-0.043-0.159-0.096-0.284-0.16c-0.255-0.126-0.383-0.259-0.383-0.401c0-0.105,0.039-0.201,0.112-0.284
		c0.073-0.084,0.203-0.176,0.386-0.274l0.148-0.085c0.858-0.451,1.431-0.676,1.712-0.676c0.148,0,0.25,0.066,0.309,0.201
		c0.055,0.134,0.084,0.442,0.084,0.931v7.421c0,0.182,0.021,0.335,0.062,0.454c0.042,0.119,0.105,0.201,0.19,0.242
		c0.099,0.044,0.22,0.092,0.359,0.149c0.367,0.146,0.551,0.32,0.551,0.518c0,0.156-0.061,0.262-0.18,0.321
		c-0.121,0.06-0.346,0.089-0.676,0.089h-2.277c-0.303,0-0.509-0.029-0.617-0.089c-0.109-0.06-0.164-0.161-0.164-0.301
		c0-0.107,0.027-0.199,0.085-0.274c0.055-0.078,0.158-0.153,0.307-0.223c0.057-0.027,0.133-0.063,0.231-0.105
		c0.289-0.121,0.434-0.366,0.434-0.74v-5.888H64.854z M64.272,46.006c0-0.323,0.115-0.589,0.344-0.793
		c0.228-0.203,0.527-0.307,0.894-0.307c0.359,0,0.65,0.104,0.873,0.307c0.22,0.204,0.332,0.468,0.332,0.793
		c0,0.339-0.113,0.609-0.339,0.809c-0.225,0.202-0.521,0.301-0.887,0.301c-0.374,0-0.672-0.099-0.89-0.301
		C64.38,46.613,64.272,46.344,64.272,46.006z"/>
	<path fill="#092452" d="M68.522,57.423c0-0.204,0.066-0.371,0.195-0.504c0.13-0.128,0.295-0.194,0.492-0.194
		c0.219,0,0.479,0.189,0.781,0.57c0.092,0.105,0.164,0.19,0.213,0.254c0.289,0.323,0.612,0.568,0.972,0.729
		c0.361,0.165,0.766,0.243,1.217,0.243c0.635,0,1.152-0.165,1.558-0.495c0.407-0.332,0.609-0.758,0.609-1.28
		c0-0.733-0.831-1.3-2.495-1.702c-0.092-0.021-0.167-0.037-0.222-0.053c-1.036-0.253-1.776-0.596-2.221-1.024
		c-0.443-0.431-0.664-1.013-0.664-1.746c0-0.944,0.317-1.697,0.952-2.266c0.633-0.568,1.483-0.853,2.548-0.853
		c1.014,0,1.797,0.146,2.352,0.438c0.555,0.293,0.829,0.706,0.829,1.232c0,0.39-0.027,0.648-0.084,0.777
		c-0.057,0.13-0.165,0.196-0.328,0.196c-0.19,0-0.415-0.155-0.675-0.465c-0.106-0.119-0.19-0.211-0.256-0.274
		c-0.268-0.275-0.584-0.486-0.95-0.635c-0.367-0.149-0.761-0.221-1.185-0.221c-0.509,0-0.931,0.147-1.269,0.438
		c-0.339,0.293-0.507,0.657-0.507,1.095c0,0.366,0.11,0.655,0.332,0.866c0.221,0.211,0.65,0.405,1.285,0.582
		c0.204,0.055,0.492,0.131,0.866,0.22c0.922,0.22,1.536,0.426,1.839,0.623c0.437,0.282,0.762,0.614,0.978,0.997
		c0.215,0.378,0.322,0.811,0.322,1.299c0,1.021-0.344,1.847-1.031,2.479c-0.688,0.63-1.59,0.946-2.713,0.946
		c-0.95,0-1.812-0.257-2.584-0.766C68.91,58.42,68.522,57.916,68.522,57.423z"/>
</g>
<path fill="#092452" d="M77.456,57.036c0.001-1.753,1.438-3.114,3.277-3.109c1.755,0.002,3.155,1.386,3.157,3.118
	c0.004,1.796-1.411,3.159-3.282,3.152C78.867,60.19,77.455,58.772,77.456,57.036z M80.716,59.565c1.348,0,2.393-1.1,2.383-2.505
	c-0.011-1.418-1.093-2.54-2.439-2.524c-1.351,0.014-2.415,1.127-2.415,2.521C78.246,58.483,79.314,59.572,80.716,59.565z"/>
<path fill="#092452" d="M79.47,55.555c0.67-0.085,1.336-0.192,1.997,0.009c0.345,0.105,0.556,0.351,0.581,0.731
	c0.024,0.362-0.158,0.594-0.473,0.742c-0.043,0.022-0.083,0.046-0.161,0.09c0.63,0.325,0.486,0.998,0.77,1.537
	c-0.26,0-0.476,0.009-0.69-0.007c-0.053-0.005-0.119-0.092-0.143-0.153c-0.062-0.168-0.109-0.342-0.15-0.516
	c-0.112-0.454-0.238-0.555-0.708-0.557c-0.095,0-0.187,0-0.319,0c0,0.412,0,0.806,0,1.219c-0.256,0-0.472,0-0.705,0
	C79.47,57.62,79.47,56.6,79.47,55.555z M80.217,56.944c0.245-0.021,0.466-0.023,0.678-0.064c0.227-0.046,0.393-0.188,0.383-0.439
	c-0.01-0.245-0.166-0.401-0.399-0.431c-0.212-0.028-0.43-0.005-0.661-0.005C80.217,56.314,80.217,56.6,80.217,56.944z"/>
</svg>
