<?xml version="1.0" encoding="utf-8"?>
<!-- Generator: Adobe Illustrator 16.0.0, SVG Export Plug-In . SVG Version: 6.00 Build 0)  -->
<!DOCTYPE svg PUBLIC "-//W3C//DTD SVG 1.1//EN" "http://www.w3.org/Graphics/SVG/1.1/DTD/svg11.dtd">
<svg version="1.1" id="Capa_1" xmlns="http://www.w3.org/2000/svg" xmlns:xlink="http://www.w3.org/1999/xlink" x="0px" y="0px"
	 width="100px" height="76.77px" viewBox="0 0 100 76.77" enable-background="new 0 0 100 76.77" xml:space="preserve">
<g>
	<g>
		<circle fill="#D81F26" cx="55.85" cy="29.329" r="2.351"/>
		<circle fill="#D81F26" cx="52.637" cy="26.221" r="1.572"/>
		<circle fill="#D81F26" cx="65.454" cy="39.282" r="3.908"/>
		<circle fill="#D81F26" cx="60.184" cy="33.691" r="3.11"/>
	</g>
	<g>
		<circle fill="#D81F26" cx="44.899" cy="29.376" r="2.35"/>
		<circle fill="#D81F26" cx="48.064" cy="26.221" r="1.571"/>
		<circle fill="#D81F26" cx="35.241" cy="39.282" r="3.908"/>
		<circle fill="#D81F26" cx="40.592" cy="33.839" r="3.111"/>
	</g>
	<g>
		<circle fill="#D81F26" cx="55.759" cy="18.503" r="2.349"/>
		<circle fill="#D81F26" cx="52.617" cy="21.644" r="1.572"/>
		<circle fill="#D81F26" cx="65.604" cy="8.806" r="3.908"/>
		<circle fill="#D81F26" cx="60.148" cy="14.198" r="3.111"/>
	</g>
	<g>
		<circle fill="#D81F26" cx="44.974" cy="18.432" r="2.349"/>
		<circle fill="#D81F26" cx="48.039" cy="21.625" r="1.571"/>
		<circle fill="#D81F26" cx="34.94" cy="8.833" r="3.908"/>
		<circle fill="#D81F26" cx="40.475" cy="14.14" r="3.11"/>
	</g>
</g>
<g>
	<path fill="#FFFFFF" d="M35.489,72.017c0.089,0.418,0.281,0.75,0.574,0.994c0.294,0.246,0.644,0.368,1.051,0.368
		c0.219,0,0.423-0.027,0.617-0.081s0.384-0.138,0.569-0.253c0.089-0.054,0.2-0.13,0.332-0.23c0.182-0.133,0.303-0.197,0.36-0.197
		c0.057,0,0.104,0.021,0.143,0.063c0.037,0.042,0.056,0.099,0.056,0.166c0,0.11-0.073,0.244-0.222,0.399
		c-0.149,0.153-0.347,0.305-0.594,0.447c-0.206,0.122-0.426,0.213-0.657,0.272c-0.231,0.06-0.474,0.092-0.727,0.092
		c-0.755,0-1.357-0.226-1.809-0.674c-0.45-0.45-0.677-1.05-0.677-1.801c0-0.822,0.268-1.514,0.804-2.069
		c0.534-0.557,1.193-0.835,1.978-0.835c0.598,0,1.057,0.124,1.379,0.371c0.323,0.248,0.482,0.595,0.482,1.048
		c0,0.532-0.298,0.954-0.894,1.264C37.66,71.675,36.738,71.892,35.489,72.017z M35.41,71.466c0.973-0.095,1.687-0.259,2.144-0.494
		c0.456-0.23,0.685-0.549,0.685-0.944c0-0.267-0.092-0.472-0.276-0.624c-0.185-0.148-0.438-0.224-0.76-0.224
		c-0.525,0-0.956,0.204-1.29,0.611c-0.334,0.408-0.502,0.936-0.502,1.587L35.41,71.466L35.41,71.466z"/>
	<path fill="#FFFFFF" d="M40.362,73.445c0.135-0.077,0.203-0.226,0.203-0.451v-2.451c0-0.349-0.013-0.572-0.037-0.68
		c-0.024-0.104-0.071-0.183-0.139-0.232c-0.044-0.032-0.126-0.072-0.247-0.121c-0.122-0.048-0.183-0.112-0.183-0.195
		c0-0.097,0.108-0.225,0.325-0.388c0.216-0.159,0.395-0.242,0.534-0.242c0.101,0,0.191,0.076,0.273,0.225
		c0.082,0.147,0.155,0.37,0.22,0.668c0.229-0.294,0.493-0.515,0.793-0.665c0.298-0.149,0.624-0.228,0.978-0.228
		c0.605,0,1.056,0.199,1.355,0.593c0.3,0.396,0.448,0.999,0.448,1.808v1.942c0,0.117,0.007,0.202,0.021,0.253
		c0.015,0.05,0.041,0.088,0.081,0.112c0.031,0.021,0.078,0.048,0.14,0.08c0.146,0.078,0.22,0.16,0.22,0.247
		c0,0.067-0.028,0.115-0.083,0.146c-0.057,0.027-0.15,0.041-0.282,0.041h-1.094c-0.133,0-0.226-0.014-0.282-0.04
		c-0.056-0.027-0.084-0.072-0.084-0.139c0-0.088,0.06-0.158,0.178-0.214c0.035-0.017,0.061-0.03,0.074-0.036
		c0.126-0.061,0.2-0.118,0.227-0.172c0.025-0.055,0.037-0.152,0.037-0.301v-1.933c0-0.603-0.101-1.039-0.303-1.314
		c-0.201-0.273-0.521-0.413-0.957-0.413c-0.416,0-0.746,0.119-0.993,0.36c-0.246,0.237-0.369,0.562-0.369,0.97v2.453
		c0,0.075,0.004,0.132,0.015,0.168c0.011,0.038,0.03,0.069,0.06,0.095c0.031,0.021,0.083,0.049,0.155,0.086
		c0.14,0.071,0.21,0.148,0.21,0.23c0,0.074-0.028,0.126-0.083,0.154c-0.056,0.028-0.16,0.041-0.314,0.041H40.44
		c-0.135,0-0.229-0.013-0.279-0.035c-0.051-0.025-0.075-0.067-0.075-0.128c0-0.055,0.012-0.1,0.038-0.135
		c0.026-0.032,0.086-0.077,0.183-0.131C40.317,73.469,40.337,73.459,40.362,73.445L40.362,73.445z"/>
	<path fill="#FFFFFF" d="M46.988,72.017c0.089,0.418,0.28,0.75,0.574,0.994c0.294,0.246,0.643,0.368,1.051,0.368
		c0.217,0,0.423-0.027,0.617-0.081c0.193-0.054,0.383-0.138,0.568-0.253c0.089-0.054,0.2-0.13,0.332-0.23
		c0.182-0.133,0.302-0.197,0.36-0.197c0.058,0,0.105,0.021,0.144,0.063c0.036,0.042,0.056,0.099,0.056,0.166
		c0,0.11-0.071,0.244-0.222,0.399c-0.149,0.153-0.346,0.305-0.594,0.447c-0.208,0.122-0.426,0.213-0.657,0.272
		c-0.23,0.061-0.474,0.092-0.727,0.092c-0.755,0-1.358-0.226-1.81-0.674c-0.45-0.45-0.676-1.05-0.676-1.801
		c0-0.822,0.268-1.514,0.802-2.069c0.534-0.556,1.193-0.835,1.979-0.835c0.597,0,1.057,0.124,1.379,0.371
		c0.32,0.248,0.482,0.595,0.482,1.048c0,0.532-0.298,0.954-0.896,1.264C49.158,71.675,48.235,71.892,46.988,72.017z M46.907,71.466
		c0.973-0.095,1.687-0.259,2.144-0.494c0.456-0.23,0.684-0.549,0.684-0.944c0-0.267-0.092-0.472-0.276-0.624
		c-0.185-0.149-0.438-0.224-0.759-0.224c-0.525,0-0.955,0.204-1.29,0.611c-0.334,0.408-0.502,0.936-0.502,1.587L46.907,71.466
		L46.907,71.466z"/>
	<path fill="#FFFFFF" d="M52.001,72.806v-2.361c0-0.226-0.019-0.386-0.054-0.477c-0.032-0.093-0.088-0.169-0.168-0.227
		c-0.057-0.048-0.145-0.095-0.256-0.146c-0.166-0.074-0.248-0.164-0.248-0.271c0-0.043,0.021-0.096,0.07-0.158
		c0.045-0.062,0.108-0.124,0.19-0.187c0.114-0.089,0.22-0.156,0.315-0.208c0.094-0.051,0.168-0.077,0.222-0.077
		c0.165,0,0.307,0.134,0.422,0.397c0.114,0.266,0.187,0.614,0.208,1.052c0.181-0.473,0.396-0.838,0.646-1.097
		c0.252-0.258,0.512-0.387,0.779-0.387c0.189,0,0.336,0.069,0.439,0.211c0.104,0.142,0.156,0.343,0.156,0.603
		c0,0.085-0.026,0.15-0.08,0.206c-0.052,0.055-0.119,0.081-0.201,0.081c-0.086,0-0.202-0.035-0.351-0.111
		c-0.149-0.071-0.255-0.106-0.315-0.106c-0.234,0-0.448,0.2-0.646,0.602c-0.194,0.398-0.292,0.888-0.292,1.465v1.175
		c0,0.225,0.014,0.372,0.041,0.438c0.026,0.069,0.074,0.117,0.143,0.146c0.054,0.023,0.139,0.048,0.252,0.077
		c0.218,0.059,0.328,0.146,0.328,0.264c0,0.07-0.029,0.122-0.084,0.152c-0.056,0.029-0.16,0.043-0.313,0.043h-1.375
		c-0.147,0-0.25-0.013-0.298-0.038c-0.051-0.028-0.076-0.077-0.076-0.147c0-0.093,0.079-0.18,0.242-0.259
		c0.086-0.042,0.146-0.076,0.188-0.103c0.041-0.028,0.07-0.07,0.09-0.129c0.015-0.057,0.022-0.151,0.022-0.29v-0.133H52.001z"/>
	<path fill="#FFFFFF" d="M58.824,73.203c0.391,0.139,0.681,0.312,0.869,0.519c0.19,0.21,0.283,0.454,0.283,0.742
		c0,0.491-0.238,0.879-0.72,1.168c-0.481,0.29-1.134,0.437-1.952,0.437c-0.701,0-1.242-0.085-1.627-0.255
		c-0.383-0.17-0.572-0.41-0.572-0.721c0-0.176,0.062-0.331,0.182-0.467c0.123-0.138,0.262-0.204,0.414-0.204
		c0.05,0,0.093,0.019,0.126,0.058c0.034,0.039,0.051,0.089,0.051,0.149c0,0.032-0.009,0.075-0.028,0.126
		c-0.018,0.052-0.025,0.089-0.025,0.104c0,0.164,0.131,0.292,0.39,0.383c0.261,0.089,0.628,0.135,1.104,0.135
		c0.57,0,1.013-0.077,1.324-0.233c0.312-0.155,0.467-0.378,0.467-0.667c0-0.197-0.069-0.368-0.211-0.517
		c-0.144-0.146-0.371-0.285-0.689-0.417c-0.215,0.042-0.395,0.073-0.54,0.093c-0.146,0.019-0.267,0.029-0.362,0.029
		c-0.673,0-1.222-0.23-1.646-0.69c-0.427-0.461-0.642-1.059-0.642-1.792c0-0.739,0.221-1.341,0.655-1.802
		c0.438-0.462,1.007-0.693,1.708-0.693c0.198,0,0.451,0.022,0.768,0.062c0.313,0.042,0.535,0.062,0.666,0.062
		c0.026,0,0.131-0.003,0.308-0.01c0.177-0.008,0.336-0.012,0.479-0.012c0.176,0,0.309,0.027,0.399,0.086
		c0.091,0.058,0.138,0.144,0.138,0.253c0,0.118-0.055,0.204-0.164,0.256c-0.106,0.052-0.295,0.077-0.562,0.077
		c-0.007,0-0.022-0.001-0.054-0.006c-0.1-0.003-0.194-0.005-0.282-0.005c0.214,0.209,0.38,0.459,0.495,0.755
		c0.117,0.295,0.174,0.608,0.174,0.943c0,0.419-0.077,0.804-0.232,1.146C59.357,72.639,59.128,72.941,58.824,73.203z M55.932,71.147
		c0,0.629,0.125,1.109,0.375,1.447c0.252,0.337,0.608,0.509,1.074,0.509c0.475,0,0.838-0.168,1.09-0.502
		c0.25-0.335,0.377-0.817,0.377-1.454c0-0.597-0.13-1.06-0.389-1.392c-0.258-0.33-0.617-0.496-1.078-0.496
		c-0.457,0-0.814,0.165-1.066,0.493C56.061,70.082,55.932,70.548,55.932,71.147z"/>
	<path fill="#FFFFFF" d="M63.331,73.455c-0.103,0.055-0.199,0.094-0.298,0.123c-0.1,0.028-0.198,0.044-0.299,0.044
		c-0.473,0-0.868-0.24-1.188-0.721c-0.321-0.479-0.578-1.212-0.769-2.193c-0.035-0.204-0.069-0.448-0.096-0.736
		c-0.031-0.289-0.059-0.463-0.086-0.523c-0.035-0.067-0.107-0.144-0.216-0.224c-0.104-0.08-0.159-0.16-0.159-0.244
		c0-0.061,0.031-0.102,0.096-0.125c0.063-0.023,0.197-0.034,0.396-0.034h0.723c0.248,0,0.401,0.015,0.467,0.041
		C61.968,68.893,62,68.948,62,69.029c0,0.087-0.055,0.159-0.165,0.221c-0.026,0.014-0.045,0.024-0.053,0.029
		c-0.118,0.072-0.197,0.148-0.233,0.227c-0.033,0.078-0.054,0.224-0.054,0.436c0,0.226,0.034,0.495,0.104,0.811
		c0.066,0.313,0.166,0.656,0.297,1.023c0.154,0.428,0.326,0.738,0.514,0.938s0.402,0.301,0.652,0.301
		c0.221,0,0.402-0.069,0.543-0.207c0.144-0.138,0.287-0.402,0.438-0.791c0.138-0.357,0.244-0.741,0.327-1.144
		c0.083-0.404,0.124-0.766,0.124-1.078c0-0.108-0.013-0.198-0.036-0.271c-0.025-0.071-0.064-0.13-0.118-0.172
		c-0.043-0.029-0.104-0.067-0.188-0.105c-0.141-0.064-0.209-0.144-0.209-0.23c0-0.075,0.029-0.127,0.089-0.156
		c0.06-0.027,0.184-0.042,0.372-0.042h0.586c0.191,0,0.326,0.021,0.396,0.054c0.069,0.035,0.105,0.099,0.105,0.189
		c0,0.038-0.034,0.102-0.104,0.192c-0.07,0.089-0.117,0.176-0.148,0.257c-0.034,0.098-0.09,0.39-0.17,0.872
		c-0.076,0.485-0.168,0.912-0.28,1.28c-0.388,1.295-0.933,2.344-1.64,3.146c-0.705,0.804-1.408,1.204-2.104,1.204
		c-0.194,0-0.344-0.039-0.453-0.123c-0.108-0.082-0.163-0.194-0.163-0.336c0-0.115,0.043-0.207,0.129-0.271
		c0.086-0.064,0.203-0.1,0.354-0.1c0.043,0,0.111,0.01,0.209,0.028c0.098,0.017,0.175,0.028,0.23,0.028
		c0.344,0,0.696-0.163,1.061-0.488C62.773,74.428,63.079,73.996,63.331,73.455z"/>
</g>
<g>
	<path fill="#FFFFFF" d="M26.459,55.668c0.176,0.825,0.552,1.478,1.131,1.961c0.578,0.482,1.269,0.725,2.072,0.725
		c0.43,0,0.836-0.053,1.215-0.158c0.382-0.106,0.755-0.271,1.121-0.496c0.176-0.108,0.394-0.26,0.656-0.456
		c0.358-0.263,0.595-0.393,0.708-0.393c0.114,0,0.206,0.043,0.28,0.128c0.074,0.082,0.111,0.192,0.111,0.325
		c0,0.22-0.146,0.481-0.438,0.788c-0.294,0.308-0.682,0.603-1.169,0.885c-0.409,0.238-0.84,0.417-1.296,0.538
		c-0.453,0.119-0.93,0.179-1.432,0.179c-1.487,0-2.674-0.441-3.562-1.325c-0.887-0.886-1.331-2.066-1.331-3.545
		c0-1.622,0.525-2.98,1.578-4.078c1.054-1.096,2.354-1.644,3.897-1.644c1.176,0,2.081,0.243,2.716,0.729
		c0.635,0.485,0.952,1.173,0.952,2.062c0,1.051-0.586,1.881-1.76,2.49C30.734,54.994,28.917,55.421,26.459,55.668z M26.299,54.58
		c1.917-0.185,3.324-0.507,4.224-0.969c0.899-0.462,1.348-1.083,1.348-1.866c0-0.521-0.182-0.931-0.545-1.227
		c-0.362-0.298-0.86-0.443-1.495-0.443c-1.036,0-1.882,0.402-2.542,1.204c-0.66,0.806-0.987,1.848-0.987,3.131v0.17H26.299z"/>
	<path fill="#FFFFFF" d="M38.309,54.366c-0.642-0.703-1.291-1.498-1.949-2.384c-0.66-0.884-1.05-1.384-1.169-1.496
		c-0.092-0.084-0.277-0.193-0.556-0.332c-0.279-0.138-0.418-0.283-0.418-0.438c0-0.133,0.051-0.225,0.148-0.275
		c0.099-0.048,0.307-0.07,0.624-0.07h2.103c0.333,0,0.553,0.022,0.661,0.07c0.109,0.052,0.164,0.144,0.164,0.275
		c0,0.084-0.094,0.208-0.279,0.371c-0.188,0.162-0.281,0.309-0.281,0.444c0,0.196,0.178,0.535,0.533,1.013
		c0.356,0.479,0.855,1.045,1.496,1.689c0.578-0.576,1.047-1.119,1.406-1.626c0.36-0.509,0.539-0.865,0.539-1.079
		c0-0.121-0.107-0.26-0.323-0.412c-0.214-0.155-0.322-0.288-0.322-0.403c0-0.133,0.059-0.226,0.176-0.274
		c0.115-0.048,0.353-0.07,0.712-0.07h1.492c0.288,0,0.481,0.021,0.575,0.062c0.096,0.044,0.145,0.122,0.145,0.234
		c0,0.154-0.124,0.293-0.37,0.417c-0.247,0.121-0.42,0.234-0.519,0.344c-0.069,0.07-0.393,0.513-0.968,1.331
		c-0.575,0.817-1.175,1.558-1.803,2.22c0.685,0.74,1.409,1.583,2.173,2.527c0.764,0.944,1.231,1.487,1.401,1.629
		c0.092,0.085,0.279,0.204,0.564,0.359c0.285,0.155,0.429,0.315,0.429,0.485c0,0.155-0.063,0.265-0.186,0.323
		c-0.123,0.06-0.357,0.089-0.702,0.089h-2.209c-0.247,0-0.429-0.036-0.545-0.112c-0.116-0.072-0.174-0.188-0.174-0.344
		c0-0.126,0.084-0.268,0.254-0.428c0.169-0.158,0.253-0.282,0.253-0.374c0-0.247-0.207-0.628-0.622-1.145
		c-0.417-0.513-1.012-1.127-1.787-1.837c-0.635,0.71-1.117,1.305-1.448,1.78c-0.33,0.478-0.496,0.82-0.496,1.031
		c0,0.188,0.131,0.364,0.391,0.518c0.262,0.155,0.391,0.313,0.391,0.478c0,0.152-0.065,0.266-0.195,0.332
		c-0.131,0.065-0.341,0.101-0.628,0.101h-2.211c-0.211,0-0.364-0.036-0.461-0.104c-0.094-0.073-0.142-0.182-0.142-0.327
		c0-0.206,0.186-0.391,0.56-0.55c0.374-0.163,0.616-0.312,0.73-0.444c0.077-0.092,0.232-0.301,0.465-0.624
		C36.733,56.211,37.527,55.221,38.309,54.366z"/>
	<path fill="#FFFFFF" d="M52.771,57.719c-0.465,0.655-1.035,1.147-1.713,1.479c-0.678,0.333-1.454,0.497-2.335,0.497
		c-1.051,0-1.884-0.279-2.5-0.841c-0.616-0.56-0.926-1.312-0.926-2.257c0-1.29,0.571-2.28,1.714-2.97
		c1.141-0.692,2.786-1.038,4.936-1.038h0.475c-0.083-0.747-0.398-1.329-0.947-1.748c-0.545-0.419-1.262-0.63-2.147-0.63
		c-0.509,0-1.052,0.172-1.63,0.509c-0.577,0.339-0.95,0.508-1.12,0.508c-0.197,0-0.36-0.055-0.49-0.164
		c-0.131-0.109-0.197-0.248-0.197-0.417c0-0.444,0.328-0.812,0.983-1.104c0.656-0.291,1.512-0.438,2.569-0.438
		c1.74,0,2.998,0.405,3.768,1.222c0.772,0.812,1.158,2.146,1.158,4.001v3.224c0,0.155,0.022,0.279,0.063,0.375
		c0.043,0.095,0.15,0.216,0.326,0.364c0.064,0.042,0.166,0.095,0.309,0.161c0.314,0.14,0.477,0.309,0.477,0.506
		c0,0.211-0.115,0.354-0.344,0.429c-0.229,0.073-0.803,0.109-1.719,0.109c-0.27,0-0.453-0.051-0.556-0.153
		c-0.104-0.101-0.153-0.286-0.153-0.554V57.719L52.771,57.719z M52.643,53.564h-0.283c-1.649,0-2.924,0.26-3.822,0.777
		s-1.348,1.248-1.348,2.192c0,0.569,0.195,1.037,0.586,1.398c0.391,0.364,0.902,0.546,1.527,0.546c0.353,0,0.699-0.046,1.043-0.138
		c0.34-0.09,0.646-0.218,0.913-0.38c0.521-0.323,0.883-0.67,1.084-1.036c0.202-0.366,0.301-0.88,0.301-1.542V53.564z"/>
	<path fill="#FFFFFF" d="M57.539,57.221V52.57c0-0.443-0.033-0.759-0.102-0.94c-0.066-0.185-0.178-0.33-0.332-0.444
		c-0.114-0.092-0.283-0.186-0.51-0.284c-0.322-0.148-0.484-0.327-0.484-0.541c0-0.083,0.046-0.188,0.138-0.312
		c0.09-0.121,0.219-0.245,0.379-0.364c0.226-0.177,0.433-0.313,0.617-0.412c0.188-0.099,0.335-0.148,0.44-0.148
		c0.322,0,0.602,0.261,0.828,0.783c0.229,0.521,0.365,1.213,0.408,2.07c0.359-0.93,0.785-1.646,1.278-2.155
		c0.495-0.509,1.003-0.761,1.532-0.761c0.373,0,0.664,0.138,0.869,0.417c0.203,0.277,0.307,0.673,0.307,1.188
		c0,0.163-0.053,0.296-0.153,0.402c-0.104,0.105-0.235,0.158-0.396,0.158c-0.172,0-0.401-0.073-0.694-0.218
		c-0.292-0.145-0.498-0.218-0.616-0.218c-0.465,0-0.892,0.395-1.273,1.185c-0.385,0.788-0.577,1.751-0.577,2.885v2.316
		c0,0.444,0.026,0.733,0.079,0.866c0.054,0.135,0.146,0.229,0.279,0.286c0.105,0.041,0.271,0.092,0.498,0.146
		c0.428,0.115,0.645,0.287,0.645,0.521c0,0.14-0.055,0.239-0.164,0.3c-0.108,0.06-0.314,0.09-0.617,0.09h-2.706
		c-0.297,0-0.494-0.025-0.592-0.078c-0.099-0.053-0.147-0.15-0.147-0.291c0-0.184,0.157-0.353,0.475-0.509
		c0.171-0.085,0.293-0.151,0.369-0.199c0.086-0.058,0.144-0.142,0.174-0.254c0.031-0.115,0.048-0.305,0.048-0.57L57.539,57.221
		L57.539,57.221z"/>
	<path fill="#FFFFFF" d="M64.854,51.768c0-0.255-0.025-0.431-0.078-0.528c-0.055-0.1-0.157-0.197-0.312-0.297
		c-0.064-0.043-0.158-0.096-0.283-0.159c-0.256-0.126-0.384-0.26-0.384-0.401c0-0.105,0.039-0.201,0.112-0.284
		c0.072-0.084,0.203-0.176,0.386-0.273l0.147-0.085c0.858-0.451,1.432-0.677,1.713-0.677c0.147,0,0.25,0.066,0.309,0.201
		c0.055,0.134,0.084,0.442,0.084,0.931v7.422c0,0.182,0.021,0.335,0.062,0.453c0.041,0.119,0.104,0.201,0.189,0.242
		c0.1,0.044,0.221,0.092,0.359,0.149c0.367,0.146,0.551,0.32,0.551,0.518c0,0.156-0.061,0.263-0.18,0.321
		c-0.121,0.06-0.346,0.089-0.676,0.089h-2.277c-0.303,0-0.51-0.029-0.617-0.089c-0.109-0.06-0.164-0.161-0.164-0.301
		c0-0.107,0.027-0.199,0.085-0.274c0.056-0.078,0.158-0.152,0.308-0.223c0.057-0.027,0.133-0.063,0.23-0.105
		c0.289-0.121,0.434-0.365,0.434-0.739v-5.889L64.854,51.768L64.854,51.768z M64.271,46.006c0-0.323,0.115-0.589,0.345-0.793
		c0.228-0.203,0.526-0.307,0.894-0.307c0.359,0,0.65,0.104,0.873,0.307c0.221,0.204,0.332,0.468,0.332,0.793
		c0,0.339-0.113,0.609-0.339,0.809c-0.226,0.202-0.521,0.302-0.887,0.302c-0.374,0-0.673-0.1-0.89-0.302
		C64.38,46.613,64.271,46.344,64.271,46.006z"/>
	<path fill="#FFFFFF" d="M68.521,57.423c0-0.204,0.066-0.371,0.195-0.504c0.131-0.128,0.295-0.194,0.492-0.194
		c0.219,0,0.479,0.189,0.781,0.57c0.092,0.104,0.164,0.189,0.213,0.254c0.289,0.323,0.611,0.568,0.972,0.729
		c0.361,0.165,0.767,0.243,1.218,0.243c0.635,0,1.151-0.165,1.558-0.495c0.407-0.332,0.608-0.758,0.608-1.279
		c0-0.733-0.83-1.301-2.494-1.702c-0.092-0.021-0.168-0.037-0.223-0.053c-1.035-0.254-1.775-0.597-2.221-1.024
		c-0.443-0.431-0.664-1.013-0.664-1.746c0-0.944,0.316-1.697,0.952-2.266c0.633-0.568,1.483-0.854,2.548-0.854
		c1.014,0,1.797,0.146,2.352,0.438c0.555,0.293,0.83,0.706,0.83,1.231c0,0.391-0.027,0.648-0.084,0.777
		c-0.058,0.13-0.166,0.196-0.328,0.196c-0.19,0-0.416-0.155-0.676-0.466c-0.105-0.118-0.189-0.211-0.256-0.273
		c-0.268-0.275-0.584-0.486-0.949-0.635c-0.367-0.149-0.762-0.222-1.186-0.222c-0.51,0-0.932,0.147-1.27,0.438
		c-0.339,0.293-0.507,0.657-0.507,1.095c0,0.366,0.11,0.655,0.332,0.866s0.65,0.405,1.285,0.582c0.204,0.055,0.492,0.131,0.866,0.22
		c0.922,0.22,1.535,0.426,1.839,0.623c0.437,0.282,0.762,0.614,0.978,0.997c0.215,0.378,0.322,0.812,0.322,1.299
		c0,1.021-0.344,1.848-1.031,2.479c-0.688,0.63-1.59,0.945-2.713,0.945c-0.949,0-1.812-0.257-2.584-0.766
		C68.91,58.42,68.521,57.916,68.521,57.423z"/>
</g>
<path fill="#FFFFFF" d="M77.456,57.036c0.001-1.753,1.438-3.114,3.276-3.109c1.756,0.002,3.156,1.386,3.158,3.118
	c0.004,1.796-1.412,3.159-3.283,3.151C78.867,60.19,77.455,58.772,77.456,57.036z M80.716,59.565c1.349,0,2.394-1.1,2.384-2.505
	c-0.012-1.418-1.094-2.54-2.439-2.523c-1.352,0.014-2.415,1.127-2.415,2.521C78.246,58.483,79.314,59.572,80.716,59.565z"/>
<path fill="#FFFFFF" d="M79.471,55.555c0.67-0.085,1.336-0.192,1.996,0.009c0.346,0.105,0.557,0.352,0.581,0.731
	c0.024,0.362-0.157,0.594-0.473,0.742c-0.043,0.021-0.083,0.046-0.161,0.09c0.63,0.325,0.486,0.998,0.77,1.537
	c-0.26,0-0.476,0.009-0.689-0.007c-0.053-0.006-0.119-0.093-0.143-0.153c-0.062-0.168-0.109-0.342-0.15-0.517
	c-0.112-0.453-0.238-0.555-0.708-0.557c-0.095,0-0.187,0-0.319,0c0,0.412,0,0.806,0,1.219c-0.256,0-0.472,0-0.705,0
	C79.471,57.62,79.471,56.6,79.471,55.555z M80.217,56.944c0.245-0.021,0.467-0.022,0.678-0.063c0.228-0.046,0.394-0.188,0.383-0.439
	c-0.01-0.245-0.166-0.4-0.398-0.431c-0.212-0.028-0.43-0.005-0.661-0.005C80.217,56.314,80.217,56.6,80.217,56.944z"/>
</svg>
