<?xml version="1.0" encoding="utf-8"?>
<!-- Generator: Adobe Illustrator 16.0.0, SVG Export Plug-In . SVG Version: 6.00 Build 0)  -->
<!DOCTYPE svg PUBLIC "-//W3C//DTD SVG 1.1//EN" "http://www.w3.org/Graphics/SVG/1.1/DTD/svg11.dtd">
<svg version="1.1" id="Capa_1" xmlns="http://www.w3.org/2000/svg" xmlns:xlink="http://www.w3.org/1999/xlink" x="0px" y="0px"
	 width="100px" height="76.77px" viewBox="0 0 100 76.77" enable-background="new 0 0 100 76.77" xml:space="preserve">
<g>
	<g>
		<circle fill-rule="evenodd" clip-rule="evenodd" fill="#D81F26" cx="58.566" cy="29.462" r="2.59"/>
		<circle fill-rule="evenodd" clip-rule="evenodd" fill="#D81F26" cx="55.024" cy="26.036" r="1.733"/>
		<circle fill-rule="evenodd" clip-rule="evenodd" fill="#D81F26" cx="69.155" cy="40.435" r="4.309"/>
		<circle fill-rule="evenodd" clip-rule="evenodd" fill="#D81F26" cx="63.345" cy="34.272" r="3.429"/>
	</g>
	<g>
		<circle fill-rule="evenodd" clip-rule="evenodd" fill="#D81F26" cx="46.495" cy="29.515" r="2.591"/>
		<circle fill-rule="evenodd" clip-rule="evenodd" fill="#D81F26" cx="49.985" cy="26.036" r="1.733"/>
		<circle fill-rule="evenodd" clip-rule="evenodd" fill="#D81F26" cx="35.847" cy="40.435" r="4.309"/>
		<circle fill-rule="evenodd" clip-rule="evenodd" fill="#D81F26" cx="41.746" cy="34.434" r="3.43"/>
	</g>
	<g>
		<circle fill-rule="evenodd" clip-rule="evenodd" fill="#D81F26" cx="58.467" cy="17.527" r="2.59"/>
		<circle fill-rule="evenodd" clip-rule="evenodd" fill="#D81F26" cx="55.003" cy="20.99" r="1.733"/>
		<circle fill-rule="evenodd" clip-rule="evenodd" fill="#D81F26" cx="69.32" cy="6.837" r="4.308"/>
		<circle fill-rule="evenodd" clip-rule="evenodd" fill="#D81F26" cx="63.306" cy="12.781" r="3.429"/>
	</g>
	<g>
		<circle fill-rule="evenodd" clip-rule="evenodd" fill="#D81F26" cx="46.578" cy="17.449" r="2.591"/>
		<circle fill-rule="evenodd" clip-rule="evenodd" fill="#D81F26" cx="49.957" cy="20.969" r="1.733"/>
		<circle fill-rule="evenodd" clip-rule="evenodd" fill="#D81F26" cx="35.515" cy="6.867" r="4.308"/>
		<circle fill-rule="evenodd" clip-rule="evenodd" fill="#D81F26" cx="41.618" cy="12.718" r="3.429"/>
	</g>
</g>
<g>
	<path fill="#FFFFFF" d="M26.533,58.401c0.194,0.908,0.609,1.628,1.245,2.159c0.636,0.532,1.397,0.798,2.282,0.798
		c0.473,0,0.919-0.059,1.338-0.175s0.83-0.299,1.234-0.547c0.194-0.117,0.435-0.283,0.722-0.501c0.396-0.287,0.656-0.431,0.78-0.431
		s0.227,0.047,0.309,0.14c0.082,0.094,0.122,0.214,0.122,0.361c0,0.24-0.161,0.529-0.483,0.867
		c-0.322,0.337-0.751,0.661-1.286,0.972c-0.45,0.264-0.925,0.462-1.426,0.594c-0.5,0.132-1.026,0.197-1.577,0.197
		c-1.637,0-2.945-0.486-3.922-1.46c-0.978-0.975-1.467-2.276-1.467-3.905c0-1.785,0.58-3.281,1.74-4.487
		c1.16-1.207,2.59-1.811,4.289-1.811c1.296,0,2.293,0.268,2.992,0.804c0.698,0.535,1.047,1.292,1.047,2.27
		c0,1.156-0.646,2.07-1.938,2.741S29.241,58.129,26.533,58.401z M26.358,57.201c2.111-0.201,3.661-0.557,4.65-1.064
		c0.99-0.508,1.484-1.193,1.484-2.055c0-0.574-0.2-1.024-0.6-1.35c-0.4-0.326-0.949-0.489-1.647-0.489
		c-1.141,0-2.074,0.442-2.799,1.327s-1.088,2.033-1.088,3.445V57.201z"/>
	<path fill="#FFFFFF" d="M37.718,60.24c0.885-1.241,1.758-2.331,2.619-3.271c-0.706-0.775-1.422-1.65-2.147-2.625
		c-0.726-0.974-1.154-1.522-1.286-1.646c-0.101-0.094-0.305-0.216-0.611-0.367s-0.46-0.312-0.46-0.482
		c0-0.147,0.054-0.249,0.163-0.303c0.109-0.055,0.338-0.082,0.687-0.082h2.316c0.364,0,0.607,0.027,0.727,0.082
		c0.121,0.054,0.181,0.155,0.181,0.303c0,0.093-0.103,0.229-0.309,0.407s-0.309,0.342-0.309,0.488c0,0.218,0.196,0.59,0.588,1.118
		c0.392,0.527,0.941,1.148,1.647,1.862c0.636-0.637,1.152-1.234,1.548-1.793c0.396-0.559,0.594-0.954,0.594-1.188
		c0-0.132-0.119-0.283-0.355-0.453c-0.237-0.171-0.355-0.318-0.355-0.442c0-0.147,0.064-0.249,0.192-0.303
		c0.128-0.055,0.39-0.082,0.786-0.082h1.641c0.318,0,0.53,0.023,0.634,0.07c0.105,0.047,0.157,0.132,0.157,0.256
		c0,0.171-0.136,0.324-0.407,0.46c-0.272,0.136-0.462,0.262-0.57,0.378c-0.078,0.078-0.433,0.566-1.065,1.467
		c-0.633,0.9-1.294,1.715-1.985,2.444c0.752,0.814,1.55,1.742,2.392,2.782c0.842,1.04,1.356,1.637,1.542,1.792
		c0.101,0.094,0.309,0.226,0.623,0.396c0.314,0.17,0.471,0.349,0.471,0.535c0,0.171-0.068,0.289-0.204,0.354
		c-0.136,0.066-0.394,0.1-0.774,0.1h-2.433c-0.272,0-0.472-0.041-0.6-0.122c-0.128-0.082-0.192-0.208-0.192-0.379
		c0-0.14,0.093-0.297,0.279-0.472c0.186-0.174,0.279-0.312,0.279-0.413c0-0.271-0.229-0.69-0.687-1.257
		c-0.458-0.566-1.113-1.241-1.967-2.025c-0.699,0.784-1.23,1.438-1.595,1.962c-0.365,0.523-0.547,0.901-0.547,1.135
		c0,0.209,0.144,0.399,0.431,0.57s0.431,0.345,0.431,0.523c0,0.171-0.072,0.293-0.215,0.366c-0.144,0.074-0.375,0.111-0.693,0.111
		H36.45c-0.233,0-0.402-0.039-0.506-0.116c-0.105-0.078-0.157-0.198-0.157-0.361c0-0.225,0.206-0.427,0.617-0.605
		c0.411-0.178,0.679-0.341,0.803-0.488C37.292,60.825,37.462,60.597,37.718,60.24L37.718,60.24z"/>
	<path fill="#FFFFFF" d="M56.261,60.658c-0.513,0.722-1.141,1.266-1.886,1.63c-0.745,0.365-1.603,0.547-2.572,0.547
		c-1.156,0-2.074-0.308-2.753-0.925c-0.679-0.617-1.019-1.445-1.019-2.485c0-1.42,0.628-2.51,1.886-3.271
		c1.257-0.761,3.069-1.141,5.436-1.141h0.524c-0.094-0.822-0.441-1.465-1.042-1.927c-0.602-0.462-1.392-0.692-2.369-0.692
		c-0.559,0-1.156,0.187-1.792,0.559c-0.637,0.372-1.048,0.559-1.234,0.559c-0.218,0-0.398-0.06-0.542-0.181
		c-0.144-0.12-0.215-0.273-0.215-0.459c0-0.489,0.361-0.895,1.083-1.217s1.664-0.483,2.828-0.483c1.917,0,3.3,0.448,4.15,1.345
		c0.85,0.896,1.274,2.365,1.274,4.405v3.551c0,0.171,0.023,0.309,0.069,0.413c0.047,0.104,0.167,0.238,0.361,0.401
		c0.069,0.047,0.182,0.104,0.337,0.175c0.35,0.155,0.524,0.342,0.524,0.559c0,0.232-0.127,0.39-0.379,0.472
		c-0.252,0.081-0.883,0.122-1.892,0.122c-0.295,0-0.498-0.057-0.61-0.169c-0.113-0.112-0.169-0.316-0.169-0.611V60.658z
		 M56.121,56.084h-0.314c-1.815,0-3.219,0.285-4.208,0.855s-1.484,1.376-1.484,2.416c0,0.628,0.215,1.143,0.646,1.542
		s0.991,0.6,1.682,0.6c0.389,0,0.771-0.051,1.146-0.151c0.377-0.101,0.712-0.24,1.007-0.419c0.574-0.357,0.973-0.737,1.193-1.141
		c0.222-0.404,0.332-0.971,0.332-1.7V56.084z"/>
	<path fill="#FFFFFF" d="M61.51,60.112V54.99c0-0.489-0.036-0.834-0.11-1.036c-0.073-0.202-0.196-0.364-0.366-0.489
		c-0.124-0.101-0.311-0.205-0.559-0.313c-0.357-0.163-0.536-0.361-0.536-0.594c0-0.094,0.051-0.208,0.151-0.344
		s0.241-0.27,0.419-0.401c0.249-0.194,0.476-0.346,0.682-0.454c0.205-0.108,0.366-0.163,0.482-0.163
		c0.357,0,0.662,0.287,0.914,0.861s0.401,1.335,0.448,2.281c0.396-1.024,0.865-1.815,1.408-2.374s1.105-0.838,1.688-0.838
		c0.411,0,0.729,0.153,0.955,0.459c0.225,0.307,0.337,0.743,0.337,1.31c0,0.179-0.056,0.326-0.168,0.442
		c-0.113,0.117-0.259,0.175-0.437,0.175c-0.187,0-0.44-0.079-0.763-0.238s-0.549-0.239-0.681-0.239c-0.513,0-0.98,0.436-1.403,1.304
		c-0.423,0.869-0.634,1.929-0.634,3.178v2.55c0,0.488,0.029,0.807,0.087,0.954c0.059,0.147,0.161,0.252,0.309,0.314
		c0.116,0.046,0.299,0.101,0.547,0.163c0.474,0.124,0.71,0.313,0.71,0.57c0,0.155-0.06,0.266-0.18,0.331
		c-0.121,0.066-0.348,0.1-0.682,0.1h-2.979c-0.326,0-0.543-0.029-0.652-0.088c-0.108-0.058-0.162-0.164-0.162-0.319
		c0-0.202,0.174-0.389,0.523-0.56c0.187-0.093,0.322-0.166,0.407-0.221c0.094-0.062,0.157-0.155,0.192-0.279
		s0.052-0.334,0.052-0.629V60.112z"/>
	<path fill="#FFFFFF" d="M69.565,54.106c0-0.279-0.029-0.474-0.088-0.582c-0.058-0.108-0.173-0.217-0.343-0.326
		c-0.07-0.046-0.175-0.104-0.314-0.174c-0.279-0.141-0.419-0.287-0.419-0.442c0-0.117,0.04-0.222,0.122-0.314
		c0.081-0.094,0.223-0.194,0.425-0.303l0.163-0.093c0.946-0.497,1.575-0.745,1.886-0.745c0.162,0,0.275,0.073,0.337,0.221
		c0.062,0.147,0.094,0.489,0.094,1.024v8.171c0,0.202,0.022,0.369,0.069,0.501s0.116,0.221,0.21,0.268
		c0.108,0.047,0.24,0.101,0.396,0.163c0.403,0.163,0.605,0.353,0.605,0.57c0,0.171-0.066,0.289-0.198,0.354
		c-0.132,0.066-0.38,0.1-0.745,0.1h-2.502c-0.334,0-0.562-0.033-0.682-0.1c-0.12-0.065-0.18-0.176-0.18-0.331
		c0-0.116,0.03-0.218,0.093-0.303c0.062-0.086,0.175-0.167,0.338-0.244c0.062-0.031,0.146-0.07,0.256-0.117
		c0.318-0.132,0.478-0.403,0.478-0.814V54.106z M68.925,47.762c0-0.356,0.126-0.647,0.378-0.873c0.252-0.225,0.58-0.338,0.984-0.338
		c0.396,0,0.716,0.113,0.96,0.338c0.244,0.226,0.366,0.517,0.366,0.873c0,0.372-0.124,0.669-0.372,0.891
		c-0.249,0.221-0.574,0.332-0.978,0.332c-0.412,0-0.737-0.111-0.979-0.332C69.045,48.431,68.925,48.134,68.925,47.762z"/>
	<path fill="#FFFFFF" d="M73.604,60.333c0-0.226,0.072-0.409,0.216-0.553s0.324-0.216,0.541-0.216c0.24,0,0.527,0.21,0.861,0.629
		c0.101,0.116,0.179,0.209,0.233,0.279c0.317,0.356,0.675,0.625,1.07,0.803c0.396,0.179,0.842,0.268,1.339,0.268
		c0.698,0,1.271-0.182,1.717-0.547c0.446-0.364,0.669-0.834,0.669-1.408c0-0.807-0.915-1.432-2.747-1.874
		c-0.101-0.023-0.182-0.043-0.244-0.059c-1.141-0.279-1.955-0.655-2.444-1.129c-0.489-0.473-0.733-1.113-0.733-1.921
		c0-1.039,0.35-1.871,1.048-2.496s1.633-0.938,2.805-0.938c1.118,0,1.981,0.161,2.59,0.483c0.609,0.322,0.914,0.774,0.914,1.356
		c0,0.427-0.031,0.712-0.093,0.855c-0.062,0.144-0.183,0.215-0.361,0.215c-0.209,0-0.458-0.171-0.745-0.512
		c-0.116-0.132-0.209-0.233-0.279-0.303c-0.295-0.303-0.644-0.535-1.047-0.698c-0.404-0.163-0.839-0.245-1.304-0.245
		c-0.559,0-1.024,0.161-1.397,0.483c-0.372,0.322-0.559,0.724-0.559,1.205c0,0.403,0.122,0.722,0.367,0.954
		c0.244,0.232,0.716,0.446,1.414,0.641c0.225,0.062,0.543,0.144,0.954,0.244c1.017,0.24,1.691,0.47,2.025,0.687
		c0.481,0.311,0.84,0.675,1.077,1.094c0.236,0.42,0.354,0.896,0.354,1.433c0,1.125-0.378,2.035-1.135,2.729
		s-1.752,1.041-2.985,1.041c-1.048,0-1.996-0.281-2.846-0.844S73.604,60.876,73.604,60.333z"/>
</g>
<g>
	<path fill="#FFFFFF" d="M41.42,71.022c0.068,0.32,0.215,0.574,0.44,0.762s0.493,0.282,0.805,0.282c0.167,0,0.325-0.021,0.473-0.062
		s0.293-0.105,0.436-0.192c0.068-0.041,0.153-0.101,0.255-0.177c0.14-0.102,0.231-0.152,0.275-0.152c0.043,0,0.08,0.017,0.109,0.05
		c0.029,0.032,0.043,0.075,0.043,0.127c0,0.085-0.057,0.187-0.17,0.306c-0.114,0.119-0.265,0.234-0.454,0.344
		c-0.159,0.093-0.327,0.163-0.503,0.209c-0.177,0.047-0.362,0.07-0.557,0.07c-0.578,0-1.04-0.172-1.385-0.516
		c-0.345-0.344-0.518-0.804-0.518-1.379c0-0.63,0.205-1.158,0.614-1.584c0.41-0.426,0.915-0.639,1.514-0.639
		c0.458,0,0.81,0.095,1.056,0.283c0.247,0.189,0.37,0.456,0.37,0.802c0,0.408-0.228,0.73-0.685,0.968
		C43.082,70.759,42.376,70.926,41.42,71.022z M41.358,70.598c0.745-0.071,1.292-0.196,1.642-0.376
		c0.349-0.179,0.524-0.421,0.524-0.725c0-0.203-0.071-0.362-0.211-0.477c-0.141-0.115-0.335-0.173-0.582-0.173
		c-0.403,0-0.732,0.156-0.988,0.469c-0.256,0.312-0.384,0.718-0.384,1.216V70.598z"/>
	<path fill="#FFFFFF" d="M45.151,72.115c0.104-0.058,0.156-0.173,0.156-0.345v-1.878c0-0.266-0.009-0.439-0.029-0.521
		c-0.019-0.08-0.055-0.14-0.106-0.179c-0.033-0.024-0.096-0.056-0.189-0.092c-0.093-0.037-0.14-0.087-0.14-0.15
		c0-0.074,0.083-0.173,0.249-0.296c0.166-0.123,0.302-0.185,0.409-0.185c0.077,0,0.146,0.057,0.209,0.17
		c0.063,0.114,0.119,0.284,0.168,0.512c0.175-0.225,0.377-0.395,0.606-0.51c0.229-0.114,0.479-0.172,0.75-0.172
		c0.463,0,0.809,0.151,1.038,0.454c0.229,0.303,0.343,0.764,0.343,1.383v1.487c0,0.09,0.005,0.154,0.016,0.193
		c0.011,0.038,0.032,0.066,0.062,0.086c0.024,0.017,0.06,0.037,0.107,0.062c0.112,0.061,0.168,0.123,0.168,0.189
		c0,0.052-0.021,0.089-0.064,0.11c-0.042,0.022-0.114,0.033-0.216,0.033h-0.838c-0.102,0-0.173-0.011-0.216-0.031
		s-0.064-0.055-0.064-0.104c0-0.068,0.045-0.123,0.136-0.164c0.027-0.014,0.046-0.023,0.058-0.029
		c0.096-0.046,0.153-0.09,0.172-0.131s0.029-0.118,0.029-0.23v-1.479c0-0.46-0.077-0.796-0.232-1.007S47.334,68.975,47,68.975
		c-0.318,0-0.571,0.092-0.76,0.275s-0.284,0.432-0.284,0.744v1.878c0,0.058,0.004,0.101,0.012,0.129
		c0.008,0.029,0.023,0.053,0.045,0.072c0.024,0.017,0.064,0.038,0.119,0.065c0.107,0.055,0.16,0.114,0.16,0.177
		c0,0.058-0.021,0.098-0.063,0.119c-0.042,0.022-0.123,0.033-0.241,0.033h-0.781c-0.104,0-0.175-0.01-0.213-0.029
		c-0.039-0.019-0.058-0.052-0.058-0.099c0-0.041,0.01-0.074,0.029-0.101c0.019-0.025,0.065-0.06,0.14-0.101
		C45.117,72.134,45.132,72.125,45.151,72.115L45.151,72.115z"/>
	<path fill="#FFFFFF" d="M50.226,71.022c0.068,0.32,0.215,0.574,0.44,0.762c0.225,0.188,0.492,0.282,0.805,0.282
		c0.167,0,0.325-0.021,0.473-0.062c0.148-0.041,0.293-0.105,0.436-0.192c0.068-0.041,0.153-0.101,0.255-0.177
		c0.14-0.102,0.231-0.152,0.275-0.152s0.08,0.017,0.109,0.05c0.028,0.032,0.043,0.075,0.043,0.127c0,0.085-0.058,0.187-0.171,0.306
		s-0.265,0.234-0.454,0.344c-0.159,0.093-0.326,0.163-0.503,0.209c-0.177,0.047-0.362,0.07-0.557,0.07
		c-0.578,0-1.04-0.172-1.385-0.516s-0.518-0.804-0.518-1.379c0-0.63,0.205-1.158,0.614-1.584c0.409-0.426,0.915-0.639,1.514-0.639
		c0.457,0,0.81,0.095,1.056,0.283c0.247,0.189,0.37,0.456,0.37,0.802c0,0.408-0.228,0.73-0.685,0.968
		C51.888,70.759,51.182,70.926,50.226,71.022z M50.164,70.598c0.745-0.071,1.293-0.196,1.642-0.376
		c0.35-0.179,0.524-0.421,0.524-0.725c0-0.203-0.071-0.362-0.212-0.477c-0.142-0.115-0.335-0.173-0.581-0.173
		c-0.403,0-0.732,0.156-0.988,0.469c-0.256,0.312-0.385,0.718-0.385,1.216V70.598z"/>
	<path fill="#FFFFFF" d="M54.063,71.625v-1.808c0-0.173-0.013-0.295-0.039-0.366c-0.025-0.071-0.068-0.128-0.129-0.172
		c-0.044-0.036-0.109-0.073-0.197-0.111c-0.126-0.058-0.189-0.127-0.189-0.21c0-0.032,0.019-0.073,0.054-0.121
		s0.085-0.095,0.148-0.142c0.087-0.068,0.167-0.122,0.24-0.16c0.072-0.038,0.129-0.058,0.17-0.058c0.126,0,0.233,0.102,0.323,0.305
		c0.089,0.202,0.142,0.471,0.158,0.805c0.14-0.361,0.305-0.641,0.497-0.838c0.191-0.197,0.39-0.296,0.596-0.296
		c0.146,0,0.258,0.054,0.337,0.162s0.119,0.263,0.119,0.462c0,0.063-0.02,0.115-0.06,0.156s-0.091,0.062-0.154,0.062
		c-0.065,0-0.155-0.027-0.269-0.084c-0.114-0.056-0.194-0.084-0.241-0.084c-0.181,0-0.346,0.153-0.495,0.46
		s-0.224,0.681-0.224,1.122v0.899c0,0.173,0.011,0.285,0.031,0.337c0.021,0.053,0.057,0.09,0.108,0.111
		c0.041,0.017,0.105,0.036,0.193,0.058c0.167,0.044,0.251,0.111,0.251,0.201c0,0.055-0.021,0.094-0.064,0.117
		c-0.042,0.023-0.122,0.035-0.24,0.035h-1.052c-0.115,0-0.191-0.011-0.23-0.031c-0.038-0.021-0.058-0.058-0.058-0.112
		c0-0.071,0.062-0.138,0.186-0.197c0.065-0.033,0.113-0.06,0.144-0.078c0.033-0.022,0.056-0.055,0.067-0.099
		c0.013-0.044,0.019-0.118,0.019-0.223V71.625z"/>
	<path fill="#FFFFFF" d="M59.291,71.93c0.298,0.106,0.521,0.239,0.665,0.398c0.146,0.158,0.218,0.348,0.218,0.566
		c0,0.376-0.184,0.675-0.553,0.896c-0.368,0.222-0.866,0.333-1.493,0.333c-0.537,0-0.952-0.065-1.245-0.195
		c-0.293-0.131-0.439-0.314-0.439-0.553c0-0.135,0.046-0.254,0.14-0.357c0.093-0.104,0.198-0.156,0.316-0.156
		c0.038,0,0.07,0.015,0.097,0.045c0.025,0.03,0.039,0.068,0.039,0.115c0,0.024-0.007,0.057-0.021,0.097
		c-0.015,0.039-0.021,0.066-0.021,0.08c0,0.126,0.099,0.223,0.298,0.292c0.198,0.068,0.479,0.103,0.844,0.103
		c0.438,0,0.777-0.06,1.016-0.179s0.357-0.29,0.357-0.512c0-0.15-0.055-0.282-0.163-0.395c-0.107-0.112-0.284-0.219-0.527-0.32
		c-0.165,0.032-0.303,0.057-0.413,0.071c-0.111,0.016-0.203,0.023-0.277,0.023c-0.516,0-0.936-0.177-1.262-0.53
		s-0.489-0.812-0.489-1.373c0-0.566,0.167-1.027,0.502-1.38c0.334-0.354,0.77-0.53,1.307-0.53c0.15,0,0.347,0.016,0.587,0.047
		c0.241,0.031,0.411,0.048,0.51,0.048c0.022,0,0.101-0.003,0.236-0.009c0.136-0.005,0.259-0.008,0.368-0.008
		c0.134,0,0.236,0.021,0.306,0.065c0.07,0.044,0.105,0.108,0.105,0.193c0,0.09-0.042,0.155-0.126,0.195
		c-0.083,0.039-0.227,0.06-0.43,0.06c-0.005,0-0.019-0.002-0.041-0.005c-0.076-0.002-0.149-0.004-0.218-0.004
		c0.165,0.159,0.291,0.352,0.381,0.577c0.089,0.227,0.133,0.468,0.133,0.726c0,0.32-0.06,0.613-0.179,0.877
		C59.699,71.497,59.523,71.73,59.291,71.93z M57.076,70.356c0,0.479,0.096,0.849,0.287,1.107c0.192,0.259,0.466,0.389,0.822,0.389
		c0.364,0,0.643-0.128,0.834-0.385c0.191-0.256,0.287-0.626,0.287-1.111c0-0.457-0.099-0.812-0.295-1.066
		c-0.197-0.253-0.473-0.38-0.826-0.38c-0.351,0-0.623,0.126-0.818,0.378C57.173,69.539,57.076,69.896,57.076,70.356z"/>
	<path fill="#FFFFFF" d="M62.742,72.122c-0.076,0.042-0.152,0.073-0.228,0.095c-0.076,0.022-0.151,0.033-0.229,0.033
		c-0.361,0-0.666-0.184-0.912-0.551c-0.247-0.367-0.442-0.927-0.588-1.681c-0.027-0.156-0.052-0.345-0.073-0.565
		c-0.022-0.22-0.044-0.354-0.066-0.4c-0.027-0.052-0.082-0.108-0.164-0.17c-0.082-0.062-0.123-0.124-0.123-0.188
		c0-0.047,0.024-0.078,0.073-0.097c0.05-0.018,0.151-0.026,0.305-0.026h0.555c0.188,0,0.308,0.011,0.357,0.033
		c0.049,0.021,0.074,0.064,0.074,0.127c0,0.065-0.043,0.122-0.128,0.169c-0.019,0.011-0.032,0.019-0.041,0.024
		c-0.09,0.055-0.149,0.112-0.177,0.173c-0.027,0.06-0.041,0.171-0.041,0.332c0,0.173,0.026,0.38,0.078,0.621s0.129,0.503,0.23,0.784
		c0.117,0.326,0.248,0.566,0.393,0.72c0.144,0.153,0.31,0.229,0.499,0.229c0.17,0,0.309-0.053,0.417-0.158s0.22-0.307,0.335-0.605
		c0.104-0.274,0.188-0.566,0.25-0.876c0.063-0.309,0.095-0.584,0.095-0.825c0-0.082-0.01-0.151-0.028-0.206
		c-0.02-0.055-0.05-0.099-0.091-0.131c-0.032-0.025-0.081-0.053-0.144-0.082c-0.106-0.05-0.16-0.108-0.16-0.177
		c0-0.058,0.022-0.098,0.067-0.119c0.046-0.022,0.141-0.033,0.286-0.033h0.447c0.148,0,0.25,0.014,0.305,0.041
		s0.082,0.075,0.082,0.144c0,0.03-0.026,0.08-0.08,0.148s-0.091,0.134-0.113,0.197c-0.027,0.073-0.07,0.296-0.129,0.667
		c-0.06,0.372-0.131,0.698-0.216,0.98c-0.296,0.992-0.715,1.795-1.256,2.41s-1.078,0.923-1.612,0.923
		c-0.148,0-0.264-0.032-0.348-0.095c-0.084-0.063-0.125-0.149-0.125-0.259c0-0.088,0.032-0.157,0.099-0.208
		c0.065-0.051,0.156-0.076,0.271-0.076c0.033,0,0.087,0.007,0.161,0.021c0.073,0.014,0.133,0.021,0.176,0.021
		c0.264,0,0.534-0.124,0.812-0.371C62.315,72.867,62.551,72.536,62.742,72.122z"/>
</g>
<g>
	<path fill="#FFFFFF" d="M83.09,60.746c0.174,0,0.344,0.045,0.512,0.135c0.166,0.09,0.295,0.218,0.389,0.385
		c0.092,0.167,0.139,0.341,0.139,0.521c0,0.18-0.047,0.352-0.137,0.517c-0.092,0.166-0.221,0.294-0.385,0.386
		c-0.166,0.092-0.338,0.137-0.518,0.137s-0.354-0.045-0.518-0.137c-0.166-0.092-0.295-0.22-0.387-0.386
		c-0.092-0.165-0.137-0.337-0.137-0.517c0-0.181,0.047-0.354,0.141-0.521c0.092-0.167,0.223-0.295,0.389-0.385
		S82.914,60.746,83.09,60.746z M83.09,60.919c-0.146,0-0.289,0.037-0.428,0.112s-0.246,0.182-0.324,0.321
		c-0.078,0.139-0.117,0.284-0.117,0.435c0,0.149,0.039,0.294,0.115,0.431c0.076,0.138,0.184,0.245,0.322,0.321
		c0.137,0.077,0.281,0.115,0.432,0.115c0.148,0,0.293-0.038,0.432-0.115c0.137-0.076,0.244-0.184,0.32-0.321
		c0.076-0.137,0.115-0.281,0.115-0.431c0-0.15-0.039-0.296-0.117-0.435c-0.078-0.14-0.186-0.246-0.324-0.321
		S83.234,60.919,83.09,60.919z M82.633,62.363v-1.119h0.385c0.131,0,0.227,0.01,0.285,0.03s0.105,0.057,0.141,0.108
		s0.053,0.106,0.053,0.164c0,0.082-0.029,0.153-0.088,0.214s-0.135,0.095-0.232,0.102c0.039,0.017,0.072,0.036,0.096,0.06
		c0.045,0.044,0.1,0.118,0.166,0.222l0.135,0.22h-0.219l-0.1-0.177c-0.078-0.139-0.143-0.226-0.189-0.261
		c-0.033-0.025-0.082-0.038-0.145-0.038h-0.105v0.476H82.633z M82.814,61.733h0.219c0.104,0,0.176-0.016,0.215-0.047
		c0.037-0.031,0.057-0.073,0.057-0.124c0-0.033-0.01-0.063-0.027-0.089c-0.02-0.026-0.045-0.046-0.076-0.059
		c-0.033-0.014-0.094-0.02-0.182-0.02h-0.205V61.733z"/>
</g>
</svg>
