<?xml version="1.0" encoding="utf-8"?>
<!-- Generator: Adobe Illustrator 16.0.0, SVG Export Plug-In . SVG Version: 6.00 Build 0)  -->
<!DOCTYPE svg PUBLIC "-//W3C//DTD SVG 1.1//EN" "http://www.w3.org/Graphics/SVG/1.1/DTD/svg11.dtd">
<svg version="1.1" id="Capa_1" xmlns="http://www.w3.org/2000/svg" xmlns:xlink="http://www.w3.org/1999/xlink" x="0px" y="0px"
	 width="100px" height="76.846px" viewBox="0 0 100 76.846" enable-background="new 0 0 100 76.846" xml:space="preserve">
<g>
	<g>
		<circle fill="#D81F26" cx="56.762" cy="29.807" r="2.258"/>
		<circle fill="#D81F26" cx="53.676" cy="26.821" r="1.51"/>
		<circle fill="#D81F26" cx="65.988" cy="39.369" r="3.755"/>
		<circle fill="#D81F26" cx="60.926" cy="33.998" r="2.988"/>
	</g>
	<g>
		<circle fill="#D81F26" cx="46.243" cy="29.853" r="2.257"/>
		<circle fill="#D81F26" cx="49.283" cy="26.821" r="1.51"/>
		<circle fill="#D81F26" cx="36.964" cy="39.369" r="3.755"/>
		<circle fill="#D81F26" cx="42.104" cy="34.139" r="2.988"/>
	</g>
	<g>
		<circle fill="#D81F26" cx="56.675" cy="19.406" r="2.257"/>
		<circle fill="#D81F26" cx="53.656" cy="22.424" r="1.51"/>
		<circle fill="#D81F26" cx="66.132" cy="10.091" r="3.755"/>
		<circle fill="#D81F26" cx="60.893" cy="15.271" r="2.988"/>
	</g>
	<g>
		<circle fill="#D81F26" cx="46.314" cy="19.338" r="2.257"/>
		<circle fill="#D81F26" cx="49.26" cy="22.405" r="1.51"/>
		<circle fill="#D81F26" cx="36.675" cy="10.117" r="3.755"/>
		<circle fill="#D81F26" cx="41.992" cy="15.215" r="2.989"/>
	</g>
</g>
<g>
	<path fill="#FFFFFF" d="M35.401,71.258V71.02c0-0.169-0.009-0.286-0.025-0.353c-0.016-0.067-0.045-0.125-0.088-0.167
		c-0.03-0.03-0.103-0.072-0.218-0.116c-0.113-0.047-0.171-0.102-0.171-0.173c0-0.029,0.024-0.075,0.072-0.127
		c0.047-0.051,0.117-0.108,0.208-0.171c0.091-0.068,0.182-0.12,0.271-0.159c0.091-0.042,0.152-0.067,0.182-0.067
		c0.087,0,0.163,0.077,0.226,0.223c0.063,0.141,0.104,0.334,0.118,0.565c0.185-0.25,0.4-0.447,0.652-0.584
		c0.251-0.134,0.514-0.204,0.792-0.204c0.293,0,0.556,0.07,0.792,0.199c0.235,0.133,0.413,0.314,0.533,0.543
		c0.223-0.249,0.452-0.438,0.688-0.557c0.235-0.121,0.492-0.187,0.77-0.187c0.44,0,0.786,0.142,1.039,0.421
		c0.251,0.284,0.378,0.669,0.378,1.163v2.081c0,0.098,0.007,0.167,0.023,0.21c0.015,0.043,0.042,0.076,0.081,0.099
		c0.033,0.019,0.079,0.034,0.135,0.062c0.135,0.059,0.204,0.131,0.204,0.223c0,0.058-0.026,0.097-0.077,0.117
		c-0.051,0.024-0.149,0.032-0.294,0.032h-0.877c-0.106,0-0.183-0.014-0.234-0.039c-0.051-0.025-0.075-0.064-0.075-0.119
		c0-0.069,0.046-0.131,0.135-0.182c0.018-0.013,0.031-0.021,0.041-0.025c0.018-0.011,0.039-0.021,0.063-0.028
		c0.117-0.062,0.177-0.186,0.177-0.38V71.21c0-0.295-0.078-0.526-0.234-0.685c-0.156-0.157-0.379-0.234-0.673-0.234
		c-0.35,0-0.632,0.083-0.847,0.261c-0.213,0.173-0.321,0.397-0.321,0.686v2.114c0,0.097,0.007,0.166,0.023,0.21
		c0.015,0.043,0.04,0.076,0.077,0.098c0.033,0.019,0.08,0.035,0.14,0.062c0.141,0.058,0.212,0.131,0.212,0.222
		c0,0.059-0.026,0.098-0.081,0.118c-0.054,0.024-0.166,0.031-0.335,0.031h-0.836c-0.103,0-0.18-0.013-0.229-0.038
		c-0.049-0.025-0.075-0.064-0.075-0.119c0-0.069,0.045-0.133,0.135-0.182c0.019-0.013,0.031-0.021,0.041-0.026
		c0.012-0.006,0.032-0.016,0.059-0.024c0.115-0.062,0.172-0.187,0.172-0.385v-2.02c0-0.344-0.073-0.599-0.219-0.765
		s-0.373-0.245-0.681-0.245c-0.328,0-0.604,0.099-0.825,0.292c-0.223,0.197-0.333,0.446-0.333,0.735v2.027
		c0,0.097,0.008,0.166,0.023,0.208c0.015,0.042,0.043,0.075,0.081,0.1c0.03,0.016,0.076,0.031,0.135,0.061
		c0.14,0.06,0.208,0.132,0.208,0.226c0,0.056-0.025,0.093-0.075,0.115c-0.05,0.027-0.139,0.034-0.269,0.034H35.26
		c-0.096,0-0.165-0.011-0.206-0.032c-0.042-0.02-0.061-0.057-0.061-0.108c0-0.074,0.055-0.142,0.167-0.212l0.018-0.009
		c0.008-0.007,0.02-0.013,0.031-0.019c0.126-0.077,0.189-0.203,0.189-0.394v-2.064H35.4L35.401,71.258L35.401,71.258z"/>
	<path fill="#FFFFFF" d="M43.449,72.502c0.076,0.35,0.236,0.634,0.484,0.84c0.248,0.207,0.544,0.311,0.888,0.311
		c0.185,0,0.357-0.026,0.52-0.07c0.164-0.046,0.323-0.117,0.479-0.214c0.076-0.044,0.169-0.109,0.28-0.191
		c0.154-0.114,0.256-0.17,0.304-0.17c0.048,0,0.088,0.021,0.12,0.054c0.032,0.036,0.048,0.083,0.048,0.141
		c0,0.094-0.062,0.206-0.188,0.339c-0.125,0.133-0.292,0.257-0.5,0.381c-0.176,0.103-0.361,0.179-0.554,0.23
		c-0.195,0.051-0.399,0.078-0.613,0.078c-0.637,0-1.145-0.188-1.525-0.566c-0.381-0.379-0.57-0.886-0.57-1.52
		c0-0.692,0.225-1.275,0.676-1.745c0.451-0.469,1.007-0.707,1.667-0.707c0.504,0,0.893,0.104,1.163,0.312
		c0.271,0.208,0.407,0.502,0.407,0.882c0,0.449-0.251,0.805-0.753,1.066C45.28,72.213,44.502,72.397,43.449,72.502z M43.381,72.035
		c0.82-0.079,1.423-0.217,1.808-0.413c0.385-0.197,0.578-0.464,0.578-0.799c0-0.225-0.078-0.398-0.232-0.525
		c-0.156-0.13-0.369-0.19-0.642-0.19c-0.443,0-0.806,0.178-1.088,0.517c-0.282,0.345-0.422,0.792-0.422,1.344L43.381,72.035
		L43.381,72.035z"/>
	<path fill="#FFFFFF" d="M50.67,73.601c-0.215,0.209-0.447,0.364-0.705,0.47c-0.256,0.104-0.531,0.151-0.826,0.151
		c-0.577,0-1.05-0.196-1.419-0.6c-0.368-0.403-0.555-0.913-0.555-1.541c0-0.697,0.202-1.271,0.604-1.722
		c0.403-0.445,0.915-0.674,1.537-0.674c0.227,0,0.446,0.032,0.658,0.097c0.212,0.062,0.416,0.156,0.611,0.287v-1.597
		c0-0.12-0.019-0.211-0.056-0.272c-0.034-0.062-0.097-0.112-0.186-0.151c-0.034-0.02-0.084-0.036-0.147-0.064
		c-0.131-0.051-0.195-0.104-0.195-0.166c0-0.03,0.018-0.064,0.045-0.104c0.026-0.038,0.066-0.079,0.115-0.112
		c0.164-0.111,0.322-0.2,0.477-0.263c0.156-0.062,0.285-0.095,0.385-0.095c0.103,0,0.176,0.038,0.217,0.114
		c0.043,0.079,0.065,0.218,0.065,0.419v5.187c0,0.153,0.005,0.279,0.017,0.36c0.013,0.086,0.026,0.147,0.056,0.186
		c0.036,0.05,0.13,0.109,0.274,0.176c0.143,0.07,0.217,0.145,0.217,0.234c0,0.061-0.024,0.104-0.071,0.131
		c-0.046,0.029-0.121,0.044-0.226,0.044h-0.461c-0.141,0-0.238-0.027-0.285-0.082C50.771,73.96,50.719,73.823,50.67,73.601z
		 M50.576,70.646c-0.146-0.155-0.324-0.28-0.526-0.361c-0.203-0.084-0.417-0.131-0.642-0.131c-0.439,0-0.791,0.169-1.054,0.506
		c-0.264,0.336-0.396,0.786-0.396,1.354c0,0.516,0.123,0.924,0.366,1.227c0.244,0.292,0.579,0.444,1.005,0.444
		c0.209,0,0.409-0.029,0.606-0.1c0.188-0.067,0.351-0.157,0.483-0.271c0.058-0.049,0.098-0.105,0.123-0.175
		c0.025-0.067,0.035-0.174,0.035-0.319v-0.074v-2.102V70.646L50.576,70.646z"/>
	<path fill="#FFFFFF" d="M52.895,70.832c0-0.108-0.011-0.185-0.033-0.227c-0.023-0.042-0.066-0.086-0.133-0.131
		c-0.025-0.019-0.068-0.037-0.123-0.067c-0.108-0.055-0.162-0.111-0.162-0.172c0-0.046,0.017-0.087,0.048-0.126
		c0.03-0.033,0.085-0.075,0.163-0.118l0.064-0.034c0.368-0.19,0.612-0.289,0.733-0.289c0.063,0,0.104,0.027,0.132,0.087
		c0.023,0.058,0.036,0.186,0.036,0.395v3.181c0,0.079,0.01,0.141,0.024,0.191c0.02,0.052,0.047,0.085,0.08,0.104
		c0.045,0.021,0.092,0.04,0.156,0.062c0.155,0.067,0.235,0.138,0.235,0.227c0,0.065-0.026,0.111-0.078,0.135
		c-0.052,0.027-0.147,0.038-0.29,0.038h-0.975c-0.131,0-0.217-0.014-0.264-0.038c-0.047-0.026-0.074-0.069-0.074-0.13
		c0-0.044,0.013-0.084,0.032-0.118c0.026-0.032,0.071-0.068,0.132-0.094c0.023-0.016,0.059-0.027,0.1-0.046
		c0.125-0.052,0.188-0.157,0.188-0.316v-2.519h0.004v0.006L52.895,70.832L52.895,70.832z M52.646,68.366
		c0-0.137,0.049-0.252,0.146-0.341c0.1-0.088,0.227-0.132,0.383-0.132c0.154,0,0.278,0.044,0.374,0.132
		c0.095,0.084,0.142,0.2,0.142,0.341c0,0.144-0.047,0.26-0.145,0.346c-0.098,0.082-0.224,0.129-0.38,0.129
		c-0.161,0-0.288-0.043-0.382-0.129S52.646,68.51,52.646,68.366z"/>
	<path fill="#FFFFFF" d="M58.137,72.972c0.067,0,0.119,0.014,0.16,0.037c0.04,0.026,0.061,0.067,0.061,0.112
		c0,0.084-0.045,0.192-0.133,0.328c-0.09,0.131-0.207,0.254-0.355,0.368c-0.174,0.133-0.362,0.236-0.572,0.307
		c-0.21,0.067-0.441,0.098-0.695,0.098c-0.562,0-1.024-0.196-1.396-0.6c-0.366-0.401-0.552-0.907-0.552-1.523
		c0-0.688,0.201-1.265,0.604-1.725c0.401-0.454,0.911-0.688,1.517-0.688c0.404,0,0.75,0.086,1.025,0.256
		c0.277,0.17,0.413,0.37,0.413,0.604c0,0.1-0.034,0.184-0.112,0.261c-0.076,0.074-0.164,0.11-0.268,0.11
		c-0.124,0-0.255-0.089-0.391-0.269c-0.021-0.026-0.034-0.046-0.045-0.062c-0.131-0.173-0.248-0.282-0.351-0.333
		c-0.103-0.05-0.225-0.074-0.373-0.074c-0.364,0-0.659,0.168-0.889,0.501c-0.229,0.34-0.343,0.779-0.343,1.332
		c0,0.5,0.125,0.901,0.367,1.197c0.241,0.301,0.569,0.45,0.976,0.45c0.123,0,0.239-0.018,0.36-0.05s0.233-0.082,0.342-0.145
		c0.132-0.077,0.266-0.179,0.394-0.309C58.018,73.036,58.104,72.972,58.137,72.972z"/>
	<path fill="#FFFFFF" d="M61.906,73.381c-0.199,0.284-0.443,0.495-0.733,0.634c-0.29,0.143-0.624,0.216-1,0.216
		c-0.448,0-0.806-0.124-1.069-0.358c-0.265-0.241-0.396-0.562-0.396-0.972c0-0.553,0.243-0.974,0.732-1.271
		c0.49-0.291,1.193-0.443,2.113-0.443h0.204c-0.034-0.318-0.173-0.567-0.405-0.749c-0.232-0.183-0.541-0.271-0.92-0.271
		c-0.218,0-0.449,0.076-0.699,0.221c-0.246,0.141-0.405,0.218-0.479,0.218c-0.084,0-0.154-0.026-0.21-0.074
		c-0.058-0.047-0.083-0.105-0.083-0.179c0-0.189,0.141-0.348,0.421-0.474c0.279-0.124,0.647-0.188,1.101-0.188
		c0.744,0,1.283,0.179,1.61,0.523c0.331,0.349,0.498,0.922,0.498,1.712v1.382c0,0.066,0.009,0.119,0.025,0.16
		c0.018,0.041,0.063,0.093,0.141,0.157c0.027,0.017,0.072,0.04,0.132,0.066c0.135,0.061,0.204,0.133,0.204,0.219
		c0,0.09-0.049,0.149-0.147,0.185c-0.1,0.032-0.342,0.048-0.735,0.048c-0.112,0-0.188-0.024-0.235-0.065
		c-0.045-0.043-0.065-0.126-0.065-0.238v-0.456H61.906z M61.852,71.6H61.73c-0.711,0-1.252,0.111-1.638,0.334
		c-0.388,0.223-0.577,0.534-0.577,0.939c0,0.239,0.082,0.443,0.25,0.6c0.17,0.155,0.387,0.237,0.655,0.237
		c0.149,0,0.296-0.023,0.447-0.061c0.146-0.04,0.276-0.094,0.394-0.167c0.225-0.136,0.377-0.286,0.463-0.443
		c0.084-0.156,0.131-0.376,0.131-0.66v-0.777L61.852,71.6L61.852,71.6z"/>
	<path fill="#FFFFFF" d="M63.871,68.374c0-0.104-0.014-0.18-0.033-0.223c-0.023-0.042-0.066-0.08-0.13-0.126
		c-0.026-0.021-0.067-0.041-0.12-0.07c-0.107-0.056-0.162-0.114-0.162-0.178c0-0.046,0.018-0.089,0.053-0.13
		c0.027-0.04,0.082-0.08,0.162-0.123l0.025-0.014c0.382-0.202,0.633-0.304,0.762-0.304c0.065,0,0.106,0.027,0.133,0.084
		c0.025,0.057,0.035,0.184,0.035,0.392v5.648c0,0.077,0.012,0.141,0.029,0.191c0.023,0.054,0.05,0.087,0.08,0.104
		c0.027,0.012,0.078,0.028,0.141,0.054c0.172,0.068,0.256,0.145,0.256,0.234c0,0.062-0.025,0.108-0.078,0.133
		c-0.051,0.026-0.148,0.04-0.289,0.04H63.76c-0.132,0-0.22-0.014-0.271-0.038c-0.049-0.025-0.075-0.069-0.075-0.13
		c0-0.042,0.013-0.08,0.037-0.112c0.026-0.033,0.073-0.07,0.138-0.1c0.023-0.016,0.057-0.027,0.094-0.041
		c0.123-0.048,0.185-0.155,0.185-0.322v-4.978h0.003v0.007L63.871,68.374L63.871,68.374z"/>
</g>
<g>
	<g>
		<path fill="#FFFFFF" d="M26.554,55.668c0.176,0.825,0.552,1.478,1.131,1.961c0.578,0.482,1.269,0.725,2.072,0.725
			c0.43,0,0.836-0.053,1.215-0.158c0.382-0.106,0.755-0.271,1.121-0.496c0.176-0.108,0.394-0.26,0.656-0.456
			c0.358-0.263,0.595-0.393,0.708-0.393c0.114,0,0.206,0.043,0.28,0.128c0.074,0.082,0.111,0.192,0.111,0.325
			c0,0.22-0.146,0.481-0.438,0.788c-0.294,0.308-0.682,0.603-1.169,0.885c-0.409,0.238-0.84,0.417-1.296,0.538
			c-0.453,0.119-0.93,0.179-1.432,0.179c-1.487,0-2.674-0.441-3.562-1.325c-0.887-0.886-1.331-2.066-1.331-3.545
			c0-1.622,0.525-2.98,1.578-4.078c1.054-1.096,2.354-1.644,3.897-1.644c1.176,0,2.081,0.243,2.716,0.729
			c0.635,0.485,0.952,1.173,0.952,2.062c0,1.051-0.586,1.881-1.76,2.49C30.829,54.994,29.012,55.421,26.554,55.668z M26.394,54.58
			c1.917-0.185,3.324-0.507,4.224-0.969c0.899-0.462,1.348-1.083,1.348-1.866c0-0.521-0.182-0.931-0.545-1.227
			c-0.362-0.298-0.86-0.443-1.495-0.443c-1.036,0-1.882,0.402-2.542,1.204c-0.66,0.806-0.987,1.848-0.987,3.131v0.17H26.394z"/>
		<path fill="#FFFFFF" d="M38.404,54.366c-0.642-0.703-1.291-1.498-1.949-2.384c-0.66-0.884-1.05-1.384-1.169-1.496
			c-0.092-0.084-0.277-0.193-0.556-0.332c-0.279-0.138-0.418-0.283-0.418-0.438c0-0.133,0.051-0.225,0.148-0.275
			c0.099-0.048,0.307-0.07,0.624-0.07h2.103c0.333,0,0.553,0.022,0.661,0.07c0.109,0.052,0.164,0.144,0.164,0.275
			c0,0.084-0.094,0.208-0.279,0.371c-0.188,0.162-0.281,0.309-0.281,0.444c0,0.196,0.178,0.535,0.533,1.013
			c0.356,0.479,0.855,1.045,1.496,1.689c0.578-0.576,1.047-1.119,1.406-1.626c0.36-0.509,0.539-0.865,0.539-1.079
			c0-0.121-0.107-0.26-0.323-0.412c-0.214-0.155-0.322-0.288-0.322-0.403c0-0.133,0.059-0.226,0.176-0.274
			c0.115-0.048,0.353-0.07,0.712-0.07h1.492c0.288,0,0.481,0.021,0.575,0.062c0.096,0.044,0.145,0.122,0.145,0.234
			c0,0.154-0.124,0.293-0.37,0.417c-0.247,0.121-0.42,0.234-0.519,0.344c-0.069,0.07-0.393,0.513-0.968,1.331
			c-0.575,0.817-1.175,1.558-1.803,2.22c0.685,0.74,1.409,1.583,2.173,2.527c0.764,0.944,1.231,1.487,1.401,1.629
			c0.092,0.085,0.279,0.204,0.564,0.359c0.285,0.155,0.429,0.315,0.429,0.485c0,0.155-0.063,0.265-0.186,0.323
			c-0.123,0.06-0.357,0.089-0.702,0.089h-2.209c-0.247,0-0.429-0.036-0.545-0.112c-0.116-0.072-0.174-0.188-0.174-0.344
			c0-0.126,0.084-0.268,0.254-0.428c0.169-0.158,0.253-0.282,0.253-0.374c0-0.247-0.207-0.628-0.622-1.145
			c-0.417-0.513-1.012-1.127-1.787-1.837c-0.635,0.71-1.117,1.305-1.448,1.78c-0.33,0.478-0.496,0.82-0.496,1.031
			c0,0.188,0.131,0.364,0.391,0.518c0.262,0.155,0.391,0.313,0.391,0.478c0,0.152-0.065,0.266-0.195,0.332
			c-0.131,0.065-0.341,0.101-0.628,0.101h-2.212c-0.211,0-0.364-0.036-0.461-0.104c-0.094-0.073-0.142-0.182-0.142-0.327
			c0-0.206,0.186-0.391,0.56-0.55c0.374-0.163,0.616-0.312,0.73-0.444c0.077-0.092,0.232-0.301,0.465-0.624
			C36.828,56.211,37.622,55.221,38.404,54.366z"/>
		<path fill="#FFFFFF" d="M52.865,57.719c-0.465,0.655-1.035,1.147-1.713,1.479c-0.678,0.333-1.453,0.497-2.335,0.497
			c-1.051,0-1.884-0.279-2.5-0.841c-0.616-0.56-0.926-1.312-0.926-2.257c0-1.29,0.571-2.28,1.714-2.97
			c1.141-0.692,2.786-1.038,4.936-1.038h0.475c-0.082-0.747-0.398-1.329-0.946-1.748c-0.545-0.419-1.263-0.63-2.148-0.63
			c-0.509,0-1.052,0.172-1.63,0.509c-0.577,0.339-0.95,0.508-1.12,0.508c-0.197,0-0.36-0.055-0.49-0.164
			c-0.131-0.109-0.197-0.248-0.197-0.417c0-0.444,0.328-0.812,0.983-1.104c0.656-0.291,1.512-0.438,2.569-0.438
			c1.74,0,2.998,0.405,3.769,1.222c0.771,0.812,1.158,2.146,1.158,4.001v3.224c0,0.155,0.021,0.279,0.062,0.375
			c0.043,0.095,0.15,0.216,0.327,0.364c0.064,0.042,0.166,0.095,0.309,0.161c0.314,0.14,0.477,0.309,0.477,0.506
			c0,0.211-0.115,0.354-0.344,0.429c-0.229,0.073-0.803,0.109-1.72,0.109c-0.27,0-0.453-0.051-0.555-0.153
			c-0.104-0.101-0.154-0.286-0.154-0.554V57.719L52.865,57.719z M52.738,53.564h-0.285c-1.648,0-2.924,0.26-3.822,0.777
			s-1.348,1.248-1.348,2.192c0,0.569,0.195,1.037,0.586,1.398c0.391,0.364,0.902,0.546,1.527,0.546c0.353,0,0.7-0.046,1.043-0.138
			c0.341-0.09,0.646-0.218,0.912-0.38c0.521-0.323,0.883-0.67,1.084-1.036c0.203-0.366,0.302-0.88,0.302-1.542L52.738,53.564
			L52.738,53.564z"/>
		<path fill="#FFFFFF" d="M57.635,57.221V52.57c0-0.443-0.033-0.759-0.103-0.94c-0.065-0.185-0.177-0.33-0.332-0.444
			c-0.113-0.092-0.283-0.186-0.508-0.284c-0.322-0.148-0.486-0.327-0.486-0.541c0-0.083,0.047-0.188,0.139-0.312
			c0.09-0.121,0.219-0.245,0.379-0.364c0.227-0.177,0.432-0.313,0.617-0.412c0.188-0.099,0.335-0.148,0.439-0.148
			c0.323,0,0.603,0.261,0.83,0.783c0.229,0.521,0.364,1.213,0.407,2.07c0.359-0.93,0.785-1.646,1.278-2.155
			c0.494-0.509,1.003-0.761,1.531-0.761c0.375,0,0.664,0.138,0.869,0.417c0.203,0.277,0.308,0.673,0.308,1.188
			c0,0.163-0.054,0.296-0.153,0.402c-0.104,0.105-0.236,0.158-0.396,0.158c-0.17,0-0.4-0.073-0.693-0.218
			c-0.292-0.145-0.498-0.218-0.616-0.218c-0.465,0-0.892,0.395-1.274,1.185c-0.385,0.788-0.576,1.751-0.576,2.885v2.316
			c0,0.444,0.025,0.733,0.08,0.866c0.053,0.135,0.146,0.229,0.277,0.286c0.106,0.041,0.271,0.092,0.498,0.146
			c0.43,0.115,0.646,0.287,0.646,0.521c0,0.14-0.056,0.239-0.164,0.3c-0.108,0.06-0.313,0.09-0.617,0.09h-2.706
			c-0.297,0-0.494-0.025-0.592-0.078c-0.1-0.053-0.148-0.15-0.148-0.291c0-0.184,0.158-0.353,0.475-0.509
			c0.172-0.085,0.294-0.151,0.371-0.199c0.084-0.058,0.143-0.142,0.173-0.254c0.032-0.115,0.048-0.305,0.048-0.57L57.635,57.221
			L57.635,57.221z"/>
		<path fill="#FFFFFF" d="M64.95,51.768c0-0.255-0.026-0.431-0.08-0.528c-0.053-0.1-0.156-0.197-0.312-0.297
			c-0.063-0.043-0.159-0.096-0.284-0.159c-0.255-0.126-0.383-0.26-0.383-0.401c0-0.105,0.039-0.201,0.112-0.284
			c0.073-0.084,0.202-0.176,0.386-0.273l0.148-0.085c0.857-0.451,1.431-0.677,1.711-0.677c0.148,0,0.25,0.066,0.31,0.201
			c0.056,0.134,0.084,0.442,0.084,0.931v7.422c0,0.182,0.021,0.335,0.062,0.453c0.043,0.119,0.105,0.201,0.19,0.242
			c0.099,0.044,0.22,0.092,0.359,0.149c0.366,0.146,0.551,0.32,0.551,0.518c0,0.156-0.062,0.263-0.181,0.321
			c-0.12,0.06-0.346,0.089-0.676,0.089h-2.276c-0.304,0-0.509-0.029-0.617-0.089s-0.164-0.161-0.164-0.301
			c0-0.107,0.026-0.199,0.085-0.274c0.055-0.078,0.158-0.152,0.307-0.223c0.058-0.027,0.133-0.063,0.231-0.105
			c0.289-0.121,0.435-0.365,0.435-0.739v-5.889L64.95,51.768L64.95,51.768z M64.368,46.006c0-0.323,0.115-0.589,0.344-0.793
			c0.229-0.203,0.527-0.307,0.894-0.307c0.359,0,0.65,0.104,0.873,0.307c0.22,0.204,0.332,0.468,0.332,0.793
			c0,0.339-0.112,0.609-0.339,0.809c-0.225,0.202-0.521,0.302-0.887,0.302c-0.374,0-0.672-0.1-0.891-0.302
			S64.368,46.344,64.368,46.006z"/>
		<path fill="#FFFFFF" d="M68.618,57.423c0-0.204,0.065-0.371,0.194-0.504c0.13-0.128,0.296-0.194,0.492-0.194
			c0.22,0,0.479,0.189,0.781,0.57c0.092,0.104,0.163,0.189,0.213,0.254c0.289,0.323,0.612,0.568,0.972,0.729
			c0.361,0.165,0.766,0.243,1.217,0.243c0.635,0,1.152-0.165,1.559-0.495c0.406-0.332,0.609-0.758,0.609-1.279
			c0-0.733-0.832-1.301-2.496-1.702c-0.092-0.021-0.166-0.037-0.222-0.053c-1.036-0.254-1.776-0.597-2.221-1.024
			c-0.442-0.431-0.664-1.013-0.664-1.746c0-0.944,0.317-1.697,0.952-2.266c0.633-0.568,1.482-0.854,2.548-0.854
			c1.015,0,1.797,0.146,2.353,0.438c0.555,0.293,0.828,0.706,0.828,1.231c0,0.391-0.027,0.648-0.084,0.777
			c-0.057,0.13-0.164,0.196-0.328,0.196c-0.189,0-0.414-0.155-0.675-0.466c-0.106-0.118-0.19-0.211-0.256-0.273
			c-0.269-0.275-0.584-0.486-0.95-0.635c-0.367-0.149-0.761-0.222-1.185-0.222c-0.509,0-0.931,0.147-1.269,0.438
			c-0.34,0.293-0.508,0.657-0.508,1.095c0,0.366,0.11,0.655,0.332,0.866c0.221,0.211,0.65,0.405,1.285,0.582
			c0.204,0.055,0.492,0.131,0.866,0.22c0.922,0.22,1.536,0.426,1.839,0.623c0.438,0.282,0.762,0.614,0.979,0.997
			c0.215,0.378,0.321,0.812,0.321,1.299c0,1.021-0.344,1.848-1.03,2.479c-0.688,0.63-1.591,0.945-2.713,0.945
			c-0.951,0-1.812-0.257-2.584-0.766C69.006,58.42,68.618,57.916,68.618,57.423z"/>
	</g>
	<path fill="#FFFFFF" d="M77.552,57.036c0.001-1.753,1.438-3.114,3.277-3.109c1.754,0.002,3.154,1.386,3.156,3.118
		c0.004,1.796-1.41,3.159-3.281,3.151C78.963,60.19,77.551,58.772,77.552,57.036z M80.812,59.565c1.348,0,2.393-1.1,2.383-2.505
		c-0.011-1.418-1.093-2.54-2.438-2.523c-1.351,0.014-2.415,1.127-2.415,2.521C78.342,58.483,79.409,59.572,80.812,59.565z"/>
	<path fill="#FFFFFF" d="M79.565,55.555c0.67-0.085,1.336-0.192,1.997,0.009c0.345,0.105,0.556,0.352,0.581,0.731
		c0.024,0.362-0.158,0.594-0.473,0.742c-0.043,0.021-0.083,0.046-0.161,0.09c0.63,0.325,0.485,0.998,0.771,1.537
		c-0.261,0-0.477,0.009-0.69-0.007c-0.054-0.006-0.119-0.093-0.144-0.153c-0.062-0.168-0.108-0.342-0.149-0.517
		c-0.112-0.453-0.238-0.555-0.708-0.557c-0.096,0-0.188,0-0.319,0c0,0.412,0,0.806,0,1.219c-0.256,0-0.472,0-0.705,0
		C79.565,57.62,79.565,56.6,79.565,55.555z M80.312,56.944c0.245-0.021,0.466-0.022,0.679-0.063
		c0.227-0.046,0.393-0.188,0.383-0.439c-0.01-0.245-0.166-0.4-0.399-0.431c-0.212-0.028-0.43-0.005-0.661-0.005
		C80.312,56.314,80.312,56.6,80.312,56.944z"/>
</g>
</svg>
