<?xml version="1.0" encoding="utf-8"?>
<!-- Generator: Adobe Illustrator 16.0.0, SVG Export Plug-In . SVG Version: 6.00 Build 0)  -->
<!DOCTYPE svg PUBLIC "-//W3C//DTD SVG 1.1//EN" "http://www.w3.org/Graphics/SVG/1.1/DTD/svg11.dtd">
<svg version="1.1" id="Capa_1" xmlns="http://www.w3.org/2000/svg" xmlns:xlink="http://www.w3.org/1999/xlink" x="0px" y="0px"
	 width="100px" height="76.846px" viewBox="0 0 100 76.846" enable-background="new 0 0 100 76.846" xml:space="preserve">
<g>
	<g>
		<circle fill-rule="evenodd" clip-rule="evenodd" fill="#D81F26" cx="57.147" cy="30.322" r="2.584"/>
		<circle fill-rule="evenodd" clip-rule="evenodd" fill="#D81F26" cx="53.614" cy="26.905" r="1.728"/>
		<circle fill-rule="evenodd" clip-rule="evenodd" fill="#D81F26" cx="67.708" cy="41.265" r="4.297"/>
		<circle fill-rule="evenodd" clip-rule="evenodd" fill="#D81F26" cx="61.913" cy="35.118" r="3.42"/>
	</g>
	<g>
		<circle fill-rule="evenodd" clip-rule="evenodd" fill="#D81F26" cx="45.108" cy="30.374" r="2.584"/>
		<circle fill-rule="evenodd" clip-rule="evenodd" fill="#D81F26" cx="48.589" cy="26.905" r="1.729"/>
		<circle fill-rule="evenodd" clip-rule="evenodd" fill="#D81F26" cx="34.488" cy="41.265" r="4.297"/>
		<circle fill-rule="evenodd" clip-rule="evenodd" fill="#D81F26" cx="40.371" cy="35.28" r="3.42"/>
	</g>
	<g>
		<circle fill-rule="evenodd" clip-rule="evenodd" fill="#D81F26" cx="57.049" cy="18.419" r="2.583"/>
		<circle fill-rule="evenodd" clip-rule="evenodd" fill="#D81F26" cx="53.593" cy="21.872" r="1.728"/>
		<circle fill-rule="evenodd" clip-rule="evenodd" fill="#D81F26" cx="67.872" cy="7.757" r="4.297"/>
		<circle fill-rule="evenodd" clip-rule="evenodd" fill="#D81F26" cx="61.874" cy="13.686" r="3.421"/>
	</g>
	<g>
		<circle fill-rule="evenodd" clip-rule="evenodd" fill="#D81F26" cx="45.191" cy="18.341" r="2.584"/>
		<circle fill-rule="evenodd" clip-rule="evenodd" fill="#D81F26" cx="48.56" cy="21.851" r="1.728"/>
		<circle fill-rule="evenodd" clip-rule="evenodd" fill="#D81F26" cx="34.157" cy="7.786" r="4.297"/>
		<circle fill-rule="evenodd" clip-rule="evenodd" fill="#D81F26" cx="40.243" cy="13.622" r="3.42"/>
	</g>
</g>
<g>
	<path fill="#092452" d="M25.199,59.183c0.193,0.905,0.607,1.625,1.243,2.153c0.634,0.531,1.393,0.795,2.275,0.795
		c0.472,0,0.917-0.057,1.335-0.173c0.417-0.116,0.828-0.299,1.23-0.547c0.193-0.115,0.433-0.282,0.719-0.499
		c0.395-0.285,0.654-0.428,0.778-0.428c0.124,0,0.227,0.046,0.308,0.138c0.081,0.093,0.123,0.214,0.123,0.36
		c0,0.24-0.162,0.527-0.482,0.865c-0.321,0.335-0.749,0.658-1.283,0.97c-0.449,0.262-0.923,0.46-1.422,0.591
		c-0.5,0.132-1.023,0.196-1.573,0.196c-1.633,0-2.937-0.483-3.912-1.456c-0.976-0.971-1.463-2.269-1.463-3.896
		c0-1.778,0.579-3.271,1.735-4.475c1.157-1.203,2.583-1.804,4.278-1.804c1.292,0,2.287,0.266,2.983,0.801
		c0.696,0.534,1.045,1.288,1.045,2.263c0,1.154-0.644,2.065-1.933,2.734C29.895,58.443,27.9,58.911,25.199,59.183z M25.025,57.988
		c2.104-0.201,3.65-0.556,4.637-1.062c0.987-0.506,1.48-1.189,1.48-2.049c0-0.573-0.199-1.021-0.598-1.346
		c-0.398-0.326-0.945-0.489-1.642-0.489c-1.138,0-2.069,0.441-2.792,1.324c-0.724,0.882-1.084,2.028-1.084,3.437V57.988z"/>
	<path fill="#092452" d="M36.354,61.017c0.883-1.238,1.753-2.325,2.613-3.262c-0.705-0.773-1.418-1.646-2.142-2.618
		c-0.724-0.971-1.151-1.519-1.283-1.643c-0.101-0.093-0.304-0.214-0.61-0.365c-0.305-0.151-0.458-0.311-0.458-0.482
		c0-0.146,0.054-0.247,0.163-0.302c0.108-0.054,0.336-0.081,0.685-0.081h2.311c0.363,0,0.605,0.027,0.725,0.081
		c0.12,0.055,0.18,0.155,0.18,0.302c0,0.093-0.103,0.229-0.308,0.406c-0.205,0.18-0.308,0.341-0.308,0.487
		c0,0.218,0.196,0.589,0.586,1.115c0.391,0.526,0.938,1.146,1.643,1.857c0.634-0.634,1.149-1.229,1.544-1.787
		c0.395-0.558,0.591-0.952,0.591-1.186c0-0.131-0.118-0.281-0.354-0.452c-0.236-0.17-0.354-0.316-0.354-0.441
		c0-0.146,0.064-0.247,0.191-0.302c0.128-0.054,0.389-0.081,0.784-0.081h1.636c0.318,0,0.529,0.023,0.634,0.07
		c0.104,0.047,0.156,0.132,0.156,0.255c0,0.17-0.136,0.323-0.406,0.459c-0.271,0.135-0.46,0.262-0.569,0.378
		c-0.078,0.076-0.432,0.564-1.062,1.462c-0.631,0.898-1.291,1.71-1.979,2.438c0.75,0.813,1.545,1.738,2.385,2.774
		c0.839,1.038,1.353,1.634,1.539,1.789c0.1,0.092,0.308,0.223,0.621,0.394c0.313,0.17,0.47,0.349,0.47,0.535
		c0,0.17-0.068,0.288-0.203,0.354c-0.135,0.064-0.393,0.098-0.771,0.098h-2.426c-0.271,0-0.471-0.04-0.598-0.121
		c-0.128-0.081-0.191-0.206-0.191-0.378c0-0.139,0.092-0.295,0.278-0.471c0.186-0.173,0.279-0.311,0.279-0.41
		c0-0.271-0.229-0.69-0.685-1.254c-0.457-0.566-1.111-1.239-1.962-2.021c-0.697,0.782-1.227,1.435-1.59,1.957
		s-0.545,0.899-0.545,1.132c0,0.208,0.143,0.398,0.43,0.568c0.286,0.172,0.429,0.344,0.429,0.523c0,0.169-0.072,0.291-0.215,0.364
		c-0.143,0.074-0.373,0.11-0.69,0.11H35.09c-0.232,0-0.4-0.037-0.505-0.115c-0.105-0.077-0.157-0.198-0.157-0.359
		c0-0.226,0.206-0.426,0.615-0.604c0.41-0.179,0.677-0.341,0.801-0.488C35.93,61.601,36.1,61.373,36.354,61.017L36.354,61.017z"/>
	<path fill="#092452" d="M54.848,61.436c-0.511,0.719-1.137,1.261-1.88,1.624c-0.743,0.365-1.598,0.545-2.566,0.545
		c-1.152,0-2.067-0.307-2.746-0.922c-0.677-0.614-1.015-1.44-1.015-2.479c0-1.415,0.626-2.503,1.88-3.261
		c1.254-0.759,3.061-1.138,5.422-1.138h0.523c-0.094-0.819-0.44-1.46-1.04-1.922c-0.6-0.46-1.388-0.689-2.362-0.689
		c-0.558,0-1.153,0.186-1.788,0.557c-0.634,0.371-1.045,0.557-1.23,0.557c-0.217,0-0.396-0.059-0.54-0.18
		c-0.144-0.119-0.215-0.272-0.215-0.458c0-0.487,0.36-0.893,1.08-1.212c0.72-0.322,1.659-0.482,2.82-0.482
		c1.912,0,3.292,0.445,4.139,1.34s1.271,2.358,1.271,4.394v3.541c0,0.17,0.024,0.309,0.07,0.413s0.166,0.237,0.358,0.4
		c0.07,0.046,0.183,0.104,0.338,0.174c0.348,0.155,0.521,0.34,0.521,0.558c0,0.231-0.126,0.388-0.377,0.47
		c-0.252,0.081-0.88,0.121-1.886,0.121c-0.294,0-0.498-0.056-0.609-0.168c-0.113-0.111-0.169-0.315-0.169-0.609V61.436z
		 M54.708,56.873h-0.312c-1.812,0-3.21,0.284-4.196,0.853c-0.987,0.569-1.481,1.372-1.481,2.41c0,0.625,0.216,1.139,0.645,1.538
		c0.431,0.397,0.989,0.597,1.678,0.597c0.386,0,0.769-0.05,1.145-0.15c0.374-0.102,0.708-0.239,1.003-0.418
		c0.573-0.356,0.97-0.735,1.19-1.138s0.33-0.968,0.33-1.695V56.873z"/>
	<path fill="#092452" d="M60.083,60.89v-5.108c0-0.487-0.036-0.832-0.11-1.033c-0.073-0.201-0.194-0.363-0.365-0.487
		c-0.124-0.101-0.311-0.205-0.558-0.313c-0.355-0.162-0.534-0.359-0.534-0.592c0-0.093,0.051-0.207,0.152-0.342
		c0.1-0.136,0.239-0.271,0.416-0.401c0.249-0.193,0.476-0.345,0.68-0.452c0.205-0.108,0.366-0.164,0.482-0.164
		c0.355,0,0.659,0.288,0.911,0.859c0.252,0.573,0.4,1.331,0.446,2.275c0.395-1.021,0.863-1.811,1.406-2.367
		c0.54-0.558,1.102-0.836,1.682-0.836c0.41,0,0.728,0.152,0.952,0.458s0.337,0.741,0.337,1.307c0,0.178-0.058,0.325-0.168,0.441
		c-0.112,0.115-0.258,0.173-0.436,0.173c-0.186,0-0.439-0.078-0.761-0.237c-0.32-0.158-0.548-0.238-0.679-0.238
		c-0.511,0-0.978,0.434-1.398,1.3c-0.423,0.866-0.633,1.924-0.633,3.17v2.542c0,0.488,0.028,0.806,0.086,0.952
		c0.059,0.147,0.161,0.251,0.309,0.313c0.116,0.046,0.298,0.1,0.545,0.162c0.473,0.124,0.709,0.314,0.709,0.569
		c0,0.155-0.06,0.266-0.181,0.331c-0.12,0.064-0.347,0.098-0.68,0.098h-2.971c-0.325,0-0.542-0.028-0.649-0.087
		c-0.109-0.058-0.164-0.163-0.164-0.318c0-0.201,0.174-0.387,0.522-0.559c0.187-0.092,0.322-0.165,0.406-0.22
		c0.093-0.062,0.157-0.155,0.192-0.279c0.034-0.123,0.052-0.331,0.052-0.626V60.89z"/>
	<path fill="#092452" d="M68.117,54.899c0-0.278-0.03-0.471-0.088-0.579c-0.059-0.108-0.172-0.218-0.342-0.326
		c-0.069-0.046-0.175-0.104-0.313-0.173c-0.279-0.14-0.419-0.287-0.419-0.441c0-0.116,0.041-0.221,0.122-0.313
		c0.082-0.094,0.222-0.193,0.425-0.302l0.162-0.093c0.944-0.495,1.571-0.743,1.881-0.743c0.162,0,0.274,0.073,0.337,0.22
		c0.061,0.147,0.092,0.488,0.092,1.022v8.149c0,0.201,0.023,0.368,0.07,0.499c0.046,0.131,0.116,0.221,0.208,0.267
		c0.108,0.046,0.24,0.102,0.395,0.162c0.402,0.163,0.604,0.353,0.604,0.57c0,0.17-0.066,0.288-0.197,0.354
		c-0.132,0.064-0.38,0.098-0.743,0.098h-2.496c-0.332,0-0.558-0.033-0.679-0.098c-0.12-0.065-0.181-0.176-0.181-0.331
		c0-0.116,0.032-0.218,0.093-0.302c0.062-0.086,0.176-0.166,0.338-0.243c0.061-0.031,0.146-0.07,0.255-0.116
		c0.317-0.133,0.477-0.403,0.477-0.813V54.899z M67.479,48.573c0-0.356,0.125-0.646,0.377-0.871
		c0.251-0.225,0.579-0.337,0.981-0.337c0.394,0,0.714,0.112,0.957,0.337s0.366,0.515,0.366,0.871c0,0.37-0.124,0.667-0.372,0.887
		c-0.247,0.221-0.572,0.331-0.976,0.331c-0.41,0-0.734-0.11-0.974-0.331C67.599,49.24,67.479,48.944,67.479,48.573z"/>
	<path fill="#092452" d="M72.145,61.11c0-0.224,0.072-0.408,0.215-0.551s0.323-0.215,0.54-0.215c0.24,0,0.526,0.209,0.859,0.627
		c0.1,0.116,0.178,0.209,0.232,0.278c0.316,0.355,0.673,0.623,1.067,0.801c0.395,0.18,0.84,0.267,1.335,0.267
		c0.696,0,1.267-0.181,1.712-0.545c0.445-0.363,0.667-0.831,0.667-1.405c0-0.805-0.913-1.427-2.738-1.869
		c-0.101-0.021-0.182-0.042-0.244-0.058c-1.138-0.278-1.95-0.653-2.438-1.126c-0.488-0.472-0.731-1.11-0.731-1.915
		c0-1.037,0.349-1.867,1.044-2.489c0.696-0.624,1.63-0.935,2.798-0.935c1.115,0,1.976,0.16,2.584,0.482
		c0.607,0.319,0.911,0.771,0.911,1.352c0,0.426-0.032,0.71-0.094,0.854c-0.062,0.143-0.182,0.214-0.359,0.214
		c-0.209,0-0.457-0.17-0.743-0.511c-0.116-0.131-0.209-0.231-0.278-0.302c-0.295-0.303-0.643-0.533-1.045-0.697
		c-0.402-0.162-0.836-0.242-1.3-0.242c-0.558,0-1.022,0.16-1.394,0.48c-0.371,0.321-0.557,0.723-0.557,1.202
		c0,0.401,0.121,0.721,0.365,0.951c0.243,0.232,0.714,0.445,1.41,0.639c0.225,0.062,0.542,0.144,0.952,0.244
		c1.014,0.24,1.687,0.468,2.021,0.685c0.479,0.311,0.837,0.673,1.073,1.092c0.235,0.417,0.354,0.894,0.354,1.428
		c0,1.122-0.378,2.029-1.133,2.723c-0.754,0.692-1.746,1.037-2.978,1.037c-1.045,0-1.99-0.279-2.837-0.839
		C72.569,62.204,72.145,61.652,72.145,61.11z"/>
</g>
<g>
	<path fill="#092452" d="M37.893,70.643v-0.217c0-0.149-0.008-0.257-0.023-0.319c-0.015-0.064-0.042-0.113-0.08-0.151
		c-0.027-0.027-0.092-0.063-0.196-0.104c-0.104-0.043-0.155-0.095-0.155-0.154c0-0.03,0.021-0.068,0.065-0.115
		c0.043-0.046,0.106-0.098,0.188-0.155c0.083-0.058,0.164-0.105,0.246-0.144c0.082-0.037,0.137-0.058,0.164-0.058
		c0.079,0,0.148,0.066,0.205,0.196c0.057,0.133,0.093,0.304,0.106,0.517c0.167-0.229,0.364-0.406,0.59-0.527
		c0.227-0.123,0.465-0.186,0.717-0.186c0.265,0,0.504,0.06,0.717,0.181c0.213,0.119,0.375,0.284,0.483,0.492
		c0.202-0.23,0.41-0.399,0.623-0.509c0.213-0.109,0.445-0.164,0.697-0.164c0.398,0,0.711,0.128,0.94,0.382
		c0.228,0.254,0.342,0.605,0.342,1.053v1.881c0,0.089,0.007,0.151,0.02,0.19c0.014,0.041,0.039,0.069,0.074,0.088
		c0.029,0.018,0.071,0.037,0.123,0.058c0.123,0.053,0.185,0.118,0.185,0.201c0,0.052-0.023,0.087-0.07,0.107
		c-0.047,0.018-0.135,0.028-0.267,0.028h-0.795c-0.096,0-0.167-0.012-0.212-0.034c-0.044-0.024-0.066-0.061-0.066-0.109
		c0-0.063,0.041-0.117,0.123-0.165c0.017-0.008,0.029-0.014,0.037-0.021c0.017-0.008,0.036-0.018,0.058-0.027
		c0.106-0.052,0.159-0.166,0.159-0.341v-1.913c0-0.271-0.069-0.478-0.211-0.62c-0.14-0.142-0.343-0.213-0.608-0.213
		c-0.317,0-0.572,0.078-0.767,0.236c-0.193,0.156-0.292,0.363-0.292,0.621v1.913c0,0.089,0.007,0.151,0.021,0.19
		c0.013,0.041,0.037,0.069,0.07,0.088c0.029,0.018,0.072,0.037,0.127,0.058c0.128,0.053,0.193,0.118,0.193,0.201
		c0,0.052-0.025,0.087-0.074,0.107c-0.049,0.018-0.15,0.028-0.303,0.028h-0.758c-0.093,0-0.162-0.012-0.208-0.034
		c-0.044-0.024-0.067-0.061-0.067-0.109c0-0.063,0.041-0.117,0.123-0.165c0.017-0.008,0.029-0.014,0.037-0.021
		c0.011-0.005,0.028-0.013,0.053-0.024c0.104-0.052,0.156-0.166,0.156-0.344v-1.827c0-0.312-0.066-0.543-0.198-0.693
		s-0.338-0.226-0.617-0.226c-0.298,0-0.547,0.09-0.747,0.27c-0.202,0.178-0.302,0.4-0.302,0.665v1.836
		c0,0.089,0.007,0.15,0.021,0.188c0.014,0.039,0.039,0.069,0.073,0.09c0.028,0.015,0.069,0.032,0.123,0.054
		c0.125,0.055,0.189,0.122,0.189,0.205c0,0.05-0.023,0.084-0.068,0.104c-0.045,0.021-0.126,0.031-0.244,0.031h-0.848
		c-0.087,0-0.149-0.011-0.187-0.028c-0.037-0.021-0.055-0.054-0.055-0.1c0-0.068,0.051-0.132,0.152-0.192l0.016-0.009
		c0.008-0.005,0.019-0.011,0.029-0.015c0.115-0.067,0.172-0.185,0.172-0.354V70.643z"/>
	<path fill="#092452" d="M45.18,71.771c0.068,0.318,0.214,0.572,0.438,0.759c0.224,0.188,0.492,0.282,0.803,0.282
		c0.167,0,0.324-0.022,0.472-0.062c0.147-0.041,0.292-0.104,0.434-0.193c0.069-0.04,0.154-0.099,0.254-0.176
		c0.14-0.1,0.231-0.15,0.275-0.15c0.044,0,0.08,0.016,0.108,0.049c0.03,0.032,0.044,0.074,0.044,0.127
		c0,0.085-0.058,0.187-0.17,0.305c-0.113,0.12-0.264,0.233-0.453,0.342c-0.158,0.093-0.325,0.163-0.501,0.209
		c-0.176,0.048-0.362,0.07-0.555,0.07c-0.577,0-1.037-0.171-1.381-0.514c-0.345-0.343-0.517-0.801-0.517-1.375
		c0-0.628,0.205-1.155,0.612-1.579c0.409-0.426,0.913-0.639,1.511-0.639c0.456,0,0.807,0.094,1.053,0.283
		c0.246,0.188,0.369,0.455,0.369,0.799c0,0.407-0.228,0.729-0.683,0.966C46.837,71.508,46.133,71.675,45.18,71.771z M45.118,71.348
		c0.743-0.071,1.29-0.195,1.637-0.375c0.349-0.179,0.523-0.421,0.523-0.724c0-0.202-0.07-0.36-0.21-0.475
		c-0.142-0.115-0.335-0.173-0.581-0.173c-0.402,0-0.73,0.156-0.985,0.468c-0.255,0.312-0.384,0.716-0.384,1.213V71.348z"/>
	<path fill="#092452" d="M51.716,72.766c-0.194,0.188-0.407,0.33-0.637,0.424c-0.23,0.095-0.481,0.142-0.748,0.142
		c-0.522,0-0.95-0.182-1.285-0.543c-0.335-0.362-0.503-0.827-0.503-1.396c0-0.631,0.184-1.15,0.548-1.558
		c0.365-0.407,0.828-0.61,1.391-0.61c0.205,0,0.405,0.028,0.598,0.086c0.191,0.058,0.377,0.145,0.556,0.258v-1.441
		c0-0.11-0.018-0.193-0.05-0.248c-0.032-0.057-0.09-0.102-0.168-0.138c-0.033-0.016-0.078-0.035-0.136-0.057
		c-0.117-0.048-0.176-0.097-0.176-0.152c0-0.026,0.013-0.059,0.039-0.095c0.026-0.035,0.061-0.068,0.104-0.102
		c0.147-0.102,0.291-0.181,0.433-0.238c0.141-0.057,0.255-0.087,0.345-0.087c0.094,0,0.159,0.036,0.198,0.105
		c0.038,0.07,0.058,0.196,0.058,0.379v4.692c0,0.143,0.003,0.252,0.014,0.329c0.009,0.08,0.026,0.134,0.051,0.167
		c0.033,0.046,0.115,0.101,0.247,0.16c0.13,0.061,0.195,0.13,0.195,0.208c0,0.056-0.021,0.096-0.062,0.122
		c-0.043,0.025-0.111,0.039-0.203,0.039h-0.417c-0.13,0-0.216-0.024-0.257-0.075C51.807,73.09,51.762,72.966,51.716,72.766z
		 M51.635,70.09c-0.135-0.142-0.294-0.252-0.478-0.328c-0.186-0.076-0.378-0.115-0.581-0.115c-0.396,0-0.713,0.153-0.952,0.457
		c-0.239,0.305-0.359,0.714-0.359,1.229c0,0.47,0.111,0.84,0.332,1.107c0.222,0.27,0.525,0.404,0.91,0.404
		c0.188,0,0.371-0.03,0.546-0.09c0.175-0.061,0.32-0.143,0.438-0.246c0.052-0.044,0.089-0.097,0.111-0.158
		c0.021-0.062,0.033-0.157,0.033-0.288v-0.065V70.09z"/>
	<path fill="#092452" d="M53.732,70.258c0-0.098-0.01-0.167-0.03-0.205c-0.021-0.038-0.062-0.076-0.121-0.115
		c-0.024-0.016-0.062-0.036-0.11-0.061c-0.1-0.05-0.147-0.102-0.147-0.156c0-0.042,0.014-0.077,0.043-0.109
		c0.028-0.033,0.078-0.069,0.149-0.108l0.058-0.032c0.332-0.175,0.554-0.263,0.663-0.263c0.057,0,0.097,0.025,0.119,0.079
		c0.021,0.052,0.032,0.172,0.032,0.359v2.877c0,0.071,0.009,0.13,0.025,0.177s0.041,0.078,0.074,0.094
		c0.037,0.018,0.084,0.036,0.138,0.058c0.142,0.058,0.215,0.125,0.215,0.2c0,0.061-0.024,0.103-0.07,0.127
		c-0.046,0.022-0.135,0.034-0.263,0.034h-0.881c-0.117,0-0.198-0.012-0.239-0.034c-0.043-0.024-0.063-0.062-0.063-0.118
		c0-0.041,0.011-0.076,0.032-0.106s0.061-0.059,0.118-0.085c0.022-0.012,0.052-0.025,0.09-0.043
		c0.113-0.046,0.169-0.142,0.169-0.286V70.258z M53.506,68.024c0-0.125,0.045-0.228,0.134-0.306c0.09-0.081,0.205-0.12,0.348-0.12
		c0.138,0,0.252,0.039,0.338,0.12c0.085,0.078,0.129,0.181,0.129,0.306c0,0.133-0.045,0.237-0.133,0.314
		c-0.086,0.078-0.201,0.117-0.344,0.117c-0.145,0-0.259-0.039-0.344-0.117C53.55,68.261,53.506,68.156,53.506,68.024z"/>
	<path fill="#092452" d="M58.478,72.197c0.062,0,0.108,0.013,0.146,0.036c0.037,0.025,0.056,0.058,0.056,0.098
		c0,0.081-0.042,0.18-0.123,0.299c-0.082,0.118-0.19,0.229-0.325,0.333c-0.155,0.123-0.329,0.217-0.519,0.277
		s-0.399,0.092-0.629,0.092c-0.51,0-0.932-0.182-1.265-0.543c-0.331-0.362-0.497-0.821-0.497-1.379c0-0.626,0.184-1.146,0.549-1.562
		c0.366-0.415,0.824-0.623,1.374-0.623c0.368,0,0.679,0.078,0.93,0.232s0.377,0.335,0.377,0.542c0,0.091-0.034,0.169-0.103,0.236
		c-0.069,0.067-0.148,0.101-0.241,0.101c-0.113,0-0.229-0.082-0.353-0.243c-0.02-0.023-0.033-0.041-0.041-0.053
		c-0.12-0.155-0.227-0.257-0.317-0.3c-0.093-0.046-0.205-0.068-0.339-0.068c-0.331,0-0.599,0.152-0.805,0.457
		c-0.207,0.305-0.31,0.705-0.31,1.203c0,0.452,0.11,0.815,0.331,1.088c0.222,0.271,0.517,0.406,0.886,0.406
		c0.109,0,0.218-0.014,0.326-0.044c0.107-0.029,0.211-0.074,0.309-0.132c0.121-0.068,0.241-0.16,0.359-0.277
		C58.373,72.255,58.448,72.197,58.478,72.197z"/>
	<path fill="#092452" d="M61.893,72.566c-0.181,0.253-0.401,0.445-0.664,0.572c-0.263,0.129-0.564,0.193-0.906,0.193
		c-0.407,0-0.73-0.107-0.969-0.325c-0.24-0.218-0.359-0.51-0.359-0.876c0-0.5,0.222-0.883,0.664-1.151
		c0.443-0.268,1.08-0.401,1.914-0.401h0.185c-0.032-0.29-0.155-0.516-0.367-0.679c-0.212-0.162-0.49-0.244-0.834-0.244
		c-0.197,0-0.407,0.066-0.631,0.197s-0.369,0.198-0.435,0.198c-0.076,0-0.141-0.022-0.189-0.064
		c-0.051-0.043-0.076-0.097-0.076-0.163c0-0.172,0.125-0.313,0.381-0.427c0.253-0.113,0.585-0.171,0.995-0.171
		c0.675,0,1.162,0.157,1.461,0.473c0.299,0.316,0.449,0.833,0.449,1.552v1.249c0,0.062,0.008,0.109,0.024,0.146
		c0.017,0.038,0.059,0.084,0.127,0.142c0.025,0.016,0.064,0.037,0.118,0.061c0.123,0.056,0.186,0.121,0.186,0.198
		c0,0.082-0.045,0.137-0.134,0.166c-0.089,0.028-0.311,0.042-0.666,0.042c-0.104,0-0.176-0.02-0.215-0.06
		c-0.039-0.039-0.059-0.11-0.059-0.214V72.566z M61.843,70.955h-0.11c-0.64,0-1.133,0.1-1.481,0.301
		c-0.349,0.2-0.523,0.484-0.523,0.851c0,0.221,0.076,0.401,0.228,0.543c0.152,0.14,0.35,0.21,0.593,0.21
		c0.137,0,0.271-0.017,0.403-0.053c0.133-0.035,0.251-0.085,0.354-0.147c0.202-0.125,0.342-0.26,0.42-0.401
		c0.078-0.143,0.117-0.342,0.117-0.599V70.955z"/>
	<path fill="#092452" d="M63.671,68.033c0-0.096-0.011-0.164-0.031-0.202s-0.06-0.077-0.117-0.113
		c-0.024-0.018-0.06-0.038-0.105-0.062c-0.1-0.05-0.147-0.103-0.147-0.16c0-0.04,0.015-0.079,0.045-0.117
		c0.029-0.036,0.079-0.072,0.147-0.107l0.023-0.012c0.344-0.184,0.574-0.275,0.689-0.275c0.058,0,0.097,0.025,0.118,0.075
		c0.022,0.052,0.032,0.169,0.032,0.354v5.11c0,0.071,0.011,0.13,0.029,0.179c0.02,0.048,0.043,0.078,0.074,0.092
		c0.026,0.011,0.069,0.027,0.127,0.05c0.156,0.061,0.233,0.13,0.233,0.208c0,0.058-0.024,0.099-0.072,0.124
		c-0.048,0.024-0.135,0.037-0.264,0.037h-0.881c-0.118,0-0.198-0.012-0.244-0.034c-0.045-0.024-0.068-0.062-0.068-0.118
		c0-0.037,0.013-0.072,0.035-0.102c0.023-0.03,0.065-0.062,0.125-0.09c0.021-0.012,0.051-0.024,0.086-0.038
		c0.109-0.044,0.165-0.141,0.165-0.291V68.033z"/>
</g>
<g>
	<path fill="#092452" d="M81.605,61.522c0.174,0,0.344,0.045,0.511,0.135c0.165,0.089,0.294,0.218,0.388,0.383
		c0.092,0.167,0.138,0.341,0.138,0.521c0,0.178-0.046,0.351-0.137,0.516c-0.091,0.164-0.22,0.292-0.385,0.384
		c-0.163,0.091-0.336,0.137-0.515,0.137c-0.18,0-0.352-0.046-0.517-0.137c-0.165-0.092-0.292-0.22-0.385-0.384
		c-0.092-0.165-0.137-0.338-0.137-0.516c0-0.181,0.046-0.354,0.14-0.521c0.093-0.165,0.222-0.294,0.389-0.383
		C81.261,61.567,81.431,61.522,81.605,61.522z M81.605,61.695c-0.146,0-0.288,0.037-0.426,0.111
		c-0.137,0.076-0.245,0.182-0.324,0.32c-0.077,0.139-0.116,0.284-0.116,0.435c0,0.148,0.037,0.292,0.114,0.429
		c0.077,0.139,0.185,0.244,0.321,0.321c0.137,0.076,0.281,0.114,0.431,0.114c0.148,0,0.292-0.038,0.43-0.114
		c0.139-0.077,0.245-0.183,0.321-0.321c0.076-0.137,0.112-0.28,0.112-0.429c0-0.15-0.038-0.296-0.116-0.435
		c-0.077-0.139-0.185-0.244-0.323-0.32C81.892,61.732,81.75,61.695,81.605,61.695z M81.149,63.133v-1.115h0.385
		c0.13,0,0.225,0.01,0.284,0.029c0.059,0.021,0.105,0.057,0.14,0.108c0.036,0.052,0.053,0.107,0.053,0.165
		c0,0.081-0.029,0.151-0.088,0.211c-0.058,0.062-0.135,0.096-0.23,0.103c0.039,0.017,0.07,0.037,0.094,0.059
		c0.046,0.045,0.1,0.119,0.165,0.223l0.136,0.218h-0.22l-0.099-0.176c-0.078-0.138-0.141-0.224-0.188-0.26
		c-0.033-0.025-0.082-0.038-0.146-0.038H81.33v0.474H81.149z M81.33,62.505h0.219c0.104,0,0.176-0.016,0.214-0.046
		c0.038-0.032,0.057-0.073,0.057-0.125c0-0.032-0.008-0.062-0.026-0.088s-0.044-0.046-0.077-0.06
		c-0.032-0.012-0.093-0.019-0.181-0.019H81.33V62.505z"/>
</g>
</svg>
