<?xml version="1.0" encoding="utf-8"?>
<!-- Generator: Adobe Illustrator 16.0.0, SVG Export Plug-In . SVG Version: 6.00 Build 0)  -->
<!DOCTYPE svg PUBLIC "-//W3C//DTD SVG 1.1//EN" "http://www.w3.org/Graphics/SVG/1.1/DTD/svg11.dtd">
<svg version="1.1" id="Capa_1" xmlns="http://www.w3.org/2000/svg" xmlns:xlink="http://www.w3.org/1999/xlink" x="0px" y="0px"
	 width="100px" height="72.025px" viewBox="0 0 100 72.025" enable-background="new 0 0 100 72.025" xml:space="preserve">
<g>
	<g>
		<circle fill="#D81F26" cx="56.762" cy="29.807" r="2.258"/>
		<circle fill="#D81F26" cx="53.676" cy="26.821" r="1.51"/>
		<circle fill="#D81F26" cx="65.988" cy="39.369" r="3.755"/>
		<circle fill="#D81F26" cx="60.926" cy="33.998" r="2.988"/>
	</g>
	<g>
		<circle fill="#D81F26" cx="46.243" cy="29.853" r="2.257"/>
		<circle fill="#D81F26" cx="49.283" cy="26.821" r="1.51"/>
		<circle fill="#D81F26" cx="36.964" cy="39.369" r="3.755"/>
		<circle fill="#D81F26" cx="42.104" cy="34.139" r="2.988"/>
	</g>
	<g>
		<circle fill="#D81F26" cx="56.675" cy="19.406" r="2.257"/>
		<circle fill="#D81F26" cx="53.656" cy="22.424" r="1.51"/>
		<circle fill="#D81F26" cx="66.132" cy="10.091" r="3.755"/>
		<circle fill="#D81F26" cx="60.893" cy="15.271" r="2.988"/>
	</g>
	<g>
		<circle fill="#D81F26" cx="46.314" cy="19.338" r="2.257"/>
		<circle fill="#D81F26" cx="49.26" cy="22.405" r="1.51"/>
		<circle fill="#D81F26" cx="36.675" cy="10.117" r="3.755"/>
		<circle fill="#D81F26" cx="41.992" cy="15.215" r="2.989"/>
	</g>
</g>
<g>
	<path fill="#FFFFFF" d="M28.847,55.024c0.169,0.791,0.531,1.419,1.085,1.882c0.555,0.463,1.217,0.694,1.988,0.694
		c0.413,0,0.801-0.053,1.167-0.151c0.366-0.101,0.724-0.261,1.075-0.478c0.169-0.104,0.378-0.246,0.629-0.438
		c0.345-0.25,0.571-0.375,0.68-0.375c0.108,0,0.198,0.04,0.269,0.121c0.071,0.081,0.106,0.187,0.106,0.312
		c0,0.211-0.14,0.464-0.421,0.758c-0.281,0.294-0.654,0.573-1.121,0.847c-0.393,0.229-0.807,0.402-1.243,0.518
		c-0.436,0.116-0.895,0.176-1.375,0.176c-1.427,0-2.566-0.428-3.418-1.273s-1.278-1.983-1.278-3.403
		c0-1.555,0.505-2.855,1.517-3.907c1.011-1.054,2.257-1.577,3.738-1.577c1.129,0,1.998,0.23,2.606,0.697
		c0.609,0.47,0.913,1.126,0.913,1.979c0,1.008-0.563,1.804-1.689,2.389S31.207,54.788,28.847,55.024z M28.695,53.979
		c1.839-0.176,3.19-0.484,4.052-0.931c0.862-0.439,1.293-1.04,1.293-1.79c0-0.501-0.174-0.893-0.522-1.177
		c-0.349-0.284-0.827-0.426-1.436-0.426c-0.994,0-1.807,0.385-2.439,1.156c-0.632,0.771-0.948,1.771-0.948,3.002V53.979z"/>
	<path fill="#FFFFFF" d="M38.595,56.627c0.771-1.081,1.532-2.028,2.282-2.85c-0.616-0.677-1.239-1.438-1.872-2.287
		c-0.633-0.849-1.005-1.327-1.12-1.436c-0.088-0.081-0.266-0.188-0.533-0.319s-0.401-0.272-0.401-0.421
		c0-0.129,0.047-0.217,0.142-0.267c0.095-0.048,0.294-0.068,0.599-0.068h2.019c0.318,0,0.529,0.021,0.634,0.068
		c0.105,0.05,0.157,0.138,0.157,0.267c0,0.081-0.09,0.199-0.269,0.354c-0.179,0.155-0.269,0.298-0.269,0.426
		c0,0.189,0.171,0.518,0.512,0.977c0.341,0.46,0.82,1.001,1.436,1.623c0.554-0.554,1.004-1.075,1.349-1.562
		c0.345-0.484,0.518-0.832,0.518-1.033c0-0.113-0.103-0.245-0.31-0.396c-0.206-0.147-0.309-0.277-0.309-0.385
		c0-0.129,0.056-0.217,0.167-0.267c0.112-0.048,0.34-0.068,0.685-0.068h1.43c0.277,0,0.461,0.021,0.553,0.061
		c0.091,0.041,0.137,0.115,0.137,0.227c0,0.146-0.118,0.279-0.355,0.397c-0.237,0.118-0.402,0.229-0.497,0.329
		c-0.067,0.068-0.377,0.494-0.928,1.278c-0.551,0.785-1.128,1.495-1.729,2.13c0.656,0.71,1.351,1.519,2.084,2.425
		s1.182,1.427,1.344,1.562c0.088,0.078,0.269,0.193,0.542,0.345c0.274,0.146,0.411,0.305,0.411,0.467
		c0,0.149-0.06,0.252-0.178,0.311c-0.118,0.06-0.343,0.088-0.674,0.088h-2.12c-0.237,0-0.411-0.035-0.522-0.106
		c-0.111-0.07-0.167-0.181-0.167-0.329c0-0.122,0.081-0.259,0.243-0.411c0.163-0.149,0.244-0.271,0.244-0.357
		c0-0.236-0.2-0.604-0.599-1.098s-0.97-1.082-1.714-1.766c-0.608,0.684-1.072,1.253-1.389,1.709
		c-0.318,0.457-0.477,0.786-0.477,0.989c0,0.183,0.125,0.349,0.375,0.497c0.25,0.146,0.375,0.301,0.375,0.457
		c0,0.146-0.062,0.255-0.188,0.316c-0.126,0.064-0.326,0.099-0.604,0.099h-2.12c-0.203,0-0.35-0.033-0.441-0.104
		c-0.091-0.066-0.137-0.172-0.137-0.312c0-0.196,0.179-0.372,0.538-0.528c0.358-0.155,0.592-0.297,0.7-0.426
		C38.223,57.137,38.372,56.938,38.595,56.627L38.595,56.627z"/>
	<path fill="#FFFFFF" d="M54.753,56.992c-0.446,0.629-0.994,1.104-1.644,1.42c-0.649,0.318-1.396,0.479-2.241,0.479
		c-1.008,0-1.808-0.271-2.399-0.81c-0.592-0.538-0.888-1.26-0.888-2.166c0-1.234,0.548-2.188,1.643-2.85
		c1.096-0.663,2.674-0.994,4.737-0.994h0.456c-0.081-0.717-0.384-1.276-0.908-1.679c-0.522-0.402-1.212-0.604-2.063-0.604
		c-0.484,0-1.005,0.162-1.562,0.486c-0.554,0.325-0.913,0.487-1.075,0.487c-0.189,0-0.346-0.056-0.472-0.157
		c-0.125-0.104-0.188-0.238-0.188-0.4c0-0.427,0.314-0.779,0.943-1.061c0.629-0.28,1.45-0.421,2.465-0.421
		c1.67,0,2.877,0.391,3.616,1.172c0.74,0.778,1.11,2.061,1.11,3.839v3.094c0,0.148,0.021,0.271,0.061,0.36
		c0.041,0.091,0.146,0.208,0.314,0.35c0.062,0.041,0.158,0.092,0.295,0.152c0.304,0.136,0.456,0.298,0.456,0.486
		c0,0.2-0.11,0.34-0.329,0.408c-0.221,0.071-0.77,0.106-1.648,0.106c-0.258,0-0.435-0.049-0.533-0.146
		c-0.098-0.099-0.146-0.272-0.146-0.53V56.992L54.753,56.992z M54.631,53.006h-0.273c-1.582,0-2.805,0.249-3.666,0.746
		c-0.86,0.497-1.292,1.198-1.292,2.104c0,0.548,0.188,0.996,0.563,1.344c0.375,0.349,0.864,0.522,1.467,0.522
		c0.34,0,0.672-0.044,0.998-0.135c0.328-0.088,0.62-0.209,0.879-0.362c0.502-0.312,0.848-0.646,1.039-0.994
		c0.191-0.354,0.288-0.848,0.288-1.48L54.631,53.006L54.631,53.006z"/>
	<path fill="#FFFFFF" d="M59.327,56.515V52.05c0-0.426-0.032-0.727-0.097-0.899c-0.063-0.176-0.17-0.318-0.319-0.427
		c-0.108-0.091-0.271-0.182-0.486-0.273c-0.312-0.143-0.467-0.314-0.467-0.518c0-0.081,0.044-0.184,0.132-0.302
		c0.088-0.115,0.21-0.232,0.365-0.351c0.216-0.169,0.414-0.301,0.594-0.396c0.18-0.095,0.319-0.142,0.422-0.142
		c0.312,0,0.575,0.25,0.795,0.751c0.221,0.5,0.353,1.163,0.394,1.987c0.345-0.896,0.754-1.582,1.229-2.069
		c0.473-0.486,0.963-0.729,1.471-0.729c0.356,0,0.636,0.133,0.832,0.397c0.193,0.27,0.295,0.647,0.295,1.144
		c0,0.153-0.051,0.281-0.147,0.386c-0.099,0.102-0.226,0.151-0.381,0.151c-0.162,0-0.384-0.068-0.664-0.207
		c-0.28-0.142-0.479-0.208-0.593-0.208c-0.447,0-0.854,0.379-1.223,1.136c-0.369,0.758-0.556,1.681-0.556,2.77v2.225
		c0,0.426,0.022,0.703,0.076,0.831c0.051,0.129,0.142,0.22,0.271,0.271c0.103,0.04,0.26,0.088,0.478,0.145
		c0.411,0.105,0.618,0.271,0.618,0.494c0,0.139-0.053,0.231-0.156,0.289c-0.105,0.061-0.303,0.086-0.594,0.086h-2.598
		c-0.283,0-0.476-0.022-0.566-0.073c-0.096-0.053-0.143-0.146-0.143-0.278c0-0.176,0.149-0.338,0.455-0.487
		c0.161-0.081,0.279-0.146,0.354-0.189c0.078-0.057,0.137-0.139,0.167-0.243c0.028-0.108,0.046-0.291,0.046-0.548L59.327,56.515
		L59.327,56.515z"/>
	<path fill="#FFFFFF" d="M66.348,51.282c0-0.244-0.023-0.413-0.076-0.508c-0.051-0.095-0.148-0.189-0.301-0.284
		c-0.061-0.04-0.15-0.091-0.271-0.151c-0.243-0.122-0.365-0.25-0.365-0.386c0-0.102,0.035-0.192,0.104-0.271
		c0.07-0.082,0.193-0.172,0.369-0.268l0.146-0.081c0.821-0.433,1.372-0.646,1.646-0.646c0.143,0,0.237,0.062,0.293,0.189
		c0.055,0.129,0.082,0.429,0.082,0.896v7.12c0,0.177,0.021,0.318,0.062,0.437c0.04,0.115,0.103,0.192,0.183,0.233
		c0.096,0.04,0.209,0.088,0.346,0.142c0.354,0.146,0.526,0.312,0.526,0.497c0,0.149-0.058,0.252-0.172,0.312
		c-0.114,0.059-0.332,0.087-0.649,0.087h-2.181c-0.291,0-0.489-0.028-0.594-0.087c-0.104-0.06-0.157-0.152-0.157-0.288
		c0-0.104,0.027-0.189,0.081-0.267s0.151-0.146,0.294-0.213c0.055-0.027,0.129-0.061,0.225-0.102
		c0.276-0.115,0.416-0.354,0.416-0.71v-5.65L66.348,51.282L66.348,51.282z M65.788,45.754c0-0.312,0.11-0.562,0.33-0.761
		s0.506-0.294,0.856-0.294c0.346,0,0.623,0.098,0.838,0.294c0.213,0.196,0.316,0.449,0.316,0.761c0,0.324-0.105,0.583-0.322,0.775
		c-0.219,0.193-0.5,0.289-0.854,0.289c-0.356,0-0.646-0.096-0.854-0.289C65.895,46.337,65.788,46.078,65.788,45.754z"/>
	<path fill="#FFFFFF" d="M69.866,56.708c0-0.192,0.062-0.354,0.188-0.479c0.125-0.125,0.279-0.188,0.471-0.188
		c0.211,0,0.461,0.186,0.752,0.548c0.088,0.104,0.154,0.186,0.201,0.243c0.275,0.312,0.59,0.545,0.935,0.7s0.733,0.233,1.166,0.233
		c0.608,0,1.106-0.159,1.496-0.479c0.389-0.317,0.584-0.727,0.584-1.227c0-0.703-0.8-1.248-2.396-1.637
		c-0.09-0.02-0.158-0.034-0.215-0.05c-0.992-0.244-1.701-0.572-2.13-0.981c-0.426-0.412-0.64-0.974-0.64-1.677
		c0-0.903,0.305-1.631,0.912-2.176c0.607-0.544,1.425-0.813,2.443-0.813c0.975,0,1.729,0.141,2.258,0.421
		c0.529,0.278,0.795,0.675,0.795,1.182c0,0.372-0.024,0.621-0.08,0.746c-0.055,0.125-0.157,0.188-0.312,0.188
		c-0.184,0-0.396-0.148-0.646-0.446c-0.104-0.115-0.186-0.203-0.244-0.267c-0.256-0.264-0.562-0.467-0.912-0.605
		c-0.352-0.146-0.73-0.214-1.137-0.214c-0.486,0-0.895,0.141-1.217,0.421c-0.324,0.281-0.486,0.631-0.486,1.05
		c0,0.354,0.104,0.629,0.318,0.832c0.213,0.203,0.625,0.389,1.23,0.558c0.193,0.058,0.474,0.126,0.832,0.217
		c0.886,0.209,1.474,0.406,1.765,0.598c0.419,0.271,0.729,0.589,0.938,0.954c0.205,0.365,0.311,0.781,0.311,1.247
		c0,0.979-0.33,1.771-0.988,2.379c-0.658,0.604-1.524,0.908-2.603,0.908c-0.913,0-1.74-0.245-2.479-0.735
		C70.236,57.666,69.866,57.181,69.866,56.708z"/>
</g>
<g>
	<path fill="#FFFFFF" d="M39.938,65.038V64.85c0-0.134-0.007-0.227-0.02-0.279s-0.036-0.099-0.07-0.132
		c-0.024-0.024-0.081-0.058-0.172-0.092c-0.09-0.037-0.136-0.081-0.136-0.137c0-0.023,0.019-0.06,0.057-0.101
		c0.038-0.04,0.093-0.086,0.165-0.136c0.072-0.054,0.144-0.095,0.215-0.126c0.072-0.033,0.12-0.053,0.144-0.053
		c0.069,0,0.129,0.061,0.179,0.175c0.05,0.111,0.082,0.265,0.093,0.448c0.146-0.197,0.317-0.354,0.516-0.462
		c0.199-0.105,0.407-0.161,0.626-0.161c0.232,0,0.44,0.056,0.627,0.157c0.186,0.105,0.327,0.249,0.422,0.43
		c0.177-0.197,0.358-0.348,0.544-0.44c0.186-0.096,0.389-0.146,0.609-0.146c0.348,0,0.622,0.111,0.822,0.333
		c0.199,0.225,0.299,0.529,0.299,0.92v1.646c0,0.076,0.006,0.132,0.018,0.166s0.033,0.061,0.064,0.077
		c0.026,0.015,0.062,0.028,0.107,0.05c0.107,0.046,0.161,0.104,0.161,0.176c0,0.045-0.021,0.076-0.061,0.093
		c-0.04,0.02-0.118,0.025-0.233,0.025H44.22c-0.084,0-0.145-0.011-0.185-0.03c-0.04-0.021-0.059-0.052-0.059-0.095
		c0-0.056,0.036-0.104,0.107-0.144c0.014-0.01,0.025-0.017,0.032-0.021c0.014-0.008,0.031-0.016,0.05-0.022
		c0.093-0.049,0.14-0.146,0.14-0.3V65c0-0.233-0.062-0.416-0.185-0.541c-0.123-0.124-0.3-0.186-0.532-0.186
		c-0.277,0-0.5,0.065-0.67,0.206c-0.169,0.137-0.254,0.314-0.254,0.542v1.673c0,0.076,0.006,0.132,0.018,0.166
		c0.012,0.034,0.032,0.061,0.061,0.077c0.026,0.015,0.063,0.028,0.111,0.05c0.112,0.046,0.168,0.104,0.168,0.176
		c0,0.045-0.021,0.076-0.064,0.093c-0.043,0.02-0.131,0.025-0.265,0.025h-0.662c-0.081,0-0.142-0.011-0.181-0.03
		c-0.039-0.021-0.059-0.052-0.059-0.095c0-0.056,0.036-0.104,0.107-0.144c0.015-0.01,0.025-0.017,0.032-0.021
		c0.01-0.005,0.025-0.013,0.047-0.021c0.091-0.048,0.136-0.146,0.136-0.304V65.07c0-0.271-0.058-0.474-0.173-0.604
		c-0.116-0.132-0.295-0.194-0.539-0.194c-0.26,0-0.478,0.078-0.653,0.231c-0.176,0.156-0.263,0.354-0.263,0.582v1.604
		c0,0.076,0.006,0.131,0.018,0.164c0.012,0.033,0.034,0.06,0.064,0.079c0.024,0.012,0.06,0.024,0.107,0.047
		c0.11,0.047,0.165,0.104,0.165,0.179c0,0.043-0.02,0.073-0.059,0.091c-0.04,0.021-0.11,0.027-0.213,0.027h-0.741
		c-0.076,0-0.13-0.009-0.163-0.025c-0.033-0.016-0.048-0.045-0.048-0.086c0-0.06,0.044-0.112,0.132-0.168l0.014-0.007
		c0.007-0.005,0.016-0.01,0.025-0.015c0.1-0.061,0.15-0.16,0.15-0.311v-1.634h0.002V65.038z"/>
	<path fill="#FFFFFF" d="M46.305,66.022c0.06,0.276,0.187,0.501,0.383,0.664c0.196,0.164,0.43,0.246,0.702,0.246
		c0.146,0,0.283-0.021,0.412-0.057c0.129-0.036,0.255-0.093,0.379-0.169c0.06-0.035,0.134-0.087,0.222-0.151
		c0.122-0.091,0.202-0.135,0.24-0.135s0.07,0.017,0.095,0.043c0.025,0.028,0.038,0.065,0.038,0.11c0,0.074-0.05,0.163-0.149,0.268
		c-0.099,0.105-0.231,0.203-0.396,0.302c-0.139,0.081-0.285,0.142-0.438,0.183c-0.154,0.04-0.316,0.062-0.485,0.062
		c-0.504,0-0.906-0.149-1.207-0.449c-0.301-0.3-0.451-0.7-0.451-1.201c0-0.549,0.178-1.01,0.535-1.381s0.797-0.56,1.319-0.56
		c0.399,0,0.706,0.082,0.92,0.247c0.214,0.165,0.322,0.397,0.322,0.698c0,0.355-0.199,0.637-0.596,0.844
		S47.138,65.939,46.305,66.022z M46.251,65.653c0.649-0.062,1.126-0.171,1.43-0.327c0.305-0.156,0.457-0.367,0.457-0.632
		c0-0.177-0.062-0.315-0.184-0.416c-0.123-0.103-0.292-0.15-0.507-0.15c-0.351,0-0.638,0.14-0.861,0.408
		c-0.223,0.272-0.334,0.626-0.334,1.062L46.251,65.653L46.251,65.653z"/>
	<path fill="#FFFFFF" d="M52.018,66.892c-0.17,0.165-0.354,0.288-0.558,0.371c-0.202,0.082-0.42,0.12-0.653,0.12
		c-0.457,0-0.831-0.155-1.123-0.475s-0.439-0.723-0.439-1.219c0-0.552,0.16-1.005,0.478-1.361c0.319-0.354,0.724-0.533,1.216-0.533
		c0.179,0,0.353,0.025,0.521,0.075s0.329,0.125,0.483,0.229v-1.264c0-0.095-0.014-0.167-0.043-0.216
		c-0.027-0.049-0.076-0.089-0.146-0.12c-0.027-0.015-0.066-0.028-0.117-0.051c-0.104-0.04-0.154-0.084-0.154-0.132
		c0-0.024,0.014-0.052,0.035-0.083c0.021-0.03,0.053-0.062,0.092-0.089c0.13-0.089,0.255-0.158,0.377-0.208
		c0.123-0.05,0.226-0.075,0.304-0.075c0.081,0,0.14,0.03,0.172,0.092c0.034,0.062,0.052,0.171,0.052,0.331v4.103
		c0,0.121,0.004,0.221,0.014,0.285c0.009,0.068,0.021,0.117,0.043,0.146c0.029,0.04,0.103,0.087,0.217,0.14
		c0.113,0.056,0.172,0.113,0.172,0.186c0,0.048-0.02,0.083-0.057,0.104c-0.036,0.022-0.096,0.034-0.178,0.034h-0.365
		c-0.11,0-0.188-0.021-0.225-0.064C52.098,67.176,52.057,67.067,52.018,66.892z M51.943,64.554
		c-0.115-0.124-0.256-0.223-0.416-0.287c-0.161-0.066-0.33-0.103-0.508-0.103c-0.348,0-0.625,0.133-0.833,0.399
		c-0.209,0.266-0.313,0.623-0.313,1.071c0,0.408,0.097,0.731,0.29,0.97c0.193,0.231,0.458,0.353,0.795,0.353
		c0.165,0,0.323-0.023,0.479-0.079c0.149-0.053,0.277-0.124,0.383-0.215c0.045-0.038,0.076-0.084,0.097-0.138
		s0.028-0.138,0.028-0.253v-0.06v-1.662L51.943,64.554L51.943,64.554z"/>
	<path fill="#FFFFFF" d="M53.777,64.701c0-0.086-0.008-0.146-0.026-0.179s-0.053-0.067-0.104-0.104
		c-0.021-0.015-0.055-0.029-0.098-0.054c-0.086-0.043-0.129-0.088-0.129-0.136c0-0.036,0.014-0.068,0.038-0.1
		c0.024-0.026,0.067-0.06,0.13-0.094l0.051-0.027c0.291-0.15,0.484-0.229,0.58-0.229c0.051,0,0.084,0.022,0.104,0.068
		c0.02,0.046,0.028,0.147,0.028,0.312v2.516c0,0.062,0.008,0.111,0.021,0.152c0.015,0.04,0.036,0.067,0.063,0.082
		c0.035,0.017,0.072,0.031,0.123,0.05c0.123,0.054,0.187,0.108,0.187,0.179c0,0.053-0.021,0.089-0.062,0.106
		c-0.041,0.021-0.117,0.03-0.229,0.03h-0.771c-0.104,0-0.172-0.011-0.209-0.03c-0.037-0.021-0.059-0.055-0.059-0.103
		c0-0.035,0.01-0.066,0.025-0.094c0.021-0.025,0.057-0.054,0.104-0.074c0.019-0.012,0.046-0.021,0.078-0.036
		c0.099-0.04,0.147-0.124,0.147-0.25v-1.993h0.004v0.005H53.777z M53.581,62.75c0-0.107,0.039-0.199,0.116-0.269
		c0.078-0.069,0.179-0.104,0.303-0.104c0.122,0,0.221,0.035,0.296,0.104c0.075,0.066,0.112,0.158,0.112,0.269
		c0,0.114-0.038,0.206-0.114,0.273c-0.077,0.065-0.177,0.103-0.301,0.103c-0.127,0-0.228-0.034-0.302-0.103
		C53.618,62.956,53.581,62.864,53.581,62.75z"/>
	<path fill="#FFFFFF" d="M57.925,66.394c0.054,0,0.095,0.011,0.127,0.029c0.032,0.021,0.048,0.054,0.048,0.089
		c0,0.066-0.035,0.153-0.104,0.26c-0.071,0.104-0.165,0.201-0.282,0.292c-0.137,0.104-0.287,0.188-0.453,0.242
		c-0.166,0.054-0.35,0.077-0.55,0.077c-0.444,0-0.812-0.155-1.104-0.475c-0.289-0.317-0.437-0.718-0.437-1.205
		c0-0.546,0.16-1.001,0.479-1.364c0.317-0.359,0.721-0.544,1.199-0.544c0.32,0,0.594,0.067,0.812,0.202
		c0.22,0.135,0.327,0.293,0.327,0.478c0,0.079-0.027,0.146-0.09,0.206c-0.06,0.059-0.129,0.088-0.211,0.088
		c-0.098,0-0.201-0.07-0.309-0.212c-0.018-0.021-0.027-0.036-0.035-0.049c-0.104-0.137-0.197-0.224-0.277-0.264
		c-0.08-0.039-0.178-0.059-0.295-0.059c-0.289,0-0.521,0.133-0.703,0.396c-0.182,0.269-0.271,0.616-0.271,1.054
		c0,0.396,0.099,0.713,0.29,0.947c0.191,0.238,0.451,0.356,0.771,0.356c0.098,0,0.189-0.014,0.285-0.039
		c0.096-0.026,0.186-0.064,0.271-0.114c0.104-0.061,0.21-0.142,0.312-0.244C57.831,66.445,57.898,66.394,57.925,66.394z"/>
	<path fill="#FFFFFF" d="M60.907,66.718c-0.157,0.225-0.351,0.392-0.58,0.501c-0.229,0.112-0.493,0.171-0.791,0.171
		c-0.354,0-0.638-0.098-0.847-0.284c-0.209-0.19-0.313-0.445-0.313-0.768c0-0.438,0.192-0.771,0.58-1.007
		c0.387-0.23,0.944-0.351,1.672-0.351h0.161c-0.027-0.253-0.137-0.45-0.32-0.593c-0.185-0.145-0.428-0.216-0.729-0.216
		c-0.172,0-0.355,0.061-0.553,0.175c-0.194,0.111-0.321,0.172-0.379,0.172c-0.066,0-0.123-0.021-0.166-0.059
		c-0.045-0.037-0.066-0.084-0.066-0.142c0-0.15,0.111-0.274,0.333-0.374c0.222-0.099,0.513-0.148,0.87-0.148
		c0.59,0,1.016,0.141,1.275,0.414c0.262,0.275,0.394,0.729,0.394,1.354v1.093c0,0.053,0.007,0.095,0.021,0.127
		s0.051,0.073,0.111,0.124c0.021,0.014,0.057,0.032,0.104,0.054c0.107,0.047,0.162,0.104,0.162,0.172
		c0,0.071-0.039,0.119-0.117,0.146c-0.078,0.025-0.271,0.038-0.582,0.038c-0.09,0-0.15-0.021-0.188-0.053
		c-0.034-0.034-0.052-0.1-0.052-0.188V66.718z M60.863,65.309h-0.096c-0.562,0-0.99,0.088-1.295,0.264
		c-0.307,0.176-0.457,0.423-0.457,0.743c0,0.19,0.064,0.352,0.197,0.475c0.135,0.123,0.307,0.188,0.52,0.188
		c0.119,0,0.234-0.019,0.354-0.047c0.115-0.031,0.219-0.074,0.311-0.132c0.179-0.107,0.299-0.227,0.367-0.352
		c0.066-0.124,0.104-0.298,0.104-0.522V65.31L60.863,65.309L60.863,65.309z"/>
	<path fill="#FFFFFF" d="M62.462,62.757c0-0.083-0.01-0.142-0.026-0.176c-0.019-0.033-0.053-0.063-0.103-0.1
		c-0.021-0.018-0.054-0.032-0.095-0.057c-0.086-0.043-0.129-0.09-0.129-0.14c0-0.036,0.015-0.07,0.041-0.103
		c0.022-0.032,0.065-0.063,0.129-0.098l0.021-0.011c0.302-0.16,0.501-0.24,0.603-0.24c0.052,0,0.084,0.022,0.104,0.066
		c0.021,0.045,0.028,0.146,0.028,0.31v4.469c0,0.062,0.009,0.111,0.023,0.152c0.019,0.042,0.039,0.069,0.063,0.081
		c0.022,0.01,0.062,0.023,0.11,0.043c0.137,0.054,0.203,0.113,0.203,0.186c0,0.05-0.021,0.086-0.062,0.104
		c-0.041,0.021-0.118,0.032-0.229,0.032h-0.771c-0.104,0-0.174-0.011-0.214-0.03c-0.039-0.021-0.061-0.055-0.061-0.103
		c0-0.033,0.01-0.063,0.029-0.089c0.021-0.026,0.059-0.056,0.109-0.079c0.019-0.012,0.044-0.021,0.074-0.032
		c0.097-0.038,0.145-0.123,0.145-0.255v-3.938h0.003v0.006H62.462z"/>
</g>
<g>
	<path fill="#FFFFFF" d="M78.131,57.068c0.152,0,0.301,0.039,0.446,0.117s0.258,0.188,0.339,0.335
		c0.08,0.146,0.121,0.297,0.121,0.455c0,0.153-0.04,0.306-0.12,0.447c-0.079,0.146-0.19,0.259-0.335,0.336
		c-0.145,0.079-0.294,0.119-0.451,0.119c-0.156,0-0.307-0.04-0.449-0.119c-0.146-0.077-0.257-0.188-0.336-0.336
		c-0.08-0.145-0.121-0.294-0.121-0.447c0-0.158,0.041-0.312,0.123-0.455c0.08-0.146,0.193-0.257,0.338-0.335
		C77.831,57.107,77.979,57.068,78.131,57.068z M78.131,57.219c-0.127,0-0.251,0.032-0.371,0.101
		c-0.121,0.062-0.215,0.158-0.283,0.28c-0.065,0.118-0.103,0.244-0.103,0.379c0,0.13,0.034,0.255,0.101,0.375
		c0.067,0.12,0.16,0.213,0.28,0.277c0.12,0.066,0.246,0.103,0.376,0.103c0.131,0,0.256-0.033,0.376-0.103
		c0.12-0.064,0.214-0.157,0.28-0.277s0.1-0.245,0.1-0.375c0-0.135-0.033-0.261-0.102-0.379c-0.067-0.122-0.162-0.218-0.283-0.28
		C78.382,57.251,78.258,57.219,78.131,57.219z M77.732,58.476V57.5h0.336c0.115,0,0.197,0.009,0.248,0.026
		c0.053,0.019,0.093,0.05,0.123,0.095c0.031,0.045,0.045,0.093,0.045,0.146c0,0.068-0.024,0.134-0.075,0.187
		c-0.052,0.053-0.118,0.083-0.202,0.089c0.034,0.018,0.062,0.031,0.083,0.052c0.039,0.038,0.087,0.104,0.144,0.193l0.119,0.191
		h-0.193l-0.086-0.154c-0.065-0.121-0.123-0.196-0.164-0.227c-0.026-0.022-0.068-0.034-0.127-0.034h-0.092v0.415L77.732,58.476
		L77.732,58.476z M77.891,57.927h0.191c0.091,0,0.152-0.013,0.188-0.037c0.033-0.027,0.049-0.063,0.049-0.108
		c0-0.029-0.008-0.055-0.021-0.077c-0.019-0.021-0.038-0.04-0.065-0.052c-0.027-0.011-0.08-0.02-0.156-0.02h-0.18v0.294H77.891z"/>
</g>
</svg>
