<?xml version="1.0" encoding="utf-8"?>
<!-- Generator: Adobe Illustrator 16.0.0, SVG Export Plug-In . SVG Version: 6.00 Build 0)  -->
<!DOCTYPE svg PUBLIC "-//W3C//DTD SVG 1.1//EN" "http://www.w3.org/Graphics/SVG/1.1/DTD/svg11.dtd">
<svg version="1.1" id="Capa_1" xmlns="http://www.w3.org/2000/svg" xmlns:xlink="http://www.w3.org/1999/xlink" x="0px" y="0px"
	 width="100px" height="72.025px" viewBox="0 0 100 72.025" enable-background="new 0 0 100 72.025" xml:space="preserve">
<g>
	<g>
		<circle fill="#D81F26" cx="53.452" cy="29.152" r="2.104"/>
		<circle fill="#D81F26" cx="50.576" cy="26.37" r="1.407"/>
		<circle fill="#D81F26" cx="62.05" cy="38.061" r="3.498"/>
		<circle fill="#D81F26" cx="57.333" cy="33.057" r="2.785"/>
	</g>
	<g>
		<circle fill="#D81F26" cx="43.651" cy="29.194" r="2.103"/>
		<circle fill="#D81F26" cx="46.485" cy="26.37" r="1.407"/>
		<circle fill="#D81F26" cx="35.005" cy="38.061" r="3.499"/>
		<circle fill="#D81F26" cx="39.795" cy="33.188" r="2.785"/>
	</g>
	<g>
		<circle fill="#D81F26" cx="53.372" cy="19.461" r="2.104"/>
		<circle fill="#D81F26" cx="50.561" cy="22.272" r="1.407"/>
		<circle fill="#D81F26" cx="62.184" cy="10.781" r="3.498"/>
		<circle fill="#D81F26" cx="57.301" cy="15.608" r="2.784"/>
	</g>
	<g>
		<circle fill="#D81F26" cx="43.718" cy="19.398" r="2.103"/>
		<circle fill="#D81F26" cx="46.461" cy="22.255" r="1.407"/>
		<circle fill="#D81F26" cx="34.736" cy="10.805" r="3.498"/>
		<circle fill="#D81F26" cx="39.691" cy="15.556" r="2.784"/>
	</g>
</g>
<g>
	<path fill="#FFFFFF" d="M27.443,52.648c0.157,0.736,0.495,1.322,1.011,1.754s1.134,0.646,1.853,0.646
		c0.384,0,0.747-0.048,1.087-0.143c0.34-0.094,0.674-0.242,1.001-0.444c0.158-0.094,0.353-0.229,0.586-0.405
		c0.321-0.232,0.533-0.351,0.633-0.351c0.1,0,0.185,0.038,0.25,0.113c0.066,0.076,0.099,0.174,0.099,0.293
		c0,0.195-0.131,0.431-0.392,0.704c-0.262,0.273-0.609,0.538-1.044,0.79c-0.365,0.214-0.751,0.374-1.158,0.48
		c-0.406,0.107-0.833,0.161-1.28,0.161c-1.33,0-2.391-0.396-3.185-1.187c-0.794-0.791-1.191-1.849-1.191-3.171
		c0-1.449,0.471-2.663,1.413-3.645c0.941-0.979,2.103-1.47,3.482-1.47c1.052,0,1.862,0.218,2.429,0.651
		c0.567,0.436,0.851,1.05,0.851,1.844c0,0.938-0.524,1.682-1.573,2.227C31.266,52.046,29.642,52.428,27.443,52.648z M27.301,51.676
		c1.713-0.163,2.972-0.451,3.775-0.864c0.803-0.412,1.205-0.97,1.205-1.668c0-0.467-0.162-0.832-0.487-1.098
		c-0.325-0.265-0.77-0.396-1.337-0.396c-0.926,0-1.684,0.358-2.273,1.077s-0.883,1.65-0.883,2.798V51.676z"/>
	<path fill="#FFFFFF" d="M36.525,54.141c0.718-1.009,1.427-1.894,2.126-2.655c-0.574-0.63-1.155-1.341-1.744-2.131
		c-0.589-0.791-0.938-1.236-1.044-1.338c-0.082-0.075-0.248-0.176-0.496-0.299c-0.249-0.121-0.374-0.253-0.374-0.392
		c0-0.12,0.044-0.202,0.132-0.246s0.274-0.065,0.558-0.065h1.881c0.296,0,0.493,0.021,0.591,0.065
		c0.097,0.044,0.146,0.126,0.146,0.246c0,0.075-0.084,0.187-0.25,0.33c-0.167,0.146-0.25,0.277-0.25,0.397
		c0,0.177,0.159,0.479,0.477,0.906c0.318,0.429,0.764,0.934,1.337,1.513c0.517-0.517,0.936-1.001,1.257-1.455
		c0.321-0.453,0.482-0.774,0.482-0.964c0-0.107-0.096-0.229-0.288-0.368c-0.192-0.14-0.288-0.26-0.288-0.359
		c0-0.12,0.052-0.202,0.156-0.246s0.316-0.065,0.638-0.065h1.333c0.258,0,0.43,0.02,0.515,0.057
		c0.085,0.038,0.127,0.107,0.127,0.208c0,0.139-0.11,0.264-0.331,0.374c-0.22,0.11-0.375,0.212-0.463,0.307
		c-0.063,0.063-0.351,0.46-0.865,1.191c-0.514,0.729-1.051,1.393-1.611,1.983c0.611,0.661,1.258,1.414,1.942,2.26
		c0.684,0.845,1.101,1.329,1.252,1.455c0.082,0.075,0.25,0.183,0.506,0.32c0.255,0.14,0.382,0.284,0.382,0.437
		c0,0.138-0.055,0.233-0.165,0.288c-0.11,0.054-0.32,0.08-0.628,0.08H41.59c-0.221,0-0.383-0.033-0.487-0.101
		c-0.104-0.064-0.156-0.168-0.156-0.307c0-0.113,0.076-0.241,0.227-0.383c0.151-0.143,0.227-0.254,0.227-0.336
		c0-0.221-0.186-0.562-0.558-1.021c-0.372-0.46-0.904-1.008-1.597-1.645c-0.567,0.637-0.999,1.167-1.295,1.593
		c-0.296,0.425-0.444,0.731-0.444,0.921c0,0.171,0.116,0.325,0.35,0.464c0.233,0.139,0.35,0.28,0.35,0.425
		c0,0.14-0.058,0.238-0.175,0.298c-0.117,0.061-0.304,0.091-0.562,0.091h-1.975c-0.189,0-0.326-0.031-0.411-0.096
		c-0.085-0.062-0.127-0.16-0.127-0.293c0-0.183,0.167-0.347,0.501-0.49c0.333-0.146,0.551-0.277,0.652-0.397
		C36.179,54.618,36.317,54.431,36.525,54.141L36.525,54.141z"/>
	<path fill="#FFFFFF" d="M51.581,54.482c-0.416,0.586-0.927,1.026-1.531,1.323c-0.605,0.296-1.301,0.443-2.089,0.443
		c-0.939,0-1.684-0.251-2.235-0.752c-0.551-0.501-0.827-1.173-0.827-2.018c0-1.153,0.51-2.038,1.531-2.655
		c1.021-0.618,2.492-0.927,4.414-0.927h0.426c-0.076-0.668-0.357-1.189-0.847-1.564c-0.488-0.374-1.129-0.562-1.923-0.562
		c-0.454,0-0.939,0.149-1.456,0.453c-0.517,0.303-0.851,0.454-1.001,0.454c-0.177,0-0.323-0.05-0.439-0.146
		c-0.117-0.098-0.175-0.223-0.175-0.374c0-0.396,0.293-0.726,0.879-0.987c0.586-0.261,1.352-0.393,2.296-0.393
		c1.556,0,2.68,0.364,3.369,1.092c0.69,0.729,1.035,1.92,1.035,3.577v2.883c0,0.139,0.02,0.25,0.057,0.336
		c0.039,0.085,0.137,0.193,0.293,0.325c0.058,0.038,0.148,0.086,0.274,0.143c0.283,0.126,0.425,0.277,0.425,0.453
		c0,0.189-0.103,0.316-0.307,0.384c-0.205,0.065-0.717,0.1-1.536,0.1c-0.239,0-0.405-0.046-0.496-0.138
		c-0.092-0.092-0.137-0.257-0.137-0.496V54.482z M51.467,50.767h-0.255c-1.474,0-2.613,0.231-3.417,0.694
		c-0.804,0.463-1.205,1.116-1.205,1.961c0,0.512,0.175,0.929,0.525,1.252c0.35,0.325,0.805,0.487,1.365,0.487
		c0.315,0,0.625-0.041,0.931-0.123c0.306-0.082,0.578-0.195,0.817-0.341c0.465-0.289,0.79-0.598,0.969-0.926
		c0.179-0.327,0.269-0.787,0.269-1.38L51.467,50.767L51.467,50.767z"/>
	<path fill="#FFFFFF" d="M55.843,54.038V49.88c0-0.396-0.028-0.678-0.09-0.842c-0.06-0.163-0.159-0.296-0.298-0.396
		c-0.102-0.082-0.252-0.167-0.453-0.255c-0.29-0.134-0.436-0.294-0.436-0.482c0-0.075,0.041-0.168,0.123-0.278
		c0.082-0.109,0.194-0.219,0.34-0.326c0.201-0.156,0.387-0.279,0.554-0.368s0.298-0.133,0.394-0.133c0.289,0,0.537,0.233,0.74,0.699
		c0.205,0.466,0.326,1.084,0.364,1.854c0.321-0.832,0.702-1.476,1.144-1.929s0.897-0.681,1.371-0.681
		c0.334,0,0.592,0.124,0.774,0.373c0.182,0.249,0.274,0.604,0.274,1.063c0,0.145-0.047,0.265-0.139,0.358
		c-0.091,0.094-0.209,0.143-0.354,0.143c-0.151,0-0.357-0.064-0.619-0.194c-0.262-0.129-0.445-0.193-0.553-0.193
		c-0.416,0-0.795,0.354-1.14,1.06c-0.344,0.705-0.515,1.564-0.515,2.58V54c0,0.397,0.023,0.655,0.07,0.775
		c0.047,0.119,0.131,0.205,0.25,0.255c0.095,0.038,0.242,0.082,0.444,0.133c0.384,0.102,0.576,0.255,0.576,0.463
		c0,0.126-0.049,0.216-0.146,0.271c-0.098,0.054-0.283,0.08-0.554,0.08h-2.42c-0.265,0-0.44-0.023-0.528-0.071
		c-0.088-0.047-0.133-0.134-0.133-0.26c0-0.163,0.143-0.314,0.426-0.453c0.15-0.076,0.262-0.136,0.33-0.18
		c0.075-0.052,0.129-0.126,0.156-0.228c0.028-0.102,0.042-0.271,0.042-0.511v-0.236H55.843z"/>
	<path fill="#FFFFFF" d="M62.383,49.161c0-0.227-0.023-0.384-0.07-0.473c-0.047-0.088-0.141-0.176-0.278-0.266
		c-0.058-0.037-0.142-0.085-0.255-0.142c-0.228-0.113-0.342-0.232-0.342-0.359c0-0.094,0.033-0.179,0.101-0.255
		c0.065-0.075,0.183-0.157,0.345-0.245l0.133-0.075c0.77-0.403,1.279-0.604,1.531-0.604c0.133,0,0.225,0.06,0.273,0.18
		c0.051,0.119,0.076,0.396,0.076,0.831v6.636c0,0.163,0.019,0.3,0.057,0.405c0.038,0.107,0.095,0.181,0.17,0.219
		c0.088,0.037,0.195,0.081,0.32,0.132c0.328,0.133,0.492,0.287,0.492,0.464c0,0.138-0.055,0.233-0.16,0.288
		c-0.107,0.054-0.31,0.08-0.605,0.08h-2.031c-0.271,0-0.455-0.026-0.553-0.08c-0.1-0.055-0.146-0.145-0.146-0.271
		c0-0.095,0.024-0.177,0.076-0.246c0.049-0.068,0.142-0.135,0.273-0.197c0.05-0.025,0.119-0.058,0.207-0.096
		c0.259-0.105,0.388-0.327,0.388-0.661L62.383,49.161L62.383,49.161z M61.863,44.01c0-0.289,0.103-0.525,0.308-0.709
		c0.204-0.183,0.472-0.273,0.798-0.273c0.321,0,0.581,0.092,0.78,0.273c0.198,0.184,0.298,0.42,0.298,0.709
		c0,0.304-0.102,0.544-0.303,0.724c-0.202,0.18-0.467,0.27-0.794,0.27c-0.334,0-0.599-0.09-0.794-0.27S61.863,44.313,61.863,44.01z"
		/>
	<path fill="#FFFFFF" d="M65.662,54.218c0-0.183,0.059-0.332,0.176-0.448c0.116-0.116,0.264-0.176,0.439-0.176
		c0.193,0,0.428,0.171,0.699,0.512c0.08,0.095,0.145,0.17,0.188,0.227c0.259,0.29,0.549,0.507,0.87,0.652
		c0.321,0.145,0.684,0.217,1.087,0.217c0.566,0,1.031-0.146,1.395-0.443c0.361-0.297,0.543-0.678,0.543-1.145
		c0-0.654-0.744-1.162-2.229-1.521c-0.082-0.019-0.147-0.033-0.199-0.047c-0.926-0.227-1.588-0.531-1.983-0.917
		c-0.397-0.384-0.597-0.903-0.597-1.56c0-0.844,0.284-1.521,0.851-2.026c0.567-0.508,1.326-0.762,2.279-0.762
		c0.906,0,1.606,0.131,2.103,0.393c0.493,0.263,0.741,0.629,0.741,1.103c0,0.346-0.024,0.578-0.075,0.693
		c-0.052,0.116-0.147,0.176-0.294,0.176c-0.17,0-0.371-0.14-0.604-0.416c-0.095-0.107-0.17-0.188-0.227-0.246
		c-0.24-0.245-0.523-0.436-0.852-0.566c-0.328-0.133-0.681-0.198-1.059-0.198c-0.454,0-0.832,0.132-1.135,0.393
		c-0.303,0.262-0.453,0.588-0.453,0.979c0,0.327,0.099,0.586,0.298,0.774c0.198,0.188,0.581,0.362,1.147,0.521
		c0.184,0.051,0.44,0.116,0.774,0.198c0.825,0.195,1.373,0.381,1.646,0.559c0.391,0.252,0.682,0.548,0.873,0.889
		c0.192,0.34,0.289,0.728,0.289,1.162c0,0.914-0.308,1.651-0.922,2.216c-0.613,0.564-1.423,0.847-2.425,0.847
		c-0.851,0-1.62-0.229-2.312-0.686C66.008,55.107,65.662,54.659,65.662,54.218z"/>
</g>
<g>
	<path fill="#FFFFFF" d="M40.281,63.45c0-0.064,0.021-0.117,0.062-0.158c0.041-0.042,0.093-0.062,0.155-0.062
		c0.069,0,0.151,0.061,0.247,0.181c0.029,0.033,0.051,0.061,0.067,0.08c0.091,0.103,0.193,0.179,0.307,0.23
		c0.114,0.051,0.242,0.075,0.384,0.075c0.2,0,0.364-0.052,0.492-0.155c0.128-0.104,0.192-0.239,0.192-0.404
		c0-0.231-0.263-0.41-0.788-0.537c-0.029-0.007-0.052-0.012-0.07-0.017c-0.327-0.08-0.561-0.188-0.701-0.323s-0.21-0.319-0.21-0.551
		c0-0.298,0.1-0.537,0.3-0.717c0.2-0.179,0.468-0.269,0.804-0.269c0.32,0,0.568,0.046,0.743,0.139
		c0.174,0.093,0.262,0.223,0.262,0.39c0,0.122-0.009,0.204-0.027,0.245s-0.052,0.062-0.104,0.062c-0.06,0-0.131-0.049-0.213-0.146
		c-0.033-0.038-0.06-0.067-0.08-0.088c-0.084-0.087-0.185-0.152-0.3-0.199c-0.115-0.047-0.24-0.07-0.374-0.07
		c-0.16,0-0.293,0.047-0.4,0.139c-0.107,0.094-0.16,0.207-0.16,0.347c0,0.114,0.035,0.206,0.105,0.272
		c0.07,0.066,0.205,0.128,0.405,0.185c0.065,0.018,0.156,0.041,0.274,0.068c0.291,0.069,0.485,0.135,0.581,0.197
		c0.138,0.089,0.241,0.193,0.309,0.312c0.068,0.12,0.102,0.258,0.102,0.41c0,0.323-0.108,0.584-0.325,0.783
		c-0.217,0.198-0.502,0.298-0.856,0.298c-0.3,0-0.572-0.08-0.815-0.241C40.403,63.764,40.281,63.605,40.281,63.45z"/>
	<path fill="#FFFFFF" d="M45.362,63.543c-0.147,0.207-0.327,0.363-0.541,0.468c-0.214,0.105-0.459,0.156-0.737,0.156
		c-0.332,0-0.594-0.088-0.789-0.265c-0.195-0.177-0.292-0.414-0.292-0.713c0-0.407,0.18-0.719,0.541-0.938
		c0.36-0.218,0.88-0.327,1.558-0.327h0.15c-0.026-0.234-0.126-0.419-0.298-0.552c-0.172-0.132-0.399-0.198-0.679-0.198
		c-0.16,0-0.331,0.054-0.514,0.16c-0.182,0.106-0.3,0.16-0.354,0.16c-0.062,0-0.114-0.018-0.155-0.052
		c-0.041-0.035-0.062-0.079-0.062-0.132c0-0.142,0.104-0.257,0.31-0.35c0.207-0.093,0.477-0.139,0.811-0.139
		c0.549,0,0.946,0.129,1.189,0.386s0.365,0.679,0.365,1.264v1.018c0,0.049,0.006,0.088,0.02,0.118
		c0.013,0.03,0.048,0.067,0.104,0.115c0.02,0.014,0.052,0.029,0.097,0.05c0.1,0.045,0.15,0.098,0.15,0.16
		c0,0.066-0.036,0.111-0.108,0.136c-0.072,0.021-0.253,0.034-0.542,0.034c-0.084,0-0.143-0.017-0.175-0.048
		c-0.032-0.032-0.048-0.092-0.048-0.176L45.362,63.543L45.362,63.543z M45.322,62.232h-0.09c-0.52,0-0.922,0.081-1.206,0.245
		c-0.283,0.163-0.425,0.395-0.425,0.691c0,0.181,0.062,0.327,0.185,0.441c0.124,0.115,0.284,0.172,0.482,0.172
		c0.111,0,0.221-0.014,0.329-0.043c0.108-0.029,0.204-0.069,0.289-0.12c0.165-0.103,0.278-0.211,0.342-0.327
		c0.063-0.115,0.095-0.276,0.095-0.486v-0.573H45.322z"/>
	<path fill="#FFFFFF" d="M47.598,64.07h-0.854c-0.064,0-0.111-0.011-0.14-0.031s-0.043-0.057-0.043-0.104
		c0-0.075,0.078-0.144,0.233-0.2c0.029-0.011,0.05-0.02,0.063-0.023c0.029-0.013,0.049-0.042,0.06-0.087
		c0.011-0.044,0.017-0.118,0.017-0.223v-2.096h-0.267c-0.087,0-0.148-0.016-0.184-0.046c-0.036-0.029-0.053-0.081-0.053-0.154
		s0.018-0.125,0.053-0.153c0.036-0.029,0.097-0.044,0.184-0.044h0.267v-0.39c0-0.475,0.087-0.843,0.262-1.104
		c0.174-0.262,0.417-0.393,0.729-0.393c0.142,0,0.255,0.033,0.338,0.101c0.083,0.066,0.125,0.155,0.125,0.268
		c0,0.082-0.025,0.147-0.075,0.197c-0.05,0.051-0.115,0.075-0.195,0.075c-0.071,0-0.127-0.017-0.167-0.05s-0.069-0.087-0.086-0.16
		c-0.004-0.021-0.008-0.049-0.01-0.087c-0.002-0.058-0.02-0.087-0.053-0.087c-0.103,0-0.185,0.118-0.247,0.354
		c-0.062,0.236-0.093,0.56-0.093,0.969v0.307h0.424c0.089,0,0.151,0.015,0.187,0.044c0.036,0.028,0.054,0.08,0.054,0.153
		s-0.018,0.125-0.054,0.154c-0.036,0.03-0.098,0.046-0.187,0.046h-0.424v2.089c0,0.131,0.007,0.216,0.02,0.253
		c0.013,0.038,0.037,0.062,0.07,0.077c0.029,0.011,0.074,0.023,0.134,0.04c0.12,0.032,0.18,0.086,0.18,0.156
		c0,0.054-0.02,0.092-0.06,0.114C47.766,64.058,47.695,64.07,47.598,64.07z"/>
	<path fill="#FFFFFF" d="M48.999,62.896c0.056,0.26,0.174,0.466,0.357,0.618c0.182,0.151,0.4,0.229,0.654,0.229
		c0.136,0,0.264-0.017,0.384-0.05c0.12-0.033,0.238-0.085,0.354-0.156c0.057-0.034,0.125-0.081,0.207-0.144
		c0.113-0.083,0.188-0.124,0.225-0.124c0.034,0,0.064,0.014,0.088,0.04c0.022,0.026,0.034,0.062,0.034,0.104
		c0,0.069-0.046,0.152-0.138,0.249c-0.094,0.097-0.216,0.189-0.369,0.278c-0.129,0.075-0.266,0.133-0.409,0.17
		c-0.144,0.038-0.294,0.057-0.452,0.057c-0.469,0-0.844-0.14-1.125-0.418c-0.28-0.278-0.42-0.651-0.42-1.12
		c0-0.512,0.167-0.939,0.499-1.286c0.332-0.346,0.742-0.519,1.229-0.519c0.372,0,0.658,0.077,0.857,0.23
		c0.199,0.152,0.301,0.369,0.301,0.649c0,0.331-0.187,0.594-0.557,0.786C50.349,62.682,49.775,62.818,48.999,62.896z M48.949,62.552
		c0.605-0.058,1.049-0.159,1.333-0.306c0.284-0.146,0.425-0.342,0.425-0.589c0-0.164-0.057-0.294-0.172-0.387
		c-0.114-0.095-0.271-0.142-0.472-0.142c-0.327,0-0.595,0.127-0.803,0.381s-0.312,0.583-0.312,0.987L48.949,62.552L48.949,62.552z"
		/>
	<path fill="#FFFFFF" d="M52.148,63.64v-2.344h-0.211c-0.117,0-0.199-0.015-0.244-0.043c-0.043-0.028-0.065-0.079-0.065-0.149
		c0-0.051,0.017-0.094,0.045-0.125c0.03-0.032,0.069-0.053,0.119-0.06c0.021-0.002,0.045-0.004,0.076-0.007
		c0.144-0.011,0.233-0.039,0.272-0.083c0.049-0.052,0.094-0.233,0.131-0.551c0.012-0.091,0.021-0.162,0.026-0.214
		c0.004-0.026,0.009-0.062,0.015-0.106c0.025-0.225,0.1-0.337,0.22-0.337c0.054,0,0.09,0.019,0.108,0.052
		c0.018,0.034,0.027,0.134,0.027,0.295v0.938h0.479c0.115,0,0.195,0.016,0.242,0.046c0.047,0.029,0.07,0.08,0.07,0.151
		c0,0.065-0.025,0.114-0.075,0.146s-0.13,0.047-0.237,0.047h-0.479v1.985c0,0.134,0.012,0.229,0.032,0.288s0.058,0.098,0.11,0.115
		c0.064,0.023,0.188,0.042,0.369,0.052c0.182,0.011,0.271,0.058,0.271,0.143c0,0.073-0.021,0.123-0.062,0.149
		c-0.041,0.027-0.146,0.04-0.312,0.04h-0.638c-0.119,0-0.198-0.021-0.236-0.063C52.167,63.965,52.148,63.843,52.148,63.64z"/>
	<path fill="#FFFFFF" d="M55.389,63.79c-0.062,0.033-0.125,0.061-0.186,0.077c-0.062,0.018-0.123,0.026-0.186,0.026
		c-0.293,0-0.541-0.148-0.74-0.447c-0.2-0.298-0.359-0.753-0.479-1.364c-0.021-0.127-0.042-0.278-0.061-0.459
		c-0.018-0.179-0.035-0.287-0.053-0.325c-0.022-0.042-0.066-0.088-0.135-0.139c-0.066-0.05-0.1-0.101-0.1-0.151
		c0-0.037,0.02-0.063,0.061-0.077c0.039-0.016,0.122-0.022,0.246-0.022h0.45c0.153,0,0.251,0.01,0.291,0.027
		c0.04,0.017,0.06,0.052,0.06,0.104c0,0.053-0.033,0.1-0.104,0.137c-0.016,0.01-0.025,0.017-0.033,0.021
		c-0.072,0.045-0.121,0.092-0.145,0.141c-0.022,0.05-0.032,0.14-0.032,0.271c0,0.141,0.021,0.309,0.063,0.504
		c0.041,0.196,0.104,0.408,0.187,0.638c0.096,0.266,0.202,0.459,0.319,0.584c0.115,0.124,0.252,0.188,0.404,0.188
		c0.139,0,0.25-0.043,0.338-0.128c0.088-0.086,0.18-0.25,0.272-0.492c0.084-0.224,0.151-0.46,0.203-0.711s0.077-0.476,0.077-0.671
		c0-0.066-0.008-0.122-0.023-0.167c-0.016-0.044-0.04-0.08-0.072-0.106c-0.027-0.02-0.065-0.042-0.117-0.065
		c-0.088-0.04-0.131-0.089-0.131-0.145c0-0.047,0.02-0.079,0.055-0.097c0.037-0.019,0.115-0.027,0.232-0.027h0.363
		c0.12,0,0.202,0.012,0.247,0.034c0.045,0.021,0.065,0.061,0.065,0.116c0,0.023-0.021,0.063-0.063,0.12
		c-0.044,0.056-0.074,0.108-0.092,0.159c-0.022,0.062-0.058,0.241-0.105,0.542c-0.048,0.303-0.106,0.567-0.175,0.797
		c-0.24,0.806-0.58,1.458-1.02,1.957c-0.44,0.498-0.877,0.748-1.311,0.748c-0.12,0-0.214-0.024-0.281-0.076
		c-0.068-0.052-0.103-0.121-0.103-0.21c0-0.071,0.026-0.127,0.08-0.168c0.054-0.042,0.127-0.062,0.221-0.062
		c0.026,0,0.069,0.006,0.13,0.017c0.061,0.013,0.107,0.019,0.145,0.019c0.213,0,0.433-0.103,0.658-0.303
		C55.042,64.394,55.232,64.126,55.389,63.79z"/>
</g>
<g>
	<path fill="#FFFFFF" d="M73.363,54.552c0.143,0,0.281,0.036,0.416,0.109c0.135,0.072,0.24,0.177,0.314,0.312
		c0.075,0.135,0.113,0.275,0.113,0.423c0,0.146-0.037,0.286-0.111,0.42c-0.074,0.135-0.179,0.239-0.312,0.312
		c-0.134,0.074-0.272,0.111-0.42,0.111s-0.286-0.037-0.421-0.111c-0.135-0.073-0.238-0.179-0.312-0.312s-0.111-0.274-0.111-0.42
		c0-0.146,0.037-0.288,0.113-0.423c0.075-0.137,0.182-0.24,0.316-0.312S73.223,54.552,73.363,54.552z M73.363,54.692
		c-0.118,0-0.233,0.031-0.346,0.092c-0.113,0.062-0.201,0.147-0.265,0.261c-0.063,0.114-0.095,0.23-0.095,0.354
		s0.031,0.237,0.093,0.351c0.062,0.111,0.149,0.198,0.263,0.261c0.111,0.062,0.229,0.094,0.35,0.094s0.238-0.031,0.351-0.094
		c0.112-0.062,0.199-0.148,0.263-0.261c0.062-0.111,0.092-0.229,0.092-0.351s-0.031-0.239-0.094-0.354
		c-0.063-0.112-0.151-0.199-0.265-0.261C73.598,54.723,73.48,54.692,73.363,54.692z M72.993,55.864v-0.908h0.312
		c0.106,0,0.186,0.008,0.231,0.025c0.048,0.017,0.086,0.046,0.114,0.087c0.027,0.042,0.043,0.087,0.043,0.134
		c0,0.066-0.023,0.124-0.071,0.174c-0.047,0.049-0.11,0.076-0.188,0.082c0.032,0.015,0.059,0.03,0.077,0.049
		c0.036,0.035,0.081,0.097,0.136,0.181l0.109,0.178h-0.179l-0.081-0.143c-0.062-0.113-0.114-0.185-0.153-0.213
		c-0.026-0.021-0.065-0.03-0.116-0.03h-0.086v0.386L72.993,55.864L72.993,55.864z M73.141,55.353h0.178
		c0.086,0,0.144-0.014,0.175-0.038c0.03-0.025,0.047-0.061,0.047-0.103c0-0.025-0.008-0.051-0.022-0.07
		c-0.016-0.021-0.035-0.037-0.062-0.049c-0.026-0.011-0.075-0.016-0.147-0.016h-0.166v0.275H73.141z"/>
</g>
</svg>
