<?xml version="1.0" encoding="utf-8"?>
<!-- Generator: Adobe Illustrator 16.0.0, SVG Export Plug-In . SVG Version: 6.00 Build 0)  -->
<!DOCTYPE svg PUBLIC "-//W3C//DTD SVG 1.1//EN" "http://www.w3.org/Graphics/SVG/1.1/DTD/svg11.dtd">
<svg version="1.1" id="Capa_1" xmlns="http://www.w3.org/2000/svg" xmlns:xlink="http://www.w3.org/1999/xlink" x="0px" y="0px"
	 width="100px" height="76.74px" viewBox="0 0 100 76.74" enable-background="new 0 0 100 76.74" xml:space="preserve">
<g>
	<g>
		<circle fill="#D81F26" cx="53.452" cy="29.152" r="2.104"/>
		<circle fill="#D81F26" cx="50.576" cy="26.37" r="1.407"/>
		<circle fill="#D81F26" cx="62.05" cy="38.061" r="3.498"/>
		<circle fill="#D81F26" cx="57.333" cy="33.057" r="2.785"/>
	</g>
	<g>
		<circle fill="#D81F26" cx="43.651" cy="29.194" r="2.103"/>
		<circle fill="#D81F26" cx="46.485" cy="26.37" r="1.407"/>
		<circle fill="#D81F26" cx="35.005" cy="38.061" r="3.499"/>
		<circle fill="#D81F26" cx="39.795" cy="33.188" r="2.785"/>
	</g>
	<g>
		<circle fill="#D81F26" cx="53.372" cy="19.461" r="2.104"/>
		<circle fill="#D81F26" cx="50.561" cy="22.272" r="1.407"/>
		<circle fill="#D81F26" cx="62.184" cy="10.781" r="3.498"/>
		<circle fill="#D81F26" cx="57.301" cy="15.608" r="2.784"/>
	</g>
	<g>
		<circle fill="#D81F26" cx="43.718" cy="19.398" r="2.103"/>
		<circle fill="#D81F26" cx="46.461" cy="22.255" r="1.407"/>
		<circle fill="#D81F26" cx="34.736" cy="10.805" r="3.498"/>
		<circle fill="#D81F26" cx="39.691" cy="15.556" r="2.784"/>
	</g>
</g>
<g>
	<path fill="#092452" d="M37.087,73.313c0-0.101,0.032-0.183,0.097-0.248c0.065-0.066,0.147-0.097,0.245-0.097
		c0.108,0,0.236,0.097,0.388,0.284c0.046,0.052,0.08,0.095,0.104,0.125c0.144,0.161,0.303,0.28,0.482,0.361
		c0.178,0.081,0.379,0.119,0.602,0.119c0.315,0,0.572-0.081,0.773-0.244c0.201-0.163,0.301-0.374,0.301-0.634
		c0-0.364-0.414-0.646-1.237-0.843c-0.046-0.013-0.082-0.02-0.109-0.026c-0.514-0.125-0.881-0.297-1.101-0.509
		s-0.329-0.501-0.329-0.864c0-0.466,0.157-0.843,0.47-1.125c0.314-0.28,0.735-0.421,1.262-0.421c0.502,0,0.892,0.072,1.167,0.219
		c0.273,0.146,0.412,0.349,0.412,0.61c0,0.192-0.014,0.321-0.042,0.387c-0.028,0.063-0.081,0.096-0.163,0.096
		c-0.094,0-0.206-0.075-0.334-0.228c-0.052-0.061-0.094-0.105-0.126-0.138c-0.132-0.137-0.291-0.239-0.47-0.314
		c-0.182-0.072-0.377-0.11-0.587-0.11c-0.252,0-0.46,0.073-0.629,0.219c-0.168,0.146-0.25,0.324-0.25,0.544
		c0,0.18,0.054,0.323,0.165,0.428c0.109,0.105,0.323,0.202,0.636,0.289c0.103,0.027,0.245,0.064,0.431,0.108
		c0.458,0.109,0.762,0.212,0.913,0.311c0.217,0.14,0.379,0.304,0.486,0.49c0.106,0.188,0.16,0.404,0.16,0.644
		c0,0.508-0.169,0.917-0.511,1.23c-0.341,0.311-0.788,0.467-1.344,0.467c-0.47,0-0.899-0.125-1.279-0.378
		C37.278,73.808,37.087,73.557,37.087,73.313z"/>
	<path fill="#092452" d="M45.065,73.461c-0.231,0.323-0.513,0.569-0.85,0.732c-0.336,0.168-0.721,0.246-1.157,0.246
		c-0.521,0-0.931-0.138-1.239-0.416c-0.305-0.275-0.458-0.65-0.458-1.119c0-0.64,0.282-1.129,0.849-1.474
		c0.564-0.342,1.382-0.516,2.446-0.516h0.236c-0.042-0.366-0.198-0.656-0.469-0.864c-0.27-0.208-0.625-0.312-1.066-0.312
		c-0.25,0-0.52,0.084-0.807,0.25c-0.286,0.169-0.471,0.253-0.556,0.253c-0.098,0-0.179-0.027-0.245-0.081
		c-0.064-0.056-0.098-0.123-0.098-0.207c0-0.222,0.164-0.403,0.487-0.549c0.325-0.146,0.75-0.219,1.274-0.219
		c0.862,0,1.485,0.203,1.866,0.605c0.381,0.404,0.574,1.066,0.574,1.984v1.6c0,0.074,0.009,0.138,0.031,0.184
		c0.021,0.048,0.075,0.105,0.164,0.182c0.032,0.021,0.082,0.046,0.153,0.078c0.157,0.069,0.235,0.152,0.235,0.251
		c0,0.104-0.056,0.174-0.169,0.213c-0.113,0.034-0.398,0.055-0.852,0.055c-0.132,0-0.225-0.026-0.274-0.074
		c-0.051-0.052-0.075-0.145-0.075-0.277V73.461L45.065,73.461L45.065,73.461z M45.001,71.402H44.86
		c-0.816,0-1.447,0.126-1.894,0.384c-0.443,0.257-0.667,0.62-0.667,1.086c0,0.285,0.098,0.515,0.291,0.694
		c0.195,0.182,0.445,0.269,0.757,0.269c0.174,0,0.346-0.022,0.516-0.067c0.169-0.046,0.319-0.109,0.454-0.188
		c0.259-0.162,0.436-0.331,0.536-0.514c0.099-0.182,0.149-0.434,0.149-0.764V71.4h-0.002V71.402z"/>
	<path fill="#092452" d="M48.577,74.287h-1.341c-0.1,0-0.175-0.017-0.22-0.048c-0.046-0.032-0.068-0.09-0.068-0.165
		c0-0.117,0.123-0.226,0.366-0.315c0.046-0.017,0.078-0.029,0.099-0.035c0.046-0.021,0.078-0.067,0.094-0.137
		c0.018-0.069,0.027-0.186,0.027-0.351v-3.29h-0.419c-0.136,0-0.232-0.025-0.29-0.071c-0.056-0.046-0.083-0.128-0.083-0.244
		c0-0.114,0.028-0.194,0.083-0.241c0.057-0.046,0.152-0.068,0.29-0.068h0.419v-0.613c0-0.744,0.137-1.323,0.412-1.732
		c0.273-0.411,0.655-0.615,1.145-0.615c0.223,0,0.401,0.051,0.532,0.158c0.13,0.104,0.196,0.244,0.196,0.418
		c0,0.129-0.04,0.232-0.119,0.312c-0.078,0.079-0.181,0.118-0.306,0.118c-0.113,0-0.2-0.025-0.262-0.078
		c-0.064-0.053-0.11-0.136-0.136-0.25c-0.007-0.032-0.013-0.077-0.017-0.138c-0.002-0.09-0.032-0.136-0.083-0.136
		c-0.161,0-0.291,0.186-0.388,0.555c-0.098,0.371-0.147,0.879-0.147,1.521v0.481h0.666c0.14,0,0.238,0.024,0.294,0.07
		c0.057,0.044,0.085,0.125,0.085,0.241c0,0.114-0.028,0.195-0.085,0.241c-0.057,0.048-0.154,0.072-0.294,0.072H48.36v3.28
		c0,0.205,0.012,0.339,0.032,0.397c0.021,0.06,0.059,0.098,0.11,0.12c0.046,0.019,0.116,0.037,0.21,0.064
		c0.189,0.051,0.284,0.136,0.284,0.246c0,0.083-0.032,0.143-0.094,0.178C48.841,74.271,48.728,74.287,48.577,74.287z"/>
	<path fill="#092452" d="M50.776,72.445c0.087,0.407,0.273,0.73,0.561,0.97c0.285,0.238,0.627,0.36,1.026,0.36
		c0.214,0,0.414-0.025,0.603-0.078s0.374-0.133,0.557-0.246c0.089-0.054,0.198-0.126,0.325-0.224
		c0.177-0.131,0.294-0.195,0.352-0.195c0.057,0,0.103,0.021,0.138,0.063c0.037,0.041,0.056,0.096,0.056,0.163
		c0,0.107-0.073,0.238-0.217,0.391c-0.146,0.151-0.34,0.298-0.581,0.436c-0.202,0.12-0.415,0.21-0.641,0.27s-0.462,0.087-0.71,0.087
		c-0.737,0-1.325-0.22-1.766-0.655c-0.44-0.438-0.66-1.023-0.66-1.76c0-0.803,0.263-1.475,0.784-2.02
		c0.521-0.543,1.165-0.814,1.93-0.814c0.584,0,1.035,0.123,1.348,0.363c0.313,0.238,0.473,0.579,0.473,1.02
		c0,0.52-0.294,0.933-0.875,1.235C52.896,72.11,51.994,72.321,50.776,72.445z M50.698,71.904c0.949-0.091,1.647-0.252,2.093-0.48
		s0.666-0.536,0.666-0.924c0-0.258-0.087-0.462-0.27-0.609c-0.178-0.146-0.424-0.221-0.742-0.221c-0.516,0-0.935,0.199-1.261,0.598
		c-0.325,0.399-0.489,0.915-0.489,1.551v0.086H50.698z"/>
	<path fill="#092452" d="M55.723,73.612v-3.68h-0.334c-0.184,0-0.312-0.023-0.383-0.067c-0.067-0.044-0.102-0.124-0.102-0.234
		c0-0.079,0.025-0.146,0.069-0.197c0.048-0.051,0.111-0.083,0.188-0.092c0.031-0.005,0.072-0.007,0.12-0.012
		c0.224-0.017,0.366-0.062,0.426-0.131c0.078-0.08,0.147-0.366,0.207-0.863c0.02-0.143,0.032-0.254,0.041-0.336
		c0.005-0.041,0.016-0.099,0.024-0.167c0.039-0.354,0.156-0.528,0.345-0.528c0.085,0,0.14,0.027,0.171,0.08
		c0.026,0.053,0.044,0.21,0.044,0.464v1.474h0.751c0.182,0,0.306,0.024,0.379,0.072c0.072,0.046,0.11,0.125,0.11,0.236
		c0,0.104-0.039,0.181-0.117,0.229s-0.205,0.072-0.372,0.072H56.54v3.118c0,0.21,0.019,0.359,0.051,0.451
		c0.03,0.094,0.089,0.154,0.171,0.182c0.101,0.036,0.296,0.066,0.579,0.08c0.286,0.018,0.426,0.09,0.426,0.224
		c0,0.116-0.033,0.193-0.099,0.234c-0.064,0.043-0.227,0.063-0.489,0.063h-1.002c-0.186,0-0.31-0.034-0.369-0.099
		C55.75,74.123,55.723,73.932,55.723,73.612z"/>
	<path fill="#092452" d="M60.808,73.849c-0.096,0.051-0.195,0.095-0.289,0.121c-0.099,0.026-0.195,0.04-0.292,0.04
		c-0.463,0-0.85-0.232-1.162-0.701c-0.314-0.467-0.565-1.184-0.751-2.143c-0.034-0.2-0.066-0.437-0.097-0.721
		c-0.027-0.28-0.055-0.45-0.083-0.511c-0.034-0.066-0.103-0.137-0.211-0.219c-0.104-0.077-0.156-0.157-0.156-0.237
		c0-0.059,0.028-0.1,0.094-0.12c0.062-0.025,0.193-0.036,0.389-0.036h0.705c0.241,0,0.396,0.015,0.457,0.043
		c0.064,0.024,0.095,0.08,0.095,0.163c0,0.082-0.053,0.156-0.163,0.216c-0.024,0.015-0.039,0.023-0.051,0.032
		c-0.115,0.069-0.19,0.143-0.228,0.22c-0.037,0.078-0.051,0.221-0.051,0.426c0,0.22,0.032,0.484,0.099,0.79
		c0.064,0.309,0.163,0.641,0.294,1.003c0.149,0.417,0.317,0.72,0.501,0.916c0.182,0.194,0.396,0.294,0.634,0.294
		c0.219,0,0.394-0.067,0.531-0.201s0.282-0.393,0.427-0.771c0.134-0.352,0.239-0.723,0.318-1.116
		c0.083-0.396,0.123-0.748,0.123-1.055c0-0.104-0.012-0.189-0.037-0.262c-0.024-0.069-0.062-0.124-0.112-0.167
		c-0.044-0.03-0.104-0.067-0.184-0.103c-0.141-0.063-0.207-0.14-0.207-0.227c0-0.073,0.029-0.124,0.085-0.153
		c0.06-0.028,0.181-0.042,0.365-0.042h0.572c0.188,0,0.317,0.019,0.388,0.054c0.069,0.032,0.102,0.095,0.102,0.183
		c0,0.037-0.032,0.099-0.099,0.188c-0.07,0.088-0.118,0.17-0.145,0.249c-0.035,0.098-0.09,0.378-0.167,0.852
		c-0.074,0.476-0.169,0.892-0.272,1.252c-0.379,1.264-0.911,2.288-1.601,3.071c-0.691,0.783-1.378,1.176-2.059,1.176
		c-0.188,0-0.335-0.038-0.44-0.12c-0.108-0.082-0.163-0.191-0.163-0.33c0-0.112,0.041-0.2,0.125-0.264
		c0.085-0.067,0.199-0.098,0.347-0.098c0.041,0,0.109,0.009,0.206,0.023c0.094,0.022,0.167,0.03,0.226,0.03
		c0.333,0,0.678-0.161,1.034-0.476C60.264,74.798,60.564,74.376,60.808,73.849z"/>
</g>
<g>
	<g>
		<path fill="#092452" d="M22.251,55.668c0.176,0.825,0.552,1.478,1.131,1.961c0.578,0.483,1.269,0.726,2.072,0.726
			c0.43,0,0.836-0.054,1.215-0.158c0.382-0.107,0.755-0.272,1.121-0.497c0.176-0.108,0.394-0.259,0.656-0.456
			c0.358-0.262,0.595-0.393,0.708-0.393c0.114,0,0.206,0.043,0.28,0.129c0.074,0.082,0.111,0.191,0.111,0.324
			c0,0.221-0.146,0.481-0.438,0.788c-0.294,0.308-0.682,0.603-1.169,0.886c-0.409,0.237-0.84,0.416-1.296,0.537
			c-0.453,0.119-0.93,0.18-1.432,0.18c-1.487,0-2.674-0.442-3.562-1.326c-0.887-0.885-1.331-2.066-1.331-3.545
			c0-1.622,0.525-2.98,1.578-4.078c1.054-1.096,2.354-1.643,3.897-1.643c1.176,0,2.081,0.242,2.716,0.729
			c0.635,0.486,0.952,1.173,0.952,2.062c0,1.051-0.586,1.881-1.76,2.489C26.526,54.994,24.709,55.421,22.251,55.668z M22.091,54.58
			c1.917-0.185,3.324-0.507,4.224-0.968c0.899-0.463,1.348-1.084,1.348-1.867c0-0.52-0.182-0.93-0.545-1.227
			c-0.362-0.297-0.86-0.443-1.495-0.443c-1.036,0-1.882,0.402-2.542,1.205c-0.66,0.805-0.987,1.847-0.987,3.13v0.17H22.091z"/>
		<path fill="#092452" d="M34.101,54.366c-0.642-0.703-1.291-1.498-1.949-2.383c-0.66-0.885-1.05-1.385-1.169-1.496
			c-0.092-0.084-0.277-0.194-0.556-0.332c-0.279-0.139-0.418-0.284-0.418-0.439c0-0.133,0.051-0.225,0.148-0.275
			c0.099-0.047,0.307-0.07,0.624-0.07h2.103c0.333,0,0.553,0.023,0.661,0.07c0.109,0.052,0.164,0.144,0.164,0.275
			c0,0.084-0.094,0.208-0.279,0.371c-0.188,0.162-0.281,0.309-0.281,0.444c0,0.196,0.178,0.536,0.533,1.013
			c0.356,0.479,0.855,1.045,1.496,1.689c0.578-0.576,1.047-1.119,1.406-1.625c0.36-0.51,0.539-0.866,0.539-1.08
			c0-0.121-0.107-0.26-0.323-0.412c-0.214-0.155-0.322-0.288-0.322-0.403c0-0.133,0.059-0.225,0.176-0.274
			c0.115-0.047,0.353-0.07,0.712-0.07h1.492c0.288,0,0.481,0.021,0.575,0.062c0.096,0.043,0.145,0.121,0.145,0.233
			c0,0.155-0.124,0.293-0.37,0.417c-0.247,0.121-0.42,0.234-0.519,0.344c-0.069,0.07-0.393,0.514-0.968,1.331
			c-0.575,0.817-1.175,1.558-1.803,2.22c0.685,0.74,1.409,1.584,2.173,2.527c0.764,0.944,1.231,1.487,1.401,1.629
			c0.092,0.085,0.279,0.204,0.564,0.359c0.285,0.156,0.429,0.316,0.429,0.486c0,0.154-0.063,0.264-0.186,0.322
			c-0.123,0.061-0.357,0.09-0.702,0.09h-2.209c-0.247,0-0.429-0.037-0.545-0.113c-0.116-0.072-0.174-0.188-0.174-0.344
			c0-0.125,0.084-0.268,0.254-0.428c0.169-0.158,0.253-0.281,0.253-0.374c0-0.247-0.207-0.628-0.622-1.144
			c-0.417-0.514-1.012-1.127-1.787-1.838c-0.635,0.711-1.117,1.305-1.448,1.781c-0.33,0.477-0.496,0.819-0.496,1.03
			c0,0.188,0.131,0.364,0.391,0.519c0.262,0.154,0.391,0.312,0.391,0.477c0,0.152-0.065,0.266-0.195,0.332
			c-0.131,0.066-0.341,0.102-0.628,0.102H30.57c-0.211,0-0.364-0.037-0.461-0.105c-0.094-0.073-0.142-0.182-0.142-0.327
			c0-0.206,0.186-0.39,0.56-0.55c0.374-0.163,0.616-0.312,0.73-0.444c0.077-0.092,0.232-0.301,0.465-0.624
			C32.525,56.211,33.319,55.222,34.101,54.366z"/>
		<path fill="#092452" d="M48.562,57.719c-0.465,0.655-1.035,1.147-1.713,1.479c-0.677,0.333-1.453,0.498-2.335,0.498
			c-1.051,0-1.884-0.28-2.5-0.842c-0.616-0.56-0.926-1.312-0.926-2.256c0-1.291,0.571-2.281,1.714-2.971
			c1.141-0.691,2.786-1.038,4.936-1.038h0.475c-0.083-0.747-0.399-1.329-0.947-1.748c-0.545-0.419-1.262-0.63-2.148-0.63
			c-0.509,0-1.052,0.172-1.63,0.51c-0.577,0.338-0.95,0.508-1.12,0.508c-0.197,0-0.36-0.056-0.49-0.164
			c-0.131-0.11-0.197-0.248-0.197-0.418c0-0.444,0.328-0.812,0.983-1.104c0.656-0.291,1.512-0.438,2.569-0.438
			c1.74,0,2.998,0.404,3.768,1.221c0.772,0.812,1.158,2.146,1.158,4.001v3.224c0,0.155,0.022,0.279,0.063,0.375
			c0.043,0.096,0.151,0.217,0.327,0.364c0.064,0.042,0.166,0.095,0.309,0.161c0.314,0.14,0.477,0.309,0.477,0.506
			c0,0.211-0.115,0.355-0.344,0.43c-0.229,0.072-0.802,0.108-1.719,0.108c-0.269,0-0.453-0.05-0.555-0.153
			c-0.104-0.101-0.154-0.285-0.154-0.554V57.719L48.562,57.719z M48.435,53.563H48.15c-1.649,0-2.924,0.26-3.822,0.777
			s-1.348,1.248-1.348,2.192c0,0.569,0.195,1.038,0.586,1.399c0.391,0.363,0.902,0.545,1.527,0.545c0.353,0,0.699-0.045,1.043-0.138
			c0.341-0.09,0.646-0.218,0.913-0.38c0.521-0.322,0.882-0.67,1.084-1.036c0.202-0.366,0.301-0.88,0.301-1.542L48.435,53.563
			L48.435,53.563z"/>
		<path fill="#092452" d="M53.331,57.222v-4.652c0-0.443-0.033-0.758-0.103-0.94c-0.065-0.185-0.177-0.33-0.332-0.444
			c-0.113-0.092-0.283-0.186-0.508-0.283c-0.322-0.149-0.486-0.328-0.486-0.541c0-0.084,0.047-0.188,0.139-0.312
			c0.09-0.121,0.219-0.245,0.379-0.363c0.227-0.178,0.432-0.314,0.617-0.412c0.188-0.1,0.335-0.149,0.439-0.149
			c0.323,0,0.603,0.261,0.83,0.783c0.229,0.521,0.364,1.213,0.407,2.071c0.359-0.931,0.785-1.647,1.278-2.155
			c0.494-0.509,1.003-0.761,1.531-0.761c0.375,0,0.664,0.137,0.869,0.416c0.203,0.277,0.308,0.674,0.308,1.188
			c0,0.163-0.054,0.296-0.153,0.403c-0.104,0.104-0.236,0.158-0.396,0.158c-0.17,0-0.4-0.074-0.693-0.219
			c-0.292-0.145-0.498-0.218-0.616-0.218c-0.465,0-0.892,0.396-1.274,1.185c-0.385,0.789-0.576,1.752-0.576,2.885v2.316
			c0,0.444,0.025,0.733,0.08,0.866c0.053,0.135,0.146,0.229,0.277,0.286c0.106,0.041,0.271,0.092,0.498,0.146
			c0.43,0.114,0.646,0.287,0.646,0.521c0,0.14-0.056,0.239-0.164,0.3s-0.313,0.09-0.617,0.09h-2.706
			c-0.297,0-0.494-0.025-0.592-0.078c-0.1-0.053-0.148-0.15-0.148-0.291c0-0.184,0.158-0.353,0.475-0.509
			c0.172-0.085,0.294-0.151,0.371-0.198c0.084-0.059,0.143-0.143,0.173-0.254c0.032-0.115,0.048-0.306,0.048-0.57L53.331,57.222
			L53.331,57.222z"/>
		<path fill="#092452" d="M60.646,51.769c0-0.256-0.026-0.432-0.08-0.529c-0.053-0.1-0.156-0.197-0.312-0.297
			c-0.063-0.043-0.159-0.096-0.284-0.159c-0.255-0.126-0.383-0.259-0.383-0.401c0-0.105,0.039-0.201,0.112-0.283
			c0.073-0.084,0.202-0.177,0.386-0.274l0.148-0.085c0.857-0.451,1.431-0.676,1.711-0.676c0.148,0,0.25,0.065,0.31,0.201
			c0.056,0.133,0.084,0.441,0.084,0.93v7.422c0,0.182,0.021,0.335,0.062,0.453c0.043,0.119,0.105,0.201,0.19,0.242
			c0.099,0.045,0.22,0.092,0.359,0.149c0.366,0.146,0.551,0.32,0.551,0.519c0,0.155-0.062,0.262-0.181,0.32
			c-0.12,0.061-0.346,0.09-0.676,0.09h-2.276c-0.304,0-0.509-0.029-0.617-0.09c-0.108-0.06-0.164-0.16-0.164-0.301
			c0-0.107,0.026-0.199,0.085-0.273c0.055-0.078,0.158-0.153,0.307-0.224c0.058-0.026,0.133-0.063,0.231-0.104
			c0.289-0.121,0.435-0.366,0.435-0.74v-5.889H60.646L60.646,51.769z M60.064,46.006c0-0.323,0.115-0.589,0.344-0.793
			c0.229-0.203,0.527-0.307,0.894-0.307c0.359,0,0.65,0.104,0.873,0.307c0.22,0.204,0.332,0.468,0.332,0.793
			c0,0.339-0.112,0.609-0.339,0.81c-0.225,0.201-0.521,0.301-0.887,0.301c-0.374,0-0.672-0.1-0.891-0.301
			C60.172,46.612,60.064,46.344,60.064,46.006z"/>
		<path fill="#092452" d="M64.314,57.423c0-0.204,0.065-0.371,0.194-0.504c0.13-0.128,0.296-0.193,0.492-0.193
			c0.22,0,0.479,0.188,0.781,0.569c0.092,0.104,0.163,0.19,0.213,0.254c0.289,0.323,0.612,0.568,0.972,0.729
			c0.361,0.164,0.766,0.242,1.217,0.242c0.635,0,1.152-0.164,1.559-0.494c0.406-0.332,0.609-0.758,0.609-1.28
			c0-0.733-0.832-1.3-2.496-1.702c-0.092-0.021-0.166-0.037-0.222-0.053c-1.036-0.254-1.776-0.596-2.221-1.024
			c-0.442-0.431-0.664-1.013-0.664-1.745c0-0.945,0.317-1.697,0.952-2.267c0.633-0.567,1.482-0.853,2.548-0.853
			c1.015,0,1.797,0.146,2.353,0.438c0.555,0.293,0.828,0.706,0.828,1.232c0,0.39-0.027,0.647-0.084,0.776
			c-0.057,0.13-0.164,0.196-0.328,0.196c-0.189,0-0.414-0.155-0.675-0.465c-0.106-0.119-0.19-0.211-0.256-0.274
			c-0.269-0.274-0.584-0.485-0.95-0.635c-0.367-0.149-0.761-0.222-1.185-0.222c-0.509,0-0.931,0.147-1.269,0.438
			c-0.34,0.293-0.508,0.657-0.508,1.095c0,0.366,0.11,0.655,0.332,0.866c0.221,0.211,0.65,0.405,1.285,0.582
			c0.204,0.056,0.492,0.132,0.866,0.22c0.922,0.221,1.536,0.426,1.839,0.623c0.438,0.282,0.762,0.614,0.979,0.998
			c0.215,0.377,0.321,0.811,0.321,1.299c0,1.021-0.344,1.847-1.03,2.479c-0.688,0.63-1.591,0.945-2.713,0.945
			c-0.951,0-1.812-0.256-2.584-0.766C64.702,58.42,64.314,57.916,64.314,57.423z"/>
	</g>
	<path fill="#092452" d="M73.248,57.036c0.001-1.753,1.438-3.114,3.277-3.109c1.754,0.002,3.154,1.387,3.156,3.118
		c0.004,1.796-1.41,3.159-3.281,3.152C74.659,60.19,73.247,58.772,73.248,57.036z M76.508,59.565c1.348,0,2.393-1.101,2.383-2.506
		c-0.011-1.418-1.093-2.539-2.438-2.523c-1.351,0.014-2.415,1.127-2.415,2.521C74.038,58.483,75.105,59.572,76.508,59.565z"/>
	<path fill="#092452" d="M75.262,55.556c0.67-0.086,1.336-0.193,1.997,0.008c0.345,0.105,0.556,0.352,0.581,0.731
		c0.023,0.362-0.158,0.595-0.473,0.742c-0.043,0.022-0.083,0.046-0.161,0.09c0.63,0.325,0.485,0.998,0.771,1.537
		c-0.261,0-0.477,0.009-0.69-0.007c-0.054-0.006-0.119-0.092-0.144-0.153c-0.062-0.168-0.108-0.342-0.149-0.517
		c-0.112-0.453-0.238-0.555-0.708-0.557c-0.096,0-0.188,0-0.319,0c0,0.412,0,0.807,0,1.219c-0.256,0-0.472,0-0.704,0
		C75.262,57.62,75.262,56.601,75.262,55.556z M76.009,56.944c0.245-0.021,0.466-0.023,0.679-0.064
		c0.227-0.046,0.393-0.188,0.383-0.439c-0.01-0.244-0.166-0.4-0.399-0.431c-0.212-0.028-0.43-0.005-0.661-0.005
		C76.009,56.313,76.009,56.601,76.009,56.944z"/>
</g>
</svg>
