<?xml version="1.0" encoding="utf-8"?>
<!-- Generator: Adobe Illustrator 16.0.0, SVG Export Plug-In . SVG Version: 6.00 Build 0)  -->
<!DOCTYPE svg PUBLIC "-//W3C//DTD SVG 1.1//EN" "http://www.w3.org/Graphics/SVG/1.1/DTD/svg11.dtd">
<svg version="1.1" id="Capa_1" xmlns="http://www.w3.org/2000/svg" xmlns:xlink="http://www.w3.org/1999/xlink" x="0px" y="0px"
	 width="100px" height="72.025px" viewBox="0 0 100 72.025" enable-background="new 0 0 100 72.025" xml:space="preserve">
<g>
	<g>
		<circle fill-rule="evenodd" clip-rule="evenodd" fill="#D81F26" cx="53.452" cy="29.152" r="2.104"/>
		<circle fill-rule="evenodd" clip-rule="evenodd" fill="#D81F26" cx="50.576" cy="26.37" r="1.407"/>
		<circle fill-rule="evenodd" clip-rule="evenodd" fill="#D81F26" cx="62.05" cy="38.061" r="3.498"/>
		<circle fill-rule="evenodd" clip-rule="evenodd" fill="#D81F26" cx="57.333" cy="33.057" r="2.785"/>
	</g>
	<g>
		<circle fill-rule="evenodd" clip-rule="evenodd" fill="#D81F26" cx="43.651" cy="29.194" r="2.103"/>
		<circle fill-rule="evenodd" clip-rule="evenodd" fill="#D81F26" cx="46.485" cy="26.37" r="1.407"/>
		<circle fill-rule="evenodd" clip-rule="evenodd" fill="#D81F26" cx="35.005" cy="38.061" r="3.499"/>
		<circle fill-rule="evenodd" clip-rule="evenodd" fill="#D81F26" cx="39.795" cy="33.188" r="2.785"/>
	</g>
	<g>
		<circle fill-rule="evenodd" clip-rule="evenodd" fill="#D81F26" cx="53.372" cy="19.461" r="2.104"/>
		<circle fill-rule="evenodd" clip-rule="evenodd" fill="#D81F26" cx="50.56" cy="22.272" r="1.407"/>
		<circle fill-rule="evenodd" clip-rule="evenodd" fill="#D81F26" cx="62.184" cy="10.781" r="3.498"/>
		<circle fill-rule="evenodd" clip-rule="evenodd" fill="#D81F26" cx="57.301" cy="15.608" r="2.784"/>
	</g>
	<g>
		<circle fill-rule="evenodd" clip-rule="evenodd" fill="#D81F26" cx="43.718" cy="19.398" r="2.103"/>
		<circle fill-rule="evenodd" clip-rule="evenodd" fill="#D81F26" cx="46.461" cy="22.255" r="1.407"/>
		<circle fill-rule="evenodd" clip-rule="evenodd" fill="#D81F26" cx="34.736" cy="10.805" r="3.498"/>
		<circle fill-rule="evenodd" clip-rule="evenodd" fill="#D81F26" cx="39.691" cy="15.556" r="2.784"/>
	</g>
</g>
<g>
	<path fill="#092452" d="M27.443,52.648c0.157,0.737,0.495,1.322,1.011,1.754s1.134,0.647,1.853,0.647
		c0.384,0,0.747-0.048,1.087-0.143c0.34-0.094,0.674-0.242,1.001-0.444c0.158-0.094,0.353-0.229,0.586-0.406
		c0.321-0.232,0.533-0.35,0.633-0.35s0.185,0.038,0.25,0.113c0.066,0.076,0.099,0.174,0.099,0.293c0,0.195-0.131,0.431-0.392,0.704
		c-0.262,0.274-0.609,0.538-1.044,0.79c-0.365,0.214-0.751,0.374-1.158,0.481c-0.406,0.107-0.833,0.161-1.28,0.161
		c-1.33,0-2.391-0.396-3.185-1.187s-1.191-1.848-1.191-3.171c0-1.449,0.471-2.663,1.413-3.644c0.941-0.979,2.103-1.47,3.482-1.47
		c1.052,0,1.862,0.218,2.429,0.652c0.567,0.435,0.851,1.049,0.851,1.843c0,0.939-0.524,1.682-1.573,2.227
		C31.266,52.046,29.642,52.428,27.443,52.648z M27.301,51.676c1.713-0.164,2.972-0.452,3.775-0.865
		c0.803-0.412,1.205-0.969,1.205-1.668c0-0.466-0.162-0.832-0.487-1.097s-0.77-0.396-1.337-0.396c-0.926,0-1.684,0.359-2.273,1.077
		c-0.589,0.719-0.883,1.651-0.883,2.798V51.676z"/>
	<path fill="#092452" d="M36.525,54.141c0.718-1.008,1.427-1.893,2.126-2.655c-0.574-0.63-1.155-1.341-1.744-2.131
		c-0.589-0.791-0.938-1.236-1.044-1.338c-0.082-0.075-0.248-0.175-0.496-0.298c-0.249-0.122-0.374-0.253-0.374-0.392
		c0-0.12,0.044-0.202,0.132-0.246s0.274-0.066,0.558-0.066h1.881c0.296,0,0.493,0.022,0.591,0.066
		c0.097,0.044,0.146,0.126,0.146,0.246c0,0.075-0.084,0.186-0.25,0.33c-0.167,0.146-0.25,0.277-0.25,0.397
		c0,0.177,0.159,0.479,0.477,0.907s0.764,0.933,1.337,1.512c0.517-0.516,0.936-1.001,1.257-1.455
		c0.321-0.453,0.482-0.774,0.482-0.964c0-0.107-0.096-0.229-0.288-0.368s-0.288-0.259-0.288-0.359c0-0.12,0.052-0.202,0.156-0.246
		s0.316-0.066,0.638-0.066h1.333c0.258,0,0.43,0.02,0.515,0.057c0.085,0.038,0.127,0.107,0.127,0.208
		c0,0.139-0.11,0.264-0.331,0.374c-0.22,0.11-0.375,0.212-0.463,0.307c-0.063,0.063-0.351,0.46-0.865,1.191
		c-0.514,0.73-1.051,1.393-1.611,1.984c0.611,0.661,1.258,1.414,1.942,2.259s1.101,1.329,1.252,1.455
		c0.082,0.076,0.25,0.183,0.506,0.321c0.255,0.139,0.382,0.284,0.382,0.436c0,0.138-0.055,0.234-0.165,0.288
		c-0.11,0.054-0.32,0.08-0.628,0.08h-1.976c-0.221,0-0.383-0.033-0.487-0.1c-0.104-0.065-0.156-0.168-0.156-0.307
		c0-0.113,0.076-0.241,0.227-0.383c0.151-0.142,0.227-0.254,0.227-0.336c0-0.22-0.186-0.561-0.558-1.021s-0.904-1.008-1.597-1.645
		c-0.567,0.637-0.999,1.167-1.295,1.593c-0.296,0.425-0.444,0.732-0.444,0.921c0,0.171,0.116,0.325,0.35,0.464
		c0.233,0.139,0.35,0.28,0.35,0.425c0,0.139-0.058,0.238-0.175,0.298s-0.304,0.09-0.562,0.09h-1.975
		c-0.189,0-0.326-0.031-0.411-0.095c-0.085-0.062-0.127-0.16-0.127-0.293c0-0.183,0.167-0.347,0.501-0.491
		c0.333-0.145,0.551-0.277,0.652-0.397C36.179,54.618,36.317,54.431,36.525,54.141L36.525,54.141z"/>
	<path fill="#092452" d="M51.581,54.482c-0.416,0.586-0.927,1.027-1.531,1.323c-0.605,0.296-1.301,0.444-2.089,0.444
		c-0.939,0-1.684-0.251-2.235-0.752s-0.827-1.173-0.827-2.018c0-1.153,0.51-2.038,1.531-2.655c1.021-0.618,2.492-0.927,4.414-0.927
		h0.425c-0.075-0.668-0.357-1.189-0.846-1.564c-0.488-0.374-1.129-0.562-1.923-0.562c-0.454,0-0.939,0.15-1.456,0.453
		s-0.851,0.454-1.001,0.454c-0.177,0-0.323-0.049-0.439-0.146c-0.117-0.098-0.175-0.223-0.175-0.374
		c0-0.396,0.293-0.726,0.879-0.987s1.352-0.393,2.296-0.393c1.556,0,2.68,0.364,3.369,1.092c0.69,0.728,1.035,1.92,1.035,3.577
		v2.883c0,0.139,0.019,0.25,0.057,0.336c0.038,0.085,0.136,0.193,0.293,0.325c0.057,0.038,0.148,0.086,0.274,0.143
		c0.283,0.126,0.425,0.277,0.425,0.453c0,0.189-0.103,0.316-0.307,0.383c-0.205,0.066-0.717,0.1-1.536,0.1
		c-0.239,0-0.405-0.046-0.496-0.138c-0.092-0.091-0.137-0.256-0.137-0.496V54.482z M51.467,50.767h-0.255
		c-1.474,0-2.613,0.232-3.417,0.695s-1.205,1.116-1.205,1.961c0,0.511,0.175,0.928,0.525,1.252c0.35,0.325,0.805,0.487,1.365,0.487
		c0.315,0,0.625-0.041,0.931-0.123s0.578-0.195,0.817-0.341c0.466-0.289,0.79-0.598,0.969-0.926c0.179-0.327,0.269-0.787,0.269-1.38
		V50.767z"/>
	<path fill="#092452" d="M55.843,54.038V49.88c0-0.397-0.029-0.678-0.09-0.842c-0.06-0.163-0.159-0.296-0.298-0.396
		c-0.101-0.082-0.252-0.167-0.453-0.255c-0.29-0.133-0.435-0.293-0.435-0.482c0-0.075,0.041-0.168,0.123-0.278
		c0.081-0.11,0.194-0.219,0.34-0.326c0.201-0.157,0.386-0.28,0.553-0.369c0.167-0.088,0.298-0.132,0.393-0.132
		c0.289,0,0.537,0.233,0.741,0.699c0.205,0.466,0.326,1.084,0.364,1.853c0.321-0.832,0.702-1.475,1.144-1.928
		c0.441-0.454,0.897-0.681,1.37-0.681c0.334,0,0.593,0.124,0.775,0.373s0.274,0.604,0.274,1.063c0,0.145-0.046,0.265-0.138,0.359
		c-0.091,0.094-0.209,0.142-0.354,0.142c-0.151,0-0.357-0.064-0.619-0.194c-0.261-0.129-0.445-0.193-0.553-0.193
		c-0.416,0-0.795,0.353-1.139,1.059c-0.344,0.705-0.515,1.565-0.515,2.58V54c0,0.397,0.023,0.655,0.07,0.775
		c0.048,0.119,0.131,0.205,0.251,0.255c0.094,0.038,0.242,0.082,0.444,0.133c0.384,0.101,0.576,0.255,0.576,0.463
		c0,0.126-0.049,0.216-0.146,0.27s-0.282,0.08-0.553,0.08h-2.42c-0.265,0-0.44-0.023-0.529-0.071
		c-0.088-0.047-0.132-0.134-0.132-0.26c0-0.163,0.142-0.314,0.425-0.453c0.151-0.076,0.262-0.136,0.331-0.18
		c0.075-0.051,0.128-0.126,0.156-0.227c0.028-0.102,0.042-0.271,0.042-0.511V54.038z"/>
	<path fill="#092452" d="M62.383,49.161c0-0.227-0.023-0.384-0.07-0.473c-0.048-0.088-0.141-0.176-0.279-0.265
		c-0.057-0.037-0.142-0.085-0.255-0.142c-0.227-0.113-0.341-0.232-0.341-0.359c0-0.094,0.033-0.179,0.1-0.255
		c0.066-0.075,0.182-0.157,0.345-0.245l0.133-0.076c0.769-0.403,1.279-0.604,1.531-0.604c0.132,0,0.224,0.06,0.273,0.18
		c0.051,0.119,0.076,0.396,0.076,0.831v6.635c0,0.164,0.019,0.3,0.057,0.406c0.038,0.107,0.095,0.18,0.17,0.218
		c0.088,0.038,0.195,0.082,0.321,0.132c0.327,0.133,0.491,0.287,0.491,0.464c0,0.138-0.054,0.234-0.16,0.288
		c-0.107,0.054-0.309,0.08-0.605,0.08h-2.031c-0.271,0-0.456-0.026-0.553-0.08c-0.099-0.054-0.147-0.144-0.147-0.27
		c0-0.095,0.025-0.177,0.076-0.246c0.05-0.069,0.142-0.135,0.274-0.198c0.05-0.025,0.119-0.057,0.207-0.095
		c0.259-0.106,0.388-0.327,0.388-0.661V49.161z M61.863,44.01c0-0.29,0.103-0.526,0.308-0.709c0.204-0.183,0.471-0.274,0.798-0.274
		c0.321,0,0.581,0.092,0.78,0.274c0.198,0.183,0.298,0.419,0.298,0.709c0,0.303-0.102,0.543-0.303,0.723
		c-0.202,0.18-0.467,0.27-0.794,0.27c-0.334,0-0.599-0.09-0.794-0.27S61.863,44.313,61.863,44.01z"/>
	<path fill="#092452" d="M65.662,54.218c0-0.183,0.059-0.332,0.176-0.449c0.116-0.116,0.263-0.175,0.439-0.175
		c0.194,0,0.428,0.17,0.699,0.511c0.081,0.095,0.145,0.17,0.188,0.227c0.259,0.29,0.549,0.507,0.87,0.652
		c0.321,0.145,0.684,0.217,1.087,0.217c0.566,0,1.031-0.147,1.394-0.443c0.362-0.297,0.543-0.678,0.543-1.145
		c0-0.654-0.743-1.162-2.229-1.521c-0.082-0.019-0.148-0.034-0.199-0.047c-0.926-0.227-1.588-0.532-1.984-0.917
		c-0.397-0.384-0.596-0.904-0.596-1.56c0-0.844,0.284-1.52,0.851-2.026c0.567-0.508,1.326-0.762,2.278-0.762
		c0.907,0,1.607,0.131,2.103,0.393c0.494,0.262,0.742,0.629,0.742,1.102c0,0.346-0.025,0.578-0.076,0.694s-0.147,0.175-0.293,0.175
		c-0.17,0-0.372-0.139-0.604-0.416c-0.095-0.107-0.17-0.188-0.227-0.246c-0.24-0.245-0.523-0.435-0.851-0.566
		c-0.328-0.133-0.681-0.198-1.059-0.198c-0.454,0-0.832,0.131-1.135,0.392c-0.302,0.262-0.453,0.588-0.453,0.979
		c0,0.327,0.099,0.586,0.298,0.774c0.198,0.189,0.581,0.362,1.147,0.521c0.184,0.05,0.441,0.116,0.775,0.198
		c0.825,0.195,1.373,0.381,1.645,0.558c0.391,0.252,0.682,0.548,0.874,0.889c0.192,0.34,0.288,0.728,0.288,1.162
		c0,0.914-0.307,1.652-0.921,2.216c-0.614,0.564-1.423,0.847-2.425,0.847c-0.851,0-1.62-0.229-2.311-0.686
		C66.008,55.107,65.662,54.659,65.662,54.218z"/>
</g>
<g>
	<path fill="#092452" d="M40.281,63.45c0-0.064,0.021-0.117,0.062-0.158c0.041-0.042,0.093-0.062,0.155-0.062
		c0.069,0,0.151,0.061,0.247,0.181c0.029,0.033,0.051,0.06,0.067,0.08c0.091,0.103,0.193,0.179,0.307,0.23
		c0.114,0.051,0.242,0.076,0.384,0.076c0.2,0,0.364-0.052,0.492-0.156s0.192-0.239,0.192-0.404c0-0.231-0.263-0.41-0.788-0.537
		c-0.029-0.007-0.052-0.012-0.07-0.017c-0.327-0.08-0.561-0.188-0.701-0.323s-0.21-0.319-0.21-0.551c0-0.298,0.1-0.537,0.3-0.716
		c0.2-0.179,0.468-0.269,0.804-0.269c0.32,0,0.568,0.046,0.743,0.139c0.174,0.092,0.262,0.222,0.262,0.389
		c0,0.122-0.009,0.204-0.027,0.245c-0.018,0.041-0.052,0.062-0.104,0.062c-0.06,0-0.131-0.049-0.213-0.146
		c-0.033-0.038-0.06-0.067-0.08-0.087c-0.084-0.087-0.185-0.153-0.3-0.2s-0.24-0.07-0.374-0.07c-0.16,0-0.293,0.047-0.4,0.139
		c-0.107,0.093-0.16,0.207-0.16,0.346c0,0.115,0.035,0.206,0.105,0.273c0.07,0.066,0.205,0.128,0.405,0.184
		c0.065,0.018,0.156,0.041,0.274,0.069c0.291,0.069,0.485,0.135,0.581,0.197c0.138,0.089,0.241,0.193,0.309,0.313
		s0.102,0.257,0.102,0.41c0,0.323-0.108,0.584-0.325,0.783c-0.217,0.198-0.502,0.298-0.856,0.298c-0.3,0-0.572-0.08-0.815-0.241
		C40.403,63.764,40.281,63.605,40.281,63.45z"/>
	<path fill="#092452" d="M45.362,63.543c-0.147,0.207-0.327,0.363-0.541,0.468s-0.459,0.156-0.737,0.156
		c-0.332,0-0.594-0.088-0.789-0.265s-0.292-0.414-0.292-0.713c0-0.407,0.18-0.719,0.541-0.938c0.36-0.218,0.88-0.327,1.558-0.327
		h0.15c-0.026-0.235-0.126-0.419-0.298-0.552c-0.172-0.132-0.399-0.198-0.679-0.198c-0.16,0-0.331,0.053-0.514,0.16
		c-0.182,0.106-0.3,0.16-0.354,0.16c-0.062,0-0.114-0.018-0.155-0.052c-0.041-0.035-0.062-0.079-0.062-0.132
		c0-0.141,0.104-0.257,0.31-0.349c0.207-0.093,0.477-0.139,0.811-0.139c0.549,0,0.946,0.129,1.189,0.386
		c0.243,0.257,0.365,0.678,0.365,1.263v1.018c0,0.049,0.006,0.088,0.02,0.118c0.013,0.03,0.048,0.068,0.104,0.115
		c0.02,0.014,0.052,0.03,0.097,0.05c0.1,0.045,0.15,0.098,0.15,0.16c0,0.067-0.036,0.112-0.108,0.136
		c-0.072,0.022-0.253,0.034-0.542,0.034c-0.084,0-0.143-0.016-0.175-0.048s-0.048-0.091-0.048-0.175V63.543z M45.322,62.232h-0.09
		c-0.52,0-0.922,0.081-1.206,0.245c-0.283,0.163-0.425,0.395-0.425,0.692c0,0.18,0.062,0.327,0.185,0.441
		c0.124,0.115,0.284,0.172,0.482,0.172c0.111,0,0.221-0.014,0.329-0.043s0.204-0.069,0.289-0.12
		c0.165-0.103,0.278-0.211,0.342-0.327c0.063-0.115,0.095-0.277,0.095-0.487V62.232z"/>
	<path fill="#092452" d="M47.598,64.07h-0.854c-0.064,0-0.111-0.011-0.14-0.031c-0.029-0.021-0.043-0.057-0.043-0.105
		c0-0.075,0.078-0.143,0.233-0.2c0.029-0.011,0.05-0.019,0.063-0.023c0.029-0.013,0.049-0.042,0.06-0.087
		c0.011-0.044,0.017-0.118,0.017-0.223v-2.096h-0.267c-0.087,0-0.148-0.015-0.184-0.045s-0.053-0.082-0.053-0.155
		s0.018-0.125,0.053-0.153c0.036-0.029,0.097-0.044,0.184-0.044h0.267v-0.39c0-0.474,0.087-0.842,0.262-1.103
		c0.174-0.262,0.417-0.393,0.729-0.393c0.142,0,0.255,0.033,0.338,0.101c0.083,0.066,0.125,0.155,0.125,0.267
		c0,0.082-0.025,0.148-0.075,0.198c-0.05,0.05-0.115,0.075-0.195,0.075c-0.071,0-0.127-0.017-0.167-0.05s-0.069-0.087-0.086-0.16
		c-0.004-0.021-0.008-0.049-0.01-0.087c-0.002-0.058-0.02-0.087-0.053-0.087c-0.103,0-0.185,0.118-0.247,0.354
		c-0.062,0.236-0.093,0.559-0.093,0.968v0.307h0.424c0.089,0,0.151,0.015,0.187,0.044c0.036,0.028,0.054,0.08,0.054,0.153
		s-0.018,0.125-0.054,0.155s-0.098,0.045-0.187,0.045h-0.424v2.089c0,0.131,0.007,0.216,0.02,0.253
		c0.013,0.038,0.037,0.063,0.07,0.077c0.029,0.011,0.074,0.024,0.134,0.04c0.12,0.033,0.18,0.086,0.18,0.157
		c0,0.053-0.02,0.091-0.06,0.114S47.695,64.07,47.598,64.07z"/>
	<path fill="#092452" d="M48.999,62.896c0.056,0.26,0.174,0.466,0.357,0.618c0.182,0.152,0.4,0.229,0.654,0.229
		c0.136,0,0.264-0.017,0.384-0.05s0.238-0.085,0.354-0.156c0.056-0.034,0.125-0.081,0.207-0.144
		c0.113-0.083,0.188-0.124,0.224-0.124c0.035,0,0.065,0.014,0.088,0.04c0.023,0.027,0.035,0.062,0.035,0.104
		c0,0.069-0.046,0.152-0.138,0.249c-0.093,0.097-0.216,0.189-0.369,0.278c-0.129,0.075-0.266,0.133-0.409,0.17
		c-0.144,0.038-0.294,0.057-0.452,0.057c-0.469,0-0.844-0.14-1.125-0.418c-0.28-0.279-0.42-0.652-0.42-1.12
		c0-0.512,0.167-0.94,0.499-1.286s0.742-0.519,1.229-0.519c0.372,0,0.658,0.077,0.858,0.23c0.199,0.153,0.3,0.37,0.3,0.65
		c0,0.331-0.186,0.594-0.556,0.786S49.775,62.818,48.999,62.896z M48.949,62.552c0.605-0.058,1.049-0.16,1.333-0.306
		s0.425-0.342,0.425-0.589c0-0.164-0.057-0.294-0.172-0.387c-0.114-0.094-0.271-0.141-0.472-0.141c-0.327,0-0.595,0.127-0.803,0.381
		c-0.208,0.253-0.312,0.583-0.312,0.987V62.552z"/>
	<path fill="#092452" d="M52.148,63.64v-2.343h-0.21c-0.118,0-0.199-0.015-0.244-0.043c-0.044-0.029-0.066-0.079-0.066-0.15
		c0-0.051,0.016-0.093,0.045-0.125c0.03-0.032,0.069-0.052,0.119-0.059c0.02-0.002,0.045-0.004,0.076-0.007
		c0.143-0.011,0.233-0.039,0.273-0.083c0.049-0.052,0.093-0.234,0.131-0.551c0.011-0.091,0.02-0.162,0.026-0.214
		c0.004-0.026,0.009-0.062,0.014-0.106c0.026-0.225,0.1-0.337,0.22-0.337c0.054,0,0.09,0.018,0.108,0.052s0.028,0.133,0.028,0.295
		v0.938h0.478c0.115,0,0.196,0.016,0.243,0.046c0.047,0.029,0.07,0.08,0.07,0.151c0,0.066-0.025,0.115-0.075,0.146
		s-0.13,0.047-0.238,0.047h-0.478v1.985c0,0.134,0.011,0.229,0.032,0.288c0.021,0.06,0.058,0.098,0.111,0.115
		c0.064,0.024,0.188,0.042,0.369,0.052c0.181,0.011,0.271,0.058,0.271,0.143c0,0.073-0.021,0.123-0.062,0.149
		c-0.041,0.027-0.146,0.04-0.312,0.04h-0.637c-0.12,0-0.199-0.021-0.237-0.063C52.167,63.965,52.148,63.843,52.148,63.64z"/>
	<path fill="#092452" d="M55.388,63.79c-0.062,0.033-0.124,0.06-0.185,0.077c-0.062,0.018-0.123,0.026-0.186,0.026
		c-0.293,0-0.54-0.148-0.74-0.447c-0.2-0.298-0.359-0.753-0.478-1.364c-0.022-0.127-0.042-0.279-0.06-0.459
		c-0.018-0.179-0.036-0.287-0.054-0.325c-0.022-0.042-0.066-0.088-0.134-0.139c-0.066-0.05-0.1-0.101-0.1-0.151
		c0-0.038,0.02-0.064,0.06-0.078c0.04-0.015,0.123-0.022,0.247-0.022h0.45c0.154,0,0.251,0.01,0.291,0.027s0.06,0.052,0.06,0.104
		c0,0.053-0.034,0.099-0.104,0.137c-0.016,0.009-0.026,0.016-0.033,0.02c-0.073,0.045-0.121,0.092-0.144,0.141
		s-0.033,0.139-0.033,0.27c0,0.141,0.021,0.309,0.063,0.504c0.042,0.196,0.104,0.408,0.187,0.638
		c0.096,0.265,0.202,0.459,0.319,0.584c0.116,0.124,0.252,0.187,0.405,0.187c0.138,0,0.25-0.043,0.338-0.128
		c0.088-0.086,0.179-0.25,0.272-0.492c0.084-0.223,0.152-0.46,0.203-0.711c0.052-0.251,0.077-0.475,0.077-0.671
		c0-0.066-0.008-0.122-0.023-0.167c-0.016-0.044-0.04-0.08-0.073-0.106c-0.027-0.02-0.065-0.042-0.117-0.066
		c-0.087-0.04-0.13-0.088-0.13-0.144c0-0.047,0.019-0.079,0.055-0.097c0.037-0.018,0.114-0.027,0.232-0.027h0.363
		c0.12,0,0.202,0.012,0.247,0.034c0.045,0.021,0.066,0.061,0.066,0.116c0,0.024-0.021,0.064-0.064,0.12
		c-0.044,0.056-0.074,0.109-0.092,0.16c-0.022,0.061-0.058,0.241-0.105,0.542c-0.048,0.302-0.106,0.567-0.175,0.796
		c-0.24,0.806-0.58,1.458-1.02,1.957s-0.876,0.749-1.31,0.749c-0.12,0-0.214-0.025-0.282-0.077c-0.067-0.051-0.102-0.121-0.102-0.21
		c0-0.071,0.027-0.127,0.08-0.168c0.054-0.042,0.127-0.062,0.221-0.062c0.026,0,0.069,0.006,0.13,0.017
		c0.06,0.012,0.107,0.018,0.144,0.018c0.213,0,0.433-0.102,0.659-0.303C55.042,64.394,55.232,64.126,55.388,63.79z"/>
</g>
<g>
	<path fill="#092452" d="M73.364,54.552c0.142,0,0.28,0.036,0.415,0.109c0.135,0.072,0.24,0.177,0.315,0.312
		c0.075,0.135,0.113,0.276,0.113,0.423c0,0.146-0.037,0.286-0.111,0.42c-0.074,0.135-0.179,0.239-0.312,0.313
		s-0.273,0.111-0.42,0.111s-0.286-0.037-0.421-0.111c-0.134-0.074-0.238-0.179-0.312-0.313c-0.074-0.134-0.112-0.274-0.112-0.42
		c0-0.146,0.038-0.288,0.114-0.423c0.075-0.136,0.181-0.24,0.316-0.312C73.084,54.589,73.223,54.552,73.364,54.552z M73.364,54.692
		c-0.119,0-0.234,0.031-0.347,0.092s-0.2,0.147-0.264,0.261s-0.095,0.23-0.095,0.353s0.031,0.238,0.093,0.351
		c0.062,0.111,0.149,0.198,0.262,0.261c0.112,0.062,0.229,0.093,0.351,0.093c0.121,0,0.238-0.031,0.35-0.093
		c0.112-0.062,0.199-0.149,0.262-0.261c0.062-0.112,0.093-0.229,0.093-0.351s-0.032-0.239-0.095-0.353
		c-0.063-0.113-0.151-0.2-0.264-0.261S73.481,54.692,73.364,54.692z M72.993,55.864v-0.908h0.312c0.106,0,0.185,0.008,0.231,0.025
		c0.048,0.017,0.086,0.046,0.114,0.087c0.028,0.042,0.043,0.087,0.043,0.134c0,0.066-0.023,0.124-0.071,0.174
		c-0.047,0.049-0.11,0.076-0.188,0.082c0.032,0.014,0.058,0.03,0.077,0.049c0.036,0.035,0.081,0.096,0.135,0.18l0.11,0.178h-0.179
		l-0.081-0.143c-0.063-0.113-0.114-0.184-0.153-0.212c-0.026-0.021-0.065-0.031-0.117-0.031h-0.086v0.386H72.993z M73.141,55.353
		h0.178c0.085,0,0.143-0.013,0.174-0.038s0.047-0.06,0.047-0.102c0-0.026-0.008-0.051-0.022-0.071
		c-0.016-0.021-0.036-0.037-0.062-0.048s-0.075-0.016-0.147-0.016h-0.166V55.353z"/>
</g>
</svg>
