<?xml version="1.0" encoding="utf-8"?>
<!-- Generator: Adobe Illustrator 16.0.0, SVG Export Plug-In . SVG Version: 6.00 Build 0)  -->
<!DOCTYPE svg PUBLIC "-//W3C//DTD SVG 1.1//EN" "http://www.w3.org/Graphics/SVG/1.1/DTD/svg11.dtd">
<svg version="1.1" id="Capa_1" xmlns="http://www.w3.org/2000/svg" xmlns:xlink="http://www.w3.org/1999/xlink" x="0px" y="0px"
	 width="100px" height="76.74px" viewBox="0 0 100 76.74" enable-background="new 0 0 100 76.74" xml:space="preserve">
<g>
	<g>
		<circle fill="#D81F26" cx="53.452" cy="29.152" r="2.104"/>
		<circle fill="#D81F26" cx="50.576" cy="26.37" r="1.407"/>
		<circle fill="#D81F26" cx="62.05" cy="38.061" r="3.498"/>
		<circle fill="#D81F26" cx="57.333" cy="33.057" r="2.785"/>
	</g>
	<g>
		<circle fill="#D81F26" cx="43.651" cy="29.194" r="2.103"/>
		<circle fill="#D81F26" cx="46.485" cy="26.37" r="1.407"/>
		<circle fill="#D81F26" cx="35.005" cy="38.061" r="3.499"/>
		<circle fill="#D81F26" cx="39.795" cy="33.188" r="2.785"/>
	</g>
	<g>
		<circle fill="#D81F26" cx="53.372" cy="19.461" r="2.104"/>
		<circle fill="#D81F26" cx="50.561" cy="22.272" r="1.407"/>
		<circle fill="#D81F26" cx="62.184" cy="10.781" r="3.498"/>
		<circle fill="#D81F26" cx="57.301" cy="15.608" r="2.784"/>
	</g>
	<g>
		<circle fill="#D81F26" cx="43.718" cy="19.398" r="2.103"/>
		<circle fill="#D81F26" cx="46.461" cy="22.255" r="1.407"/>
		<circle fill="#D81F26" cx="34.736" cy="10.805" r="3.498"/>
		<circle fill="#D81F26" cx="39.691" cy="15.556" r="2.784"/>
	</g>
</g>
<g>
	<path fill="#092452" d="M39.021,73.021c0-0.086,0.027-0.156,0.082-0.211c0.055-0.057,0.125-0.082,0.208-0.082
		c0.092,0,0.201,0.081,0.33,0.241c0.039,0.044,0.068,0.081,0.089,0.106c0.122,0.137,0.258,0.239,0.41,0.308
		c0.152,0.068,0.323,0.101,0.512,0.101c0.268,0,0.486-0.069,0.657-0.207c0.171-0.14,0.256-0.319,0.256-0.54
		c0-0.309-0.352-0.548-1.052-0.717c-0.039-0.01-0.069-0.016-0.093-0.022c-0.437-0.106-0.749-0.252-0.936-0.432
		s-0.28-0.426-0.28-0.735c0-0.397,0.134-0.717,0.4-0.957c0.267-0.238,0.625-0.358,1.073-0.358c0.427,0,0.758,0.062,0.992,0.186
		c0.232,0.124,0.35,0.297,0.35,0.52c0,0.163-0.012,0.272-0.036,0.328c-0.024,0.055-0.069,0.082-0.139,0.082
		c-0.08,0-0.175-0.065-0.284-0.194c-0.044-0.051-0.08-0.09-0.107-0.117c-0.112-0.116-0.247-0.204-0.4-0.267
		c-0.154-0.062-0.32-0.094-0.499-0.094c-0.214,0-0.391,0.062-0.535,0.186c-0.143,0.125-0.213,0.276-0.213,0.463
		c0,0.152,0.046,0.274,0.14,0.363c0.093,0.089,0.274,0.171,0.541,0.246c0.087,0.023,0.208,0.055,0.366,0.092
		c0.389,0.093,0.648,0.18,0.776,0.264c0.185,0.118,0.322,0.258,0.413,0.417c0.091,0.16,0.136,0.344,0.136,0.547
		c0,0.432-0.144,0.78-0.434,1.046c-0.29,0.265-0.67,0.397-1.143,0.397c-0.4,0-0.764-0.106-1.088-0.321
		C39.183,73.441,39.021,73.228,39.021,73.021z"/>
	<path fill="#092452" d="M45.804,73.145c-0.196,0.276-0.436,0.485-0.722,0.624c-0.286,0.142-0.613,0.209-0.984,0.209
		c-0.443,0-0.792-0.117-1.053-0.354c-0.26-0.235-0.39-0.553-0.39-0.951c0-0.544,0.24-0.96,0.722-1.253
		c0.48-0.291,1.175-0.438,2.08-0.438h0.2c-0.035-0.312-0.168-0.559-0.398-0.736c-0.229-0.176-0.532-0.265-0.907-0.265
		c-0.213,0-0.442,0.072-0.686,0.214c-0.243,0.143-0.401,0.214-0.473,0.214c-0.083,0-0.152-0.023-0.208-0.069
		c-0.055-0.047-0.083-0.105-0.083-0.176c0-0.189,0.139-0.343,0.414-0.467c0.276-0.124,0.637-0.185,1.083-0.185
		c0.733,0,1.263,0.172,1.587,0.515s0.488,0.906,0.488,1.687v1.359c0,0.064,0.008,0.117,0.026,0.157
		c0.018,0.04,0.064,0.09,0.139,0.154c0.027,0.018,0.07,0.039,0.13,0.066c0.134,0.06,0.2,0.13,0.2,0.214
		c0,0.088-0.047,0.148-0.144,0.181c-0.096,0.029-0.338,0.046-0.724,0.046c-0.112,0-0.191-0.022-0.233-0.063
		c-0.043-0.044-0.064-0.123-0.064-0.235v-0.448H45.804z M45.75,71.395h-0.12c-0.694,0-1.23,0.108-1.61,0.327
		c-0.377,0.218-0.567,0.527-0.567,0.924c0,0.241,0.083,0.437,0.247,0.589c0.166,0.154,0.379,0.229,0.644,0.229
		c0.148,0,0.294-0.019,0.439-0.058c0.144-0.039,0.271-0.092,0.386-0.16c0.22-0.137,0.371-0.281,0.456-0.437
		c0.084-0.154,0.127-0.369,0.127-0.649v-0.766H45.75z"/>
	<path fill="#092452" d="M48.79,73.849h-1.14c-0.085,0-0.149-0.015-0.187-0.042c-0.039-0.027-0.058-0.075-0.058-0.14
		c0-0.1,0.104-0.191,0.311-0.267c0.039-0.015,0.066-0.026,0.084-0.031c0.039-0.018,0.066-0.057,0.08-0.116
		c0.015-0.059,0.023-0.158,0.023-0.298v-2.798h-0.356c-0.116,0-0.198-0.021-0.246-0.061c-0.048-0.039-0.071-0.108-0.071-0.206
		s0.024-0.167,0.071-0.205c0.048-0.039,0.129-0.059,0.246-0.059h0.356v-0.521c0-0.634,0.116-1.125,0.35-1.473
		c0.232-0.35,0.557-0.524,0.973-0.524c0.19,0,0.341,0.044,0.452,0.135c0.111,0.088,0.167,0.207,0.167,0.356
		c0,0.109-0.034,0.197-0.101,0.264c-0.066,0.067-0.153,0.101-0.26,0.101c-0.096,0-0.17-0.022-0.223-0.066
		c-0.054-0.045-0.093-0.116-0.115-0.214c-0.006-0.027-0.011-0.065-0.014-0.116c-0.002-0.077-0.027-0.116-0.071-0.116
		c-0.137,0-0.247,0.158-0.33,0.472c-0.083,0.315-0.125,0.747-0.125,1.294v0.409h0.566c0.119,0,0.202,0.02,0.25,0.059
		c0.048,0.038,0.072,0.107,0.072,0.205s-0.024,0.167-0.072,0.206c-0.048,0.04-0.131,0.061-0.25,0.061h-0.566v2.789
		c0,0.175,0.01,0.288,0.027,0.338c0.018,0.051,0.05,0.083,0.093,0.103c0.039,0.015,0.099,0.031,0.179,0.054
		c0.161,0.043,0.241,0.115,0.241,0.209c0,0.071-0.027,0.122-0.08,0.152C49.014,73.834,48.918,73.849,48.79,73.849z"/>
	<path fill="#092452" d="M50.66,72.282c0.074,0.347,0.232,0.622,0.477,0.825c0.242,0.202,0.533,0.306,0.873,0.306
		c0.182,0,0.352-0.022,0.512-0.066c0.16-0.045,0.318-0.114,0.473-0.209c0.076-0.046,0.168-0.108,0.277-0.191
		c0.15-0.111,0.25-0.166,0.299-0.166c0.047,0,0.086,0.019,0.117,0.054s0.047,0.082,0.047,0.138c0,0.093-0.062,0.204-0.184,0.333
		c-0.125,0.129-0.289,0.253-0.494,0.371c-0.172,0.101-0.354,0.178-0.545,0.228c-0.191,0.051-0.393,0.075-0.604,0.075
		c-0.627,0-1.127-0.187-1.502-0.558c-0.374-0.372-0.561-0.87-0.561-1.496c0-0.683,0.224-1.254,0.667-1.717
		c0.443-0.462,0.99-0.692,1.641-0.692c0.496,0,0.879,0.104,1.145,0.308s0.402,0.493,0.402,0.867c0,0.442-0.25,0.793-0.744,1.05
		C52.463,71.997,51.695,72.177,50.66,72.282z M50.594,71.822c0.807-0.077,1.4-0.213,1.779-0.408
		c0.379-0.194,0.566-0.456,0.566-0.786c0-0.219-0.074-0.393-0.229-0.517c-0.152-0.126-0.361-0.188-0.631-0.188
		c-0.438,0-0.795,0.169-1.072,0.508c-0.277,0.34-0.416,0.778-0.416,1.318v0.073H50.594z"/>
	<path fill="#092452" d="M54.865,73.275v-3.129h-0.283c-0.156,0-0.266-0.02-0.326-0.057c-0.057-0.038-0.086-0.106-0.086-0.2
		c0-0.067,0.021-0.125,0.059-0.167c0.041-0.043,0.094-0.07,0.16-0.079c0.027-0.003,0.061-0.005,0.102-0.009
		c0.191-0.015,0.312-0.053,0.363-0.111c0.066-0.069,0.125-0.312,0.176-0.735c0.016-0.121,0.027-0.216,0.035-0.285
		c0.004-0.035,0.012-0.084,0.02-0.143c0.033-0.3,0.133-0.449,0.293-0.449c0.072,0,0.119,0.024,0.145,0.068
		c0.023,0.046,0.037,0.179,0.037,0.395v1.253h0.639c0.154,0,0.26,0.021,0.322,0.061c0.062,0.039,0.094,0.107,0.094,0.202
		c0,0.088-0.033,0.153-0.1,0.194c-0.066,0.042-0.174,0.062-0.316,0.062h-0.639v2.651c0,0.178,0.016,0.305,0.043,0.384
		c0.027,0.08,0.076,0.131,0.146,0.154c0.086,0.031,0.252,0.056,0.492,0.069c0.244,0.014,0.363,0.076,0.363,0.19
		c0,0.098-0.029,0.164-0.084,0.199c-0.055,0.036-0.193,0.054-0.416,0.054h-0.852c-0.158,0-0.264-0.029-0.314-0.085
		C54.889,73.709,54.865,73.546,54.865,73.275z"/>
	<path fill="#092452" d="M59.189,73.475c-0.082,0.044-0.166,0.081-0.246,0.103c-0.084,0.023-0.166,0.035-0.248,0.035
		c-0.393,0-0.723-0.198-0.988-0.597c-0.268-0.397-0.48-1.006-0.639-1.821c-0.029-0.17-0.057-0.372-0.082-0.613
		c-0.023-0.238-0.047-0.383-0.07-0.434c-0.029-0.057-0.088-0.117-0.18-0.186c-0.088-0.066-0.133-0.134-0.133-0.202
		c0-0.05,0.025-0.085,0.08-0.103c0.053-0.021,0.164-0.03,0.33-0.03h0.6c0.205,0,0.336,0.013,0.389,0.036
		c0.055,0.022,0.08,0.069,0.08,0.139c0,0.07-0.045,0.133-0.139,0.183c-0.02,0.013-0.033,0.021-0.043,0.027
		c-0.098,0.06-0.162,0.122-0.193,0.188c-0.031,0.066-0.043,0.187-0.043,0.361c0,0.188,0.027,0.412,0.084,0.673
		c0.055,0.262,0.139,0.545,0.25,0.852c0.127,0.354,0.27,0.612,0.426,0.779c0.154,0.165,0.336,0.25,0.539,0.25
		c0.186,0,0.334-0.057,0.451-0.171s0.24-0.333,0.363-0.656c0.113-0.299,0.203-0.614,0.271-0.949c0.07-0.336,0.104-0.636,0.104-0.896
		c0-0.088-0.01-0.162-0.031-0.223c-0.021-0.059-0.053-0.106-0.096-0.142c-0.037-0.026-0.088-0.057-0.156-0.088
		c-0.119-0.054-0.176-0.118-0.176-0.192c0-0.063,0.025-0.106,0.072-0.13c0.051-0.024,0.154-0.036,0.311-0.036h0.486
		c0.16,0,0.27,0.016,0.33,0.046c0.059,0.027,0.086,0.08,0.086,0.155c0,0.031-0.027,0.084-0.084,0.16
		c-0.059,0.074-0.1,0.145-0.123,0.212c-0.029,0.083-0.076,0.322-0.141,0.724c-0.064,0.404-0.143,0.758-0.232,1.064
		c-0.322,1.075-0.775,1.946-1.361,2.612c-0.588,0.665-1.172,0.999-1.75,0.999c-0.16,0-0.285-0.032-0.375-0.102
		c-0.092-0.069-0.139-0.162-0.139-0.28c0-0.096,0.035-0.17,0.107-0.225c0.072-0.056,0.17-0.083,0.295-0.083
		c0.035,0,0.092,0.008,0.174,0.021c0.08,0.018,0.143,0.025,0.193,0.025c0.283,0,0.576-0.137,0.879-0.404
		C58.727,74.282,58.982,73.924,59.189,73.475z"/>
</g>
<g>
	<g>
		<path fill="#092452" d="M22.251,55.668c0.176,0.825,0.552,1.478,1.131,1.961c0.578,0.483,1.269,0.725,2.072,0.725
			c0.43,0,0.836-0.053,1.215-0.158c0.382-0.107,0.755-0.272,1.121-0.497c0.176-0.108,0.394-0.259,0.656-0.456
			c0.358-0.262,0.595-0.392,0.708-0.392c0.114,0,0.206,0.043,0.28,0.128c0.074,0.082,0.111,0.192,0.111,0.325
			c0,0.22-0.146,0.481-0.438,0.788c-0.294,0.308-0.682,0.603-1.169,0.885c-0.409,0.238-0.84,0.417-1.296,0.538
			c-0.453,0.119-0.93,0.179-1.432,0.179c-1.487,0-2.674-0.442-3.562-1.326c-0.887-0.885-1.331-2.066-1.331-3.545
			c0-1.622,0.525-2.98,1.578-4.078c1.054-1.095,2.354-1.643,3.897-1.643c1.176,0,2.081,0.243,2.716,0.729s0.952,1.173,0.952,2.062
			c0,1.051-0.586,1.881-1.76,2.49C26.526,54.994,24.709,55.421,22.251,55.668z M22.091,54.58c1.917-0.184,3.324-0.507,4.224-0.968
			c0.899-0.462,1.348-1.083,1.348-1.867c0-0.52-0.182-0.93-0.545-1.226c-0.362-0.298-0.86-0.444-1.495-0.444
			c-1.036,0-1.882,0.403-2.542,1.205c-0.66,0.805-0.987,1.847-0.987,3.13v0.17H22.091z"/>
		<path fill="#092452" d="M34.101,54.366c-0.642-0.703-1.291-1.498-1.949-2.383c-0.66-0.884-1.05-1.384-1.169-1.496
			c-0.092-0.084-0.277-0.194-0.556-0.332s-0.418-0.284-0.418-0.439c0-0.133,0.051-0.225,0.148-0.275
			c0.099-0.048,0.307-0.071,0.624-0.071h2.103c0.333,0,0.553,0.023,0.661,0.071c0.109,0.051,0.164,0.143,0.164,0.275
			c0,0.084-0.094,0.208-0.279,0.371c-0.188,0.162-0.281,0.309-0.281,0.444c0,0.197,0.178,0.536,0.533,1.013
			c0.356,0.479,0.855,1.045,1.496,1.69c0.578-0.577,1.047-1.12,1.406-1.626c0.36-0.509,0.539-0.866,0.539-1.079
			c0-0.122-0.107-0.26-0.323-0.413c-0.214-0.155-0.322-0.288-0.322-0.403c0-0.133,0.059-0.225,0.176-0.274
			c0.115-0.048,0.353-0.071,0.712-0.071h1.492c0.288,0,0.481,0.021,0.575,0.062c0.096,0.044,0.145,0.122,0.145,0.234
			c0,0.155-0.124,0.293-0.37,0.417c-0.247,0.121-0.42,0.235-0.519,0.344c-0.069,0.07-0.393,0.513-0.968,1.331
			c-0.575,0.817-1.175,1.558-1.803,2.22c0.685,0.74,1.409,1.583,2.173,2.527s1.231,1.487,1.401,1.629
			c0.092,0.085,0.279,0.204,0.564,0.359c0.285,0.156,0.429,0.316,0.429,0.486c0,0.155-0.063,0.264-0.186,0.323
			c-0.123,0.06-0.357,0.089-0.702,0.089h-2.209c-0.247,0-0.429-0.036-0.545-0.112c-0.116-0.073-0.174-0.188-0.174-0.344
			c0-0.126,0.084-0.268,0.254-0.428c0.169-0.158,0.253-0.282,0.253-0.374c0-0.247-0.207-0.628-0.622-1.144
			c-0.417-0.513-1.012-1.127-1.787-1.837c-0.635,0.71-1.117,1.304-1.448,1.78c-0.33,0.477-0.496,0.82-0.496,1.031
			c0,0.189,0.131,0.364,0.391,0.518c0.262,0.155,0.391,0.313,0.391,0.477c0,0.153-0.065,0.266-0.195,0.332
			c-0.131,0.066-0.341,0.101-0.628,0.101H30.57c-0.211,0-0.364-0.036-0.461-0.105c-0.094-0.073-0.142-0.181-0.142-0.327
			c0-0.206,0.186-0.39,0.56-0.55c0.374-0.163,0.616-0.312,0.73-0.444c0.077-0.092,0.232-0.301,0.465-0.624
			C32.525,56.211,33.319,55.221,34.101,54.366z"/>
		<path fill="#092452" d="M48.562,57.719c-0.465,0.655-1.035,1.147-1.713,1.479c-0.677,0.333-1.453,0.498-2.335,0.498
			c-1.051,0-1.884-0.28-2.5-0.841c-0.616-0.56-0.926-1.313-0.926-2.257c0-1.29,0.571-2.28,1.714-2.97
			c1.141-0.692,2.786-1.038,4.936-1.038h0.475c-0.083-0.747-0.399-1.329-0.947-1.748c-0.545-0.419-1.262-0.63-2.148-0.63
			c-0.509,0-1.052,0.172-1.63,0.509c-0.577,0.339-0.95,0.508-1.12,0.508c-0.197,0-0.36-0.055-0.49-0.164
			c-0.131-0.11-0.197-0.248-0.197-0.417c0-0.445,0.328-0.812,0.983-1.104c0.656-0.291,1.512-0.438,2.569-0.438
			c1.74,0,2.998,0.405,3.768,1.221c0.772,0.813,1.158,2.146,1.158,4.001v3.224c0,0.155,0.022,0.279,0.063,0.375
			c0.043,0.095,0.151,0.216,0.327,0.364c0.064,0.042,0.166,0.095,0.308,0.161c0.315,0.14,0.477,0.309,0.477,0.506
			c0,0.211-0.115,0.355-0.344,0.429c-0.229,0.073-0.802,0.109-1.719,0.109c-0.269,0-0.453-0.05-0.555-0.153
			c-0.104-0.101-0.154-0.286-0.154-0.554L48.562,57.719L48.562,57.719z M48.435,53.564H48.15c-1.649,0-2.924,0.259-3.822,0.777
			c-0.898,0.518-1.348,1.248-1.348,2.192c0,0.57,0.195,1.038,0.586,1.399c0.391,0.364,0.902,0.546,1.527,0.546
			c0.353,0,0.699-0.046,1.043-0.138c0.341-0.09,0.646-0.218,0.913-0.38c0.521-0.323,0.882-0.67,1.084-1.036s0.301-0.88,0.301-1.542
			V53.564z"/>
		<path fill="#092452" d="M53.331,57.221V52.57c0-0.444-0.033-0.759-0.102-0.941c-0.066-0.184-0.177-0.33-0.332-0.444
			c-0.114-0.092-0.283-0.186-0.509-0.284c-0.322-0.149-0.485-0.328-0.485-0.541c0-0.083,0.046-0.188,0.138-0.312
			c0.09-0.121,0.219-0.245,0.379-0.364c0.226-0.177,0.432-0.314,0.617-0.412c0.188-0.099,0.335-0.149,0.44-0.149
			c0.323,0,0.602,0.261,0.829,0.783c0.229,0.521,0.365,1.213,0.408,2.071c0.359-0.93,0.785-1.647,1.278-2.155
			c0.495-0.509,1.003-0.761,1.532-0.761c0.374,0,0.664,0.137,0.869,0.417c0.203,0.277,0.307,0.673,0.307,1.188
			c0,0.163-0.053,0.296-0.153,0.403c-0.104,0.105-0.236,0.158-0.396,0.158c-0.171,0-0.401-0.073-0.694-0.218
			c-0.292-0.145-0.498-0.218-0.616-0.218c-0.465,0-0.892,0.395-1.274,1.185c-0.385,0.788-0.577,1.751-0.577,2.885v2.316
			c0,0.444,0.026,0.733,0.08,0.866c0.053,0.135,0.146,0.229,0.278,0.286c0.106,0.041,0.271,0.092,0.498,0.146
			c0.429,0.115,0.645,0.287,0.645,0.521c0,0.14-0.055,0.24-0.164,0.3c-0.108,0.06-0.314,0.09-0.617,0.09h-2.706
			c-0.297,0-0.494-0.025-0.592-0.078c-0.099-0.053-0.148-0.151-0.148-0.291c0-0.184,0.158-0.353,0.475-0.509
			c0.171-0.085,0.293-0.151,0.37-0.199c0.085-0.058,0.143-0.142,0.173-0.254c0.032-0.115,0.048-0.305,0.048-0.57v-0.264H53.331z"/>
		<path fill="#092452" d="M60.646,51.768c0-0.255-0.026-0.431-0.079-0.529c-0.054-0.099-0.157-0.197-0.312-0.296
			c-0.064-0.043-0.159-0.096-0.284-0.16c-0.255-0.126-0.383-0.259-0.383-0.401c0-0.105,0.039-0.201,0.112-0.284
			c0.073-0.084,0.203-0.176,0.386-0.274l0.148-0.085c0.858-0.451,1.431-0.676,1.712-0.676c0.148,0,0.25,0.066,0.309,0.201
			c0.055,0.134,0.084,0.442,0.084,0.931v7.421c0,0.182,0.021,0.335,0.062,0.454c0.042,0.119,0.105,0.201,0.19,0.242
			c0.099,0.044,0.22,0.092,0.359,0.149c0.367,0.146,0.551,0.32,0.551,0.518c0,0.156-0.061,0.262-0.18,0.321
			c-0.121,0.06-0.346,0.089-0.676,0.089h-2.277c-0.303,0-0.509-0.029-0.617-0.089c-0.109-0.06-0.164-0.161-0.164-0.301
			c0-0.107,0.027-0.199,0.085-0.274c0.055-0.078,0.158-0.153,0.307-0.223c0.057-0.027,0.133-0.063,0.231-0.105
			c0.289-0.121,0.434-0.366,0.434-0.74v-5.888H60.646z M60.064,46.006c0-0.323,0.115-0.589,0.344-0.793
			c0.228-0.203,0.527-0.307,0.894-0.307c0.359,0,0.65,0.104,0.873,0.307c0.22,0.204,0.332,0.468,0.332,0.793
			c0,0.339-0.113,0.609-0.339,0.809c-0.225,0.202-0.521,0.301-0.887,0.301c-0.374,0-0.672-0.099-0.89-0.301
			C60.172,46.613,60.064,46.344,60.064,46.006z"/>
		<path fill="#092452" d="M64.314,57.423c0-0.204,0.066-0.371,0.195-0.504c0.13-0.128,0.295-0.194,0.492-0.194
			c0.219,0,0.479,0.189,0.781,0.57c0.092,0.105,0.164,0.19,0.213,0.254c0.289,0.323,0.612,0.568,0.972,0.729
			c0.361,0.165,0.766,0.243,1.217,0.243c0.635,0,1.152-0.165,1.558-0.495c0.407-0.332,0.609-0.758,0.609-1.28
			c0-0.733-0.831-1.3-2.495-1.702c-0.092-0.021-0.167-0.037-0.222-0.053c-1.036-0.253-1.776-0.596-2.221-1.024
			c-0.443-0.431-0.664-1.013-0.664-1.746c0-0.944,0.317-1.697,0.952-2.266c0.633-0.568,1.483-0.853,2.548-0.853
			c1.014,0,1.797,0.146,2.352,0.438c0.555,0.293,0.829,0.706,0.829,1.232c0,0.39-0.027,0.648-0.084,0.777
			c-0.057,0.13-0.165,0.196-0.328,0.196c-0.19,0-0.415-0.155-0.675-0.465c-0.106-0.119-0.19-0.211-0.256-0.274
			c-0.268-0.275-0.584-0.486-0.95-0.635c-0.367-0.149-0.761-0.221-1.185-0.221c-0.509,0-0.931,0.147-1.269,0.438
			c-0.339,0.293-0.507,0.657-0.507,1.095c0,0.366,0.11,0.655,0.332,0.866c0.221,0.211,0.65,0.405,1.285,0.582
			c0.204,0.055,0.492,0.131,0.866,0.22c0.922,0.22,1.536,0.426,1.839,0.623c0.437,0.282,0.762,0.614,0.978,0.997
			c0.215,0.378,0.322,0.811,0.322,1.299c0,1.021-0.344,1.847-1.031,2.479c-0.688,0.63-1.59,0.946-2.713,0.946
			c-0.95,0-1.812-0.257-2.584-0.766C64.702,58.42,64.314,57.916,64.314,57.423z"/>
	</g>
	<path fill="#092452" d="M73.248,57.036c0.001-1.753,1.438-3.114,3.277-3.109c1.755,0.002,3.155,1.386,3.157,3.118
		c0.004,1.796-1.411,3.159-3.282,3.152C74.659,60.19,73.247,58.772,73.248,57.036z M76.508,59.565c1.348,0,2.393-1.1,2.383-2.505
		c-0.011-1.418-1.093-2.54-2.439-2.524c-1.351,0.014-2.415,1.127-2.415,2.521C74.038,58.483,75.106,59.572,76.508,59.565z"/>
	<path fill="#092452" d="M75.262,55.555c0.67-0.085,1.336-0.192,1.997,0.009c0.345,0.105,0.556,0.351,0.581,0.731
		c0.024,0.362-0.158,0.594-0.473,0.742c-0.043,0.022-0.083,0.046-0.161,0.09c0.63,0.325,0.486,0.998,0.77,1.537
		c-0.26,0-0.476,0.009-0.69-0.007c-0.053-0.005-0.119-0.092-0.143-0.153c-0.062-0.168-0.109-0.342-0.15-0.516
		c-0.112-0.454-0.238-0.555-0.708-0.557c-0.095,0-0.187,0-0.319,0c0,0.412,0,0.806,0,1.219c-0.256,0-0.472,0-0.705,0
		C75.262,57.62,75.262,56.6,75.262,55.555z M76.009,56.944c0.245-0.021,0.466-0.023,0.678-0.064
		c0.227-0.046,0.393-0.188,0.383-0.439c-0.01-0.245-0.166-0.401-0.399-0.431c-0.212-0.028-0.43-0.005-0.661-0.005
		C76.009,56.314,76.009,56.6,76.009,56.944z"/>
</g>
</svg>
