<?xml version="1.0" encoding="utf-8"?>
<!-- Generator: Adobe Illustrator 16.0.0, SVG Export Plug-In . SVG Version: 6.00 Build 0)  -->
<!DOCTYPE svg PUBLIC "-//W3C//DTD SVG 1.1//EN" "http://www.w3.org/Graphics/SVG/1.1/DTD/svg11.dtd">
<svg version="1.1" id="Capa_1" xmlns="http://www.w3.org/2000/svg" xmlns:xlink="http://www.w3.org/1999/xlink" x="0px" y="0px"
	 width="100px" height="76.74px" viewBox="0 0 100 76.74" enable-background="new 0 0 100 76.74" xml:space="preserve">
<g>
	<g>
		<g>
			<circle fill-rule="evenodd" clip-rule="evenodd" fill="#D81F26" cx="56.422" cy="29.282" r="2.662"/>
		</g>
		<g>
			<circle fill-rule="evenodd" clip-rule="evenodd" fill="#D81F26" cx="52.782" cy="25.761" r="1.781"/>
		</g>
		<g>
			<circle fill-rule="evenodd" clip-rule="evenodd" fill="#D81F26" cx="67.304" cy="40.56" r="4.428"/>
		</g>
		<g>
			<circle fill-rule="evenodd" clip-rule="evenodd" fill="#D81F26" cx="61.333" cy="34.225" r="3.525"/>
		</g>
	</g>
	<g>
		<g>
			<circle fill-rule="evenodd" clip-rule="evenodd" fill="#D81F26" cx="44.017" cy="29.336" r="2.662"/>
		</g>
		<g>
			<circle fill-rule="evenodd" clip-rule="evenodd" fill="#D81F26" cx="47.603" cy="25.761" r="1.781"/>
		</g>
		<g>
			<circle fill-rule="evenodd" clip-rule="evenodd" fill="#D81F26" cx="33.073" cy="40.56" r="4.428"/>
		</g>
		<g>
			<circle fill-rule="evenodd" clip-rule="evenodd" fill="#D81F26" cx="39.135" cy="34.391" r="3.525"/>
		</g>
	</g>
	<g>
		<g>
			<circle fill-rule="evenodd" clip-rule="evenodd" fill="#D81F26" cx="56.32" cy="17.016" r="2.662"/>
		</g>
		<g>
			<circle fill-rule="evenodd" clip-rule="evenodd" fill="#D81F26" cx="52.76" cy="20.575" r="1.781"/>
		</g>
		<g>
			<circle fill-rule="evenodd" clip-rule="evenodd" fill="#D81F26" cx="67.473" cy="6.03" r="4.428"/>
		</g>
		<g>
			<circle fill-rule="evenodd" clip-rule="evenodd" fill="#D81F26" cx="61.293" cy="12.139" r="3.525"/>
		</g>
	</g>
	<g>
		<g>
			<circle fill-rule="evenodd" clip-rule="evenodd" fill="#D81F26" cx="44.102" cy="16.936" r="2.662"/>
		</g>
		<g>
			<circle fill-rule="evenodd" clip-rule="evenodd" fill="#D81F26" cx="47.574" cy="20.553" r="1.781"/>
		</g>
		<g>
			<circle fill-rule="evenodd" clip-rule="evenodd" fill="#D81F26" cx="32.732" cy="6.06" r="4.428"/>
		</g>
		<g>
			<circle fill-rule="evenodd" clip-rule="evenodd" fill="#D81F26" cx="39.004" cy="12.073" r="3.524"/>
		</g>
	</g>
</g>
<g>
	<path fill="#FFFFFF" d="M23.501,59.022c0.199,0.934,0.625,1.672,1.28,2.219c0.654,0.547,1.436,0.82,2.345,0.82
		c0.486,0,0.945-0.061,1.375-0.18c0.431-0.121,0.853-0.307,1.268-0.562c0.199-0.119,0.446-0.291,0.742-0.516
		c0.407-0.293,0.673-0.441,0.801-0.441c0.127,0,0.233,0.047,0.317,0.143s0.126,0.221,0.126,0.371c0,0.248-0.166,0.545-0.497,0.893
		c-0.331,0.346-0.771,0.68-1.322,0.998c-0.462,0.271-0.951,0.475-1.465,0.609c-0.514,0.137-1.055,0.203-1.621,0.203
		c-1.683,0-3.026-0.5-4.031-1.5c-1.005-1.002-1.507-2.34-1.507-4.014c0-1.834,0.596-3.371,1.789-4.611
		c1.192-1.24,2.662-1.861,4.408-1.861c1.332,0,2.357,0.275,3.075,0.826s1.076,1.328,1.076,2.332c0,1.189-0.664,2.129-1.992,2.818
		C28.34,58.259,26.284,58.743,23.501,59.022z M23.322,57.79c2.169-0.207,3.762-0.572,4.779-1.094
		c1.017-0.523,1.525-1.227,1.525-2.111c0-0.592-0.205-1.053-0.616-1.389c-0.411-0.334-0.975-0.502-1.692-0.502
		c-1.172,0-2.131,0.455-2.877,1.363c-0.746,0.91-1.119,2.09-1.119,3.541V57.79z"/>
	<path fill="#FFFFFF" d="M34.997,60.913c0.909-1.277,1.806-2.396,2.691-3.361c-0.726-0.799-1.461-1.697-2.207-2.699
		c-0.746-1-1.187-1.564-1.322-1.691c-0.104-0.096-0.313-0.221-0.628-0.377c-0.315-0.156-0.473-0.32-0.473-0.496
		c0-0.152,0.056-0.256,0.167-0.311c0.111-0.057,0.347-0.084,0.706-0.084h2.38c0.375,0,0.624,0.027,0.748,0.084
		c0.124,0.055,0.186,0.158,0.186,0.311c0,0.096-0.106,0.234-0.317,0.418c-0.211,0.184-0.317,0.352-0.317,0.502
		c0,0.225,0.201,0.607,0.604,1.148c0.403,0.543,0.967,1.182,1.692,1.914c0.654-0.654,1.185-1.268,1.592-1.842
		c0.406-0.574,0.609-0.98,0.609-1.221c0-0.135-0.121-0.291-0.364-0.467c-0.243-0.174-0.365-0.326-0.365-0.453
		c0-0.152,0.065-0.256,0.197-0.311c0.132-0.057,0.4-0.084,0.808-0.084h1.687c0.327,0,0.545,0.023,0.652,0.07
		c0.107,0.049,0.161,0.137,0.161,0.264c0,0.176-0.14,0.334-0.419,0.473s-0.475,0.27-0.586,0.389
		c-0.079,0.08-0.444,0.582-1.095,1.508c-0.65,0.924-1.329,1.762-2.039,2.512c0.773,0.838,1.593,1.791,2.458,2.859
		s1.394,1.682,1.585,1.842c0.104,0.096,0.317,0.23,0.641,0.406c0.322,0.176,0.484,0.359,0.484,0.551c0,0.176-0.07,0.297-0.21,0.365
		c-0.14,0.066-0.404,0.102-0.795,0.102h-2.5c-0.279,0-0.485-0.043-0.616-0.127c-0.132-0.082-0.197-0.213-0.197-0.389
		c0-0.143,0.095-0.305,0.287-0.484c0.19-0.18,0.287-0.32,0.287-0.424c0-0.279-0.235-0.709-0.706-1.293
		c-0.471-0.582-1.145-1.275-2.021-2.08c-0.718,0.805-1.265,1.477-1.639,2.016c-0.375,0.537-0.562,0.926-0.562,1.166
		c0,0.215,0.148,0.41,0.443,0.586s0.442,0.355,0.442,0.539c0,0.176-0.074,0.301-0.221,0.377c-0.147,0.074-0.385,0.113-0.711,0.113
		h-2.5c-0.239,0-0.413-0.041-0.52-0.119c-0.107-0.08-0.162-0.205-0.162-0.371c0-0.232,0.212-0.439,0.634-0.623
		c0.423-0.184,0.698-0.35,0.826-0.502C34.558,61.515,34.733,61.278,34.997,60.913L34.997,60.913z"/>
	<path fill="#FFFFFF" d="M54.053,61.343c-0.526,0.742-1.172,1.301-1.938,1.676c-0.766,0.373-1.647,0.561-2.645,0.561
		c-1.188,0-2.131-0.316-2.828-0.951c-0.698-0.633-1.047-1.484-1.047-2.553c0-1.459,0.646-2.58,1.938-3.361s3.154-1.172,5.587-1.172
		h0.538c-0.096-0.846-0.453-1.506-1.071-1.98s-1.429-0.713-2.434-0.713c-0.574,0-1.188,0.193-1.842,0.576
		c-0.654,0.383-1.077,0.574-1.269,0.574c-0.224,0-0.409-0.062-0.557-0.186c-0.147-0.125-0.221-0.281-0.221-0.473
		c0-0.504,0.37-0.92,1.112-1.25c0.741-0.332,1.71-0.498,2.906-0.498c1.97,0,3.392,0.461,4.265,1.383
		c0.874,0.922,1.311,2.43,1.311,4.527v3.648c0,0.176,0.023,0.316,0.071,0.426c0.048,0.107,0.172,0.244,0.371,0.412
		c0.071,0.047,0.188,0.107,0.347,0.18c0.359,0.158,0.538,0.35,0.538,0.574c0,0.238-0.129,0.4-0.389,0.484
		c-0.259,0.084-0.907,0.125-1.943,0.125c-0.304,0-0.513-0.059-0.628-0.174c-0.116-0.115-0.174-0.324-0.174-0.627V61.343z
		 M53.909,56.642h-0.323c-1.866,0-3.308,0.293-4.324,0.879s-1.525,1.414-1.525,2.482c0,0.646,0.222,1.174,0.664,1.586
		c0.442,0.41,1.019,0.615,1.729,0.615c0.399,0,0.792-0.051,1.179-0.156c0.387-0.104,0.731-0.246,1.034-0.43
		c0.591-0.367,0.999-0.758,1.227-1.172c0.228-0.416,0.341-0.998,0.341-1.748V56.642z"/>
	<path fill="#FFFFFF" d="M59.447,60.78v-5.264c0-0.502-0.037-0.855-0.113-1.064c-0.075-0.207-0.201-0.375-0.377-0.502
		c-0.128-0.104-0.318-0.211-0.574-0.322c-0.366-0.168-0.55-0.371-0.55-0.611c0-0.096,0.052-0.213,0.155-0.352
		c0.104-0.141,0.247-0.277,0.431-0.414c0.255-0.199,0.488-0.354,0.7-0.467c0.211-0.111,0.377-0.166,0.496-0.166
		c0.366,0,0.68,0.295,0.938,0.885c0.26,0.59,0.413,1.371,0.461,2.344c0.407-1.053,0.89-1.865,1.447-2.439
		c0.559-0.574,1.137-0.861,1.734-0.861c0.423,0,0.75,0.158,0.981,0.473s0.347,0.764,0.347,1.346c0,0.184-0.058,0.334-0.174,0.455
		c-0.115,0.119-0.265,0.18-0.448,0.18c-0.191,0-0.452-0.082-0.783-0.246s-0.564-0.246-0.7-0.246c-0.526,0-1.007,0.447-1.441,1.34
		c-0.435,0.895-0.651,1.982-0.651,3.266v2.621c0,0.502,0.029,0.83,0.09,0.98c0.06,0.152,0.165,0.26,0.316,0.322
		c0.12,0.049,0.307,0.104,0.562,0.168c0.486,0.127,0.729,0.322,0.729,0.586c0,0.16-0.062,0.273-0.186,0.342
		c-0.123,0.066-0.357,0.102-0.699,0.102h-3.062c-0.335,0-0.559-0.029-0.67-0.09s-0.168-0.17-0.168-0.33
		c0-0.207,0.18-0.398,0.538-0.574c0.192-0.096,0.331-0.17,0.419-0.227c0.096-0.064,0.162-0.16,0.197-0.287
		c0.036-0.127,0.054-0.344,0.054-0.646V60.78z"/>
	<path fill="#FFFFFF" d="M67.726,54.608c0-0.287-0.029-0.486-0.09-0.598c-0.06-0.111-0.177-0.225-0.353-0.336
		c-0.071-0.047-0.18-0.107-0.323-0.18c-0.287-0.143-0.431-0.295-0.431-0.453c0-0.121,0.042-0.229,0.126-0.324
		s0.229-0.199,0.437-0.311l0.167-0.096c0.974-0.51,1.619-0.766,1.938-0.766c0.167,0,0.283,0.076,0.347,0.227
		c0.063,0.152,0.096,0.504,0.096,1.053v8.398c0,0.207,0.023,0.379,0.071,0.514c0.049,0.137,0.12,0.229,0.216,0.275
		c0.111,0.049,0.247,0.104,0.406,0.168c0.415,0.168,0.623,0.363,0.623,0.586c0,0.176-0.068,0.297-0.204,0.365
		c-0.136,0.066-0.391,0.102-0.766,0.102h-2.572c-0.343,0-0.575-0.035-0.699-0.102c-0.124-0.068-0.186-0.182-0.186-0.342
		c0-0.119,0.032-0.223,0.096-0.311s0.18-0.172,0.347-0.252c0.064-0.031,0.151-0.072,0.264-0.119c0.327-0.135,0.49-0.414,0.49-0.838
		V54.608z M67.068,48.089c0-0.367,0.129-0.666,0.388-0.896c0.26-0.232,0.597-0.348,1.011-0.348c0.407,0,0.736,0.115,0.987,0.348
		c0.251,0.23,0.377,0.529,0.377,0.896c0,0.383-0.128,0.688-0.383,0.914c-0.255,0.229-0.591,0.342-1.005,0.342
		c-0.423,0-0.758-0.113-1.005-0.342C67.191,48.776,67.068,48.472,67.068,48.089z"/>
	<path fill="#FFFFFF" d="M71.877,61.009c0-0.232,0.073-0.422,0.221-0.568c0.147-0.148,0.333-0.223,0.557-0.223
		c0.247,0,0.542,0.217,0.885,0.646c0.104,0.119,0.184,0.215,0.239,0.287c0.327,0.367,0.693,0.643,1.101,0.826
		s0.865,0.275,1.376,0.275c0.718,0,1.306-0.188,1.765-0.562c0.458-0.375,0.688-0.857,0.688-1.447c0-0.83-0.941-1.473-2.823-1.926
		c-0.104-0.025-0.188-0.045-0.251-0.061c-1.173-0.287-2.01-0.674-2.513-1.16c-0.502-0.486-0.753-1.145-0.753-1.975
		c0-1.068,0.358-1.924,1.076-2.564c0.718-0.643,1.679-0.965,2.883-0.965c1.148,0,2.036,0.166,2.662,0.498
		c0.626,0.33,0.938,0.795,0.938,1.393c0,0.439-0.031,0.732-0.096,0.879c-0.063,0.148-0.187,0.223-0.37,0.223
		c-0.216,0-0.471-0.176-0.766-0.527c-0.12-0.135-0.216-0.238-0.287-0.311c-0.304-0.311-0.662-0.551-1.077-0.717
		c-0.415-0.168-0.861-0.252-1.339-0.252c-0.575,0-1.053,0.166-1.437,0.496c-0.383,0.33-0.573,0.744-0.573,1.238
		c0,0.414,0.125,0.742,0.376,0.98c0.252,0.24,0.736,0.459,1.453,0.658c0.232,0.064,0.559,0.148,0.981,0.252
		c1.045,0.246,1.738,0.482,2.081,0.705c0.495,0.318,0.863,0.693,1.106,1.125c0.244,0.43,0.365,0.92,0.365,1.471
		c0,1.156-0.389,2.092-1.166,2.805c-0.778,0.715-1.801,1.07-3.068,1.07c-1.076,0-2.052-0.289-2.925-0.867
		S71.877,61.565,71.877,61.009z"/>
</g>
<g>
	<path fill="#FFFFFF" d="M39.751,72.694c0-0.082,0.025-0.15,0.078-0.201c0.052-0.053,0.117-0.078,0.196-0.078
		c0.087,0,0.191,0.076,0.312,0.229c0.036,0.041,0.064,0.076,0.084,0.102c0.115,0.129,0.245,0.227,0.389,0.291
		s0.306,0.098,0.485,0.098c0.254,0,0.461-0.066,0.623-0.199s0.243-0.303,0.243-0.512c0-0.293-0.333-0.52-0.997-0.68
		c-0.036-0.008-0.066-0.016-0.089-0.021c-0.413-0.102-0.709-0.236-0.887-0.408c-0.177-0.172-0.266-0.404-0.266-0.697
		c0-0.377,0.126-0.68,0.38-0.906c0.253-0.227,0.593-0.34,1.018-0.34c0.405,0,0.719,0.059,0.939,0.176
		c0.222,0.117,0.332,0.281,0.332,0.492c0,0.154-0.012,0.258-0.034,0.311c-0.022,0.051-0.066,0.078-0.131,0.078
		c-0.076,0-0.166-0.062-0.27-0.188c-0.043-0.047-0.076-0.084-0.102-0.109c-0.107-0.109-0.234-0.193-0.38-0.254
		c-0.146-0.059-0.305-0.088-0.474-0.088c-0.202,0-0.372,0.059-0.507,0.176s-0.202,0.262-0.202,0.436
		c0,0.148,0.044,0.264,0.133,0.348s0.26,0.162,0.513,0.232c0.082,0.021,0.197,0.051,0.347,0.088c0.368,0.088,0.613,0.17,0.734,0.25
		c0.175,0.111,0.305,0.244,0.391,0.396s0.129,0.324,0.129,0.52c0,0.408-0.137,0.738-0.411,0.99s-0.636,0.377-1.084,0.377
		c-0.38,0-0.724-0.102-1.032-0.305C39.904,73.091,39.751,72.892,39.751,72.694z"/>
	<path fill="#FFFFFF" d="M46.182,72.812c-0.186,0.262-0.413,0.459-0.684,0.592s-0.582,0.197-0.934,0.197
		c-0.419,0-0.752-0.111-0.998-0.334c-0.247-0.225-0.37-0.525-0.37-0.902c0-0.516,0.229-0.91,0.685-1.188
		c0.456-0.275,1.113-0.414,1.972-0.414h0.19c-0.034-0.297-0.16-0.531-0.378-0.697c-0.219-0.168-0.505-0.252-0.859-0.252
		c-0.203,0-0.42,0.066-0.65,0.203c-0.231,0.135-0.38,0.203-0.447,0.203c-0.079,0-0.145-0.023-0.197-0.066
		c-0.052-0.043-0.077-0.1-0.077-0.166c0-0.178,0.131-0.324,0.393-0.441s0.604-0.176,1.025-0.176c0.695,0,1.197,0.162,1.506,0.488
		c0.309,0.324,0.462,0.857,0.462,1.598v1.289c0,0.061,0.009,0.111,0.025,0.148c0.018,0.039,0.061,0.088,0.132,0.146
		c0.025,0.016,0.065,0.037,0.122,0.062c0.127,0.057,0.189,0.125,0.189,0.203c0,0.084-0.045,0.141-0.137,0.172
		c-0.092,0.029-0.32,0.043-0.687,0.043c-0.106,0-0.181-0.02-0.222-0.061s-0.062-0.115-0.062-0.221V72.812z M46.132,71.151h-0.114
		c-0.659,0-1.168,0.104-1.526,0.311c-0.359,0.207-0.539,0.5-0.539,0.877c0,0.229,0.078,0.414,0.234,0.559
		c0.156,0.146,0.359,0.219,0.61,0.219c0.141,0,0.279-0.02,0.416-0.055c0.137-0.037,0.259-0.088,0.365-0.152
		c0.208-0.129,0.353-0.268,0.433-0.414c0.081-0.146,0.121-0.352,0.121-0.617V71.151z"/>
	<path fill="#FFFFFF" d="M49.012,73.479h-1.081c-0.082,0-0.141-0.014-0.178-0.041c-0.037-0.025-0.055-0.07-0.055-0.133
		c0-0.096,0.099-0.18,0.296-0.254c0.036-0.014,0.063-0.023,0.08-0.029c0.036-0.016,0.062-0.053,0.076-0.109
		c0.014-0.057,0.021-0.15,0.021-0.283v-2.652h-0.338c-0.109,0-0.187-0.018-0.232-0.057c-0.045-0.037-0.067-0.104-0.067-0.195
		c0-0.094,0.022-0.158,0.067-0.195c0.046-0.037,0.123-0.055,0.232-0.055h0.338v-0.494c0-0.6,0.111-1.064,0.332-1.396
		c0.221-0.33,0.528-0.496,0.923-0.496c0.18,0,0.322,0.043,0.428,0.127c0.106,0.086,0.158,0.197,0.158,0.338
		c0,0.105-0.031,0.188-0.095,0.252c-0.063,0.062-0.146,0.096-0.246,0.096c-0.091,0-0.161-0.021-0.212-0.064
		c-0.051-0.041-0.087-0.109-0.109-0.203c-0.006-0.025-0.01-0.061-0.013-0.109c-0.003-0.072-0.025-0.109-0.067-0.109
		c-0.13,0-0.234,0.148-0.312,0.447c-0.079,0.299-0.119,0.707-0.119,1.225v0.389h0.536c0.113,0,0.192,0.018,0.237,0.055
		s0.067,0.102,0.067,0.195c0,0.092-0.022,0.158-0.067,0.195c-0.045,0.039-0.124,0.057-0.237,0.057h-0.536v2.645
		c0,0.166,0.009,0.273,0.025,0.32c0.018,0.049,0.047,0.08,0.089,0.098c0.037,0.014,0.094,0.031,0.169,0.051
		c0.152,0.043,0.229,0.107,0.229,0.197c0,0.068-0.025,0.117-0.076,0.146S49.136,73.479,49.012,73.479z"/>
	<path fill="#FFFFFF" d="M50.785,71.993c0.07,0.328,0.221,0.59,0.452,0.783c0.23,0.193,0.507,0.289,0.827,0.289
		c0.172,0,0.334-0.021,0.485-0.064c0.152-0.041,0.302-0.107,0.448-0.197c0.07-0.043,0.157-0.104,0.262-0.182
		c0.144-0.105,0.238-0.156,0.283-0.156s0.082,0.018,0.111,0.051c0.03,0.033,0.045,0.076,0.045,0.131
		c0,0.088-0.059,0.191-0.176,0.314c-0.116,0.123-0.271,0.24-0.467,0.352c-0.163,0.096-0.335,0.168-0.517,0.217
		c-0.182,0.047-0.373,0.07-0.572,0.07c-0.594,0-1.068-0.176-1.423-0.529c-0.355-0.354-0.533-0.826-0.533-1.416
		c0-0.648,0.211-1.191,0.632-1.629s0.939-0.656,1.557-0.656c0.47,0,0.832,0.098,1.085,0.291c0.253,0.195,0.38,0.469,0.38,0.824
		c0,0.42-0.234,0.75-0.703,0.994S51.768,71.894,50.785,71.993z M50.722,71.558c0.766-0.072,1.328-0.201,1.688-0.387
		c0.358-0.184,0.538-0.432,0.538-0.744c0-0.209-0.072-0.373-0.217-0.49c-0.146-0.119-0.345-0.178-0.599-0.178
		c-0.413,0-0.752,0.16-1.016,0.48c-0.263,0.322-0.395,0.738-0.395,1.25V71.558z"/>
	<path fill="#FFFFFF" d="M54.771,72.935V69.97h-0.266c-0.149,0-0.252-0.018-0.309-0.055s-0.084-0.1-0.084-0.189
		c0-0.066,0.019-0.119,0.057-0.158c0.038-0.041,0.088-0.066,0.149-0.074c0.025-0.004,0.058-0.006,0.098-0.01
		c0.18-0.014,0.295-0.049,0.347-0.105c0.062-0.064,0.116-0.297,0.164-0.695c0.015-0.117,0.025-0.207,0.034-0.271
		c0.005-0.033,0.011-0.078,0.017-0.135c0.034-0.285,0.127-0.426,0.278-0.426c0.068,0,0.113,0.021,0.138,0.064
		s0.036,0.168,0.036,0.375v1.186h0.604c0.146,0,0.249,0.02,0.309,0.057c0.059,0.039,0.089,0.102,0.089,0.193
		c0,0.084-0.032,0.145-0.096,0.186c-0.063,0.039-0.164,0.059-0.302,0.059h-0.604v2.514c0,0.168,0.013,0.289,0.04,0.365
		c0.026,0.074,0.074,0.123,0.141,0.145c0.082,0.031,0.237,0.053,0.468,0.066c0.229,0.012,0.344,0.072,0.344,0.18
		c0,0.092-0.026,0.156-0.078,0.189s-0.184,0.051-0.395,0.051h-0.807c-0.152,0-0.252-0.027-0.301-0.08
		C54.796,73.345,54.771,73.19,54.771,72.935z"/>
	<path fill="#FFFFFF" d="M58.872,73.124c-0.079,0.043-0.157,0.074-0.234,0.098c-0.077,0.021-0.155,0.033-0.234,0.033
		c-0.372,0-0.684-0.188-0.938-0.566c-0.253-0.377-0.455-0.951-0.604-1.727c-0.028-0.16-0.054-0.354-0.076-0.58
		s-0.045-0.365-0.067-0.412c-0.028-0.053-0.085-0.111-0.169-0.176c-0.085-0.062-0.127-0.127-0.127-0.191
		c0-0.049,0.025-0.082,0.076-0.1s0.154-0.027,0.312-0.027h0.569c0.195,0,0.317,0.012,0.368,0.033
		c0.051,0.023,0.076,0.066,0.076,0.131c0,0.068-0.044,0.125-0.131,0.174c-0.021,0.012-0.034,0.02-0.043,0.025
		c-0.093,0.057-0.153,0.115-0.182,0.178c-0.027,0.062-0.042,0.176-0.042,0.342c0,0.178,0.027,0.391,0.08,0.637
		c0.054,0.248,0.133,0.518,0.236,0.807c0.121,0.336,0.256,0.582,0.403,0.74c0.148,0.156,0.319,0.236,0.514,0.236
		c0.175,0,0.317-0.055,0.429-0.162c0.11-0.109,0.226-0.316,0.344-0.623c0.107-0.281,0.193-0.582,0.258-0.9s0.097-0.602,0.097-0.85
		c0-0.084-0.01-0.154-0.029-0.211c-0.02-0.055-0.051-0.1-0.093-0.135c-0.033-0.025-0.083-0.053-0.147-0.084
		c-0.11-0.051-0.165-0.111-0.165-0.182c0-0.059,0.023-0.1,0.069-0.123c0.047-0.021,0.145-0.033,0.294-0.033h0.46
		c0.152,0,0.256,0.014,0.312,0.043c0.057,0.027,0.085,0.076,0.085,0.146c0,0.031-0.027,0.082-0.083,0.152
		c-0.055,0.07-0.093,0.139-0.115,0.203c-0.028,0.076-0.073,0.305-0.134,0.686c-0.061,0.383-0.134,0.717-0.222,1.008
		c-0.304,1.02-0.734,1.844-1.29,2.477s-1.108,0.947-1.657,0.947c-0.152,0-0.271-0.031-0.357-0.096
		c-0.086-0.066-0.128-0.154-0.128-0.266c0-0.092,0.033-0.162,0.102-0.215c0.066-0.051,0.16-0.078,0.278-0.078
		c0.033,0,0.089,0.008,0.164,0.021c0.076,0.014,0.137,0.021,0.182,0.021c0.271,0,0.549-0.127,0.834-0.383
		C58.434,73.89,58.675,73.55,58.872,73.124z"/>
</g>
<g>
	<path fill="#FFFFFF" d="M81.624,61.433c0.18,0,0.355,0.047,0.526,0.139s0.304,0.223,0.399,0.395
		c0.095,0.172,0.143,0.35,0.143,0.537c0,0.184-0.047,0.361-0.141,0.531c-0.095,0.17-0.226,0.301-0.396,0.395
		c-0.169,0.094-0.347,0.143-0.532,0.143c-0.185,0-0.362-0.049-0.531-0.143c-0.17-0.094-0.302-0.225-0.396-0.395
		s-0.142-0.348-0.142-0.531c0-0.188,0.048-0.365,0.144-0.537s0.229-0.303,0.4-0.395S81.445,61.433,81.624,61.433z M81.624,61.61
		c-0.15,0-0.296,0.037-0.438,0.115c-0.142,0.076-0.253,0.188-0.333,0.33c-0.081,0.143-0.121,0.291-0.121,0.447
		c0,0.152,0.04,0.301,0.119,0.441c0.078,0.143,0.188,0.252,0.33,0.33c0.142,0.08,0.29,0.119,0.443,0.119
		c0.154,0,0.302-0.039,0.443-0.119c0.143-0.078,0.252-0.188,0.33-0.33c0.079-0.141,0.118-0.289,0.118-0.441
		c0-0.156-0.04-0.305-0.12-0.447s-0.19-0.254-0.334-0.33C81.92,61.647,81.773,61.61,81.624,61.61z M81.155,63.093v-1.15h0.396
		c0.135,0,0.232,0.01,0.293,0.031s0.108,0.059,0.145,0.111s0.054,0.109,0.054,0.17c0,0.084-0.03,0.156-0.09,0.219
		s-0.14,0.098-0.238,0.105c0.04,0.016,0.073,0.037,0.098,0.061c0.046,0.045,0.103,0.121,0.17,0.229l0.14,0.225h-0.227l-0.102-0.182
		c-0.08-0.143-0.145-0.232-0.194-0.268c-0.034-0.025-0.084-0.039-0.148-0.039h-0.109v0.488H81.155z M81.341,62.446h0.226
		c0.107,0,0.181-0.018,0.221-0.049c0.039-0.031,0.059-0.074,0.059-0.127c0-0.035-0.01-0.064-0.029-0.092
		c-0.019-0.027-0.044-0.047-0.078-0.061c-0.033-0.014-0.096-0.02-0.187-0.02h-0.211V62.446z"/>
</g>
</svg>
