<?xml version="1.0" encoding="utf-8"?>
<!-- Generator: Adobe Illustrator 16.0.0, SVG Export Plug-In . SVG Version: 6.00 Build 0)  -->
<!DOCTYPE svg PUBLIC "-//W3C//DTD SVG 1.1 Tiny//EN" "http://www.w3.org/Graphics/SVG/1.1/DTD/svg11-tiny.dtd">
<svg version="1.1" baseProfile="tiny" id="Capa_1" xmlns="http://www.w3.org/2000/svg" xmlns:xlink="http://www.w3.org/1999/xlink"
	 x="0px" y="0px" width="100px" height="72.025px" viewBox="0 0 100 72.025" xml:space="preserve">
<g>
	<circle fill-rule="evenodd" fill="#D81F26" cx="52.552" cy="28.828" r="2.005"/>
	<circle fill-rule="evenodd" fill="#D81F26" cx="49.81" cy="26.175" r="1.342"/>
	<circle fill-rule="evenodd" fill="#D81F26" cx="60.75" cy="37.323" r="3.335"/>
	<circle fill-rule="evenodd" fill="#D81F26" cx="56.252" cy="32.552" r="2.655"/>
</g>
<g>
	<circle fill-rule="evenodd" fill="#D81F26" cx="43.207" cy="28.868" r="2.006"/>
	<circle fill-rule="evenodd" fill="#D81F26" cx="45.909" cy="26.175" r="1.342"/>
	<circle fill-rule="evenodd" fill="#D81F26" cx="34.963" cy="37.323" r="3.336"/>
	<circle fill-rule="evenodd" fill="#D81F26" cx="39.53" cy="32.677" r="2.655"/>
</g>
<g>
	<circle fill-rule="evenodd" fill="#D81F26" cx="52.475" cy="19.588" r="2.006"/>
	<circle fill-rule="evenodd" fill="#D81F26" cx="49.794" cy="22.269" r="1.342"/>
	<circle fill-rule="evenodd" fill="#D81F26" cx="60.877" cy="11.312" r="3.336"/>
	<circle fill-rule="evenodd" fill="#D81F26" cx="56.222" cy="15.913" r="2.655"/>
</g>
<g>
	<circle fill-rule="evenodd" fill="#D81F26" cx="43.271" cy="19.527" r="2.006"/>
	<circle fill-rule="evenodd" fill="#D81F26" cx="45.886" cy="22.252" r="1.342"/>
	<circle fill-rule="evenodd" fill="#D81F26" cx="34.706" cy="11.334" r="3.336"/>
	<circle fill-rule="evenodd" fill="#D81F26" cx="39.431" cy="15.864" r="2.655"/>
</g>
<g>
	<path fill="#092452" d="M28.535,51.234c0.15,0.703,0.471,1.26,0.964,1.672c0.493,0.411,1.082,0.617,1.767,0.617
		c0.366,0,0.712-0.045,1.036-0.136c0.325-0.09,0.643-0.231,0.955-0.423c0.15-0.091,0.336-0.22,0.559-0.388
		c0.306-0.223,0.507-0.334,0.604-0.334s0.176,0.036,0.239,0.108c0.063,0.072,0.095,0.165,0.095,0.279
		c0,0.187-0.125,0.41-0.374,0.672c-0.25,0.261-0.581,0.512-0.996,0.752c-0.349,0.204-0.716,0.357-1.104,0.46
		c-0.388,0.102-0.794,0.153-1.221,0.153c-1.268,0-2.28-0.377-3.037-1.131c-0.757-0.754-1.136-1.763-1.136-3.023
		c0-1.382,0.449-2.54,1.347-3.475c0.898-0.934,2.005-1.401,3.321-1.401c1.003,0,1.775,0.207,2.316,0.622
		c0.541,0.414,0.811,1,0.811,1.757c0,0.896-0.5,1.604-1.5,2.123C32.18,50.659,30.631,51.023,28.535,51.234z M28.399,50.305
		c1.634-0.156,2.834-0.431,3.6-0.824s1.149-0.924,1.149-1.591c0-0.444-0.155-0.793-0.464-1.045
		c-0.309-0.253-0.734-0.379-1.275-0.379c-0.883,0-1.605,0.343-2.167,1.027c-0.562,0.685-0.842,1.574-0.842,2.668V50.305z"/>
	<path fill="#092452" d="M38.637,50.125c-0.547-0.601-1.101-1.278-1.663-2.032c-0.562-0.754-0.894-1.179-0.996-1.275
		c-0.078-0.072-0.236-0.167-0.473-0.284s-0.356-0.241-0.356-0.374c0-0.113,0.042-0.191,0.126-0.234
		c0.084-0.041,0.261-0.062,0.532-0.062H37.6c0.283,0,0.47,0.021,0.563,0.062c0.093,0.043,0.14,0.121,0.14,0.234
		c0,0.072-0.08,0.178-0.239,0.315c-0.159,0.139-0.239,0.265-0.239,0.379c0,0.168,0.151,0.457,0.455,0.865
		c0.303,0.408,0.729,0.889,1.275,1.441c0.493-0.492,0.892-0.955,1.199-1.388c0.306-0.433,0.459-0.738,0.459-0.919
		c0-0.103-0.092-0.22-0.275-0.352s-0.275-0.246-0.275-0.343c0-0.113,0.05-0.191,0.149-0.234c0.099-0.041,0.302-0.062,0.608-0.062
		h1.271c0.246,0,0.41,0.018,0.491,0.054s0.122,0.103,0.122,0.198c0,0.133-0.105,0.251-0.315,0.356
		c-0.21,0.104-0.357,0.202-0.441,0.293c-0.06,0.06-0.335,0.438-0.825,1.135c-0.49,0.697-1.002,1.328-1.537,1.893
		c0.583,0.631,1.2,1.349,1.852,2.154c0.652,0.805,1.05,1.268,1.194,1.388c0.078,0.072,0.239,0.174,0.482,0.307
		c0.243,0.132,0.365,0.27,0.365,0.414c0,0.133-0.053,0.224-0.158,0.275c-0.105,0.051-0.305,0.076-0.599,0.076h-1.883
		c-0.21,0-0.365-0.031-0.464-0.095c-0.099-0.062-0.148-0.16-0.148-0.293c0-0.108,0.072-0.229,0.216-0.365
		c0.144-0.135,0.216-0.241,0.216-0.319c0-0.21-0.177-0.535-0.531-0.974c-0.355-0.438-0.862-0.961-1.523-1.567
		c-0.541,0.606-0.952,1.112-1.234,1.518c-0.282,0.406-0.423,0.699-0.423,0.879c0,0.162,0.111,0.31,0.333,0.441
		c0.223,0.133,0.333,0.268,0.333,0.406c0,0.132-0.056,0.227-0.167,0.283c-0.111,0.058-0.29,0.086-0.536,0.086h-1.884
		c-0.18,0-0.311-0.03-0.392-0.09c-0.081-0.061-0.122-0.153-0.122-0.279c0-0.175,0.159-0.331,0.478-0.469
		c0.318-0.139,0.525-0.265,0.622-0.379c0.066-0.078,0.198-0.255,0.396-0.531C37.294,51.697,37.97,50.852,38.637,50.125z"/>
	<path fill="#092452" d="M50.965,52.982c-0.396,0.559-0.883,0.979-1.46,1.262c-0.577,0.282-1.24,0.424-1.991,0.424
		c-0.896,0-1.606-0.239-2.131-0.717c-0.526-0.478-0.789-1.119-0.789-1.924c0-1.1,0.487-1.943,1.46-2.532s2.376-0.884,4.208-0.884
		h0.405c-0.071-0.637-0.341-1.134-0.807-1.491c-0.465-0.357-1.077-0.536-1.833-0.536c-0.433,0-0.896,0.145-1.388,0.433
		s-0.811,0.433-0.955,0.433c-0.168,0-0.308-0.047-0.419-0.14c-0.111-0.093-0.167-0.212-0.167-0.356c0-0.378,0.279-0.692,0.838-0.941
		s1.289-0.374,2.19-0.374c1.484,0,2.555,0.347,3.212,1.041c0.658,0.694,0.987,1.831,0.987,3.411v2.748
		c0,0.133,0.019,0.239,0.054,0.32c0.037,0.081,0.129,0.185,0.279,0.311c0.055,0.036,0.142,0.081,0.262,0.136
		c0.27,0.12,0.406,0.264,0.406,0.433c0,0.18-0.098,0.302-0.293,0.364c-0.195,0.063-0.684,0.095-1.465,0.095
		c-0.229,0-0.387-0.043-0.473-0.131c-0.088-0.087-0.131-0.244-0.131-0.473V52.982z M50.856,49.44h-0.243
		c-1.406,0-2.492,0.221-3.258,0.663c-0.766,0.441-1.149,1.064-1.149,1.869c0,0.487,0.167,0.885,0.5,1.194s0.768,0.464,1.302,0.464
		c0.3,0,0.596-0.039,0.888-0.117c0.291-0.077,0.551-0.186,0.779-0.324c0.445-0.276,0.752-0.57,0.924-0.883
		c0.172-0.312,0.257-0.751,0.257-1.315V49.44z"/>
	<path fill="#092452" d="M55.029,52.558v-3.965c0-0.379-0.028-0.646-0.086-0.802c-0.057-0.156-0.151-0.282-0.283-0.379
		c-0.097-0.078-0.241-0.159-0.433-0.243c-0.276-0.126-0.415-0.279-0.415-0.46c0-0.072,0.039-0.16,0.117-0.266
		c0.078-0.104,0.187-0.209,0.324-0.311c0.192-0.15,0.368-0.268,0.527-0.352s0.284-0.126,0.374-0.126
		c0.276,0,0.513,0.222,0.708,0.667c0.194,0.444,0.311,1.033,0.347,1.766c0.307-0.793,0.67-1.405,1.09-1.838
		c0.421-0.433,0.856-0.649,1.307-0.649c0.318,0,0.565,0.119,0.739,0.356s0.262,0.575,0.262,1.014c0,0.139-0.044,0.252-0.131,0.343
		c-0.087,0.09-0.2,0.135-0.338,0.135c-0.145,0-0.341-0.062-0.591-0.185c-0.249-0.123-0.425-0.185-0.526-0.185
		c-0.396,0-0.759,0.336-1.086,1.009c-0.328,0.673-0.491,1.493-0.491,2.46v1.974c0,0.379,0.022,0.625,0.067,0.739
		s0.125,0.195,0.238,0.243c0.091,0.036,0.231,0.078,0.424,0.126c0.366,0.097,0.55,0.244,0.55,0.442c0,0.12-0.047,0.205-0.14,0.257
		c-0.093,0.051-0.269,0.076-0.527,0.076H54.75c-0.253,0-0.421-0.022-0.505-0.067s-0.126-0.128-0.126-0.248
		c0-0.156,0.135-0.301,0.405-0.433c0.145-0.072,0.249-0.129,0.315-0.171c0.072-0.048,0.122-0.12,0.148-0.217
		c0.027-0.096,0.041-0.258,0.041-0.486V52.558z"/>
	<path fill="#092452" d="M61.265,47.909c0-0.217-0.022-0.367-0.067-0.451s-0.134-0.168-0.266-0.252
		c-0.055-0.036-0.136-0.081-0.243-0.136c-0.217-0.107-0.325-0.222-0.325-0.342c0-0.091,0.032-0.172,0.095-0.243
		c0.063-0.072,0.173-0.15,0.329-0.234l0.126-0.072c0.733-0.385,1.22-0.577,1.46-0.577c0.126,0,0.213,0.058,0.262,0.172
		c0.048,0.114,0.072,0.378,0.072,0.793v6.326c0,0.156,0.018,0.285,0.054,0.388c0.036,0.102,0.09,0.171,0.162,0.207
		c0.084,0.036,0.187,0.078,0.307,0.126c0.312,0.126,0.469,0.273,0.469,0.441c0,0.133-0.052,0.224-0.153,0.275
		c-0.103,0.051-0.295,0.076-0.577,0.076H61.03c-0.258,0-0.434-0.025-0.527-0.076c-0.093-0.052-0.14-0.137-0.14-0.257
		c0-0.091,0.024-0.169,0.072-0.234c0.048-0.066,0.136-0.13,0.262-0.189c0.048-0.024,0.114-0.055,0.198-0.09
		c0.246-0.103,0.369-0.312,0.369-0.631V47.909z M60.77,42.997c0-0.276,0.098-0.501,0.292-0.676c0.195-0.174,0.449-0.261,0.762-0.261
		c0.307,0,0.555,0.087,0.744,0.261c0.188,0.175,0.283,0.399,0.283,0.676c0,0.289-0.096,0.519-0.288,0.689
		c-0.192,0.172-0.444,0.257-0.757,0.257c-0.318,0-0.571-0.085-0.757-0.257C60.862,43.515,60.77,43.286,60.77,42.997z"/>
	<path fill="#092452" d="M64.393,52.73c0-0.175,0.056-0.317,0.166-0.429c0.111-0.11,0.251-0.166,0.42-0.166
		c0.186,0,0.408,0.162,0.666,0.486c0.078,0.09,0.139,0.162,0.181,0.216c0.246,0.276,0.522,0.484,0.829,0.622
		c0.307,0.139,0.651,0.207,1.036,0.207c0.541,0,0.983-0.141,1.329-0.423c0.346-0.283,0.519-0.646,0.519-1.091
		c0-0.625-0.709-1.108-2.127-1.451c-0.078-0.018-0.142-0.032-0.189-0.045c-0.883-0.216-1.514-0.508-1.893-0.874
		c-0.378-0.366-0.567-0.862-0.567-1.487c0-0.805,0.271-1.449,0.812-1.933c0.54-0.483,1.265-0.726,2.172-0.726
		c0.864,0,1.533,0.125,2.005,0.374s0.707,0.6,0.707,1.05c0,0.331-0.024,0.552-0.072,0.662c-0.048,0.111-0.141,0.167-0.279,0.167
		c-0.162,0-0.354-0.132-0.576-0.396c-0.091-0.102-0.162-0.18-0.217-0.234c-0.229-0.234-0.499-0.414-0.811-0.54
		c-0.312-0.127-0.649-0.189-1.01-0.189c-0.433,0-0.793,0.125-1.081,0.374c-0.289,0.249-0.433,0.56-0.433,0.933
		c0,0.312,0.095,0.559,0.284,0.739c0.188,0.18,0.554,0.345,1.095,0.495c0.174,0.048,0.42,0.111,0.738,0.189
		c0.787,0.187,1.31,0.363,1.568,0.531c0.372,0.24,0.65,0.522,0.834,0.848c0.183,0.324,0.274,0.693,0.274,1.108
		c0,0.871-0.293,1.575-0.879,2.113c-0.585,0.537-1.355,0.807-2.312,0.807c-0.811,0-1.545-0.218-2.203-0.653
		C64.722,53.579,64.393,53.15,64.393,52.73z"/>
</g>
<g>
	<path fill="#092452" d="M3.471,59.919c0.152,0,0.258,0.017,0.319,0.05c0.06,0.033,0.09,0.088,0.09,0.164
		c0,0.089-0.081,0.176-0.243,0.262c-0.07,0.038-0.122,0.068-0.157,0.091c-0.06,0.038-0.103,0.096-0.128,0.174
		c-0.025,0.077-0.038,0.199-0.038,0.364v4.827c0,0.14,0.007,0.244,0.021,0.312c0.014,0.068,0.039,0.127,0.074,0.174
		c0.028,0.038,0.114,0.094,0.257,0.167c0.143,0.073,0.214,0.154,0.214,0.243c0,0.079-0.03,0.135-0.09,0.166
		c-0.061,0.032-0.167,0.048-0.319,0.048h-1.19c-0.156,0-0.263-0.016-0.321-0.048c-0.059-0.031-0.088-0.087-0.088-0.166
		c0-0.086,0.081-0.172,0.243-0.258c0.073-0.038,0.128-0.069,0.167-0.095c0.057-0.038,0.098-0.097,0.124-0.177
		c0.025-0.079,0.038-0.201,0.038-0.366v-4.827c0-0.14-0.007-0.243-0.021-0.31c-0.015-0.066-0.039-0.124-0.074-0.172
		c-0.032-0.038-0.119-0.094-0.262-0.166c-0.143-0.073-0.214-0.154-0.214-0.243c0-0.076,0.029-0.131,0.088-0.164
		s0.166-0.05,0.321-0.05H3.471z"/>
	<path fill="#092452" d="M5.047,66.151v-2.176c0-0.308-0.011-0.509-0.034-0.602C4.991,63.28,4.95,63.21,4.89,63.166
		c-0.038-0.028-0.111-0.063-0.219-0.106s-0.162-0.101-0.162-0.174c0-0.086,0.096-0.2,0.288-0.343
		c0.192-0.143,0.35-0.215,0.474-0.215c0.089,0,0.169,0.066,0.243,0.198s0.138,0.329,0.195,0.593
		c0.203-0.261,0.437-0.457,0.702-0.591c0.265-0.133,0.555-0.2,0.869-0.2c0.537,0,0.938,0.176,1.202,0.526
		c0.265,0.351,0.398,0.885,0.398,1.603v1.723c0,0.105,0.006,0.18,0.019,0.225c0.012,0.044,0.036,0.077,0.071,0.1
		c0.028,0.019,0.07,0.043,0.124,0.071c0.13,0.07,0.195,0.143,0.195,0.219c0,0.061-0.024,0.104-0.074,0.129s-0.133,0.038-0.25,0.038
		H7.994c-0.118,0-0.201-0.012-0.25-0.036c-0.049-0.023-0.074-0.063-0.074-0.121c0-0.079,0.052-0.143,0.157-0.19
		c0.032-0.016,0.054-0.026,0.066-0.033c0.111-0.054,0.178-0.104,0.2-0.152c0.022-0.048,0.033-0.137,0.033-0.267v-1.714
		c0-0.533-0.09-0.922-0.269-1.167c-0.179-0.244-0.462-0.366-0.85-0.366c-0.368,0-0.662,0.106-0.881,0.319
		c-0.219,0.213-0.329,0.5-0.329,0.861v2.176c0,0.066,0.005,0.117,0.014,0.15c0.01,0.033,0.027,0.061,0.053,0.083
		c0.028,0.019,0.074,0.045,0.138,0.076c0.124,0.063,0.186,0.132,0.186,0.205c0,0.066-0.025,0.112-0.074,0.138
		c-0.049,0.025-0.142,0.038-0.279,0.038H4.933c-0.121,0-0.204-0.011-0.248-0.033c-0.045-0.022-0.067-0.061-0.067-0.114
		c0-0.048,0.011-0.087,0.033-0.117c0.022-0.029,0.076-0.068,0.162-0.116c0.013-0.006,0.03-0.016,0.052-0.028
		C4.986,66.484,5.047,66.351,5.047,66.151z"/>
	<path fill="#092452" d="M10.441,66.151v-2.176c0-0.308-0.011-0.509-0.034-0.602c-0.022-0.094-0.063-0.163-0.124-0.208
		c-0.038-0.028-0.111-0.063-0.219-0.106s-0.162-0.101-0.162-0.174c0-0.086,0.096-0.2,0.288-0.343
		c0.192-0.143,0.35-0.215,0.474-0.215c0.089,0,0.169,0.066,0.243,0.198s0.138,0.329,0.195,0.593
		c0.203-0.261,0.437-0.457,0.702-0.591c0.265-0.133,0.555-0.2,0.869-0.2c0.537,0,0.938,0.176,1.202,0.526
		c0.265,0.351,0.398,0.885,0.398,1.603v1.723c0,0.105,0.006,0.18,0.019,0.225c0.012,0.044,0.036,0.077,0.071,0.1
		c0.028,0.019,0.07,0.043,0.124,0.071c0.13,0.07,0.195,0.143,0.195,0.219c0,0.061-0.024,0.104-0.074,0.129s-0.133,0.038-0.25,0.038
		h-0.971c-0.118,0-0.201-0.012-0.25-0.036c-0.049-0.023-0.074-0.063-0.074-0.121c0-0.079,0.052-0.143,0.157-0.19
		c0.032-0.016,0.054-0.026,0.066-0.033c0.111-0.054,0.178-0.104,0.2-0.152c0.022-0.048,0.033-0.137,0.033-0.267v-1.714
		c0-0.533-0.09-0.922-0.269-1.167c-0.179-0.244-0.462-0.366-0.85-0.366c-0.368,0-0.662,0.106-0.881,0.319
		c-0.219,0.213-0.329,0.5-0.329,0.861v2.176c0,0.066,0.005,0.117,0.014,0.15c0.01,0.033,0.027,0.061,0.053,0.083
		c0.028,0.019,0.074,0.045,0.138,0.076c0.124,0.063,0.186,0.132,0.186,0.205c0,0.066-0.025,0.112-0.074,0.138
		c-0.049,0.025-0.142,0.038-0.279,0.038h-0.904c-0.121,0-0.204-0.011-0.248-0.033c-0.045-0.022-0.067-0.061-0.067-0.114
		c0-0.048,0.011-0.087,0.033-0.117c0.022-0.029,0.076-0.068,0.162-0.116c0.013-0.006,0.03-0.016,0.052-0.028
		C10.381,66.484,10.441,66.351,10.441,66.151z"/>
	<path fill="#092452" d="M15.321,64.718c0-0.701,0.223-1.275,0.668-1.722c0.446-0.445,1.021-0.669,1.726-0.669
		c0.708,0,1.283,0.223,1.726,0.667c0.443,0.444,0.665,1.019,0.665,1.724c0,0.701-0.222,1.273-0.665,1.716
		c-0.442,0.443-1.018,0.664-1.726,0.664c-0.708,0-1.284-0.221-1.728-0.664C15.543,65.992,15.321,65.419,15.321,64.718z
		 M16.159,64.718c0,0.564,0.143,1.018,0.428,1.359c0.286,0.341,0.662,0.512,1.128,0.512c0.466,0,0.842-0.171,1.126-0.512
		c0.284-0.342,0.426-0.795,0.426-1.359c0-0.568-0.142-1.023-0.426-1.366s-0.66-0.515-1.126-0.515c-0.463,0-0.839,0.173-1.126,0.519
		C16.303,63.703,16.159,64.157,16.159,64.718z"/>
	<path fill="#092452" d="M20.71,62.447h0.919c0.184,0,0.306,0.013,0.367,0.038c0.06,0.025,0.09,0.071,0.09,0.139
		c0,0.035-0.008,0.066-0.024,0.095c-0.016,0.028-0.038,0.053-0.066,0.071c-0.006,0.004-0.021,0.012-0.043,0.024
		c-0.222,0.137-0.333,0.271-0.333,0.404c0,0.193,0.062,0.479,0.186,0.854c0.124,0.376,0.295,0.793,0.514,1.25
		c0.111,0.229,0.215,0.417,0.312,0.566c0.097,0.149,0.191,0.262,0.283,0.338c0.098-0.098,0.197-0.224,0.295-0.376
		c0.099-0.152,0.198-0.335,0.3-0.548c0.213-0.438,0.383-0.857,0.512-1.259c0.128-0.401,0.193-0.691,0.193-0.869
		c0-0.089-0.067-0.183-0.2-0.28c-0.032-0.025-0.056-0.045-0.071-0.058c-0.07-0.054-0.112-0.095-0.126-0.124
		c-0.014-0.028-0.021-0.064-0.021-0.109c0-0.057,0.024-0.098,0.072-0.121c0.047-0.023,0.133-0.036,0.257-0.036h0.695
		c0.13,0,0.224,0.014,0.281,0.041c0.057,0.026,0.086,0.072,0.086,0.136c0,0.073-0.041,0.146-0.122,0.219s-0.128,0.124-0.141,0.152
		c-0.038,0.073-0.098,0.261-0.178,0.562c-0.081,0.302-0.158,0.556-0.231,0.762c-0.283,0.807-0.587,1.472-0.914,1.995
		c-0.327,0.523-0.59,0.785-0.791,0.785c-0.162,0-0.382-0.212-0.662-0.635c-0.279-0.424-0.557-0.974-0.833-1.65
		c-0.14-0.346-0.269-0.72-0.386-1.123c-0.118-0.403-0.19-0.63-0.219-0.681c-0.022-0.035-0.083-0.084-0.181-0.148
		c-0.099-0.062-0.148-0.133-0.148-0.209c0-0.073,0.026-0.125,0.077-0.157C20.508,62.463,20.593,62.447,20.71,62.447z"/>
	<path fill="#092452" d="M28.913,66.208c-0.209,0.295-0.466,0.518-0.771,0.666c-0.305,0.149-0.656,0.224-1.052,0.224
		c-0.473,0-0.848-0.126-1.126-0.378c-0.278-0.253-0.417-0.591-0.417-1.017c0-0.581,0.257-1.026,0.771-1.338
		c0.514-0.311,1.255-0.467,2.224-0.467h0.214c-0.038-0.336-0.18-0.599-0.426-0.788c-0.246-0.188-0.569-0.283-0.969-0.283
		c-0.229,0-0.473,0.076-0.733,0.229s-0.428,0.229-0.504,0.229c-0.089,0-0.163-0.024-0.222-0.073
		c-0.059-0.05-0.088-0.112-0.088-0.188c0-0.2,0.147-0.365,0.443-0.497c0.295-0.132,0.681-0.198,1.157-0.198
		c0.784,0,1.35,0.184,1.697,0.551c0.348,0.366,0.521,0.967,0.521,1.802v1.452c0,0.069,0.009,0.126,0.028,0.169
		s0.068,0.098,0.147,0.164c0.029,0.019,0.075,0.043,0.138,0.071c0.143,0.063,0.214,0.14,0.214,0.229
		c0,0.096-0.052,0.159-0.155,0.193c-0.103,0.033-0.361,0.05-0.773,0.05c-0.121,0-0.204-0.023-0.25-0.069
		c-0.046-0.046-0.069-0.129-0.069-0.25V66.208z M28.856,64.337h-0.128c-0.743,0-1.316,0.116-1.721,0.35s-0.607,0.562-0.607,0.988
		c0,0.257,0.088,0.467,0.264,0.631c0.176,0.163,0.406,0.245,0.688,0.245c0.159,0,0.315-0.021,0.469-0.062
		c0.154-0.041,0.291-0.098,0.412-0.171c0.235-0.146,0.397-0.302,0.488-0.467c0.091-0.165,0.136-0.396,0.136-0.695V64.337z"/>
	<path fill="#092452" d="M34.269,65.78c0.07,0,0.126,0.015,0.169,0.043c0.043,0.028,0.064,0.066,0.064,0.114
		c0,0.092-0.047,0.207-0.143,0.345c-0.095,0.139-0.221,0.268-0.376,0.389c-0.181,0.143-0.381,0.25-0.602,0.321
		s-0.464,0.106-0.731,0.106c-0.593,0-1.083-0.21-1.469-0.631c-0.386-0.42-0.578-0.954-0.578-1.602c0-0.727,0.212-1.331,0.638-1.814
		c0.425-0.482,0.957-0.724,1.595-0.724c0.429,0,0.789,0.09,1.081,0.27s0.438,0.39,0.438,0.631c0,0.104-0.04,0.196-0.119,0.273
		c-0.08,0.078-0.173,0.117-0.281,0.117c-0.13,0-0.267-0.094-0.41-0.281c-0.022-0.028-0.038-0.049-0.047-0.062
		c-0.14-0.182-0.263-0.298-0.369-0.351c-0.106-0.052-0.237-0.078-0.393-0.078c-0.384,0-0.696,0.177-0.936,0.53
		c-0.24,0.354-0.359,0.82-0.359,1.397c0,0.527,0.128,0.948,0.385,1.265c0.257,0.315,0.6,0.474,1.028,0.474
		c0.127,0,0.253-0.018,0.379-0.053c0.125-0.035,0.245-0.086,0.359-0.152c0.14-0.079,0.278-0.188,0.417-0.323
		C34.148,65.848,34.234,65.78,34.269,65.78z"/>
	<path fill="#092452" d="M35.436,63.528c0-0.114-0.012-0.193-0.036-0.238c-0.024-0.044-0.071-0.089-0.141-0.133
		c-0.028-0.02-0.071-0.043-0.128-0.071c-0.114-0.058-0.171-0.118-0.171-0.182c0-0.047,0.017-0.09,0.05-0.128
		c0.034-0.038,0.091-0.079,0.174-0.124l0.067-0.038c0.387-0.203,0.644-0.305,0.771-0.305c0.067,0,0.113,0.03,0.138,0.091
		c0.025,0.06,0.038,0.199,0.038,0.419v3.342c0,0.083,0.01,0.15,0.029,0.205c0.019,0.054,0.047,0.09,0.085,0.109
		c0.044,0.019,0.099,0.041,0.162,0.066c0.165,0.066,0.248,0.145,0.248,0.233c0,0.069-0.027,0.118-0.081,0.146
		c-0.054,0.026-0.156,0.04-0.305,0.04h-1.023c-0.137,0-0.229-0.014-0.279-0.04c-0.049-0.027-0.074-0.072-0.074-0.136
		c0-0.048,0.013-0.089,0.038-0.124s0.071-0.068,0.138-0.101c0.025-0.012,0.06-0.028,0.104-0.047c0.13-0.054,0.195-0.165,0.195-0.334
		V63.528z M35.174,60.933c0-0.146,0.051-0.265,0.155-0.357c0.103-0.092,0.237-0.138,0.402-0.138c0.162,0,0.292,0.046,0.393,0.138
		c0.1,0.093,0.15,0.212,0.15,0.357c0,0.152-0.051,0.273-0.152,0.364s-0.235,0.136-0.4,0.136c-0.168,0-0.302-0.045-0.4-0.136
		C35.223,61.207,35.174,61.085,35.174,60.933z"/>
	<path fill="#092452" d="M37.283,64.718c0-0.701,0.223-1.275,0.668-1.722c0.446-0.445,1.021-0.669,1.726-0.669
		c0.708,0,1.283,0.223,1.726,0.667c0.443,0.444,0.665,1.019,0.665,1.724c0,0.701-0.222,1.273-0.665,1.716
		c-0.442,0.443-1.018,0.664-1.726,0.664c-0.708,0-1.284-0.221-1.728-0.664C37.505,65.992,37.283,65.419,37.283,64.718z
		 M38.121,64.718c0,0.564,0.143,1.018,0.428,1.359c0.286,0.341,0.662,0.512,1.128,0.512c0.466,0,0.842-0.171,1.126-0.512
		c0.284-0.342,0.426-0.795,0.426-1.359c0-0.568-0.142-1.023-0.426-1.366s-0.66-0.515-1.126-0.515c-0.463,0-0.839,0.173-1.126,0.519
		C38.265,63.703,38.121,64.157,38.121,64.718z M38.84,61.804l1.376-1.423c0.111-0.114,0.199-0.19,0.264-0.229
		s0.129-0.058,0.193-0.058c0.104,0,0.189,0.032,0.254,0.096c0.065,0.063,0.098,0.146,0.098,0.247c0,0.066-0.024,0.133-0.074,0.197
		c-0.049,0.065-0.123,0.13-0.221,0.193l-1.571,0.976H38.84z"/>
	<path fill="#092452" d="M43.22,66.151v-2.176c0-0.308-0.011-0.509-0.034-0.602c-0.022-0.094-0.063-0.163-0.124-0.208
		c-0.038-0.028-0.111-0.063-0.219-0.106s-0.162-0.101-0.162-0.174c0-0.086,0.096-0.2,0.288-0.343
		c0.192-0.143,0.35-0.215,0.474-0.215c0.089,0,0.169,0.066,0.243,0.198s0.138,0.329,0.195,0.593
		c0.203-0.261,0.437-0.457,0.702-0.591c0.265-0.133,0.555-0.2,0.869-0.2c0.537,0,0.938,0.176,1.202,0.526
		c0.265,0.351,0.398,0.885,0.398,1.603v1.723c0,0.105,0.006,0.18,0.019,0.225c0.012,0.044,0.036,0.077,0.071,0.1
		c0.028,0.019,0.07,0.043,0.124,0.071c0.13,0.07,0.195,0.143,0.195,0.219c0,0.061-0.024,0.104-0.074,0.129s-0.133,0.038-0.25,0.038
		h-0.971c-0.118,0-0.201-0.012-0.25-0.036c-0.049-0.023-0.074-0.063-0.074-0.121c0-0.079,0.052-0.143,0.157-0.19
		c0.032-0.016,0.054-0.026,0.066-0.033c0.111-0.054,0.178-0.104,0.2-0.152c0.022-0.048,0.033-0.137,0.033-0.267v-1.714
		c0-0.533-0.09-0.922-0.269-1.167c-0.179-0.244-0.462-0.366-0.85-0.366c-0.368,0-0.662,0.106-0.881,0.319
		c-0.219,0.213-0.329,0.5-0.329,0.861v2.176c0,0.066,0.005,0.117,0.014,0.15c0.01,0.033,0.027,0.061,0.053,0.083
		c0.028,0.019,0.074,0.045,0.138,0.076c0.124,0.063,0.186,0.132,0.186,0.205c0,0.066-0.025,0.112-0.074,0.138
		c-0.049,0.025-0.142,0.038-0.279,0.038h-0.904c-0.121,0-0.204-0.011-0.248-0.033c-0.045-0.022-0.067-0.061-0.067-0.114
		c0-0.048,0.011-0.087,0.033-0.117c0.022-0.029,0.076-0.068,0.162-0.116c0.013-0.006,0.03-0.016,0.052-0.028
		C43.16,66.484,43.22,66.351,43.22,66.151z"/>
	<path fill="#092452" d="M53.219,66.56c-0.09,0.048-0.178,0.085-0.266,0.11c-0.086,0.025-0.176,0.038-0.264,0.038
		c-0.42,0-0.771-0.213-1.057-0.639c-0.286-0.425-0.514-1.074-0.682-1.947c-0.031-0.181-0.061-0.398-0.085-0.654
		c-0.026-0.256-0.052-0.41-0.076-0.464c-0.032-0.061-0.095-0.126-0.19-0.198c-0.096-0.071-0.143-0.144-0.143-0.216
		c0-0.055,0.029-0.092,0.086-0.112c0.057-0.021,0.174-0.031,0.352-0.031h0.643c0.219,0,0.357,0.013,0.414,0.038
		s0.086,0.075,0.086,0.147c0,0.076-0.049,0.142-0.148,0.195c-0.021,0.013-0.037,0.022-0.047,0.029
		c-0.105,0.063-0.174,0.13-0.205,0.199c-0.031,0.07-0.047,0.199-0.047,0.386c0,0.2,0.029,0.439,0.09,0.719s0.15,0.583,0.268,0.91
		c0.137,0.377,0.287,0.655,0.455,0.833c0.166,0.178,0.359,0.267,0.578,0.267c0.195,0,0.357-0.062,0.482-0.184
		s0.254-0.356,0.389-0.702c0.119-0.317,0.217-0.655,0.289-1.014c0.074-0.359,0.111-0.678,0.111-0.957
		c0-0.096-0.012-0.175-0.035-0.238c-0.021-0.063-0.057-0.114-0.104-0.152c-0.039-0.028-0.094-0.061-0.168-0.096
		c-0.123-0.057-0.186-0.125-0.186-0.204c0-0.067,0.027-0.113,0.08-0.139c0.051-0.025,0.162-0.038,0.33-0.038h0.52
		c0.172,0,0.289,0.017,0.352,0.048c0.064,0.032,0.096,0.088,0.096,0.167c0,0.035-0.031,0.092-0.094,0.171
		c-0.061,0.08-0.105,0.156-0.131,0.229c-0.031,0.086-0.082,0.344-0.148,0.773c-0.068,0.431-0.152,0.809-0.25,1.136
		c-0.344,1.149-0.828,2.08-1.455,2.792c-0.627,0.713-1.25,1.069-1.869,1.069c-0.171,0-0.305-0.036-0.402-0.109
		c-0.097-0.073-0.145-0.173-0.145-0.3c0-0.102,0.037-0.182,0.113-0.241c0.076-0.059,0.182-0.088,0.314-0.088
		c0.039,0,0.101,0.008,0.186,0.024c0.086,0.016,0.154,0.023,0.205,0.023c0.305,0,0.619-0.144,0.941-0.431
		C52.723,67.423,52.996,67.04,53.219,66.56z"/>
	<path fill="#092452" d="M58.697,66.96c-0.155,0-0.263-0.016-0.321-0.048c-0.059-0.031-0.088-0.087-0.088-0.166
		c0-0.086,0.081-0.173,0.242-0.263c0.067-0.034,0.119-0.064,0.157-0.09c0.058-0.038,0.099-0.097,0.124-0.177
		c0.025-0.079,0.038-0.201,0.038-0.366v-4.827c0-0.14-0.007-0.243-0.021-0.31s-0.039-0.122-0.073-0.167
		c-0.032-0.041-0.118-0.099-0.258-0.171c-0.14-0.073-0.209-0.154-0.209-0.243c0-0.076,0.029-0.131,0.088-0.164
		s0.166-0.05,0.321-0.05h1.176c0.197,0,0.326,0.014,0.389,0.043c0.062,0.028,0.093,0.079,0.093,0.152
		c0,0.104-0.085,0.191-0.253,0.262c-0.089,0.038-0.158,0.071-0.209,0.1c-0.067,0.041-0.114,0.103-0.141,0.184
		c-0.027,0.081-0.041,0.202-0.041,0.364v4.67c0,0.337,0.061,0.544,0.182,0.621c0.12,0.078,0.473,0.117,1.057,0.117
		c0.518,0,0.909-0.022,1.176-0.066c0.267-0.045,0.508-0.119,0.724-0.225c0.083-0.041,0.203-0.114,0.362-0.221
		c0.158-0.106,0.271-0.16,0.338-0.16c0.057,0,0.098,0.017,0.121,0.048c0.024,0.032,0.036,0.084,0.036,0.157
		c0,0.178-0.019,0.354-0.055,0.526c-0.037,0.173-0.071,0.281-0.103,0.326c-0.041,0.051-0.103,0.087-0.184,0.109
		s-0.247,0.033-0.497,0.033H58.697z"/>
	<path fill="#092452" d="M64.496,63.528c0-0.114-0.012-0.193-0.036-0.238c-0.023-0.044-0.07-0.089-0.14-0.133
		c-0.029-0.02-0.071-0.043-0.129-0.071c-0.114-0.058-0.171-0.118-0.171-0.182c0-0.047,0.017-0.09,0.05-0.128
		s0.091-0.079,0.174-0.124l0.066-0.038c0.387-0.203,0.645-0.305,0.771-0.305c0.066,0,0.112,0.03,0.138,0.091
		c0.025,0.06,0.038,0.199,0.038,0.419v3.342c0,0.083,0.01,0.15,0.028,0.205c0.02,0.054,0.048,0.09,0.086,0.109
		c0.045,0.019,0.099,0.041,0.162,0.066c0.165,0.066,0.247,0.145,0.247,0.233c0,0.069-0.026,0.118-0.081,0.146
		c-0.054,0.026-0.155,0.04-0.305,0.04h-1.023c-0.137,0-0.229-0.014-0.278-0.04c-0.049-0.027-0.073-0.072-0.073-0.136
		c0-0.048,0.012-0.089,0.038-0.124c0.024-0.035,0.071-0.068,0.138-0.101c0.025-0.012,0.061-0.028,0.104-0.047
		c0.13-0.054,0.195-0.165,0.195-0.334V63.528z M64.234,60.933c0-0.146,0.052-0.265,0.154-0.357c0.104-0.092,0.237-0.138,0.402-0.138
		c0.162,0,0.293,0.046,0.393,0.138c0.101,0.093,0.15,0.212,0.15,0.357c0,0.152-0.051,0.273-0.152,0.364s-0.235,0.136-0.399,0.136
		c-0.169,0-0.302-0.045-0.4-0.136S64.234,61.085,64.234,60.933z"/>
	<path fill="#092452" d="M69.947,66.442c-0.226,0.219-0.472,0.383-0.74,0.492s-0.558,0.164-0.869,0.164
		c-0.605,0-1.104-0.21-1.492-0.631c-0.389-0.42-0.583-0.961-0.583-1.621c0-0.732,0.212-1.336,0.636-1.809s0.962-0.71,1.616-0.71
		c0.238,0,0.469,0.034,0.692,0.101s0.438,0.166,0.646,0.3v-1.676c0-0.127-0.02-0.223-0.058-0.288s-0.103-0.118-0.195-0.159
		c-0.038-0.02-0.09-0.042-0.157-0.067c-0.136-0.054-0.204-0.112-0.204-0.176c0-0.031,0.015-0.068,0.045-0.109
		s0.07-0.081,0.121-0.119c0.172-0.117,0.339-0.209,0.503-0.276c0.163-0.066,0.298-0.1,0.402-0.1c0.107,0,0.184,0.04,0.229,0.121
		c0.044,0.081,0.066,0.228,0.066,0.44v5.451c0,0.165,0.006,0.293,0.017,0.384c0.011,0.09,0.031,0.154,0.06,0.192
		c0.038,0.054,0.134,0.116,0.286,0.186c0.152,0.07,0.229,0.151,0.229,0.243c0,0.063-0.025,0.11-0.074,0.141
		s-0.128,0.045-0.235,0.045h-0.486c-0.148,0-0.248-0.028-0.297-0.086C70.053,66.818,70.001,66.673,69.947,66.442z M69.853,63.333
		c-0.156-0.165-0.341-0.292-0.555-0.381c-0.215-0.089-0.439-0.133-0.674-0.133c-0.46,0-0.829,0.177-1.107,0.53
		c-0.277,0.354-0.416,0.829-0.416,1.426c0,0.546,0.129,0.976,0.386,1.288s0.609,0.469,1.057,0.469c0.219,0,0.43-0.034,0.633-0.104
		c0.203-0.069,0.373-0.165,0.51-0.286c0.061-0.05,0.104-0.111,0.129-0.183s0.038-0.184,0.038-0.336v-0.076V63.333z"/>
	<path fill="#092452" d="M72.585,65.285c0.079,0.371,0.249,0.666,0.51,0.883c0.26,0.218,0.571,0.326,0.933,0.326
		c0.194,0,0.377-0.023,0.548-0.071c0.172-0.048,0.34-0.122,0.505-0.224c0.079-0.048,0.178-0.116,0.295-0.205
		c0.162-0.117,0.269-0.176,0.319-0.176s0.093,0.019,0.126,0.057s0.05,0.088,0.05,0.148c0,0.098-0.065,0.216-0.197,0.354
		c-0.132,0.138-0.308,0.271-0.526,0.397c-0.184,0.107-0.378,0.188-0.583,0.243c-0.205,0.054-0.42,0.08-0.646,0.08
		c-0.669,0-1.204-0.199-1.604-0.597c-0.399-0.398-0.6-0.932-0.6-1.598c0-0.73,0.237-1.342,0.712-1.835
		c0.475-0.494,1.06-0.741,1.754-0.741c0.53,0,0.938,0.11,1.224,0.329c0.286,0.219,0.429,0.528,0.429,0.929
		c0,0.473-0.264,0.847-0.793,1.121C74.511,64.981,73.693,65.173,72.585,65.285z M72.514,64.794c0.863-0.083,1.497-0.228,1.902-0.436
		c0.404-0.208,0.606-0.488,0.606-0.841c0-0.234-0.081-0.419-0.245-0.552c-0.163-0.134-0.388-0.2-0.674-0.2
		c-0.466,0-0.848,0.181-1.145,0.543c-0.297,0.361-0.445,0.831-0.445,1.409V64.794z"/>
	<path fill="#092452" d="M77.032,65.985V63.89c0-0.2-0.016-0.342-0.046-0.424c-0.029-0.083-0.08-0.149-0.149-0.2
		c-0.051-0.041-0.127-0.084-0.229-0.129c-0.146-0.066-0.219-0.147-0.219-0.242c0-0.038,0.021-0.085,0.062-0.141
		s0.099-0.11,0.172-0.164c0.101-0.08,0.194-0.142,0.278-0.187c0.084-0.044,0.149-0.066,0.197-0.066c0.146,0,0.271,0.117,0.374,0.353
		c0.103,0.235,0.164,0.546,0.183,0.934c0.162-0.42,0.354-0.743,0.576-0.972c0.223-0.229,0.452-0.343,0.69-0.343
		c0.168,0,0.299,0.062,0.391,0.188c0.092,0.125,0.138,0.304,0.138,0.535c0,0.073-0.022,0.133-0.068,0.181s-0.105,0.071-0.179,0.071
		c-0.076,0-0.181-0.032-0.312-0.098c-0.132-0.064-0.225-0.098-0.279-0.098c-0.209,0-0.4,0.179-0.573,0.534s-0.26,0.788-0.26,1.299
		v1.043c0,0.2,0.012,0.33,0.036,0.391c0.023,0.061,0.065,0.104,0.126,0.128c0.048,0.02,0.122,0.042,0.224,0.067
		c0.193,0.051,0.29,0.128,0.29,0.233c0,0.063-0.024,0.108-0.073,0.136c-0.05,0.026-0.143,0.04-0.278,0.04h-1.219
		c-0.134,0-0.223-0.012-0.267-0.036c-0.045-0.023-0.067-0.067-0.067-0.131c0-0.082,0.072-0.158,0.215-0.229
		c0.076-0.038,0.132-0.067,0.166-0.09c0.038-0.025,0.064-0.063,0.079-0.114c0.014-0.051,0.021-0.137,0.021-0.258V65.985z"/>
	<path fill="#092452" d="M83.126,66.208c-0.21,0.295-0.467,0.518-0.771,0.666c-0.305,0.149-0.655,0.224-1.053,0.224
		c-0.473,0-0.848-0.126-1.126-0.378c-0.277-0.253-0.416-0.591-0.416-1.017c0-0.581,0.257-1.026,0.771-1.338
		c0.514-0.311,1.255-0.467,2.223-0.467h0.215c-0.038-0.336-0.181-0.599-0.427-0.788c-0.245-0.188-0.568-0.283-0.969-0.283
		c-0.229,0-0.473,0.076-0.732,0.229c-0.261,0.152-0.429,0.229-0.505,0.229c-0.089,0-0.163-0.024-0.222-0.073
		c-0.059-0.05-0.088-0.112-0.088-0.188c0-0.2,0.147-0.365,0.442-0.497c0.296-0.132,0.681-0.198,1.157-0.198
		c0.784,0,1.35,0.184,1.697,0.551c0.348,0.366,0.521,0.967,0.521,1.802v1.452c0,0.069,0.01,0.126,0.028,0.169
		c0.02,0.043,0.068,0.098,0.147,0.164c0.028,0.019,0.074,0.043,0.139,0.071c0.143,0.063,0.214,0.14,0.214,0.229
		c0,0.096-0.052,0.159-0.155,0.193c-0.103,0.033-0.36,0.05-0.773,0.05c-0.12,0-0.204-0.023-0.25-0.069s-0.068-0.129-0.068-0.25
		V66.208z M83.068,64.337h-0.129c-0.742,0-1.315,0.116-1.721,0.35c-0.404,0.233-0.606,0.562-0.606,0.988
		c0,0.257,0.088,0.467,0.264,0.631c0.176,0.163,0.405,0.245,0.688,0.245c0.158,0,0.314-0.021,0.469-0.062
		c0.153-0.041,0.291-0.098,0.411-0.171c0.235-0.146,0.398-0.302,0.488-0.467c0.091-0.165,0.136-0.396,0.136-0.695V64.337z"/>
	<path fill="#092452" d="M85.088,66.96c-0.226,0-0.38-0.02-0.462-0.058c-0.083-0.038-0.124-0.103-0.124-0.194
		c0-0.2,0.17-0.518,0.51-0.952l0.038-0.043l0.495-0.619c0.936-1.171,1.479-1.892,1.628-2.161h-1.162
		c-0.187,0-0.326,0.009-0.416,0.028c-0.091,0.019-0.159,0.052-0.207,0.1c-0.055,0.051-0.119,0.129-0.195,0.233
		c-0.108,0.155-0.208,0.233-0.3,0.233c-0.051,0-0.087-0.018-0.107-0.053c-0.021-0.034-0.031-0.098-0.031-0.19
		c0-0.311,0.049-0.528,0.146-0.652c0.097-0.123,0.273-0.186,0.531-0.186h2.014c0.226,0,0.378,0.025,0.457,0.074
		s0.119,0.134,0.119,0.255c0,0.19-0.314,0.683-0.943,1.476c-0.19,0.244-0.341,0.435-0.452,0.571
		c-0.14,0.185-0.323,0.419-0.552,0.705c-0.384,0.482-0.576,0.755-0.576,0.818c0,0.051,0.017,0.087,0.05,0.107s0.098,0.03,0.193,0.03
		h0.156l0.667-0.033c0.247-0.009,0.449-0.037,0.604-0.083s0.261-0.107,0.314-0.184c0.022-0.031,0.048-0.069,0.076-0.114
		c0.137-0.206,0.246-0.31,0.328-0.31c0.061,0,0.103,0.017,0.126,0.048c0.024,0.032,0.036,0.088,0.036,0.167
		c0,0.162-0.02,0.331-0.06,0.507s-0.077,0.29-0.112,0.341c-0.038,0.051-0.088,0.086-0.149,0.106s-0.188,0.031-0.379,0.031H85.088z"
		/>
	<path fill="#092452" d="M91.834,66.336c0.346,0.124,0.603,0.278,0.771,0.462c0.169,0.185,0.253,0.403,0.253,0.657
		c0,0.435-0.214,0.781-0.641,1.038s-1.004,0.386-1.73,0.386c-0.622,0-1.103-0.076-1.442-0.227s-0.51-0.364-0.51-0.641
		c0-0.155,0.054-0.293,0.162-0.414c0.107-0.12,0.229-0.181,0.366-0.181c0.045,0,0.082,0.018,0.112,0.053
		c0.03,0.034,0.045,0.079,0.045,0.133c0,0.028-0.008,0.066-0.023,0.112c-0.017,0.046-0.024,0.076-0.024,0.093
		c0,0.146,0.115,0.259,0.346,0.338c0.229,0.079,0.556,0.119,0.979,0.119c0.508,0,0.899-0.069,1.176-0.207
		c0.276-0.139,0.414-0.336,0.414-0.593c0-0.175-0.062-0.327-0.188-0.457c-0.125-0.13-0.329-0.254-0.611-0.372
		c-0.19,0.038-0.35,0.066-0.479,0.084s-0.235,0.026-0.321,0.026c-0.597,0-1.084-0.205-1.462-0.614
		c-0.378-0.41-0.566-0.939-0.566-1.591c0-0.656,0.193-1.189,0.581-1.6c0.387-0.409,0.892-0.614,1.514-0.614
		c0.175,0,0.401,0.019,0.681,0.056c0.279,0.036,0.477,0.055,0.591,0.055c0.025,0,0.116-0.004,0.273-0.01
		c0.157-0.007,0.299-0.01,0.427-0.01c0.155,0,0.273,0.025,0.354,0.076S93,62.621,93,62.718c0,0.104-0.049,0.181-0.146,0.227
		s-0.263,0.068-0.497,0.068c-0.007,0-0.022-0.001-0.048-0.004c-0.089-0.004-0.173-0.005-0.252-0.005
		c0.19,0.184,0.337,0.407,0.44,0.669c0.103,0.262,0.154,0.542,0.154,0.84c0,0.371-0.069,0.71-0.207,1.017
		S92.104,66.105,91.834,66.336z M89.268,64.513c0,0.556,0.111,0.983,0.333,1.283c0.223,0.3,0.54,0.45,0.952,0.45
		c0.422,0,0.744-0.148,0.967-0.445c0.222-0.297,0.333-0.727,0.333-1.288c0-0.53-0.114-0.941-0.343-1.235s-0.548-0.44-0.957-0.44
		c-0.406,0-0.722,0.146-0.947,0.438S89.268,63.98,89.268,64.513z"/>
	<path fill="#092452" d="M93.386,64.718c0-0.701,0.223-1.275,0.669-1.722c0.445-0.445,1.021-0.669,1.726-0.669
		c0.708,0,1.283,0.223,1.726,0.667c0.443,0.444,0.664,1.019,0.664,1.724c0,0.701-0.221,1.273-0.664,1.716
		c-0.442,0.443-1.018,0.664-1.726,0.664s-1.284-0.221-1.729-0.664C93.607,65.992,93.386,65.419,93.386,64.718z M94.224,64.718
		c0,0.564,0.143,1.018,0.429,1.359c0.285,0.341,0.661,0.512,1.128,0.512s0.842-0.171,1.126-0.512
		c0.284-0.342,0.426-0.795,0.426-1.359c0-0.568-0.142-1.023-0.426-1.366s-0.659-0.515-1.126-0.515c-0.464,0-0.839,0.173-1.126,0.519
		C94.367,63.703,94.224,64.157,94.224,64.718z"/>
</g>
<path fill-rule="evenodd" fill="#092452" d="M72.008,52.399c0.001-1.493,1.227-2.654,2.794-2.649
	c1.496,0.002,2.689,1.181,2.691,2.657c0.003,1.531-1.203,2.693-2.798,2.688C73.211,55.09,72.007,53.88,72.008,52.399z
	 M74.787,54.556c1.148-0.001,2.039-0.938,2.032-2.134c-0.01-1.21-0.933-2.166-2.081-2.153c-1.151,0.012-2.059,0.961-2.058,2.149
	C72.682,53.635,73.592,54.561,74.787,54.556z"/>
<path fill-rule="evenodd" fill="#092452" d="M73.725,51.137c0.571-0.071,1.139-0.163,1.702,0.009
	c0.294,0.09,0.474,0.299,0.495,0.622c0.021,0.31-0.135,0.507-0.402,0.634c-0.037,0.019-0.072,0.038-0.138,0.075
	c0.537,0.279,0.415,0.852,0.656,1.311c-0.222,0-0.405,0.008-0.589-0.006c-0.044-0.003-0.102-0.077-0.121-0.131
	c-0.052-0.142-0.093-0.29-0.129-0.438c-0.095-0.387-0.203-0.474-0.604-0.476c-0.079,0-0.158,0-0.271,0c0,0.353,0,0.689,0,1.039
	c-0.218,0-0.402,0-0.601,0C73.725,52.898,73.725,52.028,73.725,51.137z M74.362,52.322c0.208-0.019,0.397-0.02,0.577-0.056
	c0.193-0.039,0.334-0.159,0.327-0.374c-0.009-0.209-0.142-0.341-0.341-0.367c-0.181-0.023-0.367-0.005-0.563-0.005
	C74.362,51.784,74.362,52.028,74.362,52.322z"/>
</svg>
