<?xml version="1.0" encoding="utf-8"?>
<!-- Generator: Adobe Illustrator 16.0.0, SVG Export Plug-In . SVG Version: 6.00 Build 0)  -->
<!DOCTYPE svg PUBLIC "-//W3C//DTD SVG 1.1 Tiny//EN" "http://www.w3.org/Graphics/SVG/1.1/DTD/svg11-tiny.dtd">
<svg version="1.1" baseProfile="tiny" id="Layer_1" xmlns="http://www.w3.org/2000/svg" xmlns:xlink="http://www.w3.org/1999/xlink"
	 x="0px" y="0px" width="200px" height="200px" viewBox="0 0 200 200" xml:space="preserve">
<g>
	<g>
		<circle fill-rule="evenodd" fill="#D81F26" cx="110.835" cy="77.128" r="6.377"/>
		<circle fill-rule="evenodd" fill="#D81F26" cx="102.117" cy="68.695" r="4.265"/>
		<circle fill-rule="evenodd" fill="#D81F26" cx="136.9" cy="104.138" r="10.606"/>
		<circle fill-rule="evenodd" fill="#D81F26" cx="122.599" cy="88.966" r="8.441"/>
	</g>
	<g>
		<circle fill-rule="evenodd" fill="#D81F26" cx="81.123" cy="77.258" r="6.376"/>
		<circle fill-rule="evenodd" fill="#D81F26" cx="89.713" cy="68.695" r="4.265"/>
		<circle fill-rule="evenodd" fill="#D81F26" cx="54.912" cy="104.138" r="10.606"/>
		<circle fill-rule="evenodd" fill="#D81F26" cx="69.432" cy="89.366" r="8.441"/>
	</g>
	<g>
		<circle fill-rule="evenodd" fill="#D81F26" cx="110.593" cy="47.75" r="6.376"/>
		<circle fill-rule="evenodd" fill="#D81F26" cx="102.065" cy="56.273" r="4.265"/>
		<circle fill-rule="evenodd" fill="#D81F26" cx="137.306" cy="21.437" r="10.606"/>
		<circle fill-rule="evenodd" fill="#D81F26" cx="122.502" cy="36.068" r="8.442"/>
	</g>
	<g>
		<circle fill-rule="evenodd" fill="#D81F26" cx="81.326" cy="47.558" r="6.376"/>
		<circle fill-rule="evenodd" fill="#D81F26" cx="89.643" cy="56.221" r="4.265"/>
		<circle fill-rule="evenodd" fill="#D81F26" cx="54.095" cy="21.509" r="10.606"/>
		<circle fill-rule="evenodd" fill="#D81F26" cx="69.117" cy="35.91" r="8.441"/>
	</g>
</g>
<g>
	<text transform="matrix(1 0 0 1 25.166 158.4463)" fill="#092452" font-family="'SouvenirITCbyBT-Light'" font-size="58.6785">exaris</text>
</g>
<g>
	<text transform="matrix(1 0 0 1 61.7168 182.9863)" fill="#092452" font-family="'SouvenirITCbyBT-Light'" font-size="20.7149">medical</text>
</g>
<g>
	<text transform="matrix(1 0 0 1 168.6279 159.1934)" fill="#092452" font-family="'ArialMT'" font-size="6.9492">Æ</text>
</g>
</svg>
