<?xml version="1.0" encoding="utf-8"?>
<!-- Generator: Adobe Illustrator 16.0.0, SVG Export Plug-In . SVG Version: 6.00 Build 0)  -->
<!DOCTYPE svg PUBLIC "-//W3C//DTD SVG 1.1 Tiny//EN" "http://www.w3.org/Graphics/SVG/1.1/DTD/svg11-tiny.dtd">
<svg version="1.1" baseProfile="tiny" id="Layer_1" xmlns="http://www.w3.org/2000/svg" xmlns:xlink="http://www.w3.org/1999/xlink"
	 x="0px" y="0px" width="200px" height="200px" viewBox="0 0 200 200" xml:space="preserve">
<g>
	<g>
		<circle fill-rule="evenodd" fill="#D81F26" cx="110.698" cy="77.418" r="6.377"/>
		<circle fill-rule="evenodd" fill="#D81F26" cx="101.979" cy="68.985" r="4.265"/>
		<circle fill-rule="evenodd" fill="#D81F26" cx="136.763" cy="104.428" r="10.606"/>
		<circle fill-rule="evenodd" fill="#D81F26" cx="122.461" cy="89.256" r="8.442"/>
	</g>
	<g>
		<circle fill-rule="evenodd" fill="#D81F26" cx="80.985" cy="77.547" r="6.376"/>
		<circle fill-rule="evenodd" fill="#D81F26" cx="89.576" cy="68.985" r="4.265"/>
		<circle fill-rule="evenodd" fill="#D81F26" cx="54.774" cy="104.428" r="10.606"/>
		<circle fill-rule="evenodd" fill="#D81F26" cx="69.294" cy="89.656" r="8.442"/>
	</g>
	<g>
		<circle fill-rule="evenodd" fill="#D81F26" cx="110.455" cy="48.04" r="6.377"/>
		<circle fill-rule="evenodd" fill="#D81F26" cx="101.928" cy="56.563" r="4.265"/>
		<circle fill-rule="evenodd" fill="#D81F26" cx="137.168" cy="21.726" r="10.606"/>
		<circle fill-rule="evenodd" fill="#D81F26" cx="122.364" cy="36.358" r="8.442"/>
	</g>
	<g>
		<circle fill-rule="evenodd" fill="#D81F26" cx="81.188" cy="47.848" r="6.377"/>
		<circle fill-rule="evenodd" fill="#D81F26" cx="89.505" cy="56.511" r="4.265"/>
		<circle fill-rule="evenodd" fill="#D81F26" cx="53.958" cy="21.798" r="10.606"/>
		<circle fill-rule="evenodd" fill="#D81F26" cx="68.979" cy="36.2" r="8.441"/>
	</g>
</g>
<g>
	<text transform="matrix(1 0 0 1 25.0283 158.7363)" fill="#092452" font-family="'SouvenirITCbyBT-Light'" font-size="58.6786">exaris</text>
</g>
<g>
	<text transform="matrix(1 0 0 1 70.5146 183.2773)" fill="#092452" font-family="'SouvenirITCbyBT-Light'" font-size="20.7149">safety</text>
</g>
<g>
	<text transform="matrix(1 0 0 1 168.4902 159.4824)" fill="#092452" font-family="'ArialMT'" font-size="6.9492">Æ</text>
</g>
</svg>
