<?xml version="1.0" encoding="utf-8"?>
<!-- Generator: Adobe Illustrator 16.0.0, SVG Export Plug-In . SVG Version: 6.00 Build 0)  -->
<!DOCTYPE svg PUBLIC "-//W3C//DTD SVG 1.1 Tiny//EN" "http://www.w3.org/Graphics/SVG/1.1/DTD/svg11-tiny.dtd">
<svg version="1.1" baseProfile="tiny" id="Layer_1" xmlns="http://www.w3.org/2000/svg" xmlns:xlink="http://www.w3.org/1999/xlink"
	 x="0px" y="0px" width="50px" height="50px" viewBox="0 0 50 50" xml:space="preserve">
<path fill="#36609F" d="M-62,0v50h50V0H-62z M-31.644,25.01h-3.504c0,5.599,0,12.491,0,12.491h-5.191c0,0,0-6.824,0-12.491h-2.469
	v-4.414h2.469V17.74c0-2.042,0.971-5.24,5.239-5.24l3.845,0.015V16.8c0,0-2.338,0-2.791,0c-0.454,0-1.102,0.229-1.102,1.203v2.594
	h3.958L-31.644,25.01z"/>
<path fill="#2AA9E0" d="M0,0v50h50V0H0z M34.94,19.904c0.011,0.22,0.017,0.439,0.017,0.662c0,6.777-5.16,14.594-14.594,14.594
	c-2.898,0-5.592-0.848-7.863-2.305c0.402,0.05,0.81,0.07,1.224,0.07c2.404,0,4.614-0.818,6.369-2.194
	c-2.243-0.04-4.139-1.523-4.79-3.562c0.312,0.062,0.633,0.092,0.964,0.092c0.468,0,0.922-0.062,1.351-0.181
	c-2.344-0.469-4.114-2.545-4.114-5.03c0-0.02,0-0.042,0-0.062c0.693,0.383,1.483,0.616,2.324,0.64
	c-1.376-0.918-2.281-2.49-2.281-4.269c0-0.94,0.253-1.819,0.694-2.579c2.529,3.104,6.31,5.146,10.571,5.358
	c-0.087-0.375-0.133-0.766-0.133-1.168c0-2.832,2.297-5.126,5.13-5.126c1.476,0,2.808,0.622,3.743,1.617
	c1.167-0.229,2.266-0.656,3.258-1.242c-0.386,1.197-1.196,2.204-2.256,2.835c1.037-0.123,2.026-0.397,2.944-0.807
	C36.812,18.277,35.943,19.18,34.94,19.904z"/>
</svg>
