<?xml version="1.0" encoding="utf-8"?>
<!-- Generator: Adobe Illustrator 16.0.0, SVG Export Plug-In . SVG Version: 6.00 Build 0)  -->
<!DOCTYPE svg PUBLIC "-//W3C//DTD SVG 1.1 Tiny//EN" "http://www.w3.org/Graphics/SVG/1.1/DTD/svg11-tiny.dtd">
<svg version="1.1" baseProfile="tiny" id="Layer_1" xmlns="http://www.w3.org/2000/svg" xmlns:xlink="http://www.w3.org/1999/xlink"
	 x="0px" y="0px" width="75.5px" height="75.5px" viewBox="0 0 75.5 75.5" xml:space="preserve">
<g>
	<path fill="#FFFFFF" d="M59.92,54.16c3.158-0.001,5.626,2.472,5.635,5.644c0.011,3.131-2.592,5.73-5.733,5.73
		c-3.162-0.002-5.731-2.598-5.731-5.787C54.09,56.482,56.516,54.16,59.92,54.16z"/>
	<path fill="#FFFFFF" d="M16.076,54.128c2.81,0.03,5.313,2.207,5.696,4.981c0.405,2.94-1.69,5.744-4.622,6.197
		c-1.416,0.219-2.773,0.05-4.032-0.644c-1.816-0.997-2.739-2.585-2.795-4.631c-0.083-3.002,1.675-5.169,4.611-5.77
		C15.309,54.187,15.695,54.17,16.076,54.128z"/>
	<path fill="#FFFFFF" d="M15.591,21.386c-2.83,0.028-5.754-2.301-5.762-5.649c-0.006-3.171,2.689-5.773,5.935-5.727
		c3.073,0.046,5.537,2.558,5.511,5.885C21.252,18.927,18.714,21.392,15.591,21.386z"/>
	<path fill="#FFFFFF" d="M65.669,15.676c0.004,3.141-2.499,5.685-5.583,5.702c-2.55,0.015-5.78-2.08-5.784-5.806
		c-0.005-2.82,2.604-5.46,5.274-5.597C63.497,9.773,65.731,12.914,65.669,15.676z"/>
	<path fill="#FFFFFF" d="M23.481,27.899c-2.47-0.047-4.153-1.583-4.428-4.082c-0.239-2.166,1.339-4.297,3.542-4.787
		c2.245-0.5,4.52,0.628,5.314,2.667c0.852,2.188,0.106,5.114-3.077,5.977C24.395,27.792,23.933,27.826,23.481,27.899z"/>
	<path fill="#FFFFFF" d="M47.639,51.659c-0.057-2.331,1.703-4.206,4.178-4.428c2.289-0.204,4.279,1.24,4.792,3.249
		c0.317,1.253,0.221,2.485-0.423,3.624c-0.7,1.241-1.835,1.859-3.213,1.994c-1.643,0.161-3.106-0.287-4.265-1.516
		C47.953,53.782,47.618,52.807,47.639,51.659z"/>
	<path fill="#FFFFFF" d="M52.291,28.021c-2.653-0.002-4.751-1.981-4.755-4.466c-0.002-2.936,2.373-4.582,4.63-4.562
		c2.209,0.019,4.503,1.511,4.475,4.385C56.618,25.644,54.913,28.057,52.291,28.021z"/>
	<path fill="#FFFFFF" d="M28.385,52.06c0,2.246-1.766,4.122-4.014,4.299c-1.178,0.092-2.281-0.101-3.277-0.75
		c-1.809-1.179-2.73-4.098-0.886-6.418c1.221-1.538,3.244-2.144,5.043-1.513C27.089,48.325,28.385,50.135,28.385,52.06z"/>
	<path fill="#FFFFFF" d="M45.923,48.872c-1.961-0.01-3.509-1.572-3.506-3.537c0.004-1.957,1.513-3.344,3.62-3.331
		c1.928,0.013,3.352,1.469,3.345,3.421C49.377,47.332,47.823,48.88,45.923,48.872z"/>
	<path fill="#FFFFFF" d="M45.768,26.318c1.653-0.052,3.711,1.514,3.502,3.772c-0.142,1.542-1.447,2.869-2.988,3.002
		c-1.273,0.111-2.396-0.217-3.229-1.216c-0.864-1.034-0.956-2.238-0.519-3.472c0.412-1.17,1.324-1.774,2.51-2
		C45.282,26.361,45.526,26.347,45.768,26.318z"/>
	<path fill="#FFFFFF" d="M30.09,48.816c-1.521-0.012-2.766-0.794-3.27-2.054c-0.877-2.189,0.443-4.383,2.782-4.652
		c0.599-0.069,1.18-0.044,1.747,0.149c1.23,0.42,2.066,1.562,2.146,2.896c0.072,1.203-0.222,2.255-1.238,3.002
		C31.617,48.628,30.881,48.82,30.09,48.816z"/>
	<path fill="#FFFFFF" d="M26.688,29.645c-0.006-1.818,1.438-3.49,3.665-3.419c1.828,0.057,3.27,1.58,3.253,3.509
		c-0.016,1.837-1.679,3.356-3.65,3.337C28.143,33.053,26.67,31.509,26.688,29.645z"/>
	<path fill="#FFFFFF" d="M43.581,34.266c-0.004,1.329-0.98,2.303-2.317,2.307c-1.429,0.005-2.402-0.969-2.4-2.401
		c0.003-1.288,0.993-2.177,2.421-2.176C42.579,32,43.583,32.993,43.581,34.266z"/>
	<path fill="#FFFFFF" d="M34.641,36.469c-0.903-0.017-1.694-0.289-2.147-1.129c-0.611-1.133-0.255-2.9,1.581-3.297
		c0.552-0.12,1.102-0.107,1.625,0.129c0.938,0.426,1.454,1.532,1.243,2.647c-0.174,0.914-1,1.589-2.021,1.648
		C34.829,36.472,34.734,36.469,34.641,36.469z"/>
	<path fill="#FFFFFF" d="M32.376,40.967c-0.003-1.388,0.944-2.341,2.324-2.342c1.303-0.003,2.176,0.891,2.179,2.228
		c0.001,1.406-0.934,2.37-2.298,2.37C33.28,43.223,32.379,42.302,32.376,40.967z"/>
	<path fill="#FFFFFF" d="M41.355,38.625c1.261,0,2.111,0.896,2.113,2.228c0.002,1.386-0.916,2.377-2.198,2.375
		c-1.28-0.001-2.25-1.046-2.245-2.419C39.026,39.492,39.952,38.625,41.355,38.625z"/>
</g>
</svg>
